<svg xmlns="http://www.w3.org/2000/svg" xmlns:xlink="http://www.w3.org/1999/xlink" width="16" height="16" viewBox="0 0 16 16" fill="none"><path d="M5.1133 3.00001L2.22656 4.66668L2.22656 8.00001L2.22656 11.3333L5.1133 13L8.00006 14.6667L10.8868 13L13.7736 11.3333L13.7736 8.00001L13.7736 4.66668L10.8868 3.00001L8.00006 1.33334L5.1133 3.00001Z" stroke="rgba(136, 137, 148, 1)" stroke-width="1" stroke-linejoin="round" stroke-linecap="round" ></path><path    stroke="rgba(136, 137, 148, 1)" stroke-width="1" stroke-linejoin="round" stroke-linecap="round"  d="M8.00023 7.99999L4.53613 9.99999M8.00023 7.99999L8.00023 3.66666L8.00023 7.99999ZM8.00023 7.99999L11.4643 9.99999L8.00023 7.99999Z"></path><path    stroke="rgba(136, 137, 148, 1)" stroke-width="1" stroke-linejoin="round" stroke-linecap="round"  d="M8.93841 11.7917L8.00021 12.3333L7.06201 11.7917"></path><path    stroke="rgba(136, 137, 148, 1)" stroke-width="1" stroke-linejoin="round" stroke-linecap="round"  d="M10.8145 5.29166L11.7527 5.83332L11.7527 6.91666"></path><path    stroke="rgba(136, 137, 148, 1)" stroke-width="1" stroke-linejoin="round" stroke-linecap="round"  d="M4.24707 6.91666L4.24707 5.83332L5.18527 5.29166"></path></svg>