<svg xmlns="http://www.w3.org/2000/svg" xmlns:xlink="http://www.w3.org/1999/xlink" width="16" height="16" viewBox="0 0 16 16" fill="none"><path d="M5.99903 2L2.66569 2C2.2975 2 1.99902 2.29848 1.99902 2.66667L1.99902 6C1.99902 6.3682 2.2975 6.66667 2.66569 6.66667L5.99903 6.66667C6.36723 6.66667 6.66569 6.3682 6.66569 6L6.66569 2.66667C6.66569 2.29848 6.36723 2 5.99903 2Z" stroke="rgba(136, 137, 148, 1)" stroke-width="1" stroke-linejoin="round"  ></path><path d="M5.99903 9.33337L2.66569 9.33337C2.2975 9.33337 1.99902 9.63184 1.99902 10L1.99902 13.3334C1.99902 13.7016 2.2975 14 2.66569 14L5.99903 14C6.36723 14 6.66569 13.7016 6.66569 13.3334L6.66569 10C6.66569 9.63184 6.36723 9.33337 5.99903 9.33337Z" stroke="rgba(136, 137, 148, 1)" stroke-width="1" stroke-linejoin="round"  ></path><path d="M13.332 2L9.9987 2C9.6305 2 9.33203 2.29848 9.33203 2.66667L9.33203 6C9.33203 6.3682 9.6305 6.66667 9.9987 6.66667L13.332 6.66667C13.7002 6.66667 13.9987 6.3682 13.9987 6L13.9987 2.66667C13.9987 2.29848 13.7002 2 13.332 2Z" stroke="rgba(136, 137, 148, 1)" stroke-width="1" stroke-linejoin="round"  ></path><path d="M13.332 9.33337L9.9987 9.33337C9.6305 9.33337 9.33203 9.63184 9.33203 10L9.33203 13.3334C9.33203 13.7016 9.6305 14 9.9987 14L13.332 14C13.7002 14 13.9987 13.7016 13.9987 13.3334L13.9987 10C13.9987 9.63184 13.7002 9.33337 13.332 9.33337Z" stroke="rgba(136, 137, 148, 1)" stroke-width="1" stroke-linejoin="round"  ></path></svg>