<svg xmlns="http://www.w3.org/2000/svg" xmlns:xlink="http://www.w3.org/1999/xlink" width="24" height="24" viewBox="0 0 24 24" fill="none"><path   fill="rgba(37, 99, 235, 1)"  d="M10.6172 3.05923M10.6172 3.05923L8.80286 4.87361L8.80286 4.87361L8.80286 4.87361Q8.98251 4.69396 8.98813 4.44027Q8.99404 4.17279 8.80617 3.98112L8.80617 3.98112L10.6397 5.8517L10.6397 5.8517L10.6397 5.8517Q11.117 6.33862 11.3669 6.96818Q11.6082 7.576 11.6049 8.23223Q11.6016 8.88847 11.3543 9.49384Q11.0981 10.1209 10.616 10.603L10.121 10.108L10.616 10.603C9.29497 11.924 7.1524 11.9213 5.83471 10.597L5.83471 10.597L3.96556 8.71849L4.46177 8.22475L4.95674 8.71973L4.46177 8.22475L4.95674 8.71973L3.06425 10.6122L3.06425 10.6122C2.29622 11.3802 2.29367 12.628 3.0617 13.3961L2.56672 13.891L3.0617 13.3961L4.92149 15.2558L4.42651 15.7508L4.92149 15.2558C5.20912 15.5435 5.20912 16.0098 4.92149 16.2975L4.42651 15.8025L4.92149 16.2975L4.00451 17.2144L3.50953 16.7195L4.00451 17.2144C3.23648 17.9825 3.23648 19.2277 4.00451 19.9957L3.50953 20.4907L4.00451 19.9957C4.77254 20.7638 6.01777 20.7638 6.7858 19.9957L7.28077 20.4907L6.7858 19.9957L7.70277 19.0787L8.19775 19.5737L7.70277 19.0787C7.99041 18.7911 8.45675 18.7911 8.74438 19.0787L8.24941 19.5737L8.74438 19.0787L10.6065 20.9409L10.1116 21.4359L10.6065 20.9409C11.3733 21.7076 12.6164 21.7076 13.3831 20.9409L13.8781 21.4359L13.3831 20.9409L15.2157 19.1083L15.7106 19.6033L15.2157 19.1083L15.7106 19.6033L15.2157 19.1083Q15.0301 19.2939 15.0297 19.5564Q15.0294 19.8189 15.2145 20.0049L15.7107 19.5112L15.2145 20.0049L13.3866 18.1678L13.8828 17.6741L13.3866 18.1678L13.8828 17.6741L13.3866 18.1678Q12.9022 17.681 12.647 17.0484Q12.4007 16.4379 12.4016 15.7772Q12.4024 15.1165 12.6502 14.5065Q12.907 13.8746 13.3925 13.389L13.8875 13.884L13.3925 13.389L13.8875 13.884L13.3925 13.389Q13.8756 12.9059 14.5039 12.6492Q15.1105 12.4014 15.768 12.3981Q16.4256 12.3948 17.0346 12.6365Q17.6654 12.887 18.1533 13.3652L18.1533 13.3652L20.0186 15.1935L19.5285 15.6934L20.0185 15.1935L19.5285 15.6934L20.0185 15.1935Q19.8322 15.0109 19.5714 15.0122Q19.3105 15.0135 19.126 15.198L19.621 15.693L19.126 15.198L20.9375 13.3865L21.4324 13.8815L20.9375 13.3865C21.7002 12.6238 21.7002 11.3871 20.9375 10.6243L21.4324 10.1293L20.9375 10.6243L19.075 8.76185L19.57 8.26688L19.075 8.76185C18.7836 8.47043 18.7836 7.99793 19.075 7.70651L19.57 8.20148L19.075 7.70651L19.9851 6.7964L20.4801 7.29137L19.9851 6.7964C20.7532 6.02837 20.7532 4.78314 19.9851 4.01511L19.9851 4.01511C19.2171 3.24708 17.9719 3.24708 17.2038 4.01511L16.7089 3.52014L17.2038 4.01511L16.2937 4.92522L15.7987 4.43025L16.2937 4.92522C16.0023 5.21665 15.5298 5.21665 15.2384 4.92522L15.7334 4.43025L15.2384 4.92522L13.3759 3.06278L13.8709 2.5678L13.3759 3.06278L13.8709 2.5678L13.3759 3.06278Q13.0942 2.78105 12.7299 2.63278Q12.3777 2.48942 11.9957 2.48892Q11.6138 2.48842 11.2621 2.63081Q10.8984 2.77809 10.6172 3.05923L10.1223 2.56425L10.6172 3.05923ZM9.6273 2.06928L9.6273 2.06928Q10.1095 1.58711 10.7367 1.33315Q11.342 1.08807 11.9975 1.08893Q12.6525 1.08978 13.2576 1.33606Q13.8841 1.591 14.3659 2.07283L14.3659 2.07283L14.3659 2.07283L16.2283 3.93527L16.2283 3.93527C15.973 3.67996 15.5591 3.67997 15.3038 3.93527L15.3038 3.93527L16.2139 3.02516L16.2139 3.02516C17.5287 1.7104 19.6603 1.7104 20.9751 3.02516L20.4801 3.52014L20.9751 3.02516C22.2898 4.33993 22.2898 6.47158 20.9751 7.78635L20.9751 7.78635L20.065 8.69646L20.065 8.69646C20.3203 8.44115 20.3203 8.02721 20.065 7.77191L20.065 7.77191L21.9274 9.63435L21.9274 9.63435C23.2369 10.9439 23.2369 13.067 21.9274 14.3765L21.9274 14.3765L20.116 16.1879L20.116 16.1879Q19.8933 16.4106 19.5784 16.4122Q19.2635 16.4138 19.0386 16.1933L19.0386 16.1933L19.0386 16.1933L17.1733 14.365L17.6633 13.8651L17.1733 14.365Q16.8868 14.0841 16.518 13.9378Q16.1612 13.7961 15.775 13.798Q15.3888 13.8 15.0334 13.9452Q14.6662 14.0953 14.3825 14.3789L14.3825 14.3789L14.3825 14.3789Q14.0973 14.6641 13.9472 15.0335Q13.802 15.3908 13.8016 15.7789Q13.8011 16.167 13.9454 16.5247Q14.0945 16.8945 14.379 17.1803L14.379 17.1803L14.379 17.1803L16.207 19.0175L16.207 19.0175Q16.4301 19.2418 16.4297 19.5582Q16.4293 19.8746 16.2056 20.0983L16.2056 20.0983L16.2056 20.0983L14.373 21.9308L14.373 21.9308C13.0596 23.2443 10.93 23.2443 9.61658 21.9308L9.61658 21.9308L7.75443 20.0687L7.75443 20.0687C8.01354 20.3278 8.43362 20.3278 8.69272 20.0687L8.69272 20.0687L7.77574 20.9857L7.77574 20.9857C6.46098 22.3004 4.32932 22.3004 3.01456 20.9857L3.01456 20.9857C1.69979 19.6709 1.69979 17.5393 3.01456 16.2245L3.01456 16.2245L3.93154 15.3075L3.93154 15.3075C3.67244 15.5666 3.67244 15.9867 3.93154 16.2458L3.93154 16.2458L2.07175 14.386L2.07175 14.386C0.756984 13.0712 0.759542 10.937 2.07431 9.62227L2.56928 10.1172L2.07431 9.62227L3.9668 7.72978L3.9668 7.72978L4.95798 7.73102L6.82713 9.60954L6.33092 10.1033L6.82713 9.60954C7.59849 10.3848 8.85272 10.3863 9.62601 9.61304L9.62601 9.61304Q9.90874 9.33031 10.0583 8.9643Q10.203 8.61012 10.2049 8.22523Q10.2069 7.84034 10.0657 7.48473Q9.9198 7.11724 9.63991 6.8317L10.1398 6.3417L9.63991 6.8317L10.1398 6.3417L9.63991 6.8317L7.80637 4.96112L8.30627 4.47112L7.80638 4.96113Q7.58134 4.73154 7.58847 4.4093Q7.59529 4.10129 7.81291 3.88366L8.30789 4.37864L7.81291 3.88366L8.30789 4.37864L7.81291 3.88366L9.6273 2.06928ZM4.95798 7.73102L4.46177 8.22475L3.9668 7.72978C4.10485 7.59558 4.27013 7.52724 4.46264 7.52476C4.65515 7.52772 4.82027 7.59647 4.95798 7.73102Z"></path></svg>