<svg xmlns="http://www.w3.org/2000/svg" xmlns:xlink="http://www.w3.org/1999/xlink" width="16" height="16" viewBox="0 0 16 16" fill="none"><path d="M14 13L14 3.00001C14 2.44772 13.5523 2.00001 13 2.00001L3 2C2.44771 2 2 2.44772 2 3L2.00002 13C2.00002 13.5523 2.44773 14 3.00002 14L13 14C13.5523 14 14 13.5523 14 13Z" stroke="rgba(136, 137, 148, 1)" stroke-width="1" stroke-linejoin="round"  ></path><path d="M7.99995 6.1053L7.03475 8.07547L4.84229 8.39337L6.43052 9.9461L6.05085 12.1053L7.99995 11.0662L9.94945 12.1053L9.57258 9.9461L11.1581 8.39337L8.97775 8.07547L7.99995 6.1053Z" stroke="rgba(136, 137, 148, 1)" stroke-width="1" stroke-linejoin="round"  ></path><path    stroke="rgba(136, 137, 148, 1)" stroke-width="1" stroke-linejoin="round" stroke-linecap="round"  d="M6.10547 4.21053L9.89493 4.21053"></path></svg>