<svg xmlns="http://www.w3.org/2000/svg" xmlns:xlink="http://www.w3.org/1999/xlink" width="16" height="16" viewBox="0 0 16 16" fill="none"><path d="M1.6665 2.66667C1.6665 2.29848 1.96498 2 2.33317 2L13.6665 2C14.0347 2 14.3332 2.29848 14.3332 2.66667L14.3332 10.6667C14.3332 11.0349 14.0347 11.3333 13.6665 11.3333L2.33317 11.3333C1.96498 11.3333 1.6665 11.0349 1.6665 10.6667L1.6665 2.66667Z" stroke="rgba(255, 255, 255, 1)" stroke-width="1" stroke-linejoin="round" stroke-linecap="round" ></path><path d="M1.6665 8.66667C1.6665 8.29847 1.96498 8 2.33317 8L13.6665 8C14.0347 8 14.3332 8.29847 14.3332 8.66667L14.3332 10.6667C14.3332 11.0349 14.0347 11.3333 13.6665 11.3333L2.33317 11.3333C1.96498 11.3333 1.6665 11.0349 1.6665 10.6667L1.6665 8.66667Z" stroke="rgba(255, 255, 255, 1)" stroke-width="1" stroke-linejoin="round" stroke-linecap="round" ></path><path    stroke="rgba(255, 255, 255, 1)" stroke-width="1" stroke-linejoin="round" stroke-linecap="round"  d="M7.33333 4L6 5.66667"></path><path    stroke="rgba(255, 255, 255, 1)" stroke-width="1" stroke-linejoin="round" stroke-linecap="round"  d="M9.3335 4.66667L8.3335 6"></path><circle cx="8.000162760416666" cy="9.666666666666666" r="0.6666666666666666"   fill="#FFFFFF" ></circle><path    stroke="rgba(255, 255, 255, 1)" stroke-width="1" stroke-linejoin="round" stroke-linecap="round"  d="M5.6665 11.3333L4.6665 14L11.3332 14L10.3332 11.3333"></path></svg>