<svg xmlns="http://www.w3.org/2000/svg" xmlns:xlink="http://www.w3.org/1999/xlink" width="14.982666015625" height="17.530029296875" viewBox="0 0 14.982666015625 17.530029296875" fill="none"><path d="M14.9582 3.13338C14.803 1.83487 13.6879 0.705717 13.208 0.282287C13.0104 0.112916 12.7705 0.0141152 12.5023 0.0141152C12.1918 0.0141152 11.9095 0.141145 11.7119 0.381088C11.6272 0.479889 11.5567 0.592803 11.5143 0.719832C11.3026 0.832738 11.1191 1.01623 11.0203 1.24205C10.8792 1.56668 10.5687 2.44178 10.6675 3.58504C10.7521 4.62949 11.6131 5.68807 12.3612 6.42201L11.8813 6.6902C10.4275 3.72617 8.73381 0.818637 8.60678 0.606918C8.50797 0.437545 8.31037 0.338744 8.09865 0.366973C7.90105 0.395201 7.73168 0.536346 7.67523 0.733949L7.46352 1.482L7.2518 0.733949C7.19535 0.536346 7.02598 0.395203 6.82838 0.366975C6.63076 0.338744 6.43316 0.437545 6.32025 0.606918C6.19322 0.818637 4.49951 3.72617 3.04572 6.64785L2.60818 6.39379C3.35625 5.65984 4.21723 4.60127 4.30191 3.55682C4.4007 2.42766 4.0902 1.55258 3.94904 1.21383C3.85025 0.988012 3.68088 0.804516 3.45504 0.691604C3.4127 0.578688 3.35625 0.465773 3.27156 0.366973C3.07396 0.141145 2.77756 0 2.48115 0C2.22711 0 1.97305 0.0988008 1.77545 0.268174C1.30966 0.691604 0.194625 1.82075 0.0252693 3.11926C-0.101762 4.19195 0.279312 5.4199 0.519254 6.05504C0.632184 6.36557 0.872125 6.60551 1.16853 6.73254L2.63641 7.55115C1.77545 9.35779 1.09795 11.0515 0.999156 12.0113C0.970914 12.2936 1.18263 12.5335 1.45082 12.5617L1.49316 12.5617C1.7472 12.5617 1.97305 12.3641 2.00127 12.096C2.05773 11.4608 2.45293 10.3881 3.0034 9.14608C3.03162 9.20254 3.07396 9.259 3.13041 9.30135L4.34426 10.247C4.42895 10.3176 4.52773 10.3458 4.64064 10.3599L5.2899 10.3881L5.2899 11.1786L4.57008 11.1362L3.46916 10.5293C3.22922 10.3881 2.91871 10.4869 2.77756 10.7269C2.63643 10.9668 2.73521 11.2773 2.97516 11.4185L4.17488 12.0819C4.24545 12.1242 4.31602 12.1383 4.3866 12.1383L5.50162 12.1948L5.50162 13.1828C5.50162 13.3663 5.57219 13.5356 5.68512 13.6627L5.68512 14.9471L4.18898 16.302C3.96316 16.4996 3.8926 16.8102 4.00551 17.0783C4.11842 17.3606 4.37248 17.53 4.66889 17.53L5.9815 17.53C6.13678 17.53 6.30613 17.4735 6.43316 17.3747L6.46141 17.3606C6.58844 17.4735 6.75779 17.53 6.92717 17.53L7.99986 17.53C8.16924 17.53 8.33861 17.4594 8.46562 17.3606L8.47975 17.3747C8.60678 17.4735 8.76203 17.53 8.93141 17.53L10.244 17.53C10.5404 17.53 10.7945 17.3465 10.9074 17.0783C11.0203 16.7961 10.9356 16.4996 10.7239 16.302L9.27016 14.9894L9.27016 13.6062C9.36895 13.4792 9.41129 13.338 9.41129 13.1687L9.41129 12.1807L10.5263 12.1242C10.5969 12.1242 10.6816 12.096 10.738 12.0678L11.9378 11.4044C12.1777 11.2632 12.2765 10.9668 12.1354 10.7128C11.9942 10.4728 11.6978 10.374 11.4437 10.5152L10.3428 11.1221L9.62301 11.1644L9.62301 10.374L10.2581 10.3599C10.3711 10.3599 10.4699 10.3176 10.5546 10.247L11.7684 9.30135C11.8248 9.259 11.8672 9.20254 11.8954 9.14608C12.4459 10.4023 12.8411 11.4749 12.8975 12.096C12.9258 12.3641 13.1375 12.5617 13.4056 12.5617L13.448 12.5617C13.7303 12.5335 13.9279 12.2936 13.8996 12.0113C13.815 11.0515 13.1234 9.35779 12.2765 7.56527L13.7585 6.74664C14.0549 6.61961 14.2807 6.37967 14.4078 6.06916C14.6901 5.434 15.0853 4.19195 14.9582 3.13338ZM1.02738 3.24629C1.15441 2.25828 2.15652 1.2844 2.45293 1.01623C2.46705 1.01623 2.46705 1.00211 2.48115 1.00211C2.50939 1.00211 2.5235 1.01623 2.5235 1.04446L2.28355 2.79463C2.28355 2.83697 2.3118 2.85109 2.34002 2.85109C2.35412 2.85109 2.38236 2.83697 2.38236 2.82287L2.97516 1.59493C2.97516 1.5808 2.98928 1.5808 3.0034 1.5808C3.0175 1.5808 3.03162 1.5808 3.03162 1.59493C3.13041 1.80663 3.38447 2.52646 3.31391 3.44389C3.24334 4.30486 2.25533 5.33522 1.80367 5.75863C1.76132 5.80098 1.71898 5.8151 1.66252 5.8151C1.57785 5.8151 1.50726 5.77275 1.47904 5.68807C1.28144 5.20818 0.914469 4.12139 1.02738 3.24629ZM8.33861 2.17361C9.10078 3.51447 10.117 5.36344 10.9921 7.15596L10.1594 7.62174L9.25603 4.06492C9.1149 3.50035 8.66324 3.07691 8.11277 2.964L8.33861 2.17359L8.33861 2.17361ZM7.15301 3.93789L7.83049 3.93789C8.05633 3.93789 8.23981 4.09314 8.29627 4.30486L9.36895 8.5674C9.41129 8.72266 9.36895 8.89203 9.25603 9.01904L9.04432 9.23076C8.95963 9.32957 8.8185 9.38602 8.69146 9.38602L6.27791 9.38602C6.15088 9.38602 6.02385 9.32957 5.92506 9.23076L5.71334 9.01904C5.60043 8.89203 5.55809 8.72266 5.60043 8.5674L6.67311 4.30486C6.72957 4.07904 6.92717 3.93789 7.15301 3.93789ZM8.64912 11.1362L6.32025 11.1362L6.32025 10.3881L8.64912 10.3881L8.64912 11.1362ZM8.42328 12.8864L6.54609 12.8864L6.54609 12.1383L8.42328 12.1383L8.42328 12.8864ZM6.74369 14.6507L6.72957 14.6507L6.72957 13.9026L8.26803 13.9026L8.26803 14.6507L6.74369 14.6507ZM6.61666 2.17359L6.82838 2.964C6.27791 3.07691 5.84037 3.50035 5.69922 4.06492L4.79592 7.62174L3.96316 7.15596C4.85236 5.36344 5.85449 3.50035 6.61666 2.17359ZM3.76557 8.49682C3.63854 8.39803 3.48328 8.36979 3.34213 8.39803C3.39859 8.2851 3.45504 8.15809 3.5115 8.04516L4.57008 8.63797C4.57008 8.83557 4.5983 9.01904 4.66889 9.20254L3.76557 8.49682ZM5.91094 16.5279L5.48752 16.5279L6.10854 15.9633L6.165 16.3162L5.91094 16.5279ZM7.22357 16.5279L7.19535 16.2879L7.11066 15.6528L7.88695 15.6528L7.78814 16.3444L7.78814 16.4432L7.77402 16.5279L7.22357 16.5279ZM9.05844 16.5279L8.80437 16.3303L8.86084 15.9774L9.48186 16.542L9.05844 16.542L9.05844 16.5279ZM11.599 8.39803C11.4579 8.36979 11.3026 8.39803 11.1756 8.49682L10.2864 9.18842C10.3428 9.01904 10.3852 8.83557 10.3711 8.63797L11.4155 8.05928C11.5002 8.17219 11.5567 8.28512 11.599 8.39803ZM11.6696 3.47213C11.5849 2.55469 11.8531 1.83487 11.9519 1.62315C11.9519 1.60903 11.966 1.60903 11.9801 1.60903C11.9942 1.60903 12.0083 1.60903 12.0083 1.62315L12.6011 2.85109C12.6153 2.86521 12.6294 2.87932 12.6435 2.87932C12.6717 2.87932 12.6999 2.85109 12.6999 2.82287L12.46 1.0727C12.46 1.04446 12.4741 1.03036 12.5023 1.03036C12.5164 1.03036 12.5164 1.03036 12.5306 1.04446C12.827 1.31264 13.8291 2.2724 13.9561 3.27453C14.069 4.14961 13.7021 5.23641 13.5186 5.73041C13.4903 5.8151 13.4056 5.85744 13.3351 5.85744C13.2927 5.85744 13.2363 5.84332 13.1939 5.80098C12.7423 5.34934 11.7543 4.31898 11.6696 3.47213ZM6.56019 5.32109C6.56019 5.49047 6.70135 5.63162 6.87072 5.63162C7.04008 5.63162 7.18123 5.49047 7.18123 5.32109C7.18123 5.15172 7.04008 5.01059 6.87072 5.01059C6.70135 5.01059 6.56019 5.15172 6.56019 5.32109ZM8.08455 5.63162C8.25393 5.63162 8.39506 5.49047 8.39506 5.32109C8.39506 5.15172 8.25393 5.01059 8.08455 5.01059C7.91518 5.01059 7.77402 5.15172 7.77402 5.32109C7.77402 5.49047 7.91518 5.63162 8.08455 5.63162Z"   fill="#F04438" ></path></svg>