<svg xmlns="http://www.w3.org/2000/svg" xmlns:xlink="http://www.w3.org/1999/xlink" width="16" height="16" viewBox="0 0 16 16" fill="none"><path d="M8.00016 14.6667C11.6821 14.6667 14.6668 11.6819 14.6668 8.00001C14.6668 4.31811 11.6821 1.33334 8.00016 1.33334C4.31826 1.33334 1.3335 4.31811 1.3335 8.00001C1.3335 8.90391 1.51339 9.76581 1.83932 10.5518C2.0076 10.9576 2.21482 11.3432 2.45631 11.704C2.53735 11.825 2.38531 12.5904 2.00016 14C3.4098 13.6149 4.17513 13.4628 4.2962 13.5439C4.65693 13.7853 5.04253 13.9926 5.44836 14.1608C6.23436 14.4868 7.09626 14.6667 8.00016 14.6667Z" stroke="rgba(51, 51, 51, 1)" stroke-width="1.3333333333333333" stroke-linejoin="round"  ></path><path    stroke="rgba(51, 51, 51, 1)" stroke-width="1.3333333333333333" stroke-linejoin="round" stroke-linecap="round"  d="M5.53467 6.60669L11.1278 6.60669"></path><path    stroke="rgba(51, 51, 51, 1)" stroke-width="1.3333333333333333" stroke-linejoin="round" stroke-linecap="round"  d="M7.28227 5.24594L6.31104 10.7541"></path><path    stroke="rgba(51, 51, 51, 1)" stroke-width="1.3333333333333333" stroke-linejoin="round" stroke-linecap="round"  d="M9.61576 5.24594L8.64453 10.7541"></path><path    stroke="rgba(51, 51, 51, 1)" stroke-width="1.3333333333333333" stroke-linejoin="round" stroke-linecap="round"  d="M4.86816 9.33334L10.4613 9.33334"></path></svg>