<svg xmlns="http://www.w3.org/2000/svg" xmlns:xlink="http://www.w3.org/1999/xlink" width="16" height="13.666748046875" viewBox="0 0 16 13.666748046875" fill="none"><path d="M9 1.00002C9 1.29602 8.87133 1.56202 8.66667 1.74536L8.66667 3.00002L12 3.00002C12.0327 3.00002 12.0654 3.00083 12.0981 3.00244C12.1308 3.00405 12.1635 3.00645 12.196 3.00966C12.2286 3.01286 12.2611 3.01688 12.2935 3.02167C12.3258 3.02647 12.3581 3.03206 12.3902 3.03845C12.4223 3.04484 12.4542 3.052 12.486 3.05995C12.5177 3.06791 12.5492 3.07664 12.5806 3.08614C12.6119 3.09564 12.643 3.10591 12.6738 3.11694C12.7046 3.12795 12.7351 3.13973 12.7654 3.15227C12.7956 3.16478 12.8255 3.17805 12.8551 3.19205C12.8847 3.20603 12.9139 3.22075 12.9428 3.23617C12.9717 3.25161 13.0001 3.26773 13.0282 3.28456C13.0563 3.30139 13.0839 3.31889 13.1111 3.33708C13.1384 3.35527 13.1651 3.37411 13.1914 3.39361C13.2177 3.41311 13.2435 3.43323 13.2688 3.454C13.2941 3.47477 13.3189 3.49614 13.3431 3.51813C13.3674 3.54011 13.3911 3.56267 13.4142 3.58581C13.4374 3.60895 13.4599 3.63266 13.4819 3.65691C13.5039 3.68116 13.5253 3.70594 13.546 3.73123C13.5668 3.75653 13.5869 3.78233 13.6064 3.80862C13.6259 3.83492 13.6448 3.86167 13.6629 3.88888C13.6811 3.91609 13.6986 3.94373 13.7155 3.97181C13.7323 3.99989 13.7484 4.02836 13.7638 4.05723C13.7793 4.08609 13.794 4.11533 13.808 4.14491C13.822 4.1745 13.8352 4.20442 13.8478 4.23466C13.8603 4.26489 13.8721 4.29542 13.8831 4.32623C13.8941 4.35706 13.9044 4.38812 13.9139 4.41945C13.9234 4.45078 13.9321 4.48231 13.9401 4.51406C13.948 4.54581 13.9552 4.57773 13.9616 4.60984C13.968 4.64195 13.9735 4.67419 13.9784 4.70656C13.9832 4.73894 13.9872 4.77141 13.9904 4.80398C13.9936 4.83656 13.996 4.86919 13.9976 4.90189C13.9992 4.93458 14 4.96728 14 5.00002L14 11.6667C14 11.6994 13.9992 11.7321 13.9976 11.7648C13.996 11.7975 13.9936 11.8301 13.9904 11.8627C13.9872 11.8953 13.9832 11.9278 13.9784 11.9601C13.9735 11.9925 13.968 12.0248 13.9616 12.0569C13.9552 12.089 13.948 12.1209 13.9401 12.1526C13.9321 12.1844 13.9234 12.2159 13.9139 12.2472C13.9044 12.2786 13.8941 12.3096 13.8831 12.3405C13.8721 12.3713 13.8603 12.4018 13.8478 12.432C13.8352 12.4623 13.822 12.4922 13.808 12.5218C13.794 12.5514 13.7793 12.5806 13.7638 12.6095C13.7484 12.6383 13.7323 12.6668 13.7155 12.6949C13.6986 12.723 13.6811 12.7506 13.6629 12.7778C13.6448 12.805 13.6259 12.8318 13.6064 12.8581C13.5869 12.8844 13.5668 12.9102 13.546 12.9355C13.5253 12.9608 13.5039 12.9855 13.4819 13.0098C13.4599 13.0341 13.4374 13.0578 13.4142 13.0809C13.3911 13.104 13.3674 13.1266 13.3431 13.1486C13.3189 13.1706 13.2941 13.1919 13.2688 13.2127C13.2435 13.2335 13.2177 13.2536 13.1914 13.2731C13.1651 13.2926 13.1384 13.3114 13.1111 13.3296C13.0839 13.3478 13.0563 13.3653 13.0282 13.3821C13.0001 13.399 12.9717 13.4151 12.9428 13.4305C12.9139 13.446 12.8847 13.4607 12.8551 13.4747C12.8255 13.4887 12.7956 13.5019 12.7654 13.5144C12.7351 13.527 12.7046 13.5387 12.6738 13.5498C12.643 13.5608 12.6119 13.5711 12.5806 13.5806C12.5492 13.5901 12.5177 13.5988 12.486 13.6067C12.4542 13.6147 12.4223 13.6219 12.3902 13.6283C12.3581 13.6346 12.3258 13.6402 12.2935 13.645C12.2611 13.6498 12.2286 13.6539 12.196 13.6571C12.1635 13.6603 12.1308 13.6627 12.0981 13.6643C12.0654 13.6659 12.0327 13.6667 12 13.6667L4 13.6667C3.96727 13.6667 3.93456 13.6659 3.90186 13.6643C3.86917 13.6627 3.83655 13.6603 3.80397 13.6571C3.77139 13.6539 3.73892 13.6498 3.70653 13.645C3.67416 13.6402 3.64192 13.6346 3.60981 13.6283C3.57772 13.6219 3.5458 13.6147 3.51405 13.6067C3.48228 13.5988 3.45075 13.5901 3.41944 13.5806C3.38811 13.5711 3.35705 13.5608 3.32622 13.5498C3.29541 13.5387 3.26488 13.527 3.23464 13.5144C3.20439 13.5019 3.17447 13.4887 3.14489 13.4747C3.1153 13.4607 3.08606 13.446 3.0572 13.4305C3.02834 13.4151 2.99988 13.399 2.9718 13.3821C2.94372 13.3653 2.91608 13.3478 2.88886 13.3296C2.86164 13.3114 2.83489 13.2926 2.80859 13.2731C2.78231 13.2536 2.75652 13.2335 2.73122 13.2127C2.70592 13.1919 2.68114 13.1706 2.65688 13.1486C2.63263 13.1266 2.60892 13.104 2.58578 13.0809C2.56264 13.0578 2.54008 13.0341 2.51809 13.0098C2.49611 12.9855 2.47475 12.9608 2.45398 12.9355C2.43322 12.9102 2.41308 12.8844 2.39358 12.8581C2.37409 12.8318 2.35525 12.805 2.33706 12.7778C2.31888 12.7506 2.30138 12.723 2.28455 12.6949C2.26772 12.6668 2.25158 12.6383 2.23616 12.6095C2.22073 12.5806 2.20602 12.5514 2.19202 12.5218C2.17803 12.4922 2.16477 12.4623 2.15223 12.432C2.13972 12.4018 2.12794 12.3713 2.11691 12.3405C2.10589 12.3096 2.09563 12.2786 2.08613 12.2472C2.07661 12.2159 2.06789 12.1844 2.05994 12.1526C2.05198 12.1209 2.04481 12.089 2.03842 12.0569C2.03203 12.0248 2.02644 11.9925 2.02164 11.9601C2.01684 11.9278 2.01283 11.8953 2.00963 11.8627C2.00642 11.8301 2.00402 11.7975 2.00241 11.7648C2.0008 11.7321 2 11.6994 2 11.6667L2 5.00002C2 4.96728 2.0008 4.93458 2.00241 4.90189C2.00402 4.86919 2.00642 4.83656 2.00963 4.80398C2.01283 4.77141 2.01684 4.73894 2.02164 4.70656C2.02644 4.67419 2.03203 4.64195 2.03842 4.60984C2.04481 4.57773 2.05198 4.54581 2.05994 4.51406C2.06789 4.48231 2.07661 4.45078 2.08613 4.41945C2.09563 4.38812 2.10589 4.35706 2.11691 4.32623C2.12794 4.29542 2.13972 4.26489 2.15223 4.23466C2.16477 4.20442 2.17803 4.1745 2.19202 4.14491C2.20602 4.11533 2.22073 4.08609 2.23616 4.05723C2.25158 4.02836 2.26772 3.99989 2.28455 3.97181C2.30138 3.94373 2.31888 3.91609 2.33706 3.88888C2.35525 3.86167 2.37409 3.83492 2.39358 3.80862C2.41308 3.78233 2.43322 3.75653 2.45398 3.73123C2.47475 3.70594 2.49611 3.68116 2.51809 3.65691C2.54008 3.63266 2.56264 3.60895 2.58578 3.58581C2.60892 3.56267 2.63263 3.54011 2.65688 3.51813C2.68114 3.49614 2.70592 3.47477 2.73122 3.454C2.75652 3.43323 2.78231 3.41311 2.80859 3.39361C2.83489 3.37411 2.86164 3.35527 2.88886 3.33708C2.91608 3.31891 2.94372 3.30139 2.9718 3.28456C2.99988 3.26773 3.02834 3.25161 3.0572 3.23617C3.08606 3.22075 3.1153 3.20603 3.14489 3.19205C3.17447 3.17805 3.20439 3.16478 3.23464 3.15227C3.26488 3.13973 3.29541 3.12795 3.32622 3.11694C3.35705 3.10591 3.38811 3.09564 3.41944 3.08614C3.45075 3.07664 3.48228 3.06791 3.51405 3.05995C3.5458 3.052 3.57772 3.04484 3.60981 3.03845C3.64192 3.03206 3.67416 3.02647 3.70655 3.02167C3.73892 3.01688 3.77139 3.01286 3.80397 3.00966C3.83655 3.00645 3.86917 3.00405 3.90186 3.00244C3.93456 3.00083 3.96727 3.00002 4 3.00002L7.33333 3.00002L7.33333 1.74536C7.31788 1.73153 7.30284 1.71722 7.28827 1.70245C7.27369 1.68769 7.25959 1.67247 7.24597 1.65683C7.23233 1.64119 7.2192 1.62513 7.20658 1.60867C7.19394 1.5922 7.18183 1.57536 7.17025 1.55814C7.15867 1.54092 7.14764 1.52337 7.13716 1.50547C7.12667 1.48756 7.11675 1.46935 7.10739 1.45083C7.09803 1.43231 7.08927 1.41351 7.08108 1.39444C7.07289 1.37538 7.06531 1.35608 7.05833 1.33653C7.05134 1.31699 7.04499 1.29725 7.03922 1.27731C7.03347 1.25739 7.02834 1.23729 7.02383 1.21703C7.01933 1.19678 7.01547 1.1764 7.01224 1.15591C7.009 1.13541 7.00639 1.11483 7.00444 1.09417C7.00249 1.07352 7.00119 1.05282 7.00052 1.03208C6.99984 1.01134 6.99983 0.990602 7.00045 0.969861C7.00108 0.94912 7.00234 0.928419 7.00427 0.907758C7.00619 0.887097 7.00874 0.866514 7.01192 0.846012C7.01513 0.825511 7.01895 0.805128 7.02342 0.784864C7.02788 0.7646 7.03297 0.744494 7.03869 0.724547C7.04441 0.7046 7.05074 0.68485 7.05767 0.665297C7.06463 0.645744 7.07217 0.626425 7.08031 0.607342C7.08845 0.588259 7.09719 0.569447 7.10652 0.550908C7.11583 0.532369 7.12572 0.514136 7.13617 0.496211C7.14663 0.478287 7.15763 0.460705 7.16917 0.443466C7.18072 0.426227 7.1928 0.409362 7.20539 0.392875C7.218 0.376386 7.23109 0.360306 7.24469 0.344634C7.25828 0.328961 7.27236 0.313727 7.28691 0.29893C7.30145 0.284134 7.31645 0.269805 7.33189 0.255941C7.34733 0.242077 7.36319 0.228708 7.37945 0.215831C7.39572 0.202955 7.41238 0.190597 7.42942 0.178758C7.44647 0.166919 7.46386 0.15562 7.48159 0.144864C7.49934 0.134107 7.51741 0.123912 7.53578 0.11428C7.55416 0.104648 7.57281 0.0955959 7.59177 0.0871252C7.6107 0.0786542 7.62989 0.0707803 7.64933 0.0635033C7.66875 0.0562272 7.68839 0.049562 7.70824 0.043508C7.72809 0.0374537 7.74811 0.032023 7.7683 0.0272158C7.78847 0.0224073 7.80878 0.0182314 7.82924 0.0146876C7.84969 0.0111449 7.87022 0.00824073 7.89084 0.00597509C7.91147 0.00371052 7.93214 0.00208914 7.95288 0.00111103C7.97359 0.000132918 7.99433 -0.000199378 8.01508 0.000114143C8.03583 0.00042665 8.05655 0.00138447 8.07724 0.00298759C8.09792 0.00458967 8.11855 0.00683394 8.13909 0.00972042C8.15964 0.0126069 8.18008 0.0161292 8.20041 0.0202877C8.22074 0.0244459 8.24092 0.0292323 8.26095 0.034647C8.28097 0.0400616 8.30081 0.0460933 8.32047 0.0527423C8.34013 0.0593923 8.35956 0.066647 8.37877 0.0745064C8.39797 0.0823658 8.41691 0.0908147 8.43559 0.0998533C8.45427 0.108892 8.47264 0.118502 8.49072 0.128685C8.5088 0.138867 8.52655 0.149601 8.54395 0.160887C8.56138 0.172175 8.57842 0.183992 8.59509 0.196341C8.61177 0.208689 8.62805 0.221544 8.64392 0.234905C8.6598 0.248266 8.67524 0.262108 8.69025 0.27643C8.70527 0.290753 8.71981 0.305528 8.73391 0.320756C8.748 0.335986 8.76161 0.351638 8.77474 0.367712C8.78784 0.383789 8.80045 0.400256 8.81256 0.417117C8.82466 0.433978 8.83622 0.451198 8.84724 0.468778C8.85825 0.486358 8.86872 0.504264 8.87863 0.522495C8.88853 0.540727 8.89786 0.559248 8.90663 0.578061C8.91538 0.596872 8.92353 0.615939 8.93111 0.635259C8.93869 0.65458 8.94564 0.674117 8.95199 0.69387C8.95834 0.713625 8.96408 0.733556 8.96919 0.753667C8.9743 0.773778 8.97877 0.794027 8.98263 0.814416C8.98649 0.834805 8.98969 0.855295 8.99227 0.875884C8.99484 0.896473 8.99677 0.917123 8.99806 0.937833C8.99936 0.958544 9 0.979273 9 1.00002ZM0 6.33336L1.33333 6.33336L1.33333 10.3334L0 10.3334L0 6.33336ZM16 6.33336L14.6667 6.33336L14.6667 10.3334L16 10.3334L16 6.33336ZM6 9.33336C6.01636 9.33336 6.03272 9.33295 6.04906 9.33216C6.06542 9.33134 6.08174 9.33014 6.09802 9.32853C6.11431 9.32692 6.13055 9.32492 6.14674 9.32253C6.16292 9.32012 6.17905 9.31733 6.19509 9.31414C6.21114 9.31094 6.22711 9.30736 6.24299 9.30339C6.25886 9.29941 6.27463 9.29505 6.29028 9.2903C6.30595 9.28555 6.32149 9.28041 6.33689 9.27489C6.3523 9.26937 6.36756 9.2635 6.38269 9.25723C6.3978 9.25097 6.41275 9.24434 6.42755 9.23734C6.44234 9.23034 6.45697 9.22298 6.47139 9.21528C6.48583 9.20756 6.50006 9.1995 6.51411 9.19108C6.52814 9.18267 6.54195 9.17392 6.55556 9.16483C6.56917 9.15573 6.58256 9.14631 6.5957 9.13656C6.60884 9.12681 6.62175 9.11675 6.63439 9.10636C6.64705 9.09598 6.65944 9.0853 6.67156 9.07431C6.68369 9.06331 6.69553 9.05203 6.70711 9.04047C6.71869 9.02889 6.72997 9.01705 6.74095 9.00491C6.75194 8.99278 6.76263 8.98039 6.77302 8.96775C6.78339 8.95509 6.79345 8.94219 6.8032 8.92905C6.81295 8.91591 6.82238 8.90253 6.83147 8.88892C6.84056 8.87531 6.84931 8.8615 6.85774 8.84745C6.86614 8.83342 6.8742 8.81919 6.88192 8.80475C6.88964 8.79031 6.897 8.7757 6.90399 8.76091C6.91099 8.74611 6.91761 8.73116 6.92388 8.71603C6.93014 8.70092 6.93603 8.68566 6.94155 8.67025C6.94706 8.65483 6.95219 8.6393 6.95694 8.62364C6.96169 8.60797 6.96605 8.5922 6.97003 8.57633C6.97402 8.56045 6.97759 8.54448 6.98078 8.52844C6.98399 8.51239 6.98678 8.49628 6.98917 8.48008C6.99158 8.46389 6.99358 8.44766 6.99519 8.43137C6.9968 8.41508 6.998 8.39877 6.9988 8.38242C6.99959 8.36608 7 8.34972 7 8.33336C7 8.317 6.99959 8.30064 6.9988 8.28428C6.998 8.26794 6.9968 8.25163 6.99519 8.23534C6.99358 8.21905 6.99158 8.20281 6.98917 8.18662C6.98678 8.17044 6.98399 8.15431 6.98078 8.13827C6.97759 8.12222 6.97402 8.10625 6.97003 8.09037C6.96605 8.0745 6.96169 8.05873 6.95694 8.04308C6.95219 8.02741 6.94706 8.01188 6.94155 7.99647C6.93603 7.98105 6.93014 7.96578 6.92388 7.95067C6.91761 7.93555 6.91099 7.92059 6.90399 7.9058C6.897 7.891 6.88964 7.87639 6.88192 7.86195C6.8742 7.84753 6.86614 7.8333 6.85774 7.81925C6.84931 7.8052 6.84056 7.79139 6.83147 7.77778C6.82238 7.76417 6.81295 7.7508 6.8032 7.73766C6.79345 7.72452 6.78339 7.71161 6.77302 7.69895C6.76263 7.68631 6.75194 7.67392 6.74095 7.6618C6.72997 7.64967 6.71869 7.63783 6.70711 7.62625C6.69553 7.61467 6.68369 7.60339 6.67156 7.59241C6.65944 7.58142 6.64705 7.57073 6.63439 7.56034C6.62175 7.54995 6.60884 7.53989 6.5957 7.53014C6.58256 7.52039 6.56917 7.51097 6.55556 7.50189C6.54195 7.4928 6.52814 7.48405 6.51411 7.47563C6.50006 7.4672 6.48583 7.45914 6.47139 7.45144C6.45697 7.44372 6.44234 7.43636 6.42755 7.42936C6.41275 7.42238 6.3978 7.41573 6.38269 7.40947C6.36756 7.4032 6.3523 7.39733 6.33689 7.39181C6.32149 7.3863 6.30595 7.38117 6.29028 7.37642C6.27463 7.37166 6.25886 7.3673 6.24299 7.36333C6.22711 7.35934 6.21114 7.35577 6.19509 7.35256C6.17905 7.34937 6.16292 7.34658 6.14674 7.34417C6.13055 7.34178 6.11431 7.33978 6.09802 7.33817C6.08174 7.33656 6.06542 7.33536 6.04906 7.33456C6.03272 7.33377 6.01636 7.33336 6 7.33336C5.98364 7.33336 5.96728 7.33377 5.95094 7.33456C5.93458 7.33536 5.91827 7.33656 5.90198 7.33817C5.88569 7.33978 5.86945 7.34178 5.85327 7.34417C5.83708 7.34658 5.82095 7.34937 5.80491 7.35256C5.78886 7.35577 5.77289 7.35934 5.75702 7.36333C5.74114 7.3673 5.72538 7.37166 5.70972 7.37642C5.69405 7.38117 5.67852 7.3863 5.66311 7.39181C5.6477 7.39733 5.63244 7.4032 5.61731 7.40947C5.6022 7.41573 5.58723 7.42238 5.57244 7.42936C5.55764 7.43636 5.54303 7.44372 5.52861 7.45144C5.51417 7.45914 5.49994 7.4672 5.48589 7.47563C5.47186 7.48405 5.45803 7.4928 5.44442 7.50189C5.43081 7.51097 5.41744 7.52039 5.4043 7.53014C5.39116 7.53989 5.37825 7.54995 5.36561 7.56034C5.35295 7.57073 5.34056 7.58142 5.32844 7.59241C5.31631 7.60339 5.30447 7.61467 5.29289 7.62625C5.28131 7.63783 5.27003 7.64967 5.25905 7.6618C5.24806 7.67392 5.23738 7.68631 5.22698 7.69895C5.21661 7.71161 5.20655 7.72452 5.1968 7.73766C5.18705 7.7508 5.17763 7.76417 5.16853 7.77778C5.15944 7.79139 5.15069 7.80522 5.14227 7.81925C5.13386 7.8333 5.1258 7.84753 5.11808 7.86195C5.11036 7.87639 5.103 7.891 5.09602 7.9058C5.08902 7.92059 5.08239 7.93555 5.07613 7.95067C5.06986 7.96578 5.06397 7.98105 5.05845 7.99647C5.05294 8.01188 5.04781 8.02741 5.04306 8.04308C5.03831 8.05873 5.03395 8.0745 5.02997 8.09037C5.02598 8.10625 5.02241 8.12222 5.01922 8.13827C5.01602 8.15431 5.01322 8.17044 5.01083 8.18662C5.00842 8.20281 5.00642 8.21905 5.00481 8.23534C5.0032 8.25163 5.002 8.26794 5.0012 8.28428C5.00041 8.30064 5 8.317 5 8.33336C5 8.34972 5.00041 8.36608 5.0012 8.38242C5.002 8.39877 5.0032 8.41508 5.00481 8.43137C5.00642 8.44766 5.00842 8.46389 5.01083 8.48008C5.01322 8.49628 5.01602 8.51239 5.01922 8.52844C5.02241 8.54448 5.02598 8.56045 5.02997 8.57633C5.03395 8.5922 5.03831 8.60797 5.04306 8.62364C5.04781 8.6393 5.05294 8.65483 5.05845 8.67025C5.06397 8.68566 5.06986 8.70092 5.07613 8.71603C5.08239 8.73116 5.08902 8.74611 5.09602 8.76091C5.103 8.7757 5.11036 8.79031 5.11808 8.80475C5.1258 8.81919 5.13386 8.83342 5.14227 8.84745C5.15069 8.8615 5.15944 8.87531 5.16853 8.88892C5.17763 8.90253 5.18705 8.91591 5.1968 8.92905C5.20655 8.94219 5.21661 8.95509 5.22698 8.96775C5.23738 8.98039 5.24806 8.99278 5.25905 9.00491C5.27003 9.01705 5.28131 9.02889 5.29289 9.04047C5.30447 9.05203 5.31631 9.06331 5.32844 9.07431C5.34056 9.0853 5.35295 9.09598 5.36561 9.10636C5.37825 9.11675 5.39116 9.12681 5.4043 9.13656C5.41744 9.14631 5.43081 9.15573 5.44442 9.16483C5.45803 9.17392 5.47186 9.18267 5.48589 9.19108C5.49994 9.1995 5.51417 9.20756 5.52861 9.21528C5.54303 9.22298 5.55764 9.23034 5.57244 9.23734C5.58723 9.24434 5.6022 9.25097 5.61731 9.25723C5.63244 9.2635 5.6477 9.26937 5.66311 9.27489C5.67852 9.28041 5.69405 9.28555 5.70972 9.2903C5.72538 9.29505 5.74114 9.29941 5.75702 9.30339C5.77289 9.30736 5.78886 9.31094 5.80491 9.31414C5.82095 9.31733 5.83708 9.32012 5.85327 9.32253C5.86945 9.32492 5.88569 9.32694 5.90198 9.32855C5.91827 9.33014 5.93458 9.33134 5.95094 9.33216C5.96728 9.33295 5.98364 9.33336 6 9.33336ZM11 8.33336C11 8.317 10.9996 8.30064 10.9988 8.28428C10.998 8.26794 10.9968 8.25163 10.9952 8.23534C10.9936 8.21905 10.9916 8.20281 10.9892 8.18662C10.9868 8.17044 10.984 8.15431 10.9808 8.13827C10.9776 8.12222 10.974 8.10625 10.97 8.09037C10.966 8.0745 10.9617 8.05873 10.9569 8.04308C10.9522 8.02741 10.9471 8.01188 10.9415 7.99647C10.936 7.98105 10.9301 7.96578 10.9239 7.95067C10.9176 7.93555 10.911 7.92059 10.904 7.9058C10.897 7.891 10.8896 7.87639 10.8819 7.86195C10.8742 7.84753 10.8661 7.8333 10.8577 7.81925C10.8493 7.8052 10.8406 7.79139 10.8315 7.77778C10.8224 7.76417 10.813 7.7508 10.8032 7.73766C10.7935 7.72452 10.7834 7.71161 10.773 7.69895C10.7626 7.68631 10.7519 7.67392 10.741 7.6618C10.73 7.64967 10.7187 7.63783 10.7071 7.62625C10.6955 7.61467 10.6837 7.60339 10.6716 7.59241C10.6594 7.58142 10.647 7.57073 10.6344 7.56034C10.6218 7.54995 10.6088 7.53989 10.5957 7.53014C10.5826 7.52039 10.5692 7.51097 10.5556 7.50189C10.542 7.4928 10.5281 7.48405 10.5141 7.47563C10.5001 7.4672 10.4858 7.45914 10.4714 7.45144C10.457 7.44372 10.4423 7.43636 10.4275 7.42936C10.4128 7.42238 10.3978 7.41573 10.3827 7.40947C10.3676 7.4032 10.3523 7.39733 10.3369 7.39181C10.3215 7.3863 10.306 7.38117 10.2903 7.37642C10.2746 7.37166 10.2589 7.3673 10.243 7.36333C10.2271 7.35934 10.2111 7.35577 10.1951 7.35256C10.179 7.34937 10.1629 7.34658 10.1467 7.34417C10.1305 7.34178 10.1143 7.33978 10.098 7.33817C10.0817 7.33656 10.0654 7.33536 10.0491 7.33456C10.0327 7.33377 10.0164 7.33336 10 7.33336C9.98364 7.33336 9.96728 7.33377 9.95094 7.33456C9.9346 7.33536 9.91828 7.33656 9.90199 7.33817C9.88569 7.33978 9.86945 7.34178 9.85327 7.34417C9.83708 7.34658 9.82095 7.34937 9.80491 7.35256C9.78886 7.35577 9.77289 7.35934 9.75702 7.36333C9.74114 7.3673 9.72538 7.37166 9.70972 7.37642C9.69405 7.38117 9.67852 7.3863 9.66311 7.39181C9.6477 7.39733 9.63244 7.4032 9.61731 7.40947C9.6022 7.41573 9.58724 7.42238 9.57244 7.42936C9.55764 7.43636 9.54303 7.44372 9.52861 7.45144C9.51417 7.45914 9.49994 7.4672 9.48589 7.47563C9.47186 7.48405 9.45803 7.4928 9.44442 7.50189C9.43081 7.51097 9.41744 7.52039 9.4043 7.53014C9.39116 7.53989 9.37825 7.54995 9.36561 7.56034C9.35295 7.57073 9.34056 7.58142 9.32844 7.59241C9.31631 7.60339 9.30447 7.61467 9.29289 7.62625C9.28131 7.63783 9.27003 7.64967 9.25905 7.6618C9.24806 7.67392 9.23738 7.68631 9.22698 7.69895C9.21661 7.71161 9.20655 7.72452 9.1968 7.73766C9.18705 7.7508 9.17763 7.76417 9.16853 7.77778C9.15944 7.79139 9.15069 7.80522 9.14227 7.81925C9.13386 7.8333 9.1258 7.84753 9.11808 7.86195C9.11036 7.87639 9.103 7.891 9.09602 7.9058C9.08902 7.92059 9.08239 7.93555 9.07613 7.95067C9.06986 7.96578 9.06397 7.98105 9.05845 7.99647C9.05294 8.01188 9.04781 8.02741 9.04306 8.04308C9.03831 8.05873 9.03395 8.0745 9.02997 8.09037C9.02599 8.10625 9.02241 8.12222 9.01922 8.13827C9.01602 8.15431 9.01322 8.17044 9.01083 8.18662C9.00842 8.20281 9.00642 8.21905 9.00481 8.23534C9.0032 8.25163 9.002 8.26794 9.0012 8.28428C9.00041 8.30064 9 8.317 9 8.33336C9 8.34972 9.00041 8.36608 9.0012 8.38242C9.002 8.39877 9.0032 8.41508 9.00481 8.43137C9.00642 8.44766 9.00842 8.46389 9.01083 8.48008C9.01322 8.49628 9.01602 8.51239 9.01922 8.52844C9.02241 8.54448 9.02599 8.56045 9.02997 8.57633C9.03395 8.5922 9.03831 8.60797 9.04306 8.62364C9.04781 8.6393 9.05294 8.65483 9.05845 8.67025C9.06397 8.68566 9.06986 8.70092 9.07613 8.71603C9.08239 8.73116 9.08902 8.74611 9.09602 8.76091C9.103 8.7757 9.11036 8.79031 9.11808 8.80475C9.1258 8.81919 9.13386 8.83342 9.14227 8.84745C9.15069 8.8615 9.15944 8.87531 9.16853 8.88892C9.17763 8.90253 9.18705 8.91591 9.1968 8.92905C9.20655 8.94219 9.21661 8.95509 9.22698 8.96775C9.23738 8.98039 9.24806 8.99278 9.25905 9.00491C9.27003 9.01705 9.28131 9.02889 9.29289 9.04047C9.30447 9.05203 9.31631 9.06331 9.32844 9.07431C9.34056 9.0853 9.35295 9.09598 9.36561 9.10636C9.37825 9.11675 9.39116 9.12681 9.4043 9.13656C9.41744 9.14631 9.43081 9.15573 9.44442 9.16483C9.45803 9.17392 9.47186 9.18267 9.48589 9.19108C9.49994 9.1995 9.51417 9.20756 9.52861 9.21528C9.54303 9.22298 9.55764 9.23034 9.57244 9.23734C9.58724 9.24434 9.6022 9.25097 9.61731 9.25723C9.63244 9.2635 9.6477 9.26937 9.66311 9.27489C9.67852 9.28041 9.69405 9.28555 9.70972 9.2903C9.72538 9.29505 9.74114 9.29941 9.75702 9.30339C9.77289 9.30736 9.78886 9.31094 9.80491 9.31414C9.82095 9.31733 9.83708 9.32012 9.85327 9.32253C9.86945 9.32492 9.88569 9.32694 9.90199 9.32855C9.91828 9.33014 9.9346 9.33134 9.95094 9.33216C9.96728 9.33295 9.98364 9.33336 10 9.33336C10.0164 9.33336 10.0327 9.33295 10.0491 9.33216C10.0654 9.33134 10.0817 9.33014 10.098 9.32853C10.1143 9.32692 10.1305 9.32492 10.1467 9.32253C10.1629 9.32012 10.179 9.31733 10.1951 9.31414C10.2111 9.31094 10.2271 9.30736 10.243 9.30339C10.2589 9.29941 10.2746 9.29505 10.2903 9.2903C10.306 9.28555 10.3215 9.28041 10.3369 9.27489C10.3523 9.26937 10.3676 9.2635 10.3827 9.25723C10.3978 9.25097 10.4128 9.24434 10.4275 9.23734C10.4423 9.23034 10.457 9.22298 10.4714 9.21528C10.4858 9.20756 10.5001 9.1995 10.5141 9.19108C10.5281 9.18267 10.542 9.17392 10.5556 9.16483C10.5692 9.15573 10.5826 9.14631 10.5957 9.13656C10.6088 9.12681 10.6218 9.11675 10.6344 9.10636C10.647 9.09598 10.6594 9.0853 10.6716 9.07431C10.6837 9.06331 10.6955 9.05203 10.7071 9.04047C10.7187 9.02889 10.73 9.01705 10.741 9.00491C10.7519 8.99278 10.7626 8.98039 10.773 8.96775C10.7834 8.95509 10.7935 8.94219 10.8032 8.92905C10.813 8.91591 10.8224 8.90253 10.8315 8.88892C10.8406 8.87531 10.8493 8.8615 10.8577 8.84745C10.8661 8.83342 10.8742 8.81919 10.8819 8.80475C10.8896 8.79031 10.897 8.7757 10.904 8.76091C10.911 8.74611 10.9176 8.73116 10.9239 8.71603C10.9301 8.70092 10.936 8.68566 10.9415 8.67025C10.9471 8.65483 10.9522 8.6393 10.9569 8.62364C10.9617 8.60797 10.966 8.5922 10.97 8.57633C10.974 8.56045 10.9776 8.54448 10.9808 8.52844C10.984 8.51239 10.9868 8.49628 10.9892 8.48008C10.9916 8.46389 10.9936 8.44766 10.9952 8.43137C10.9968 8.41508 10.998 8.39877 10.9988 8.38242C10.9996 8.36608 11 8.34972 11 8.33336Z"   fill="currentColor" ></path></svg>