<svg xmlns="http://www.w3.org/2000/svg" xmlns:xlink="http://www.w3.org/1999/xlink" width="24" height="24" viewBox="0 0 24 24" fill="none"><g mask="url(#mask-2_1644)"><path d="M2.40039 3.6L2.40039 20.4C2.40039 20.4589 2.40184 20.5178 2.40473 20.5766C2.40762 20.6355 2.41195 20.6942 2.41772 20.7529C2.4235 20.8115 2.43071 20.87 2.43935 20.9282C2.448 20.9865 2.45807 21.0445 2.46956 21.1023C2.48106 21.1601 2.49396 21.2176 2.50828 21.2747C2.52259 21.3319 2.5383 21.3887 2.55541 21.445C2.57251 21.5014 2.59098 21.5573 2.61083 21.6128C2.63068 21.6683 2.65188 21.7232 2.67442 21.7777C2.69697 21.8321 2.72084 21.886 2.74603 21.9392C2.77122 21.9925 2.7977 22.0451 2.82547 22.097C2.85324 22.149 2.88228 22.2002 2.91257 22.2508C2.94286 22.3013 2.97437 22.3511 3.0071 22.4C3.03983 22.4491 3.07375 22.4972 3.10884 22.5445C3.14394 22.5919 3.18018 22.6383 3.21755 22.6838C3.25493 22.7294 3.2934 22.774 3.33296 22.8176C3.37253 22.8613 3.41315 22.9039 3.45481 22.9456C3.49646 22.9873 3.53912 23.0279 3.58278 23.0674C3.62643 23.107 3.67103 23.1455 3.71657 23.1829C3.76212 23.2202 3.80855 23.2564 3.85587 23.2915C3.90319 23.3266 3.95135 23.3606 4.00034 23.3933C4.04933 23.426 4.09909 23.4575 4.14962 23.4878C4.20016 23.5181 4.2514 23.5471 4.30336 23.5749C4.35532 23.6027 4.40793 23.6292 4.46119 23.6543C4.51445 23.6795 4.5683 23.7034 4.62273 23.726C4.67716 23.7485 4.73212 23.7697 4.78759 23.7896C4.84306 23.8094 4.89898 23.8279 4.95536 23.845C5.01175 23.8621 5.06851 23.8778 5.12566 23.8921C5.18281 23.9065 5.24028 23.9194 5.29807 23.9308C5.35585 23.9423 5.41389 23.9524 5.47216 23.9611C5.53044 23.9697 5.5889 23.9769 5.64753 23.9827C5.70616 23.9884 5.7649 23.9927 5.82375 23.9957C5.88259 23.9986 5.94148 24 6.00039 24L18.0004 24C18.0593 24 18.1182 23.9986 18.177 23.9957C18.2359 23.9927 18.2946 23.9884 18.3533 23.9827C18.4119 23.9769 18.4704 23.9697 18.5286 23.9611C18.5869 23.9524 18.6449 23.9423 18.7027 23.9308C18.7605 23.9194 18.818 23.9065 18.8751 23.8921C18.9323 23.8778 18.9891 23.8621 19.0454 23.845C19.1018 23.8279 19.1577 23.8094 19.2132 23.7896C19.2687 23.7697 19.3236 23.7485 19.3781 23.726C19.4325 23.7034 19.4864 23.6795 19.5396 23.6543C19.5929 23.6292 19.6455 23.6027 19.6974 23.5749C19.7494 23.5471 19.8006 23.5181 19.8512 23.4878C19.9017 23.4575 19.9515 23.426 20.0004 23.3933C20.0494 23.3606 20.0976 23.3266 20.1449 23.2915C20.1923 23.2564 20.2387 23.2202 20.2842 23.1829C20.3298 23.1455 20.3744 23.107 20.418 23.0674C20.4617 23.0279 20.5043 22.9873 20.546 22.9456C20.5877 22.9039 20.6283 22.8613 20.6678 22.8176C20.7074 22.774 20.7459 22.7294 20.7833 22.6838C20.8206 22.6383 20.8568 22.5919 20.8919 22.5445C20.927 22.4972 20.961 22.4491 20.9937 22.4C21.0264 22.3511 21.0579 22.3013 21.0882 22.2508C21.1185 22.2002 21.1475 22.149 21.1753 22.097C21.2031 22.0451 21.2296 21.9925 21.2547 21.9392C21.2799 21.886 21.3038 21.8321 21.3264 21.7777C21.3489 21.7232 21.3701 21.6683 21.39 21.6128C21.4098 21.5573 21.4283 21.5014 21.4454 21.445C21.4625 21.3887 21.4782 21.3319 21.4925 21.2747C21.5069 21.2176 21.5198 21.1601 21.5312 21.1023C21.5427 21.0445 21.5528 20.9865 21.5615 20.9282C21.5701 20.87 21.5773 20.8115 21.5831 20.7529C21.5888 20.6942 21.5931 20.6355 21.5961 20.5766C21.599 20.5178 21.6004 20.4589 21.6004 20.4L21.6004 6L15.6004 0L6.00039 0C5.94148 0 5.88259 0.00144545 5.82374 0.00433636C5.7649 0.00722724 5.70616 0.0115601 5.64753 0.017335C5.5889 0.0231098 5.53044 0.0303197 5.47216 0.0389645C5.41389 0.0476094 5.35585 0.0576788 5.29807 0.0691728C5.24028 0.080667 5.18281 0.0935718 5.12566 0.107887C5.06851 0.122203 5.01175 0.137912 4.95536 0.155015C4.89898 0.172118 4.84306 0.190593 4.78759 0.210442C4.73212 0.23029 4.67716 0.251488 4.62273 0.274034C4.5683 0.29658 4.51445 0.320449 4.46119 0.345638C4.40793 0.370829 4.35532 0.39731 4.30336 0.425083C4.2514 0.452857 4.20016 0.481888 4.14962 0.512177C4.09909 0.542466 4.04933 0.573976 4.00034 0.606708C3.95135 0.639438 3.90319 0.673356 3.85587 0.70845C3.80855 0.74355 3.76212 0.77979 3.71657 0.817164C3.67103 0.854538 3.62643 0.89301 3.58278 0.932574C3.53912 0.972144 3.49646 1.01276 3.45481 1.05442C3.41315 1.09607 3.37253 1.13873 3.33296 1.18239C3.2934 1.22604 3.25493 1.27064 3.21755 1.31618C3.18018 1.36173 3.14394 1.40816 3.10884 1.45548C3.07375 1.5028 3.03983 1.55096 3.0071 1.59995C2.97437 1.64894 2.94286 1.6987 2.91257 1.74923C2.88228 1.79977 2.85324 1.85101 2.82547 1.90297C2.7977 1.95493 2.77122 2.00754 2.74603 2.0608C2.72084 2.11406 2.69697 2.16791 2.67442 2.22234C2.65188 2.27677 2.63068 2.33173 2.61083 2.3872C2.59098 2.44267 2.57251 2.49859 2.55541 2.55497C2.5383 2.61136 2.52259 2.66812 2.50828 2.72527C2.49396 2.78242 2.48106 2.83989 2.46956 2.89768C2.45807 2.95546 2.448 3.01349 2.43935 3.07177C2.43071 3.13005 2.4235 3.18851 2.41772 3.24714C2.41195 3.30577 2.40762 3.36451 2.40473 3.42335C2.40184 3.4822 2.40039 3.54109 2.40039 3.6Z"   fill="#437CF7" ></path></g><g mask="url(#mask-2_1644)"><path d="M10.8592 8.15234L10.8277 8.15234L10.7961 8.15234L10.7751 8.15234L10.7435 8.16286L10.7225 8.16286L10.691 8.16286L10.6594 8.17338L10.6384 8.17338L10.6069 8.19441L10.5963 8.20492L10.5648 8.21544L10.5333 8.21544L10.5122 8.22596L10.4807 8.24699L10.4702 8.25751L10.4386 8.28905L10.4176 8.29957L10.3966 8.31009L10.3755 8.33112L10.3545 8.35215L10.344 8.37318L10.3125 8.39421L10.3019 8.41525L10.2914 8.43628L10.2599 8.45731L10.2494 8.47834L10.2389 8.50989L10.2178 8.52041L10.2073 8.55196L10.2073 8.57299L10.1968 8.60454L10.1758 8.63609L7.7049 15.5662L7.69438 15.6083C7.69438 15.6083 7.68387 15.6364 7.68387 15.6503C7.68387 15.6643 7.68387 15.6784 7.68387 15.6924C7.68387 15.7065 7.68387 15.7203 7.68387 15.7345C7.68387 15.7486 7.66284 15.7624 7.66284 15.7765C7.66284 15.7907 7.66284 15.8044 7.66284 15.8186C7.66284 15.8327 7.68387 15.8466 7.68387 15.8607C7.68387 15.8748 7.68387 15.8887 7.68387 15.9027C7.68387 15.9167 7.69438 15.9204 7.69438 15.9343C7.69438 15.9481 7.69438 15.9763 7.69438 15.9763L7.7049 16.0184L7.72593 16.0605L7.74696 16.1025L7.75747 16.1446L7.78901 16.1761L7.79953 16.2182L7.83107 16.2392L7.86261 16.2813L7.88364 16.3129L7.9257 16.3444L7.95724 16.3654L7.9993 16.397L8.02033 16.4075L8.06239 16.439L8.10444 16.4496L8.1465 16.4601L8.17804 16.4811L8.2201 16.4916C8.2201 16.4916 8.24821 16.5021 8.26216 16.5021C8.27608 16.5021 8.30067 16.5021 8.31473 16.5021C8.32879 16.5021 8.34264 16.5021 8.35679 16.5021C8.37093 16.5021 8.38468 16.5232 8.39884 16.5232L8.41987 16.5021L8.45142 16.5021L8.46193 16.5021L8.49347 16.5021L8.52502 16.5021L8.54605 16.4916L8.57759 16.4916L8.60913 16.4811L8.63016 16.4811L8.6617 16.4601L8.67222 16.4496L8.70376 16.439L8.72479 16.439L8.75633 16.418L8.76685 16.4075L8.79839 16.397L8.8089 16.3759L8.84045 16.3549L8.87199 16.3444L8.8825 16.3234L8.89302 16.3023L8.92456 16.2813L8.93507 16.2708L8.94559 16.2392L8.96662 16.2287L8.98765 16.1972L9.00867 16.1761L9.01919 16.1551L9.0297 16.1341L9.0297 16.1025L9.05073 16.092L9.06125 16.0605L9.54491 14.7144L9.54491 14.6934L9.55542 14.6934L9.55542 14.6829L9.57645 14.6829L9.57645 14.6723L9.58696 14.6723L9.59748 14.6723L9.59748 14.6513L9.60799 14.6513L12.0053 14.6513C12.0395 14.6513 12.0683 14.6821 12.0683 14.7144L12.531 16.0499L12.5415 16.0815L12.552 16.1236L12.573 16.1446L12.5835 16.1761L12.6046 16.1972L12.6256 16.2287L12.6466 16.2603L12.6677 16.2813L12.6887 16.3129L12.7202 16.3444L12.7518 16.3654L12.7728 16.3759L12.8043 16.4075L12.8254 16.418L12.8569 16.439L12.8885 16.4496L12.9305 16.4811L12.9515 16.4811L12.9936 16.4916L13.0251 16.5021L13.0567 16.5232L13.0882 16.5232L13.1303 16.5232L13.1618 16.5337L13.2039 16.5337L13.2354 16.5337L13.2775 16.5232L13.2985 16.5232L13.3406 16.5232L13.3721 16.5021L13.4142 16.5021L13.4352 16.4916L13.4667 16.4811L13.5088 16.4601L13.5298 16.4496L13.5614 16.439L13.5929 16.4075L13.635 16.397L13.656 16.3654L13.6875 16.3549L13.6981 16.3234L13.7296 16.3023L13.7506 16.2708L13.7717 16.2392L13.7927 16.2182L13.8137 16.1867L13.8347 16.1551L13.8558 16.1341L13.8663 16.092L13.8768 16.0605L13.8978 16.0184L13.8978 15.9974L13.9083 15.9658L13.9189 15.9238L13.9189 15.9027L13.9189 15.8607L13.9189 15.8186L13.9189 15.787L13.9189 15.745L13.9189 15.7134L13.9189 15.6714L13.9083 15.6503L13.9083 15.6083L13.8978 15.5767L11.5321 8.6466L11.5321 8.61505L11.5216 8.59402L11.5006 8.56247L11.4901 8.53092L11.4795 8.50989L11.4585 8.48886L11.448 8.46783L11.4375 8.43628L11.427 8.42576L11.3954 8.39421L11.3849 8.3837L11.3639 8.35215L11.3429 8.34163L11.3218 8.31009L11.3008 8.29957L11.2693 8.28905L11.2587 8.26802L11.2272 8.25751L11.1957 8.24699L11.1851 8.22596L11.1641 8.21544L11.1326 8.20492L11.101 8.19441L11.08 8.19441L11.0485 8.17338L11.0169 8.16286L10.9959 8.16286L10.9643 8.16286L10.9433 8.15234L10.9118 8.15234L10.8802 8.15234L10.8592 8.15234ZM15.6222 8.15234L15.5801 8.15234L15.5486 8.16286L15.5065 8.16286L15.4855 8.16286L15.4434 8.17338L15.4119 8.17338L15.3804 8.19441L15.3488 8.20492L15.3173 8.21544L15.2857 8.22596L15.2437 8.24699L15.2226 8.26802L15.1911 8.28905L15.1596 8.31009L15.1385 8.33112L15.107 8.35215L15.0965 8.3837L15.0649 8.41525L15.0439 8.43628L15.0229 8.46783L15.0018 8.48886L14.9808 8.52041L14.9703 8.55196L14.9598 8.59402L14.9388 8.61505L14.9282 8.6466L14.9282 8.68867L14.9177 8.7097L14.9072 8.75176L14.9072 8.78331L14.9072 8.82538L14.9072 8.85692L14.9072 15.7765C14.9072 16.1625 15.2239 16.4811 15.6222 16.4811L15.6642 16.4811L15.6853 16.4811L15.7273 16.4601L15.7589 16.4601L15.8009 16.4601L15.8325 16.4496L15.8535 16.439L15.8956 16.418L15.9271 16.4075L15.9481 16.397L15.9797 16.3759L16.0217 16.3654L16.0533 16.3444L16.0743 16.3234L16.1058 16.3023L16.1269 16.2708L16.1479 16.2603L16.1689 16.2287L16.2005 16.1972L16.211 16.1761L16.232 16.1446L16.253 16.1025L16.2741 16.0815L16.2846 16.0499L16.2951 16.0184L16.3056 15.9763L16.3056 15.9553L16.3266 15.9132L16.3266 15.8817L16.3372 15.8396L16.3372 15.8186L16.3372 15.7765L16.3372 8.85692L16.3372 8.82538L16.3372 8.78331L16.3372 8.75176L16.3266 8.7097L16.3056 8.68867L16.3056 8.6466L16.2951 8.61505L16.2846 8.59402L16.2741 8.55196L16.253 8.52041L16.232 8.48886L16.211 8.46783L16.2005 8.43628L16.1689 8.41525L16.1479 8.3837L16.1269 8.35215L16.1058 8.33112L16.0743 8.31009L16.0533 8.28905L16.0217 8.26802L15.9902 8.24699L15.9481 8.22596L15.9271 8.21544L15.8956 8.20492L15.8535 8.19441L15.8325 8.17338L15.8009 8.17338L15.7589 8.16286L15.7273 8.16286L15.6853 8.16286L15.6642 8.15234L15.6222 8.15234ZM10.8382 11.2336C10.8743 11.2336 10.9118 11.2538 10.9118 11.2861L11.5321 13.0949L11.5321 13.1054L11.5321 13.116L11.5321 13.137L11.5321 13.1475L11.5216 13.1475L11.5216 13.158L11.5006 13.179L11.4901 13.1896L11.4795 13.2001L11.4585 13.2001L11.448 13.2001L10.1968 13.2001L10.1758 13.2001L10.1653 13.2001L10.1653 13.1896L10.1547 13.1896L10.1337 13.179L10.1232 13.158L10.1232 13.1475L10.1127 13.137L10.1127 13.1054L10.1232 13.0949L10.7541 11.2861L10.7541 11.2651L10.7751 11.2651L10.7751 11.2546L10.7856 11.2546L10.7961 11.2441L10.8171 11.2441L10.8277 11.2441L10.8277 11.2336L10.8382 11.2336Z"   fill="#FCFDFF" ></path></g><g mask="url(#mask-2_1644)"><path d="M15.6006 0L15.6006 3.6C15.6006 3.67861 15.6044 3.75702 15.6122 3.83524C15.6198 3.91346 15.6314 3.99112 15.6467 4.06822C15.662 4.14531 15.6811 4.22146 15.7039 4.29668C15.7267 4.3719 15.7532 4.44582 15.7833 4.51844C15.8134 4.59106 15.8469 4.66203 15.884 4.73135C15.921 4.80067 15.9614 4.86801 16.005 4.93337C16.0487 4.99873 16.0955 5.06178 16.1454 5.12254C16.1952 5.1833 16.2479 5.24148 16.3035 5.29706C16.3591 5.35264 16.4173 5.40536 16.478 5.45522C16.5388 5.50509 16.6018 5.55186 16.6672 5.59553C16.7326 5.6392 16.7999 5.67956 16.8692 5.71661C16.9385 5.75366 17.0095 5.78723 17.0822 5.81731C17.1548 5.84739 17.2287 5.87384 17.3039 5.89666C17.3791 5.91947 17.4553 5.93855 17.5323 5.95388C17.6095 5.96922 17.6871 5.98074 17.7653 5.98844C17.8436 5.99615 17.922 6 18.0006 6L21.6006 6L15.6006 0Z"   fill="#FFFFFF" fill-opacity="0.4"></path></g><defs><mask id="mask-2_1644" style="mask-type:alpha" maskUnits="userSpaceOnUse"><rect x="0" y="0" width="24" height="24"   fill="#000000" ></rect><rect x="0" y="0" width="24" height="24"   fill="#000000" ></rect></mask></defs></svg>