<svg xmlns="http://www.w3.org/2000/svg" xmlns:xlink="http://www.w3.org/1999/xlink" width="20" height="20" viewBox="0 0 20 20" fill="none"><path d="M8.74642 15.8332C12.6584 15.8332 15.8298 12.6618 15.8298 8.74984C15.8298 4.83784 12.6584 1.6665 8.74642 1.6665C4.83442 1.6665 1.66309 4.83784 1.66309 8.74984C1.66309 12.6618 4.83442 15.8332 8.74642 15.8332Z" stroke="currentColor" stroke-width="1.5" stroke-linejoin="round"     fill="currentColor" ></path><path    stroke="currentColor" stroke-width="1.6666666666666665" stroke-linejoin="round" stroke-linecap="round"  d="M13.8389 13.8423L17.3744 17.3778"></path><path d="M12.1698 4.60938L12.1457 4.60938L12.1217 4.60938L12.0857 4.62139L12.0616 4.62139L12.0256 4.62139L12.0016 4.63341L11.9775 4.64542L11.9415 4.65744L11.9174 4.66945L11.8934 4.68147L11.8694 4.69348L11.8454 4.7055L11.8213 4.72953L11.7973 4.74154L11.7733 4.76557L11.7492 4.7896L11.7252 4.80162L11.7132 4.82565L11.6892 4.84968L11.6771 4.87371L11.6651 4.89774L11.6411 4.92177L11.6291 4.95781L11.6171 4.98184L11.6051 5.00587L11.6051 5.0299L11.593 5.06595L11.581 5.08998L11.581 5.12602L11.581 5.15005L11.581 5.1861L11.569 5.21013L11.569 11.9746L11.581 11.9987L11.581 12.0227L11.581 12.0587L11.581 12.0828L11.593 12.1188L11.6051 12.1428L11.6051 12.1669L11.6171 12.2029L11.6291 12.2269L11.6411 12.251L11.6651 12.275L11.6771 12.299L11.6892 12.3231L11.7132 12.3471L11.7252 12.3711L11.7492 12.3952L11.7733 12.4192L11.7973 12.4312L11.8213 12.4552L11.8454 12.4672L11.8694 12.4793L11.8934 12.5033L11.9174 12.5153L11.9415 12.5273L11.9775 12.5393L12.0016 12.5393L12.0256 12.5513L12.0616 12.5634L12.0857 12.5634L12.1217 12.5634L12.1457 12.5634L12.1698 12.5754L12.2058 12.5634L12.2298 12.5634L12.2659 12.5634L12.2899 12.5634L12.326 12.5513L12.35 12.5393L12.374 12.5393L12.4101 12.5273L12.4341 12.5153L12.4581 12.5033L12.4822 12.4793L12.5062 12.4672L12.5302 12.4552L12.5542 12.4312L12.5783 12.4192L12.6023 12.3952L12.6143 12.3711L12.6383 12.3471L12.6624 12.3231L12.6744 12.299L12.6864 12.275L12.7104 12.251L12.7225 12.2269L12.7345 12.2029L12.7465 12.1669L12.7465 12.1428L12.7585 12.1188L12.7585 12.0828L12.7705 12.0587L12.7705 12.0227L12.7705 11.9987L12.7705 11.9746L12.7705 5.21013L12.7705 5.1861L12.7705 5.15005L12.7705 5.12602L12.7585 5.08998L12.7585 5.06595L12.7465 5.0299L12.7465 5.00587L12.7345 4.98184L12.7225 4.95781L12.7104 4.92177L12.6864 4.89774L12.6744 4.87371L12.6624 4.84968L12.6383 4.82565L12.6143 4.80162L12.6023 4.7896L12.5783 4.76557L12.5542 4.74154L12.5302 4.72953L12.5062 4.7055L12.4822 4.69348L12.4581 4.68147L12.4341 4.66945L12.4101 4.65744L12.374 4.64542L12.35 4.63341L12.326 4.62139L12.2899 4.62139L12.2659 4.62139L12.2298 4.60938L12.2058 4.60938L12.1698 4.60938ZM7.85637 4.95781C7.63589 4.47781 6.94623 4.50244 6.75099 4.99386L4.26388 11.2537L4.25187 11.2777L4.23985 11.3138L4.22784 11.3378L4.22784 11.3619L4.21582 11.3979L4.21582 11.4219L4.21582 11.458L4.21582 11.482L4.21582 11.5181L4.21582 11.5421L4.22784 11.5781L4.22784 11.6022L4.23985 11.6262L4.23985 11.6622L4.25187 11.6863L4.26388 11.7103L4.2759 11.7463L4.28791 11.7704L4.29993 11.7944L4.32396 11.8184L4.33597 11.8425L4.36 11.8665L4.37202 11.8905L4.39605 11.9025L4.42008 11.9266L4.44411 11.9506L4.46814 11.9626L4.49217 11.9866L4.5162 11.9987L4.54023 12.0107L4.56426 12.0227L4.58829 12.0347L4.62433 12.0467L4.64836 12.0587L4.67239 12.0587L4.70844 12.0707L4.73247 12.0707L4.76851 12.0707L4.79254 12.0828L4.82859 12.0828L4.85262 12.0707L4.88866 12.0707L4.91269 12.0707L4.93672 12.0587L4.97277 12.0587L4.9968 12.0467L5.02083 12.0347L5.05687 12.0227L5.0809 12.0107L5.10493 11.9987L5.12896 11.9866L5.15299 11.9746L5.17702 11.9506L5.20105 11.9386L5.22508 11.9145L5.24911 11.8905L5.27314 11.8785L5.28516 11.8545L5.30919 11.8304L5.3212 11.8064L5.33322 11.7824L5.34523 11.7584L5.35725 11.7223L5.36926 11.6983L5.98203 10.1603L6.01807 10.1724L8.92571 10.1724L9.64661 11.7223L9.65862 11.7584L9.67064 11.7824L9.68265 11.8064L9.70668 11.8304L9.7187 11.8545L9.74273 11.8785L9.75474 11.8905L9.77877 11.9145L9.8028 11.9386L9.82683 11.9506L9.85086 11.9746L9.87489 11.9866L9.89892 11.9987L9.92295 12.0107L9.94698 12.0227L9.98303 12.0347L10.0071 12.0467L10.0311 12.0587L10.0671 12.0587L10.0912 12.0707L10.1272 12.0707L10.1512 12.0707L10.1753 12.0828L10.2113 12.0707L10.2353 12.0707L10.2714 12.0707L10.2954 12.0707L10.3315 12.0587L10.3555 12.0587L10.3795 12.0467L10.4156 12.0347L10.4396 12.0227L10.4636 12.0107L10.4877 11.9987L10.5117 11.9746L10.5357 11.9626L10.5597 11.9506L10.5838 11.9266L10.6078 11.9025L10.6318 11.8905L10.6439 11.8665L10.6679 11.8425L10.6799 11.8184L10.7039 11.7944L10.7159 11.7704L10.728 11.7343L10.74 11.7103L10.752 11.6863L10.764 11.6622L10.764 11.6262L10.776 11.6022L10.776 11.5661L10.788 11.5421L10.788 11.5181L10.788 11.482L10.788 11.458L10.788 11.4219L10.788 11.3979L10.776 11.3619L10.776 11.3378L10.764 11.3138L10.752 11.2777L10.74 11.2537L10.728 11.2297L7.85637 4.95781ZM6.46263 8.97085L7.35174 6.73605L8.37302 8.97085L6.46263 8.97085Z"   fill="#FFFFFF" ></path></svg>