<svg t="1743489506429" class="icon" viewBox="0 0 1024 1024" version="1.1" xmlns="http://www.w3.org/2000/svg" p-id="4323" width="200" height="200"><path d="M189.824 502.336a32 32 0 0 1 31.488 26.24l0.512 5.76v264.512h255.104a32 32 0 0 1 31.488 26.24l0.512 5.76a32 32 0 0 1-26.24 31.488l-5.76 0.512H189.824a32 32 0 0 1-31.488-26.24l-0.512-5.76V534.336a32 32 0 0 1 32-32z m644.352-341.12a32 32 0 0 1 31.488 26.24l0.512 5.76V489.6a32 32 0 0 1-63.488 5.76l-0.512-5.76V225.152H547.008a32 32 0 0 1-31.488-26.24l-0.512-5.76a32 32 0 0 1 26.24-31.488l5.76-0.512h287.104z" p-id="4324"></path></svg>