<svg xmlns="http://www.w3.org/2000/svg" xmlns:xlink="http://www.w3.org/1999/xlink" width="16" height="16" viewBox="0 0 16 16" fill="none">
<path d="M14.3219 9.16411L13.6547 8.40474L13.6469 8.39692C13.4438 8.19536 13.1735 8.08442 12.886 8.08599C12.6 8.08755 12.3313 8.19849 12.1281 8.39849L6.95784 12.6313L6.90002 12.6782L6.90002 14.9188L9.09846 14.9188L14.3 10.6985L14.3063 10.6938L14.3125 10.6875C14.7328 10.2657 14.736 9.58442 14.3219 9.16411ZM8.65627 13.6704L8.1469 13.6704L8.1469 13.1579L12.861 9.38286L13.3172 9.91411L8.65627 13.6704ZM3.62659 11.3735L2.79846 12.1063L2.77502 12.1266L2.77502 2.2688L12.7813 2.2688L12.7813 6.6188L14.0313 7.63911L14.0313 1.6438C14.0313 1.29849 13.7516 1.0188 13.4063 1.0188L2.15002 1.0188C1.80471 1.0188 1.52502 1.29849 1.52502 1.6438L1.52502 14.8907L1.53596 14.8907L3.62659 13.0422L5.72815 14.9L5.72815 13.2313L4.45471 12.1047L3.62659 11.3735ZM4.61565 5.35317L8.76409 5.35317C9.10627 5.35317 9.3844 5.07349 9.3844 4.73286C9.3844 4.39067 9.10471 4.11255 8.76409 4.11255L4.61565 4.11255C4.27346 4.11255 3.99534 4.39224 3.99534 4.73286C3.99377 5.07349 4.27346 5.35317 4.61565 5.35317ZM3.99377 7.93599C3.99377 8.27817 4.27346 8.5563 4.61409 8.5563L9.84065 8.5563C10.1828 8.5563 10.461 8.27661 10.461 7.93599C10.461 7.5938 10.1813 7.31567 9.84065 7.31567L4.61565 7.31567C4.27346 7.31411 3.99377 7.5938 3.99377 7.93599Z"   fill="#777777" >
</path>
</svg>
