<svg t="1745055250119" class="icon" viewBox="0 0 1024 1024" version="1.1" xmlns="http://www.w3.org/2000/svg" p-id="2099" width="200" height="200"><path d="M832 896H192V192h368c17.6 0 32-14.4 32-32s-14.4-32-32-32H128v832h768V464c0-17.6-14.4-32-32-32s-32 14.4-32 32v432z" fill="" p-id="2100"></path><path d="M656 96c0 17.6 14.4 32 32 32h163.2L281.6 700.8c-12.8 12.8-12.8 32 0 44.8 12.8 12.8 33.6 12.8 44.8 0L896 172.8V336c0 17.6 14.4 32 32 32s32-14.4 32-32V64H688c-17.6 0-32 14.4-32 32z" fill="" p-id="2101"></path></svg>