<svg xmlns="http://www.w3.org/2000/svg" xmlns:xlink="http://www.w3.org/1999/xlink" width="16" height="16" viewBox="0 0 16 16" fill="none"><path d="M0.833108 7.99994L0.833108 8.00038C0.834018 11.9576 4.0423 15.1654 7.99978 15.1654C11.9546 15.1654 15.1613 11.9619 15.1664 8.00822L15.1665 7.99994L15.1665 7.993C15.1627 4.03695 11.9555 0.832031 7.99978 0.832031C4.04173 0.832031 0.833108 4.04066 0.833108 7.9987L0.833108 7.99968L0.833108 7.99994ZM7.99978 1.83203L8.00056 1.83203Q8.3274 1.83247 8.67449 2.19948Q9.0875 2.63621 9.42115 3.47034Q9.6239 3.97721 9.77416 4.57529Q8.91643 4.83347 8.00026 4.83347Q7.0836 4.83347 6.22546 4.57502Q6.3757 3.9771 6.5784 3.47034Q6.91205 2.63621 7.32507 2.19948Q7.67215 1.83247 7.99899 1.83203L7.99978 1.83203ZM3.96759 3.33282C4.59343 2.79149 5.32932 2.37397 6.13717 2.11832Q5.87243 2.54268 5.64992 3.09895Q5.44389 3.61404 5.28769 4.20679Q4.57095 3.85629 3.96759 3.33282ZM10.712 4.20722Q11.4289 3.85676 12.0325 3.33325C11.4065 2.79171 10.6704 2.37403 9.86238 2.11832Q10.1271 2.54268 10.3496 3.09895Q10.5557 3.61422 10.712 4.20722ZM1.85299 7.49994C1.95773 6.19125 2.47106 4.99778 3.26533 4.04716Q4.07738 4.76431 5.06905 5.20848Q5.05919 5.26409 5.04968 5.32031Q4.87203 6.37033 4.84011 7.49994L1.85299 7.49994ZM14.1466 7.49994L11.1594 7.49994Q11.1275 6.37033 10.9499 5.32031Q10.9404 5.26436 10.9306 5.20889Q11.9224 4.7648 12.7346 4.04766C13.5287 4.9982 14.0418 6.19148 14.1466 7.49994ZM6.02384 5.55821Q5.87073 6.49354 5.84053 7.49994L10.159 7.49994Q10.1288 6.49368 9.97576 5.55848Q9.01868 5.83347 8.00026 5.83347Q6.98134 5.83347 6.02384 5.55821ZM1.85319 8.49994L4.84018 8.49994Q4.87223 9.6282 5.04968 10.6771Q5.0595 10.7351 5.06972 10.7926Q4.07884 11.2363 3.26727 11.9525C2.47239 11.0022 1.95847 9.80872 1.85319 8.49994ZM3.96991 12.6666C4.59526 13.2069 5.33033 13.6238 6.1372 13.8791Q5.87244 13.4547 5.64992 12.8984Q5.44451 12.3849 5.28864 11.7942Q4.57273 12.1441 3.96991 12.6666ZM6.22641 11.4261Q6.37634 12.0219 6.5784 12.527Q6.91205 13.3612 7.32507 13.7979Q7.67257 14.1653 7.99978 14.1653Q8.32698 14.1653 8.67449 13.7979Q9.0875 13.3612 9.42115 12.527Q9.62326 12.0217 9.77321 11.4258Q8.91593 11.1679 8.00025 11.1679Q7.08411 11.1679 6.22641 11.4261ZM10.711 11.7937Q10.5551 12.3847 10.3496 12.8984Q10.1271 13.4547 9.86235 13.8791C10.6694 13.6237 11.4047 13.2067 12.0301 12.6662Q11.4271 12.1436 10.711 11.7937ZM12.7327 11.952C13.5273 11.0017 14.0411 9.80849 14.1464 8.49994L11.1594 8.49994Q11.1273 9.62821 10.9499 10.6771Q10.9401 10.735 10.9299 10.7922Q11.921 11.2359 12.7327 11.952ZM9.97512 10.4428Q9.01834 10.1679 8.00025 10.1679Q6.98168 10.1679 6.02447 10.443Q5.87098 9.50707 5.84061 8.49994L10.1589 8.49994Q10.1286 9.50693 9.97512 10.4428Z" fill-rule="evenodd"  fill="#2563EB" ></path></svg>