<svg xmlns="http://www.w3.org/2000/svg" xmlns:xlink="http://www.w3.org/1999/xlink" width="12" height="12" viewBox="0 0 12 12" fill="none"><path d="M7.61879 9.20039C9.53961 8.45963 10.5 7.05966 10.5 5.00049C10.5 2.51521 8.48528 0.500488 6 0.500488C3.51472 0.500488 1.5 2.51521 1.5 5.00049C1.5 7.05966 2.46041 8.45963 4.38121 9.20039L4.38222 9.20081C4.4106 9.21167 4.4396 9.21983 4.44714 9.22127C4.44891 9.22157 4.44949 9.22157 4.44859 9.22109C4.48542 9.22955 4.52317 9.23387 4.56112 9.23387L7.43887 9.23387C7.5004 9.23387 7.56139 9.22253 7.61879 9.20039ZM9.5 5.00049C9.5 6.5717 8.78118 7.64951 7.34354 8.23391L4.65646 8.23391C3.21882 7.64951 2.5 6.5717 2.5 5.00049C2.5 3.06749 4.06701 1.50049 6 1.50049C7.933 1.50049 9.5 3.06749 9.5 5.00049Z" fill-rule="evenodd"  fill="#2563EB" ></path><path d="M7.7678 10.8123L7.93709 8.78076C7.93855 8.76517 7.9393 8.74937 7.9393 8.7334C7.9393 8.45753 7.71588 8.23384 7.44011 8.2334L7.43935 8.2334L7.4393 8.2334L7.43849 8.2334C7.1751 8.23382 6.95946 8.43789 6.94063 8.69658L6.79036 10.5L5.21049 10.5L5.06019 8.69658C5.04134 8.43763 4.82528 8.2334 4.56152 8.2334L4.56147 8.2334L4.56087 8.2334C4.28503 8.23375 4.06152 8.45747 4.06152 8.7334L4.06152 8.73345L4.06152 8.73406C4.06154 8.7498 4.06229 8.76538 4.06374 8.78075L4.23304 10.8122C4.26537 11.201 4.59036 11.5 4.98045 11.5L7.02037 11.5C7.41044 11.5 7.7354 11.201 7.7678 10.8123Z" fill-rule="evenodd"  fill="#2563EB" ></path><path d="M5 4.94098L5 4.25C5 4.21717 4.9968 4.18465 4.99039 4.15245C4.98399 4.12026 4.9745 4.08899 4.96194 4.05866C4.94938 4.02833 4.93397 3.99951 4.91573 3.97221C4.89749 3.94492 4.87677 3.91966 4.85355 3.89645C4.83034 3.87323 4.80508 3.8525 4.77778 3.83427C4.75049 3.81603 4.72167 3.80062 4.69134 3.78806C4.66101 3.7755 4.62974 3.76601 4.59754 3.75961C4.56535 3.7532 4.53283 3.75 4.5 3.75C4.46717 3.75 4.43465 3.7532 4.40245 3.75961C4.37026 3.76601 4.33899 3.7755 4.30866 3.78806C4.27833 3.80062 4.24951 3.81603 4.22221 3.83427C4.19492 3.8525 4.16966 3.87323 4.14645 3.89645C4.12323 3.91966 4.1025 3.94492 4.08427 3.97221C4.06603 3.99951 4.05062 4.02833 4.03806 4.05866C4.0255 4.08899 4.01601 4.12026 4.00961 4.15245C4.0032 4.18465 4 4.21717 4 4.25L4 5.75C4 6.12169 4.39116 6.36344 4.72361 6.19722L6 5.55901L7.27639 6.19722C7.60885 6.36344 8 6.12169 8 5.75L8 4.25C8 4.21717 7.9968 4.18465 7.99039 4.15245C7.98399 4.12026 7.9745 4.08899 7.96194 4.05866C7.94938 4.02833 7.93397 3.99951 7.91573 3.97221C7.89749 3.94492 7.87677 3.91966 7.85356 3.89645C7.83034 3.87323 7.80508 3.8525 7.77778 3.83427C7.75049 3.81603 7.72167 3.80062 7.69134 3.78806C7.66101 3.7755 7.62974 3.76601 7.59754 3.75961C7.56535 3.7532 7.53283 3.75 7.5 3.75C7.46717 3.75 7.43465 3.7532 7.40245 3.75961C7.37026 3.76601 7.33899 3.7755 7.30866 3.78806C7.27833 3.80062 7.24951 3.81603 7.22221 3.83427C7.19492 3.8525 7.16966 3.87323 7.14644 3.89645C7.12323 3.91966 7.10251 3.94492 7.08427 3.97221C7.06603 3.99951 7.05062 4.02833 7.03806 4.05866C7.0255 4.08899 7.01601 4.12026 7.00961 4.15245C7.0032 4.18465 7 4.21717 7 4.25L7 4.94098L6.22361 4.55279C6.08284 4.4824 5.91716 4.4824 5.77639 4.55279L5 4.94098Z" fill-rule="evenodd"  fill="#2563EB" ></path></svg>