<svg t="1741249484711" class="icon" viewBox="0 0 1024 1024" version="1.1" xmlns="http://www.w3.org/2000/svg" p-id="19953" width="32" height="32"><path d="M733.493702 0.006h19.464886c15.682908 5.442968 29.519827 14.852913 40.95976 26.844843 67.435605 68.2666 135.149208 136.256202 203.230809 203.968805 11.346934 10.977936 20.294881 24.169858 26.844843 38.653773v21.679873c-5.903965 15.589909-15.40591 29.334828-27.490839 40.774761-68.081601 67.250606-135.794204 134.964209-203.322809 202.860811-12.822925 12.453927-27.583838 25.922848-46.679726 25.829849-24.353857 2.859983-42.435751-15.773908-58.118659-31.272817-68.727597-69.834591-138.931186-138.100191-207.473785-207.842782-23.062865-20.663879-23.431863-59.502651-0.460997-80.351529C548.989783 171.224997 619.378371 103.051396 688.012969 33.125806 701.112892 19.470886 715.965805 7.385957 733.492702 0.006M517.809966 279.990359c75.369558 75.553557 151.293114 150.647117 226.569672 226.385674 76.199554-75.185559 151.93911-150.739117 227.308669-226.754671L745.024635 53.512686c-76.015555 75.184559-151.477112 150.923116-227.215669 226.477673zM0 118.365306C6.641961 93.180454 27.582838 70.393588 55.259676 71.315582a15212.685863 15212.685863 0 0 1 304.338217 0c31.549815-2.029988 60.147648 25.737849 57.471663 57.657662 0.276998 101.753404 0.737996 203.691806-0.275998 305.445211 1.198993 30.073824-26.476845 55.166677-55.996672 53.505686-102.123402 0.645996-204.338803 1.014994-306.368205-0.183999C28.413834 489.032135 8.671949 468.921252 0 446.135386V118.365306m53.321688 5.995965c-0.276998 103.322395-0.184999 206.55179-0.092 309.781185 103.229395 0.091999 206.45879 0.091999 309.781185 0 0.091999-103.229395 0-206.55179 0.091999-309.781185-103.322395-0.183999-206.55179-0.276998-309.781184 0zM0 652.318178c6.457962-26.199846 28.689832-48.801714 56.919666-47.970719 91.882462-1.291992 183.948922 0.275998 275.924384-0.645996 23.616862 0.460997 51.569698-0.922995 69.096595 18.080894 16.789902 15.682908 15.221911 40.221764 15.589909 61.255641-0.921995 95.295442 0.738996 190.683883-0.736996 286.072324 1.75199 26.568844-18.911889 46.863725-42.435752 54.889678H43.358746c-20.664879-6.088964-35.609791-21.771872-43.358746-41.513757v-330.168065m54.520681 4.980971c-3.043982 103.322395-0.552997 206.736789-1.290993 310.058183 103.229395 0.091999 206.55079 0.091999 309.781185 0 0.091999-103.045396-0.092999-206.089792 0.091999-309.135189-102.860397-0.829995-205.721795 0.921995-308.582191-0.922994z m480.355185 6.365962c-1.937989-30.535821 23.984859-59.409652 54.796679-59.133653 92.805456-1.65999 185.610912 0.184999 278.416369-0.829995 23.708861 0.368998 51.752697-0.645996 69.280594 18.541891 16.328904 15.590909 14.206917 39.852766 14.759913 60.425646-1.106994 95.664439 0.738996 191.328879-0.829995 286.902319 1.291992 30.535821-27.30584 50.092706-54.61268 54.428681H598.713492c-30.996818-0.091999-64.575622-20.940877-63.561628-54.797679-1.290992-101.845403-0.737996-203.783806-0.275998-305.53821m53.874684-5.718966c-1.199993 103.137396-0.184999 206.274791-0.460997 309.412187 103.229395 0.091999 206.55079 0.091999 309.781185 0 0.091999-103.045396-0.092999-206.089792 0.091999-309.135189-103.137396-0.460997-206.274791 0.091999-309.412187-0.276998z" p-id="19954"></path></svg>
