<svg xmlns="http://www.w3.org/2000/svg" xmlns:xlink="http://www.w3.org/1999/xlink" width="16" height="16" viewBox="0 0 16 16" fill="none">
<path d="M7.875 8.5C7.875 8.50612 7.87486 8.51225 7.87456 8.51838C7.87427 8.52454 7.87381 8.53067 7.87319 8.53675C7.87261 8.54288 7.87186 8.54896 7.87094 8.555C7.87002 8.56108 7.86898 8.56714 7.86781 8.57319C7.86661 8.57919 7.86525 8.58517 7.86375 8.59113C7.86225 8.59708 7.86062 8.603 7.85887 8.60888C7.85708 8.61475 7.85514 8.62056 7.85306 8.62631C7.85102 8.63211 7.84881 8.63783 7.84644 8.6435C7.84411 8.64917 7.84163 8.65477 7.839 8.66031C7.83638 8.66586 7.83362 8.67133 7.83075 8.67675C7.82783 8.68217 7.82479 8.68752 7.82163 8.69281C7.8185 8.69806 7.81523 8.70323 7.81181 8.70831C7.80839 8.71344 7.80486 8.71846 7.80119 8.72338C7.79752 8.72833 7.79375 8.73317 7.78988 8.73787C7.786 8.74263 7.782 8.74727 7.77787 8.75181C7.77375 8.75636 7.76952 8.76081 7.76519 8.76519C7.76081 8.76952 7.75636 8.77375 7.75181 8.77787C7.74727 8.782 7.74263 8.786 7.73787 8.78988C7.73313 8.79375 7.72829 8.79752 7.72337 8.80119C7.71846 8.80486 7.71344 8.80839 7.70831 8.81181C7.70323 8.81523 7.69806 8.8185 7.69281 8.82162C7.68752 8.82479 7.68217 8.82783 7.67675 8.83075C7.67133 8.83362 7.66586 8.83638 7.66031 8.839C7.65477 8.84163 7.64917 8.84411 7.6435 8.84644C7.63783 8.84881 7.63211 8.85102 7.62631 8.85306C7.62056 8.85514 7.61475 8.85708 7.60887 8.85888C7.603 8.86062 7.59708 8.86225 7.59113 8.86375C7.58517 8.86525 7.57919 8.86661 7.57319 8.86781C7.56714 8.86898 7.56108 8.87002 7.555 8.87094C7.54896 8.87186 7.54287 8.87261 7.53675 8.87319C7.53067 8.87381 7.52454 8.87427 7.51837 8.87456C7.51225 8.87486 7.50612 8.875 7.5 8.875L4.5 8.875C4.49386 8.875 4.48773 8.87486 4.4816 8.87456C4.47547 8.87427 4.46935 8.87381 4.46324 8.87319C4.45714 8.87261 4.45104 8.87186 4.44497 8.87094C4.43891 8.87002 4.43286 8.86898 4.42684 8.86781C4.42083 8.86661 4.41484 8.86525 4.40888 8.86375C4.40293 8.86225 4.39701 8.86062 4.39114 8.85888C4.38527 8.85708 4.37944 8.85514 4.37367 8.85306C4.36789 8.85102 4.36216 8.84881 4.35649 8.84644C4.35083 8.84411 4.34521 8.84163 4.33967 8.839C4.33412 8.83638 4.32864 8.83362 4.32323 8.83075C4.31781 8.82783 4.31248 8.82479 4.30721 8.82162C4.30194 8.8185 4.29676 8.81523 4.29166 8.81181C4.28656 8.80839 4.28154 8.80486 4.27661 8.80119C4.27168 8.79752 4.26684 8.79375 4.2621 8.78988C4.25736 8.786 4.25271 8.782 4.24816 8.77787C4.24362 8.77375 4.23917 8.76952 4.23484 8.76519C4.23049 8.76081 4.22626 8.75636 4.22214 8.75181C4.21803 8.74727 4.21401 8.74263 4.21012 8.73787C4.20622 8.73313 4.20246 8.72829 4.1988 8.72338C4.19514 8.71846 4.19161 8.71344 4.1882 8.70831C4.18479 8.70323 4.18151 8.69806 4.17835 8.69281C4.17519 8.68752 4.17217 8.68217 4.16928 8.67675C4.16639 8.67133 4.16362 8.66586 4.16101 8.66031C4.15838 8.65477 4.15589 8.64917 4.15354 8.6435C4.15119 8.63783 4.14899 8.63211 4.14692 8.62631C4.14485 8.62056 4.14293 8.61475 4.14115 8.60888C4.13937 8.603 4.13773 8.59708 4.13624 8.59113C4.13474 8.58517 4.1334 8.57919 4.13221 8.57319C4.13101 8.56714 4.12996 8.56108 4.12906 8.555C4.12816 8.54896 4.12741 8.54288 4.12681 8.53675C4.12621 8.53067 4.12576 8.52454 4.12545 8.51838C4.12515 8.51225 4.125 8.50612 4.125 8.5C4.125 8.49388 4.12515 8.48775 4.12545 8.48162C4.12576 8.47546 4.12621 8.46933 4.12681 8.46325C4.12741 8.45712 4.12816 8.45104 4.12906 8.445C4.12996 8.43892 4.13101 8.43286 4.13221 8.42681C4.1334 8.42081 4.13474 8.41483 4.13624 8.40887C4.13773 8.40292 4.13937 8.397 4.14115 8.39112C4.14293 8.38525 4.14485 8.37944 4.14692 8.37369C4.14899 8.36789 4.15119 8.36217 4.15354 8.3565C4.15589 8.35083 4.15838 8.34523 4.16101 8.33969C4.16362 8.33414 4.16639 8.32867 4.16928 8.32325C4.17217 8.31783 4.17519 8.31248 4.17835 8.30719C4.18151 8.30194 4.18479 8.29677 4.1882 8.29169C4.19161 8.28656 4.19514 8.28154 4.1988 8.27662C4.20246 8.27167 4.20622 8.26683 4.21012 8.26213C4.21401 8.25737 4.21803 8.25273 4.22214 8.24819C4.22626 8.24364 4.23049 8.23919 4.23484 8.23481C4.23917 8.23048 4.24362 8.22625 4.24816 8.22213C4.25271 8.218 4.25736 8.214 4.2621 8.21012C4.26684 8.20621 4.27168 8.20244 4.27661 8.19881C4.28154 8.19514 4.28656 8.19161 4.29166 8.18819C4.29676 8.18477 4.30194 8.1815 4.30721 8.17838C4.31248 8.17521 4.31781 8.17217 4.32323 8.16925C4.32864 8.16638 4.33412 8.16362 4.33967 8.161C4.34521 8.15837 4.35083 8.15589 4.35649 8.15356C4.36216 8.15119 4.36789 8.14898 4.37366 8.14694C4.37944 8.14486 4.38527 8.14292 4.39114 8.14112C4.39701 8.13938 4.40293 8.13775 4.40888 8.13625C4.41484 8.13475 4.42083 8.13339 4.42684 8.13219C4.43286 8.13102 4.43891 8.12998 4.44497 8.12906C4.45104 8.12814 4.45714 8.12739 4.46324 8.12681C4.46935 8.12619 4.47547 8.12573 4.4816 8.12544C4.48773 8.12514 4.49386 8.125 4.5 8.125L7.5 8.125C7.50612 8.125 7.51225 8.12514 7.51837 8.12544C7.52454 8.12573 7.53067 8.12619 7.53675 8.12681C7.54287 8.12739 7.54896 8.12814 7.555 8.12906C7.56108 8.12998 7.56714 8.13102 7.57319 8.13219C7.57919 8.13339 7.58517 8.13475 7.59113 8.13625C7.59708 8.13775 7.603 8.13938 7.60887 8.14112C7.61475 8.14292 7.62056 8.14486 7.62631 8.14694C7.63211 8.14898 7.63783 8.15119 7.6435 8.15356C7.64917 8.15589 7.65477 8.15837 7.66031 8.161C7.66586 8.16362 7.67133 8.16638 7.67675 8.16925C7.68217 8.17217 7.68752 8.17521 7.69281 8.17838C7.69806 8.1815 7.70323 8.18477 7.70831 8.18819C7.71344 8.19161 7.71846 8.19514 7.72337 8.19881C7.72829 8.20244 7.73313 8.20621 7.73787 8.21012C7.74263 8.214 7.74727 8.218 7.75181 8.22213C7.75636 8.22625 7.76081 8.23048 7.76519 8.23481C7.76952 8.23919 7.77375 8.24364 7.77787 8.24819C7.782 8.25273 7.786 8.25737 7.78988 8.26213C7.79375 8.26683 7.79752 8.27167 7.80119 8.27662C7.80486 8.28154 7.80839 8.28656 7.81181 8.29169C7.81523 8.29677 7.8185 8.30194 7.82163 8.30719C7.82479 8.31248 7.82783 8.31783 7.83075 8.32325C7.83362 8.32867 7.83638 8.33414 7.839 8.33969C7.84163 8.34523 7.84411 8.35083 7.84644 8.3565C7.84881 8.36217 7.85102 8.36789 7.85306 8.37369C7.85514 8.37944 7.85708 8.38525 7.85887 8.39112C7.86062 8.397 7.86225 8.40292 7.86375 8.40887C7.86525 8.41483 7.86661 8.42081 7.86781 8.42681C7.86898 8.43286 7.87002 8.43892 7.87094 8.445C7.87186 8.45104 7.87261 8.45712 7.87319 8.46325C7.87381 8.46933 7.87427 8.47546 7.87456 8.48162C7.87486 8.48775 7.875 8.49388 7.875 8.5ZM7.5 6.125L4.5 6.125C4.49386 6.125 4.48773 6.12515 4.4816 6.12545C4.47547 6.12576 4.46935 6.12621 4.46324 6.12681C4.45714 6.12741 4.45104 6.12816 4.44497 6.12906C4.43891 6.12996 4.43286 6.13101 4.42684 6.13221C4.42083 6.1334 4.41484 6.13474 4.40888 6.13624C4.40293 6.13773 4.39701 6.13937 4.39114 6.14115C4.38527 6.14293 4.37944 6.14485 4.37367 6.14692C4.36789 6.14899 4.36216 6.15119 4.35649 6.15354C4.35083 6.15589 4.34521 6.15838 4.33967 6.16101C4.33412 6.16362 4.32864 6.16639 4.32323 6.16928C4.31781 6.17217 4.31248 6.17519 4.30721 6.17835C4.30194 6.18151 4.29676 6.18479 4.29166 6.1882C4.28656 6.19161 4.28154 6.19514 4.27661 6.19879C4.27168 6.20245 4.26684 6.20622 4.2621 6.21012C4.25736 6.21401 4.25271 6.21803 4.24816 6.22214C4.24362 6.22626 4.23917 6.23049 4.23484 6.23484C4.23049 6.23917 4.22626 6.24362 4.22214 6.24816C4.21803 6.25272 4.21401 6.25737 4.21012 6.26213C4.20622 6.26683 4.20246 6.27167 4.1988 6.27662C4.19514 6.28154 4.19161 6.28656 4.1882 6.29169C4.18479 6.29677 4.18151 6.30194 4.17835 6.30719C4.17519 6.31248 4.17217 6.31783 4.16928 6.32325C4.16639 6.32867 4.16362 6.33414 4.16101 6.33969C4.15838 6.34523 4.15589 6.35083 4.15354 6.3565C4.15119 6.36217 4.14899 6.36789 4.14692 6.37369C4.14485 6.37944 4.14293 6.38525 4.14115 6.39112C4.13937 6.397 4.13773 6.40292 4.13624 6.40887C4.13474 6.41483 4.1334 6.42081 4.13221 6.42681C4.13101 6.43286 4.12996 6.43892 4.12906 6.445C4.12816 6.45104 4.12741 6.45712 4.12681 6.46325C4.12621 6.46933 4.12576 6.47546 4.12545 6.48163C4.12515 6.48775 4.125 6.49388 4.125 6.5C4.125 6.50612 4.12515 6.51225 4.12545 6.51837C4.12576 6.52454 4.12621 6.53067 4.12681 6.53675C4.12741 6.54288 4.12816 6.54896 4.12906 6.555C4.12996 6.56108 4.13101 6.56714 4.13221 6.57319C4.1334 6.57919 4.13474 6.58517 4.13624 6.59113C4.13773 6.59708 4.13937 6.603 4.14115 6.60888C4.14293 6.61475 4.14485 6.62056 4.14692 6.62631C4.14899 6.63211 4.15119 6.63783 4.15354 6.6435C4.15589 6.64917 4.15838 6.65477 4.16101 6.66031C4.16362 6.66586 4.16639 6.67133 4.16928 6.67675C4.17217 6.68217 4.17519 6.68752 4.17835 6.69281C4.18151 6.69806 4.18479 6.70323 4.1882 6.70831C4.19161 6.71344 4.19514 6.71846 4.1988 6.72337C4.20246 6.72829 4.20622 6.73313 4.21012 6.73787C4.21401 6.74263 4.21803 6.74727 4.22214 6.75181C4.22626 6.75636 4.23049 6.76081 4.23484 6.76519C4.23917 6.76952 4.24362 6.77375 4.24816 6.77787C4.25271 6.782 4.25736 6.786 4.2621 6.78988C4.26684 6.79375 4.27168 6.79752 4.27661 6.80119C4.28154 6.80486 4.28656 6.80839 4.29166 6.81181C4.29676 6.81523 4.30194 6.8185 4.30721 6.82163C4.31248 6.82479 4.31781 6.82783 4.32323 6.83075C4.32864 6.83362 4.33412 6.83638 4.33967 6.839C4.34521 6.84163 4.35083 6.84411 4.35649 6.84644C4.36216 6.84881 4.36789 6.85102 4.37366 6.85306C4.37944 6.85514 4.38527 6.85708 4.39114 6.85887C4.39701 6.86062 4.40293 6.86225 4.40888 6.86375C4.41484 6.86525 4.42083 6.86661 4.42684 6.86781C4.43286 6.86898 4.43891 6.87002 4.44497 6.87094C4.45104 6.87186 4.45714 6.87261 4.46324 6.87319C4.46935 6.87381 4.47547 6.87427 4.4816 6.87456C4.48773 6.87486 4.49386 6.875 4.5 6.875L7.5 6.875C7.50612 6.875 7.51225 6.87486 7.51837 6.87456C7.52454 6.87427 7.53067 6.87381 7.53675 6.87319C7.54287 6.87261 7.54896 6.87186 7.555 6.87094C7.56108 6.87002 7.56714 6.86898 7.57319 6.86781C7.57919 6.86661 7.58517 6.86525 7.59113 6.86375C7.59708 6.86225 7.603 6.86062 7.60887 6.85887C7.61475 6.85708 7.62056 6.85514 7.62631 6.85306C7.63211 6.85102 7.63783 6.84881 7.6435 6.84644C7.64917 6.84411 7.65477 6.84163 7.66031 6.839C7.66586 6.83638 7.67133 6.83362 7.67675 6.83075C7.68217 6.82783 7.68752 6.82479 7.69281 6.82163C7.69806 6.8185 7.70323 6.81523 7.70831 6.81181C7.71344 6.80839 7.71846 6.80486 7.72337 6.80119C7.72829 6.79752 7.73313 6.79375 7.73787 6.78988C7.74263 6.786 7.74727 6.782 7.75181 6.77787C7.75636 6.77375 7.76081 6.76952 7.76519 6.76519C7.76952 6.76081 7.77375 6.75636 7.77787 6.75181C7.782 6.74727 7.786 6.74263 7.78988 6.73787C7.79375 6.73313 7.79752 6.72829 7.80119 6.72337C7.80486 6.71846 7.80839 6.71344 7.81181 6.70831C7.81523 6.70323 7.8185 6.69806 7.82163 6.69281C7.82479 6.68752 7.82783 6.68217 7.83075 6.67675C7.83362 6.67133 7.83638 6.66586 7.839 6.66031C7.84163 6.65477 7.84411 6.64917 7.84644 6.6435C7.84881 6.63783 7.85102 6.63211 7.85306 6.62631C7.85514 6.62056 7.85708 6.61475 7.85887 6.60888C7.86062 6.603 7.86225 6.59708 7.86375 6.59113C7.86525 6.58517 7.86661 6.57919 7.86781 6.57319C7.86898 6.56714 7.87002 6.56108 7.87094 6.555C7.87186 6.54896 7.87261 6.54288 7.87319 6.53675C7.87381 6.53067 7.87427 6.52454 7.87456 6.51837C7.87486 6.51225 7.875 6.50612 7.875 6.5C7.875 6.49388 7.87486 6.48775 7.87456 6.48163C7.87427 6.47546 7.87381 6.46933 7.87319 6.46325C7.87261 6.45712 7.87186 6.45104 7.87094 6.445C7.87002 6.43892 7.86898 6.43286 7.86781 6.42681C7.86661 6.42081 7.86525 6.41483 7.86375 6.40887C7.86225 6.40292 7.86062 6.397 7.85887 6.39112C7.85708 6.38525 7.85514 6.37944 7.85306 6.37369C7.85102 6.36789 7.84881 6.36217 7.84644 6.3565C7.84411 6.35083 7.84163 6.34523 7.839 6.33969C7.83638 6.33414 7.83362 6.32867 7.83075 6.32325C7.82783 6.31783 7.82479 6.31248 7.82163 6.30719C7.8185 6.30194 7.81523 6.29677 7.81181 6.29169C7.80839 6.28656 7.80486 6.28154 7.80119 6.27662C7.79752 6.27167 7.79375 6.26683 7.78988 6.26213C7.786 6.25737 7.782 6.25272 7.77787 6.24816C7.77375 6.24362 7.76952 6.23917 7.76519 6.23484C7.76081 6.23049 7.75636 6.22626 7.75181 6.22214C7.74727 6.21803 7.74263 6.21401 7.73787 6.21012C7.73313 6.20622 7.72829 6.20245 7.72337 6.19879C7.71846 6.19514 7.71344 6.19161 7.70831 6.1882C7.70323 6.18479 7.69806 6.18151 7.69281 6.17835C7.68752 6.17519 7.68217 6.17217 7.67675 6.16928C7.67133 6.16639 7.66586 6.16362 7.66031 6.16101C7.65477 6.15838 7.64917 6.15589 7.6435 6.15354C7.63783 6.1512 7.63211 6.14899 7.62631 6.14692C7.62056 6.14485 7.61475 6.14293 7.60887 6.14115C7.603 6.13937 7.59708 6.13773 7.59113 6.13624C7.58517 6.13474 7.57919 6.1334 7.57319 6.13221C7.56714 6.13101 7.56108 6.12996 7.555 6.12906C7.54896 6.12816 7.54287 6.12741 7.53675 6.12681C7.53067 6.12621 7.52454 6.12576 7.51837 6.12545C7.51225 6.12515 7.50612 6.125 7.5 6.125ZM14.375 10.0387L14.375 14C14.3751 14.0164 14.374 14.0328 14.3719 14.049C14.3698 14.0653 14.3666 14.0814 14.3624 14.0972C14.3582 14.1131 14.353 14.1286 14.3468 14.1438C14.3405 14.1589 14.3333 14.1736 14.3251 14.1878C14.3169 14.202 14.3078 14.2156 14.2979 14.2287C14.2879 14.2417 14.2771 14.2541 14.2656 14.2656C14.254 14.2773 14.2417 14.2881 14.2287 14.2981C14.2157 14.3081 14.2021 14.3172 14.1879 14.3254C14.1737 14.3336 14.159 14.3409 14.1439 14.3472C14.1287 14.3535 14.1132 14.3588 14.0974 14.363C14.0816 14.3673 14.0655 14.3704 14.0492 14.3726C14.0329 14.3748 14.0166 14.3759 14.0002 14.3759C13.9838 14.3759 13.9675 14.3748 13.9512 14.3727C13.9349 14.3706 13.9189 14.3674 13.9031 14.3631C13.8872 14.3589 13.8717 14.3536 13.8566 14.3473C13.8414 14.3411 13.8267 14.3338 13.8125 14.3256L12.25 13.4319L10.6875 14.3256C10.6733 14.3338 10.6586 14.3411 10.6434 14.3473C10.6283 14.3536 10.6128 14.3589 10.5969 14.3631C10.5811 14.3674 10.5651 14.3706 10.5488 14.3727C10.5325 14.3748 10.5162 14.3759 10.4998 14.3759C10.4834 14.3759 10.4671 14.3748 10.4508 14.3726C10.4345 14.3704 10.4184 14.3673 10.4026 14.363C10.3868 14.3588 10.3713 14.3535 10.3561 14.3472C10.341 14.3409 10.3263 14.3336 10.3121 14.3254C10.2979 14.3172 10.2843 14.3081 10.2713 14.2981C10.2583 14.2881 10.246 14.2773 10.2344 14.2656C10.2229 14.2541 10.2121 14.2417 10.2021 14.2287C10.1922 14.2156 10.1831 14.202 10.1749 14.1878C10.1667 14.1736 10.1595 14.1589 10.1532 14.1438C10.147 14.1286 10.1418 14.1131 10.1376 14.0972C10.1334 14.0814 10.1302 14.0653 10.1281 14.049C10.126 14.0328 10.1249 14.0164 10.125 14L10.125 12.375L2.5 12.375C2.48568 12.375 2.47137 12.3746 2.45706 12.3739C2.44276 12.3733 2.42849 12.3722 2.41424 12.3708C2.39998 12.3694 2.38578 12.3676 2.37161 12.3655C2.35744 12.3634 2.34334 12.361 2.32929 12.3582C2.31525 12.3554 2.30129 12.3523 2.28739 12.3488C2.2735 12.3453 2.25971 12.3415 2.246 12.3373C2.2323 12.3331 2.2187 12.3287 2.20522 12.3239C2.19174 12.3191 2.17838 12.3139 2.16515 12.3084C2.15192 12.3029 2.13883 12.2971 2.12589 12.291C2.11294 12.2849 2.10015 12.2784 2.08752 12.2717C2.0749 12.2649 2.06244 12.2579 2.05016 12.2505C2.03788 12.2431 2.02578 12.2355 2.01388 12.2276C2.00197 12.2196 1.99027 12.2114 1.97876 12.2028C1.96726 12.1943 1.95598 12.1854 1.94491 12.1764C1.93384 12.1673 1.923 12.1579 1.91239 12.1483C1.90178 12.1388 1.89141 12.1289 1.88128 12.1187C1.87116 12.1086 1.86129 12.0982 1.85167 12.0876C1.84205 12.077 1.8327 12.0662 1.82362 12.0551C1.81453 12.0441 1.80572 12.0328 1.79719 12.0212C1.78866 12.0098 1.78042 11.9981 1.77246 11.9861C1.76451 11.9742 1.75685 11.9621 1.74949 11.9498C1.74213 11.9376 1.73507 11.9251 1.72832 11.9125C1.72157 11.8998 1.71513 11.8871 1.70901 11.8741C1.70289 11.8612 1.69709 11.8481 1.69161 11.8349C1.68613 11.8216 1.68097 11.8083 1.67615 11.7948C1.67132 11.7813 1.66683 11.7677 1.66268 11.754C1.65852 11.7403 1.6547 11.7265 1.65122 11.7126C1.64775 11.6987 1.64461 11.6847 1.64181 11.6707C1.63902 11.6566 1.63657 11.6426 1.63447 11.6284C1.63237 11.6142 1.63062 11.6 1.62921 11.5857C1.62781 11.5715 1.62676 11.5573 1.62606 11.5429C1.62535 11.5286 1.625 11.5143 1.625 11.5L1.625 3.5C1.625 3.48568 1.62535 3.47137 1.62606 3.45706C1.62676 3.44276 1.62781 3.42849 1.62921 3.41424C1.63062 3.39998 1.63237 3.38578 1.63447 3.37161C1.63657 3.35744 1.63902 3.34334 1.64181 3.32929C1.64461 3.31525 1.64775 3.30129 1.65122 3.28739C1.6547 3.2735 1.65852 3.25971 1.66268 3.246C1.66683 3.2323 1.67132 3.2187 1.67615 3.20522C1.68097 3.19174 1.68613 3.17838 1.69161 3.16515C1.69709 3.15192 1.70289 3.13883 1.70901 3.12589C1.71513 3.11294 1.72157 3.10015 1.72832 3.08752C1.73507 3.0749 1.74213 3.06244 1.74949 3.05016C1.75685 3.03788 1.76451 3.02578 1.77246 3.01388C1.78042 3.00197 1.78866 2.99027 1.79719 2.97876C1.80572 2.96726 1.81453 2.95598 1.82362 2.94491C1.8327 2.93384 1.84205 2.923 1.85167 2.91239C1.86129 2.90177 1.87116 2.89141 1.88128 2.88128C1.89141 2.87116 1.90178 2.86129 1.91239 2.85167C1.923 2.84205 1.93384 2.8327 1.94491 2.82362C1.95598 2.81453 1.96726 2.80572 1.97876 2.79719C1.99027 2.78866 2.00197 2.78042 2.01388 2.77246C2.02578 2.76451 2.03788 2.75685 2.05016 2.74949C2.06244 2.74213 2.0749 2.73507 2.08752 2.72832C2.10015 2.72157 2.11294 2.71513 2.12589 2.70901C2.13883 2.70289 2.15192 2.69709 2.16515 2.69161C2.17838 2.68613 2.19174 2.68097 2.20522 2.67615C2.2187 2.67132 2.2323 2.66683 2.246 2.66267C2.25971 2.65852 2.2735 2.6547 2.28739 2.65123C2.30129 2.64775 2.31525 2.64461 2.32929 2.64181C2.34334 2.63902 2.35744 2.63657 2.37161 2.63447C2.38578 2.63237 2.39998 2.63062 2.41424 2.62921C2.42849 2.62781 2.44276 2.62676 2.45707 2.62606C2.47137 2.62535 2.48568 2.625 2.5 2.625L13.5 2.625C13.5143 2.625 13.5286 2.62535 13.5429 2.62606C13.5573 2.62676 13.5715 2.62781 13.5857 2.62921C13.6 2.63062 13.6142 2.63237 13.6284 2.63447C13.6426 2.63657 13.6566 2.63902 13.6707 2.64181C13.6847 2.64461 13.6987 2.64775 13.7126 2.65123C13.7265 2.6547 13.7403 2.65852 13.754 2.66267C13.7677 2.66683 13.7813 2.67132 13.7948 2.67615C13.8083 2.68097 13.8216 2.68613 13.8349 2.69161C13.8481 2.69709 13.8612 2.70289 13.8741 2.70901C13.8871 2.71513 13.8998 2.72157 13.9125 2.72832C13.9251 2.73507 13.9376 2.74213 13.9498 2.74949C13.9621 2.75685 13.9742 2.76451 13.9861 2.77246C13.9981 2.78042 14.0098 2.78866 14.0212 2.79719C14.0328 2.80572 14.0441 2.81453 14.0551 2.82362C14.0662 2.8327 14.077 2.84205 14.0876 2.85167C14.0982 2.86129 14.1086 2.87116 14.1187 2.88128C14.1288 2.89141 14.1387 2.90177 14.1483 2.91239C14.1579 2.923 14.1673 2.93384 14.1764 2.94491C14.1854 2.95598 14.1943 2.96726 14.2028 2.97876C14.2114 2.99026 14.2196 3.00197 14.2276 3.01388C14.2355 3.02578 14.2431 3.03788 14.2505 3.05016C14.2579 3.06244 14.2649 3.0749 14.2717 3.08752C14.2784 3.10015 14.2849 3.11294 14.291 3.12589C14.2971 3.13883 14.3029 3.15192 14.3084 3.16515C14.3139 3.17838 14.3191 3.19174 14.3239 3.20522C14.3287 3.2187 14.3331 3.2323 14.3373 3.246C14.3415 3.25971 14.3453 3.2735 14.3488 3.28739C14.3523 3.30129 14.3554 3.31525 14.3582 3.32929C14.361 3.34334 14.3634 3.35744 14.3655 3.37161C14.3676 3.38578 14.3694 3.39998 14.3708 3.41424C14.3722 3.42849 14.3733 3.44276 14.3739 3.45706C14.3746 3.47137 14.375 3.48568 14.375 3.5L14.375 5.46125C14.4143 5.49763 14.4526 5.535 14.49 5.57336C14.5273 5.61171 14.5637 5.65101 14.5991 5.69124C14.6344 5.73146 14.6687 5.77257 14.7019 5.81457C14.7351 5.85656 14.7672 5.89938 14.7983 5.94303C14.8293 5.98668 14.8591 6.03109 14.8879 6.07628C14.9166 6.12147 14.9441 6.16736 14.9705 6.21397C14.9969 6.26058 15.022 6.30783 15.0459 6.35575C15.0699 6.40363 15.0926 6.45211 15.114 6.50119C15.1354 6.55027 15.1556 6.59986 15.1745 6.64994C15.1934 6.70006 15.2109 6.75063 15.2273 6.80162C15.2436 6.85262 15.2585 6.90402 15.2721 6.95581C15.2858 7.00761 15.2981 7.05971 15.309 7.11212C15.3199 7.16454 15.3296 7.21721 15.3378 7.27012C15.346 7.323 15.3529 7.37608 15.3584 7.42938C15.3639 7.48263 15.368 7.53598 15.3708 7.58944C15.3736 7.64294 15.3749 7.69646 15.3749 7.75C15.3749 7.80354 15.3736 7.85706 15.3708 7.91056C15.368 7.96402 15.3639 8.01737 15.3584 8.07063C15.3529 8.12392 15.346 8.177 15.3378 8.22988C15.3296 8.28279 15.3199 8.33546 15.309 8.38787C15.2981 8.44029 15.2858 8.49239 15.2721 8.54419C15.2585 8.59598 15.2436 8.64738 15.2273 8.69838C15.2109 8.74937 15.1934 8.79994 15.1745 8.85006C15.1556 8.90013 15.1354 8.94975 15.114 8.99881C15.0926 9.04787 15.0699 9.09637 15.0459 9.14425C15.022 9.19219 14.9969 9.23944 14.9705 9.286C14.9441 9.33262 14.9166 9.37856 14.8879 9.42375C14.8591 9.46894 14.8293 9.51331 14.7983 9.557C14.7672 9.60063 14.7351 9.64344 14.7019 9.68544C14.6687 9.72744 14.6344 9.76856 14.5991 9.80875C14.5637 9.849 14.5273 9.88831 14.49 9.92662C14.4526 9.965 14.4143 10.0024 14.375 10.0387ZM12.25 5.375C12.2111 5.375 12.1722 5.37596 12.1334 5.37786C12.0946 5.37977 12.0559 5.38263 12.0172 5.38644C11.9785 5.39024 11.9399 5.395 11.9015 5.40071C11.8631 5.40641 11.8247 5.41306 11.7867 5.42064C11.7486 5.42822 11.7106 5.43673 11.6729 5.44618C11.6353 5.45562 11.5977 5.46599 11.5606 5.47727C11.5234 5.48855 11.4864 5.50074 11.4499 5.51383C11.4133 5.52693 11.3771 5.54091 11.3411 5.55579C11.3052 5.57066 11.2697 5.58641 11.2346 5.60302C11.1994 5.61964 11.1648 5.63711 11.1304 5.65544C11.0961 5.67376 11.0623 5.69291 11.029 5.71289C10.9957 5.73287 10.9628 5.75366 10.9305 5.77526C10.8982 5.79685 10.8664 5.81923 10.8352 5.84238C10.804 5.86554 10.7734 5.88944 10.7433 5.9141C10.7133 5.93876 10.6839 5.96414 10.6551 5.99024C10.6263 6.01634 10.5981 6.04314 10.5706 6.07062C10.5431 6.09811 10.5163 6.12625 10.4902 6.15505C10.4641 6.18385 10.4388 6.21327 10.4141 6.24332C10.3894 6.27336 10.3656 6.30398 10.3424 6.33519C10.3192 6.36644 10.2968 6.39821 10.2753 6.4305C10.2537 6.46283 10.2329 6.49567 10.2129 6.529C10.1929 6.56233 10.1737 6.59614 10.1554 6.63044C10.1371 6.66473 10.1196 6.69944 10.103 6.73456C10.0864 6.76969 10.0707 6.80521 10.0558 6.84113C10.0409 6.87704 10.0269 6.91329 10.0138 6.94987C10.0007 6.98646 9.98856 7.02336 9.97725 7.06056C9.96594 7.09777 9.95562 7.13523 9.94619 7.17294C9.93675 7.21064 9.92819 7.24856 9.92062 7.28669C9.91306 7.32477 9.90637 7.36304 9.90069 7.4015C9.895 7.43996 9.89025 7.47852 9.88644 7.51719C9.88262 7.55589 9.87981 7.59464 9.87788 7.63344C9.87594 7.67227 9.875 7.71112 9.875 7.75C9.875 7.78888 9.87594 7.82773 9.87788 7.86656C9.87981 7.90536 9.88262 7.94411 9.88644 7.98281C9.89025 8.02148 9.895 8.06004 9.90069 8.0985C9.90637 8.13696 9.91306 8.17523 9.92062 8.21331C9.92819 8.25144 9.93675 8.28936 9.94619 8.32706C9.95562 8.36477 9.96594 8.40223 9.97725 8.43944C9.98856 8.47661 10.0007 8.5135 10.0138 8.55013C10.0269 8.58671 10.0409 8.62296 10.0558 8.65887C10.0707 8.69479 10.0864 8.73031 10.103 8.76544C10.1196 8.80056 10.1371 8.83527 10.1554 8.86956C10.1737 8.90388 10.1929 8.93769 10.2129 8.971C10.2329 9.00431 10.2537 9.03719 10.2753 9.0695C10.2968 9.10181 10.3192 9.13356 10.3424 9.16481C10.3656 9.196 10.3894 9.22663 10.4141 9.25669C10.4388 9.28675 10.4641 9.31612 10.4902 9.34494C10.5163 9.37375 10.5431 9.40187 10.5706 9.42937C10.5981 9.45687 10.6263 9.48369 10.6551 9.50975C10.6839 9.53588 10.7133 9.56125 10.7433 9.58587C10.7734 9.61056 10.804 9.63444 10.8352 9.65763C10.8664 9.68081 10.8982 9.70319 10.9305 9.72475C10.9628 9.74631 10.9957 9.76713 11.029 9.78712C11.0623 9.80706 11.0961 9.82625 11.1304 9.84456C11.1648 9.86287 11.1994 9.88037 11.2346 9.897C11.2697 9.91356 11.3052 9.92931 11.3411 9.94419C11.3771 9.95906 11.4133 9.97306 11.4499 9.98619C11.4865 9.99925 11.5234 10.0114 11.5606 10.0227C11.5977 10.0341 11.6353 10.0444 11.6729 10.0538C11.7106 10.0632 11.7486 10.0718 11.7867 10.0794C11.8247 10.0869 11.8631 10.0936 11.9015 10.0993C11.9399 10.105 11.9785 10.1097 12.0172 10.1136C12.0559 10.1174 12.0946 10.1202 12.1334 10.1221C12.1722 10.1241 12.2111 10.125 12.25 10.125C12.2889 10.125 12.3278 10.1241 12.3666 10.1221C12.4054 10.1202 12.4441 10.1174 12.4828 10.1136C12.5215 10.1097 12.5601 10.105 12.5985 10.0993C12.6369 10.0936 12.6752 10.0869 12.7133 10.0794C12.7514 10.0718 12.7894 10.0632 12.8271 10.0538C12.8647 10.0444 12.9023 10.0341 12.9394 10.0227C12.9766 10.0114 13.0135 9.99925 13.0501 9.98619C13.0867 9.97306 13.1229 9.95906 13.1589 9.94419C13.1948 9.92931 13.2303 9.91356 13.2654 9.897C13.3006 9.88037 13.3352 9.86287 13.3696 9.84456C13.4039 9.82625 13.4377 9.80706 13.471 9.78712C13.5043 9.76713 13.5372 9.74631 13.5695 9.72475C13.6018 9.70319 13.6336 9.68081 13.6648 9.65763C13.696 9.63444 13.7266 9.61056 13.7567 9.58587C13.7867 9.56125 13.8161 9.53588 13.8449 9.50975C13.8737 9.48369 13.9019 9.45687 13.9294 9.42937C13.9569 9.40187 13.9837 9.37375 14.0098 9.34494C14.0359 9.31612 14.0612 9.28675 14.0859 9.25669C14.1106 9.22663 14.1344 9.196 14.1576 9.16481C14.1808 9.13356 14.2032 9.10181 14.2247 9.0695C14.2463 9.03719 14.2671 9.00431 14.2871 8.971C14.3071 8.93769 14.3263 8.90388 14.3446 8.86956C14.3629 8.83527 14.3804 8.80056 14.397 8.76544C14.4136 8.73031 14.4293 8.69479 14.4442 8.65887C14.4591 8.62296 14.4731 8.58671 14.4862 8.55013C14.4993 8.5135 14.5114 8.47661 14.5227 8.43944C14.5341 8.40223 14.5444 8.36477 14.5538 8.32706C14.5632 8.28936 14.5718 8.25144 14.5794 8.21331C14.5869 8.17523 14.5936 8.13696 14.5993 8.0985C14.605 8.06004 14.6097 8.02148 14.6136 7.98281C14.6174 7.94411 14.6202 7.90536 14.6221 7.86656C14.6241 7.82773 14.625 7.78888 14.625 7.75C14.625 7.71112 14.6241 7.67227 14.6221 7.63344C14.6202 7.59464 14.6174 7.55589 14.6136 7.51719C14.6097 7.47852 14.605 7.43996 14.5993 7.4015C14.5936 7.36304 14.5869 7.32477 14.5794 7.28669C14.5718 7.24856 14.5632 7.21064 14.5538 7.17294C14.5444 7.13523 14.534 7.09777 14.5227 7.06056C14.5114 7.02336 14.4993 6.98646 14.4862 6.94987C14.4731 6.91329 14.4591 6.87704 14.4442 6.84113C14.4293 6.80521 14.4136 6.76969 14.397 6.73456C14.3804 6.69944 14.3629 6.66473 14.3446 6.63044C14.3263 6.59614 14.3071 6.56233 14.2871 6.529C14.2671 6.49567 14.2463 6.46283 14.2247 6.4305C14.2032 6.39821 14.1808 6.36644 14.1576 6.33519C14.1344 6.30398 14.1106 6.27336 14.0859 6.24331C14.0612 6.21327 14.0359 6.18384 14.0098 6.15504C13.9837 6.12625 13.9569 6.09811 13.9294 6.07062C13.9019 6.04314 13.8737 6.01634 13.8449 5.99024C13.8161 5.96414 13.7867 5.93876 13.7567 5.9141C13.7266 5.88944 13.696 5.86554 13.6648 5.84238C13.6336 5.81923 13.6018 5.79685 13.5695 5.77526C13.5372 5.75366 13.5043 5.73287 13.471 5.71289C13.4377 5.69291 13.4039 5.67376 13.3696 5.65544C13.3352 5.63711 13.3006 5.61964 13.2654 5.60302C13.2303 5.58641 13.1948 5.57066 13.1589 5.55579C13.1229 5.54091 13.0867 5.52693 13.0501 5.51383C13.0135 5.50074 12.9766 5.48855 12.9394 5.47727C12.9023 5.46599 12.8647 5.45562 12.8271 5.44618C12.7894 5.43673 12.7514 5.42822 12.7133 5.42064C12.6753 5.41306 12.6369 5.40641 12.5985 5.40071C12.5601 5.395 12.5215 5.39024 12.4828 5.38644C12.4441 5.38263 12.4054 5.37977 12.3666 5.37786C12.3278 5.37596 12.2889 5.375 12.25 5.375ZM10.125 11.625L10.125 10.0387C10.0912 10.0072 10.0581 9.97487 10.0256 9.94181C9.99319 9.90875 9.96156 9.87494 9.93062 9.8405C9.89975 9.80606 9.86963 9.77094 9.84025 9.73512C9.81094 9.69931 9.78238 9.66288 9.75469 9.62581C9.72694 9.58875 9.70006 9.55106 9.674 9.51281C9.64794 9.4745 9.62275 9.43569 9.59844 9.39631C9.57413 9.35694 9.55069 9.317 9.52812 9.27656C9.50556 9.23612 9.48388 9.19525 9.46319 9.15388C9.44244 9.1125 9.42262 9.07069 9.40375 9.02838C9.38487 8.98612 9.36694 8.94344 9.34994 8.90038C9.333 8.85729 9.317 8.81388 9.30194 8.77012C9.28687 8.72633 9.27275 8.68223 9.25969 8.63781C9.24662 8.59344 9.2345 8.54877 9.22344 8.50381C9.21231 8.45889 9.20219 8.41373 9.19312 8.36831C9.184 8.32294 9.17587 8.27738 9.16881 8.23162C9.16175 8.18587 9.15575 8.13998 9.15069 8.09394C9.14563 8.04794 9.14162 8.00183 9.13863 7.95563C9.13569 7.90946 9.13369 7.86323 9.13275 7.81694C9.13181 7.77064 9.13194 7.72436 9.13306 7.67806C9.13419 7.63181 9.13631 7.58558 9.1395 7.53937C9.14269 7.49321 9.14694 7.44712 9.15212 7.40112C9.15738 7.35512 9.16362 7.30927 9.17088 7.26356C9.17819 7.21781 9.18644 7.17227 9.19575 7.12694C9.20506 7.08161 9.21531 7.03648 9.22663 6.99156C9.23794 6.94669 9.25019 6.90206 9.26344 6.85769C9.27675 6.81336 9.291 6.76933 9.30625 6.72563C9.32144 6.68192 9.33763 6.63856 9.35481 6.59556C9.372 6.55256 9.39013 6.50998 9.40919 6.46781C9.42825 6.42561 9.44819 6.38386 9.46912 6.34256C9.49006 6.30127 9.51188 6.26045 9.53456 6.2201C9.55725 6.17977 9.58088 6.13996 9.60538 6.10068C9.62988 6.06139 9.65525 6.02268 9.68144 5.98452C9.70763 5.94636 9.73469 5.90881 9.76262 5.87186C9.7905 5.8349 9.81919 5.79859 9.84869 5.76291C9.87819 5.72723 9.90844 5.69222 9.9395 5.65789C9.97056 5.62356 10.0023 5.58993 10.0349 5.55701C10.0674 5.52409 10.1007 5.49191 10.1347 5.46047C10.1686 5.42902 10.2033 5.39836 10.2386 5.36846C10.274 5.33856 10.31 5.30946 10.3466 5.28115C10.3833 5.25285 10.4205 5.22538 10.4583 5.19872C10.4962 5.17208 10.5346 5.14629 10.5736 5.12135C10.6126 5.09641 10.6522 5.07235 10.6923 5.04917C10.7323 5.02599 10.7729 5.00371 10.8139 4.98233C10.855 4.96094 10.8965 4.94049 10.9385 4.92096C10.9804 4.90142 11.0228 4.88282 11.0656 4.86518C11.1084 4.84752 11.1516 4.83083 11.1951 4.8151C11.2387 4.79937 11.2825 4.78461 11.3267 4.77083C11.3709 4.75705 11.4154 4.74425 11.4601 4.73244C11.5049 4.72064 11.5499 4.70983 11.5952 4.70003C11.6404 4.69022 11.6858 4.68143 11.7315 4.67364C11.7771 4.66585 11.8229 4.65908 11.8688 4.65333C11.9148 4.64757 11.9608 4.64284 12.0069 4.63914C12.0531 4.63543 12.0992 4.63275 12.1456 4.6311C12.1918 4.62944 12.2381 4.62882 12.2844 4.62922C12.3307 4.62963 12.3769 4.63106 12.4232 4.63352C12.4694 4.63597 12.5156 4.63946 12.5616 4.64398C12.6077 4.64848 12.6536 4.65401 12.6994 4.66057C12.7452 4.66712 12.7909 4.67469 12.8364 4.68327C12.8819 4.69185 12.9272 4.70144 12.9722 4.71203C13.0173 4.72262 13.0621 4.73421 13.1067 4.7468C13.1512 4.75938 13.1955 4.77295 13.2394 4.78751C13.2834 4.80206 13.327 4.81757 13.3702 4.83406C13.4135 4.85056 13.4564 4.86799 13.4989 4.88639C13.5413 4.90478 13.5834 4.92411 13.625 4.94438L13.625 3.5C13.625 3.49591 13.6248 3.49182 13.6244 3.48775C13.624 3.48368 13.6234 3.47963 13.6226 3.47561C13.6218 3.4716 13.6208 3.46763 13.6196 3.46371C13.6184 3.45979 13.6171 3.45594 13.6155 3.45216C13.6139 3.44838 13.6122 3.44469 13.6103 3.44108C13.6083 3.43747 13.6062 3.43396 13.6039 3.43056C13.6016 3.42715 13.5992 3.42387 13.5966 3.4207C13.5941 3.41754 13.5913 3.41451 13.5884 3.41161C13.5855 3.40872 13.5825 3.40597 13.5793 3.40338C13.5761 3.40077 13.5729 3.39834 13.5694 3.39607C13.566 3.39379 13.5625 3.39169 13.5589 3.38976C13.5553 3.38783 13.5516 3.38608 13.5478 3.38451C13.5441 3.38294 13.5402 3.38157 13.5363 3.38038C13.5324 3.37919 13.5284 3.3782 13.5244 3.3774C13.5204 3.37661 13.5163 3.37601 13.5122 3.3756C13.5082 3.3752 13.5041 3.375 13.5 3.375L2.5 3.375C2.49591 3.375 2.49182 3.3752 2.48775 3.3756C2.48368 3.37601 2.47963 3.37661 2.47561 3.3774C2.4716 3.3782 2.46763 3.37919 2.46371 3.38038C2.45979 3.38157 2.45594 3.38294 2.45216 3.38451C2.44838 3.38608 2.44469 3.38783 2.44108 3.38976C2.43747 3.39169 2.43396 3.39379 2.43056 3.39607C2.42715 3.39834 2.42387 3.40077 2.4207 3.40338C2.41754 3.40597 2.41451 3.40872 2.41161 3.41161C2.40872 3.41451 2.40597 3.41754 2.40338 3.4207C2.40077 3.42387 2.39834 3.42715 2.39607 3.43056C2.39379 3.43396 2.39169 3.43747 2.38976 3.44108C2.38783 3.44469 2.38608 3.44838 2.38451 3.45216C2.38294 3.45594 2.38157 3.45979 2.38038 3.46371C2.37919 3.46763 2.3782 3.4716 2.3774 3.47561C2.37661 3.47963 2.37601 3.48368 2.3756 3.48775C2.3752 3.49182 2.375 3.49591 2.375 3.5L2.375 11.5C2.375 11.5041 2.3752 11.5082 2.3756 11.5122C2.37601 11.5163 2.37661 11.5204 2.3774 11.5244C2.3782 11.5284 2.37919 11.5324 2.38038 11.5363C2.38157 11.5402 2.38294 11.5441 2.38451 11.5478C2.38608 11.5516 2.38783 11.5553 2.38976 11.5589C2.39169 11.5625 2.39379 11.566 2.39607 11.5694C2.39834 11.5729 2.40077 11.5761 2.40338 11.5793C2.40597 11.5825 2.40872 11.5855 2.41161 11.5884C2.41451 11.5913 2.41754 11.5941 2.4207 11.5966C2.42387 11.5992 2.42715 11.6016 2.43056 11.6039C2.43396 11.6062 2.43747 11.6083 2.44108 11.6103C2.44469 11.6122 2.44838 11.6139 2.45216 11.6155C2.45594 11.6171 2.45979 11.6184 2.46371 11.6196C2.46763 11.6208 2.4716 11.6218 2.47561 11.6226C2.47963 11.6234 2.48368 11.624 2.48775 11.6244C2.49182 11.6248 2.49591 11.625 2.5 11.625L10.125 11.625ZM13.625 10.5556C13.5984 10.5687 13.5716 10.5814 13.5446 10.5937C13.5176 10.606 13.4904 10.6179 13.4631 10.6295C13.4358 10.6411 13.4082 10.6522 13.3806 10.6629C13.3529 10.6737 13.3251 10.6841 13.2972 10.694C13.2692 10.7039 13.2412 10.7135 13.213 10.7227C13.1847 10.7318 13.1564 10.7406 13.1279 10.7489C13.0995 10.7572 13.0709 10.7652 13.0422 10.7727C13.0135 10.7803 12.9847 10.7874 12.9558 10.7941C12.9269 10.8008 12.8979 10.8071 12.8688 10.813C12.8398 10.8189 12.8106 10.8244 12.7814 10.8294C12.7521 10.8345 12.7228 10.8391 12.6935 10.8433C12.6641 10.8476 12.6347 10.8514 12.6052 10.8547C12.5758 10.8581 12.5463 10.8611 12.5167 10.8636C12.4871 10.8662 12.4575 10.8682 12.4279 10.8699C12.3982 10.8716 12.3686 10.8729 12.339 10.8737C12.3093 10.8746 12.2797 10.875 12.25 10.875C12.2203 10.875 12.1907 10.8746 12.161 10.8737C12.1314 10.8729 12.1018 10.8716 12.0721 10.8699C12.0425 10.8682 12.0129 10.8662 11.9833 10.8636C11.9537 10.8611 11.9242 10.8581 11.8948 10.8547C11.8653 10.8514 11.8359 10.8476 11.8065 10.8433C11.7772 10.8391 11.7479 10.8345 11.7186 10.8294C11.6894 10.8244 11.6602 10.8189 11.6312 10.813C11.6021 10.8071 11.5731 10.8008 11.5442 10.7941C11.5153 10.7874 11.4865 10.7803 11.4578 10.7727C11.4291 10.7652 11.4005 10.7572 11.3721 10.7489C11.3436 10.7406 11.3153 10.7318 11.2871 10.7227C11.2588 10.7135 11.2308 10.7039 11.2028 10.694C11.1749 10.6841 11.1471 10.6737 11.1194 10.6629C11.0918 10.6522 11.0642 10.6411 11.0369 10.6295C11.0096 10.6179 10.9824 10.606 10.9554 10.5937C10.9284 10.5814 10.9016 10.5687 10.875 10.5556L10.875 13.3538L12.0625 12.6744C12.0767 12.6662 12.0914 12.6589 12.1065 12.6527C12.1216 12.6464 12.1371 12.6411 12.1529 12.6369C12.1687 12.6327 12.1848 12.6295 12.2011 12.6273C12.2173 12.6252 12.2336 12.6241 12.25 12.6241C12.2664 12.6241 12.2827 12.6252 12.2989 12.6273C12.3152 12.6295 12.3313 12.6327 12.3471 12.6369C12.3629 12.6411 12.3784 12.6464 12.3935 12.6527C12.4086 12.6589 12.4233 12.6662 12.4375 12.6744L13.625 13.3538L13.625 10.5556Z"   fill="#9A9A9A" >
</path>
</svg>
