<svg t="1742896533608" class="icon" viewBox="0 0 1024 1024" version="1.1" xmlns="http://www.w3.org/2000/svg"
  p-id="35697" width="32" height="32">
  <path
    d="M725.312 48a48 48 0 0 1 48 48v554.688a48 48 0 0 1-41.472 47.552l-6.528 0.448H256a80.192 80.192 0 0 0-80 80c0 41.408 31.488 75.52 71.808 79.552l8.192 0.448 549.312-0.064V138.624a48 48 0 0 1 41.536-47.488l6.464-0.448a48 48 0 0 1 47.552 41.472l0.448 6.528v768a48 48 0 0 1-41.472 47.552l-6.528 0.448H256a176 176 0 0 1-176-176V224A176 176 0 0 1 256 48zM704 730.688a48 48 0 0 1 6.528 95.552l-6.528 0.448H277.312a48 48 0 0 1-6.464-95.552l6.464-0.448H704z m-26.688-586.688H256c-44.16 0-80 35.84-80 80v397.888l6.912-3.392c1.28-0.64 2.624-1.152 3.968-1.728l3.584-1.472c8.064-3.2 16.32-5.888 24.896-7.936l2.496-0.512a164.544 164.544 0 0 1 27.456-3.84l-13.504 1.28c4.48-0.64 8.96-1.024 13.44-1.28L256 602.688l421.312-0.064V144z"
    p-id="35698"></path>
</svg>