<svg xmlns="http://www.w3.org/2000/svg" xmlns:xlink="http://www.w3.org/1999/xlink" width="20" height="20" viewBox="0 0 20 20" fill="none"><path    stroke="rgba(37, 99, 235, 1)" stroke-width="1.3" stroke-linejoin="round" stroke-linecap="round"  d="M2.08331 10L17.9167 10"></path><path d="M11.6667 1.66699L8.33333 1.66699C7.87308 1.66699 7.5 2.04009 7.5 2.50033L7.5 5.83366C7.5 6.29391 7.87308 6.66699 8.33333 6.66699L11.6667 6.66699C12.1269 6.66699 12.5 6.29391 12.5 5.83366L12.5 2.50033C12.5 2.04009 12.1269 1.66699 11.6667 1.66699Z" stroke="rgba(37, 99, 235, 1)" stroke-width="1.3" stroke-linejoin="round"  ></path><path d="M6.66667 13.333L3.33333 13.333C2.8731 13.333 2.5 13.7061 2.5 14.1663L2.5 17.4997C2.5 17.9599 2.8731 18.333 3.33333 18.333L6.66667 18.333C7.12692 18.333 7.5 17.9599 7.5 17.4997L7.5 14.1663C7.5 13.7061 7.12692 13.333 6.66667 13.333Z" stroke="rgba(37, 99, 235, 1)" stroke-width="1.3" stroke-linejoin="round"  ></path><path d="M16.6667 13.333L13.3333 13.333C12.8731 13.333 12.5 13.7061 12.5 14.1663L12.5 17.4997C12.5 17.9599 12.8731 18.333 13.3333 18.333L16.6667 18.333C17.1269 18.333 17.5 17.9599 17.5 17.4997L17.5 14.1663C17.5 13.7061 17.1269 13.333 16.6667 13.333Z" stroke="rgba(37, 99, 235, 1)" stroke-width="1.3" stroke-linejoin="round"  ></path><path    stroke="rgba(37, 99, 235, 1)" stroke-width="1.3" stroke-linejoin="round" stroke-linecap="round"  d="M10 10.0036L10 6.66699"></path><path    stroke="rgba(37, 99, 235, 1)" stroke-width="1.3" stroke-linejoin="round" stroke-linecap="round"  d="M15 13.3366L15 10"></path><path    stroke="rgba(37, 99, 235, 1)" stroke-width="1.3" stroke-linejoin="round" stroke-linecap="round"  d="M5 13.3366L5 10"></path></svg>