<svg xmlns="http://www.w3.org/2000/svg" xmlns:xlink="http://www.w3.org/1999/xlink" width="12" height="11.999267578125" viewBox="0 0 12 11.999267578125" fill="none"><path d="M4.77747 6.57336C5.08414 7.22003 5.85081 7.51336 6.50414 7.2267C6.525 7.2182 6.54563 7.20917 6.566 7.19961C6.58641 7.19006 6.60655 7.18 6.62642 7.16941C6.6463 7.15884 6.66591 7.14777 6.68522 7.13619C6.70455 7.12463 6.72356 7.11256 6.74227 7.10003C6.76097 7.0875 6.77934 7.07448 6.79739 7.06102C6.81544 7.04755 6.83313 7.03363 6.85047 7.01925C6.86781 7.00488 6.88477 6.99008 6.90136 6.97484C6.91795 6.95962 6.93414 6.94398 6.94994 6.92792C6.96572 6.91186 6.98109 6.89542 6.99605 6.87858C7.01102 6.86175 7.02553 6.84455 7.03961 6.82697C7.0537 6.80941 7.06733 6.79148 7.0805 6.7732C7.09367 6.75495 7.10638 6.73636 7.11859 6.71745C7.13083 6.69855 7.14258 6.67933 7.15383 6.65983C7.16508 6.64033 7.17583 6.62055 7.18608 6.60048C7.19633 6.58044 7.20606 6.56014 7.21528 6.53958C7.2245 6.51905 7.23319 6.49828 7.24136 6.47728C7.24952 6.4563 7.25714 6.43511 7.26422 6.41373C7.27131 6.39236 7.27784 6.37083 7.28383 6.34911C7.28983 6.32741 7.29527 6.30556 7.30014 6.28356C7.30503 6.26159 7.30936 6.2395 7.31311 6.21728C7.31687 6.19509 7.32006 6.1728 7.32269 6.15042C7.32531 6.12806 7.32737 6.10564 7.32886 6.08317C7.33036 6.0607 7.33128 6.03822 7.33162 6.01569C7.33197 5.99319 7.33175 5.97067 7.33094 5.94816C7.33016 5.92566 7.32878 5.90319 7.32684 5.88075C7.32491 5.85831 7.32241 5.83594 7.31933 5.81362C7.31625 5.79131 7.31261 5.76909 7.30841 5.74697C7.3042 5.72484 7.29944 5.70284 7.29411 5.68097C7.2888 5.65909 7.28294 5.63736 7.27652 5.61577C7.27008 5.59419 7.26311 5.57278 7.25559 5.55155C7.24809 5.53033 7.24005 5.5093 7.23145 5.48847C7.22288 5.46766 7.21377 5.44706 7.20414 5.4267C7.19461 5.4063 7.18455 5.38616 7.17397 5.36627C7.16341 5.34639 7.15233 5.32678 7.14075 5.30744C7.12919 5.28813 7.11714 5.26911 7.10459 5.25039C7.09206 5.23167 7.07906 5.2133 7.06559 5.19523C7.05212 5.1772 7.0382 5.1595 7.02383 5.14216C7.00945 5.12481 6.99466 5.10784 6.97944 5.09125C6.96419 5.07466 6.94855 5.05847 6.93248 5.04267C6.91642 5.02689 6.89998 5.01152 6.88314 4.99655C6.8663 4.98159 6.84909 4.96708 6.83152 4.95298C6.81395 4.93891 6.79603 4.92528 6.77775 4.91209C6.75948 4.89894 6.74089 4.88623 6.72197 4.874C6.70306 4.86178 6.68384 4.85003 6.66431 4.83878C6.64481 4.82755 6.62502 4.8168 6.60495 4.80655C6.58491 4.79631 6.56459 4.78659 6.54403 4.77738C6.52348 4.76817 6.50272 4.75948 6.48172 4.75133C6.46072 4.74317 6.43953 4.73556 6.41814 4.72848C6.39677 4.72142 6.37522 4.71489 6.3535 4.70889C6.33178 4.70292 6.30994 4.6975 6.28794 4.69263C6.26595 4.68777 6.24386 4.68345 6.22164 4.6797C6.19944 4.67597 6.17714 4.6728 6.15477 4.67017C6.13239 4.66756 6.10997 4.66552 6.0875 4.66405C6.06503 4.66258 6.04253 4.66169 6.02 4.66136C5.99748 4.66103 5.97497 4.66128 5.95245 4.66209C5.92995 4.66291 5.90747 4.6643 5.88503 4.66627C5.86259 4.66823 5.84023 4.67077 5.81792 4.67386C5.79561 4.67695 5.77339 4.68062 5.75127 4.68484C5.72914 4.68908 5.70714 4.69386 5.68527 4.6992C5.66339 4.70456 5.64166 4.71047 5.62008 4.71691C5.5985 4.72337 5.57709 4.73037 5.55587 4.73791C5.53466 4.74545 5.51363 4.75353 5.49281 4.76213C5.472 4.77075 5.45142 4.77987 5.43108 4.78953C5.41073 4.79919 5.39064 4.80936 5.37081 4.82003C4.73081 5.1467 4.47081 5.9267 4.77747 6.57336ZM10.9975 5.9867C12.1842 3.85336 12.3042 1.69336 11.2908 0.680037C10.2775 -0.326634 8.10416 -0.206634 5.97081 0.980038C3.84414 -0.186634 1.69081 -0.299962 0.684148 0.706709C-0.322523 1.71336 -0.20918 3.86003 0.964148 5.9867C-0.20918 8.1067 -0.322523 10.26 0.684148 11.26C0.997477 11.5734 1.42415 11.7934 1.91747 11.9C3.02414 12.1334 4.45747 11.8134 5.96414 10.9867C7.48414 11.8267 8.93747 12.16 10.0508 11.9267C10.5375 11.82 10.9708 11.6 11.2841 11.2867C11.5975 10.9734 11.8241 10.5467 11.9242 10.06C12.1641 8.9467 11.8308 7.50003 10.9908 5.9867L10.9975 5.9867ZM1.63747 1.65336C2.04414 1.24671 2.79081 1.20671 3.86414 1.52671C4.13081 1.6067 4.39747 1.7067 4.66414 1.82003C4.13081 2.21336 3.62414 2.65336 3.14414 3.13336C2.65081 3.62003 2.20414 4.14003 1.80414 4.68003C1.69081 4.41336 1.59081 4.1467 1.51082 3.87336C1.18415 2.80003 1.22415 2.05336 1.63747 1.6467L1.63747 1.65336ZM3.86414 10.44C2.78414 10.7667 2.04414 10.72 1.63747 10.3134C1.23082 9.9067 1.19082 9.1667 1.51082 8.0867C1.59081 7.82003 1.69081 7.55336 1.80414 7.2867C1.90477 7.42242 2.00783 7.55627 2.11333 7.68822C2.21884 7.82019 2.32673 7.95017 2.43698 8.07817C2.54725 8.20619 2.65981 8.33214 2.77469 8.45602C2.88956 8.57992 3.00667 8.70167 3.126 8.82127C3.24533 8.94088 3.3668 9.05827 3.49042 9.17342C3.61405 9.28858 3.73973 9.40145 3.86748 9.51202C3.99523 9.62258 4.12497 9.73077 4.25667 9.83658C4.38839 9.94239 4.52198 10.0458 4.65747 10.1467C4.39081 10.26 4.12414 10.36 3.85747 10.44L3.86414 10.44ZM4.09081 7.8867C3.46414 7.26003 2.93747 6.6267 2.51747 5.98003C2.93747 5.33336 3.46414 4.70003 4.09081 4.07336C4.71081 3.45336 5.33747 2.94003 5.97081 2.52003C6.61747 2.94003 7.25747 3.4667 7.88414 4.09336C8.50416 4.71336 9.02416 5.34003 9.44414 5.97336C9.02416 6.6067 8.50416 7.23336 7.88414 7.85336C7.25081 8.48003 6.61747 9.0067 5.97081 9.4267C5.33747 9.0067 4.71081 8.49336 4.09081 7.87336L4.09081 7.8867ZM10.3375 10.34C9.93083 10.7467 9.18416 10.7867 8.11083 10.4667C7.83081 10.38 7.55081 10.28 7.27081 10.16C7.81747 9.76003 8.33748 9.31336 8.83081 8.82003C9.31747 8.34003 9.75748 7.8267 10.1508 7.29336C10.2708 7.5667 10.3708 7.8467 10.4575 8.1267C10.7841 9.20003 10.7441 9.9467 10.3308 10.3534L10.3375 10.34ZM10.4642 3.85336C10.3775 4.13336 10.2775 4.41336 10.1575 4.6867C9.76416 4.15336 9.31747 3.64003 8.83081 3.15336C8.33748 2.66003 7.81747 2.21336 7.27081 1.81336C7.55081 1.69336 7.83081 1.5867 8.11083 1.50004C9.19083 1.17337 9.93083 1.22004 10.3375 1.6267C10.7441 2.03336 10.7841 2.77336 10.4642 3.85336Z"   fill="#F0A105" ></path></svg>