<svg xmlns="http://www.w3.org/2000/svg" xmlns:xlink="http://www.w3.org/1999/xlink" width="16" height="16" viewBox="0 0 16 16" fill="none"><path d="M9.2 9.8L9.2 12.2C9.2 13.1941 8.39413 14 7.4 14L5 8.6L5 2L11.972 2C12.5704 1.99323 13.0823 2.42837 13.172 3.02L14 8.42C14.0528 8.7681 13.9501 9.12183 13.7191 9.3875C13.4881 9.65317 13.1521 9.804 12.8 9.8L9.2 9.8Z"   fill="#7F7F7F" ></path><path d="M5 8.66973L2.864 8.66973C1.92681 8.68216 1.12564 8.09993 1 7.40329L1 3.20329C1.12564 2.50662 1.92681 1.99086 2.864 2.00329L5 2.00329L5 8.66973Z"   fill="#7F7F7F" ></path></svg>