<svg xmlns="http://www.w3.org/2000/svg" xmlns:xlink="http://www.w3.org/1999/xlink" width="16" height="16" viewBox="0 0 16 16" fill="none"><path    stroke="rgba(156, 163, 175, 1)" stroke-width="1" stroke-linejoin="round" stroke-linecap="round"  d="M3.89249 6.75708C2.42484 7.10611 1.33325 8.42561 1.33325 10.0001C1.33325 11.841 2.82564 13.3334 4.66658 13.3334C4.98239 13.3334 5.28792 13.2895 5.57742 13.2074"></path><path    stroke="rgba(156, 163, 175, 1)" stroke-width="1" stroke-linejoin="round" stroke-linecap="round"  d="M12.0182 6.75708C13.4859 7.10611 14.5774 8.42561 14.5774 10.0001C14.5774 11.841 13.0851 13.3334 11.2441 13.3334C10.9283 13.3334 10.6228 13.2895 10.3333 13.2074"></path><path    stroke="rgba(156, 163, 175, 1)" stroke-width="1" stroke-linejoin="round" stroke-linecap="round"  d="M12 6.66675C12 4.45761 10.2091 2.66675 8 2.66675C5.79087 2.66675 4 4.45761 4 6.66675"></path><path    stroke="rgba(156, 163, 175, 1)" stroke-width="1" stroke-linejoin="round" stroke-linecap="round"  d="M5.68848 10.0397L7.99998 12.3588L10.3773 10"></path><path    stroke="rgba(156, 163, 175, 1)" stroke-width="1" stroke-linejoin="round" stroke-linecap="round"  d="M8 6.66675L8 11.1795"></path></svg>