<svg t="1709012421169" class="icon" viewBox="0 0 1024 1024" version="1.1" xmlns="http://www.w3.org/2000/svg" p-id="12956" width="64" height="64"><path d="M46.545455 884.363636h930.90909v69.818182H46.545455zM230.120727 568.32l2.420364-8.750545 467.781818-469.178182 172.450909 170.682182-464.337454 465.92-7.633455 2.606545c-122.507636 42.170182-164.957091 52.410182-189.253818 29.323636-24.157091-22.993455-16.384-66.048 18.571636-190.557091z m41.890909 127.953455c23.04-5.538909 55.901091-15.592727 98.397091-30.068364l403.456-404.805818-73.216-72.471273-405.783272 407.04c-11.822545 42.821818-19.874909 75.869091-24.017455 99.002182a389.492364 389.492364 0 0 0-0.325818 1.675636l1.536-0.372363z" p-id="12957"></path></svg>
