<svg xmlns="http://www.w3.org/2000/svg" xmlns:xlink="http://www.w3.org/1999/xlink" width="18" height="18" viewBox="0 0 18 18" fill="none"><path   fill="currentColor"  d="M1.63125 4.5C1.63125 2.91563 2.91563 1.63125 4.5 1.63125L4.5 1.63125L13.5 1.63125L13.5 2.25L13.5 1.63125C15.0844 1.63125 16.3687 2.91563 16.3687 4.5L15.1313 4.5C15.1313 3.59909 14.4009 2.86875 13.5 2.86875L13.5 2.86875L4.5 2.86875L4.5 2.25L4.5 2.86875C3.59909 2.86875 2.86875 3.59909 2.86875 4.5L1.63125 4.5ZM2.86875 13.5C2.86875 14.4009 3.59909 15.1313 4.5 15.1313L4.5 15.75L4.5 15.1313L13.5 15.1313L13.5 15.75L13.5 15.1313C14.4009 15.1313 15.1313 14.4009 15.1313 13.5L16.3687 13.5C16.3687 15.0844 15.0844 16.3687 13.5 16.3687L13.5 16.3687L4.5 16.3687L4.5 16.3687C2.91563 16.3687 1.63125 15.0844 1.63125 13.5L2.86875 13.5ZM2.25 5.11875C1.90827 5.11875 1.63125 4.84173 1.63125 4.5C1.63125 4.15827 1.90827 3.88125 2.25 3.88125C2.59173 3.88125 2.86875 4.15827 2.86875 4.5C2.86875 4.84173 2.59173 5.11875 2.25 5.11875ZM15.75 5.11875C15.4083 5.11875 15.1313 4.84173 15.1313 4.5C15.1313 4.15827 15.4083 3.88125 15.75 3.88125C16.0917 3.88125 16.3687 4.15827 16.3687 4.5C16.3687 4.84173 16.0917 5.11875 15.75 5.11875ZM2.25 14.1187C1.90827 14.1187 1.63125 13.8417 1.63125 13.5C1.63125 13.1583 1.90827 12.8813 2.25 12.8813C2.59173 12.8813 2.86875 13.1583 2.86875 13.5C2.86875 13.8417 2.59173 14.1187 2.25 14.1187ZM15.75 14.1187C15.4083 14.1187 15.1313 13.8417 15.1313 13.5C15.1313 13.1583 15.4083 12.8813 15.75 12.8813C16.0917 12.8813 16.3687 13.1583 16.3687 13.5C16.3687 13.8417 16.0917 14.1187 15.75 14.1187Z"></path><path d="M2.9015 6.72908L5.58371 6.72908C5.87998 6.72908 6.12015 6.51865 6.12015 6.25907C6.12015 5.99949 5.87998 5.78906 5.58371 5.78906L2.36506 5.78906C2.21778 5.79088 2.09134 5.83677 1.98573 5.92673C1.88306 6.01925 1.83069 6.13003 1.82861 6.25907L1.82861 11.4292C1.83069 11.5582 1.88306 11.669 1.98573 11.7615C2.09134 11.8515 2.21778 11.8974 2.36506 11.8992L5.58371 11.8992C5.87998 11.8992 6.12015 11.6888 6.12015 11.4292C6.12015 11.1696 5.87998 10.9592 5.58371 10.9592L2.9015 10.9592L2.9015 9.31414L5.58371 9.31414C5.87998 9.31414 6.12015 9.10371 6.12015 8.84413C6.12015 8.58455 5.87998 8.37412 5.58371 8.37412L2.9015 8.37412L2.9015 6.72908Z" fill-rule="evenodd"  fill="currentColor" ></path><path d="M11.2497 6.25907C11.2497 5.99949 11.0095 5.78906 10.7132 5.78906C10.4169 5.78906 10.1768 5.99949 10.1768 6.25907L10.1768 9.75145L8.06003 6.04859C7.92434 5.84379 7.72332 5.76149 7.45696 5.80167C7.19826 5.87025 7.06059 6.02272 7.04395 6.25907L7.04395 11.7394C7.04395 11.999 7.28412 12.2094 7.58039 12.2094C7.87666 12.2094 8.11683 11.999 8.11683 11.7394L8.11683 8.24702L10.2336 11.9499C10.3693 12.1547 10.5703 12.237 10.8366 12.1968C11.0953 12.1282 11.233 11.9757 11.2497 11.7394L11.2497 6.25907Z" fill-rule="evenodd"  fill="currentColor" ></path><path d="M12.2521 6.51042C12.1995 6.43773 12.1691 6.35152 12.1691 6.25907C12.1691 5.99949 12.4092 5.78906 12.7055 5.78906C12.9028 5.78906 13.0752 5.88235 13.1684 6.02133L14.4004 7.78927L15.8042 5.99862C15.9003 5.87228 16.0645 5.78906 16.2508 5.78906C16.5471 5.78906 16.7872 5.99949 16.7872 6.25907C16.7872 6.36003 16.7509 6.45355 16.6891 6.53015L14.9103 8.79906L14.9103 11.7266C14.9103 11.9862 14.6702 12.1966 14.3739 12.1966C14.0776 12.1966 13.8375 11.9862 13.8375 11.7266L13.8375 8.78533L12.2521 6.51042Z" fill-rule="evenodd"  fill="currentColor" ></path></svg>