<svg xmlns="http://www.w3.org/2000/svg" xmlns:xlink="http://www.w3.org/1999/xlink" width="22.75" height="19" viewBox="0 0 22.75 19" fill="none"><path     fill="currentColor"  d="M15.7327 10.4684L12.6384 9.33269C11.2598 8.8267 10.1733 7.74023 9.66731 6.36161L8.53163 3.26733C8.4354 3.00515 8.0646 3.00515 7.96837 3.26733L6.83269 6.36161C6.3267 7.74023 5.24023 8.8267 3.86161 9.33269L0.767331 10.4684C0.505152 10.5646 0.505152 10.9354 0.767331 11.0316L3.86161 12.1673C5.24023 12.6733 6.3267 13.7598 6.83269 15.1384L7.96837 18.2327C8.0646 18.4948 8.4354 18.4948 8.53163 18.2327L9.66731 15.1384C10.1733 13.7598 11.2598 12.6733 12.6384 12.1673L15.7327 11.0316C15.9948 10.9354 15.9948 10.5646 15.7327 10.4684Z"></path><path     fill="currentColor"  d="M21.9832 3.84396L21.9088 3.81668C20.5299 3.31133 19.4429 2.22536 18.9363 0.846977L18.9072 0.767837C18.8108 0.505627 18.4399 0.505898 18.3439 0.768248L18.3176 0.840125C17.8118 2.22252 16.7225 3.31179 15.3401 3.8176L15.2682 3.8439C15.0059 3.93989 15.0056 4.31084 15.2678 4.40722L15.347 4.43631C16.7254 4.94293 17.8113 6.02991 18.3167 7.40876L18.344 7.48317C18.44 7.74532 18.8107 7.74559 18.9072 7.48359L18.9372 7.4019C19.4434 6.02707 20.5271 4.94339 21.9019 4.43723L21.9836 4.40716C22.2456 4.3107 22.2453 3.94004 21.9832 3.84396Z"></path></svg>