<svg xmlns="http://www.w3.org/2000/svg" xmlns:xlink="http://www.w3.org/1999/xlink" width="16" height="16" viewBox="0 0 16 16" fill="none"><path     fill="currentColor"  d="M4.72443 11.4538L6.17699 11.4538L6.17699 10.0321L4.72443 10.0321L4.72443 11.4538ZM5.40785 4.9292C4.35985 4.9292 3.57129 5.69492 3.57129 6.71206L3.57129 6.99778L4.93699 6.99778L4.93699 6.71206C4.93699 6.47892 5.06043 6.2092 5.40785 6.2092C5.68899 6.2092 5.88557 6.41378 5.88557 6.70406C5.88557 6.82634 5.83071 6.9532 5.70041 7.12578L5.09471 7.94292C5.08125 7.95932 5.06817 7.97603 5.05546 7.99301C5.04275 8.01 5.03043 8.02726 5.01849 8.04479C5.00655 8.06234 4.99501 8.08014 4.98387 8.09818C4.97272 8.11623 4.96198 8.13453 4.95165 8.15306C4.94132 8.17159 4.9314 8.19034 4.9219 8.20931C4.91241 8.22828 4.90334 8.24745 4.8947 8.26682C4.88605 8.28621 4.87784 8.30578 4.87007 8.32551C4.8623 8.34525 4.85497 8.36515 4.84809 8.38523C4.8412 8.40529 4.83477 8.4255 4.82879 8.44586C4.8228 8.46622 4.81727 8.48668 4.81221 8.50729C4.80714 8.5279 4.80253 8.5486 4.79838 8.5694C4.79423 8.5902 4.79054 8.61109 4.78732 8.63207C4.7841 8.65304 4.78135 8.67407 4.77907 8.69517C4.77679 8.71626 4.77498 8.73739 4.77365 8.75856C4.7723 8.77973 4.77143 8.80093 4.77104 8.82215C4.77064 8.84336 4.77072 8.86457 4.77127 8.88578L4.77127 9.44578L6.13815 9.44578L6.13815 8.92578C6.13815 8.86178 6.17243 8.74178 6.22499 8.66978L6.82499 7.82864C7.03643 7.53948 7.25243 7.1772 7.25243 6.70406C7.25243 5.67548 6.47643 4.92921 5.40785 4.92921"></path><path d="M2.85686 13.7142L12.5711 13.7142L12.5711 2.8571L2.85686 2.8571L2.85686 13.7142ZM13.4283 15.4286L1.99972 15.4286C1.98569 15.4286 1.97167 15.4282 1.95766 15.4275C1.94365 15.4268 1.92966 15.4258 1.9157 15.4244C1.90175 15.4231 1.88783 15.4213 1.87395 15.4193C1.86008 15.4172 1.84626 15.4148 1.8325 15.4121C1.81874 15.4094 1.80506 15.4063 1.79145 15.4029C1.77784 15.3995 1.76432 15.3957 1.75091 15.3917C1.73748 15.3876 1.72416 15.3832 1.71095 15.3784C1.69775 15.3737 1.68466 15.3687 1.6717 15.3633C1.65875 15.3579 1.64592 15.3523 1.63323 15.3463C1.62056 15.3403 1.60803 15.3339 1.59566 15.3273C1.58329 15.3207 1.57109 15.3138 1.55906 15.3066C1.54702 15.2994 1.53518 15.2919 1.52351 15.2841C1.51185 15.2763 1.50038 15.2682 1.48912 15.2599C1.47785 15.2515 1.46679 15.2429 1.45595 15.234C1.44511 15.2251 1.43449 15.2159 1.42409 15.2065C1.4137 15.1971 1.40354 15.1874 1.39362 15.1775C1.3837 15.1676 1.37403 15.1574 1.36461 15.147C1.35519 15.1366 1.34603 15.126 1.33713 15.1152C1.32824 15.1043 1.31961 15.0933 1.31125 15.082C1.3029 15.0707 1.29482 15.0593 1.28703 15.0476C1.27923 15.0359 1.27173 15.0241 1.26452 15.0121C1.25731 15 1.2504 14.9878 1.24378 14.9755C1.23717 14.9631 1.23087 14.9506 1.22487 14.9379C1.21887 14.9252 1.21319 14.9124 1.20782 14.8994C1.20245 14.8865 1.1974 14.8734 1.19268 14.8602C1.18795 14.847 1.18355 14.8336 1.17948 14.8202C1.17541 14.8068 1.17167 14.7933 1.16826 14.7797C1.16485 14.7661 1.16178 14.7524 1.15905 14.7386C1.15631 14.7249 1.15391 14.711 1.15185 14.6972C1.14979 14.6833 1.14808 14.6694 1.1467 14.6554C1.14533 14.6415 1.1443 14.6275 1.14361 14.6135C1.14292 14.5994 1.14258 14.5854 1.14258 14.5714L1.14258 1.99996C1.14258 1.98593 1.14292 1.97191 1.14361 1.9579C1.1443 1.94389 1.14533 1.92991 1.14671 1.91595C1.14808 1.90199 1.1498 1.88807 1.15186 1.8742C1.15391 1.86032 1.15631 1.84651 1.15905 1.83274C1.16178 1.81898 1.16486 1.8053 1.16827 1.7917C1.17167 1.77809 1.17541 1.76458 1.17949 1.75115C1.18356 1.73772 1.18796 1.72441 1.19268 1.7112C1.19741 1.69799 1.20246 1.68491 1.20782 1.67195C1.21319 1.65899 1.21888 1.64617 1.22487 1.63349C1.23087 1.62081 1.23717 1.60828 1.24379 1.59592C1.2504 1.58354 1.25731 1.57134 1.26452 1.55931C1.27174 1.54727 1.27924 1.53543 1.28703 1.52376C1.29483 1.5121 1.3029 1.50063 1.31126 1.48936C1.31961 1.4781 1.32824 1.46704 1.33714 1.4562C1.34604 1.44536 1.3552 1.43474 1.36462 1.42434C1.37404 1.41395 1.38371 1.40379 1.39363 1.39387C1.40355 1.38395 1.4137 1.37428 1.4241 1.36486C1.43449 1.35544 1.44511 1.34628 1.45595 1.33738C1.4668 1.32849 1.47785 1.31986 1.48912 1.3115C1.50039 1.30314 1.51185 1.29507 1.52352 1.28728C1.53518 1.27948 1.54703 1.27198 1.55906 1.26477C1.57109 1.25756 1.5833 1.25065 1.59567 1.24403C1.60804 1.23742 1.62056 1.23111 1.63325 1.22512C1.64593 1.21912 1.65875 1.21344 1.6717 1.20807C1.68466 1.2027 1.69775 1.19765 1.71095 1.19293C1.72416 1.1882 1.73748 1.1838 1.75091 1.17973C1.76433 1.17566 1.77785 1.17192 1.79145 1.16851C1.80506 1.1651 1.81874 1.16203 1.8325 1.15929C1.84626 1.15656 1.86008 1.15416 1.87395 1.1521C1.88783 1.15004 1.90175 1.14832 1.9157 1.14695C1.92966 1.14558 1.94365 1.14454 1.95766 1.14386C1.97167 1.14317 1.98569 1.14282 1.99972 1.14282L13.4283 1.14282C13.4423 1.14282 13.4563 1.14317 13.4704 1.14386C13.4844 1.14454 13.4984 1.14558 13.5123 1.14695C13.5263 1.14833 13.5402 1.15004 13.5541 1.1521C13.5679 1.15416 13.5817 1.15656 13.5955 1.15929C13.6093 1.16203 13.623 1.1651 13.6366 1.16851C13.6502 1.17192 13.6637 1.17566 13.6771 1.17973C13.6905 1.1838 13.7039 1.1882 13.7171 1.19293C13.7303 1.19765 13.7434 1.2027 13.7563 1.20807C13.7693 1.21344 13.7821 1.21912 13.7948 1.22512C13.8075 1.23111 13.82 1.23742 13.8323 1.24403C13.8447 1.25064 13.8569 1.25756 13.869 1.26477C13.881 1.27198 13.8928 1.27948 13.9045 1.28728C13.9162 1.29507 13.9276 1.30314 13.9389 1.3115C13.9502 1.31986 13.9612 1.32848 13.9721 1.33738C13.9829 1.34628 13.9935 1.35544 14.0039 1.36486C14.0143 1.37428 14.0245 1.38395 14.0344 1.39387C14.0443 1.40379 14.054 1.41395 14.0634 1.42434C14.0728 1.43474 14.082 1.44536 14.0909 1.4562C14.0998 1.46704 14.1084 1.4781 14.1167 1.48936C14.1251 1.50063 14.1332 1.5121 14.141 1.52376C14.1488 1.53543 14.1563 1.54727 14.1635 1.55931C14.1707 1.57134 14.1776 1.58354 14.1842 1.59592C14.1908 1.60828 14.1971 1.62081 14.2031 1.63349C14.2091 1.64617 14.2148 1.65899 14.2202 1.67195C14.2255 1.68491 14.2306 1.69799 14.2353 1.7112C14.2401 1.72441 14.2445 1.73772 14.2485 1.75115C14.2526 1.76458 14.2563 1.77809 14.2598 1.7917C14.2632 1.8053 14.2662 1.81898 14.269 1.83274C14.2717 1.84651 14.2741 1.86032 14.2762 1.8742C14.2782 1.88807 14.2799 1.90199 14.2813 1.91595C14.2827 1.92991 14.2837 1.94389 14.2844 1.9579C14.2851 1.97191 14.2854 1.98593 14.2854 1.99996L14.2854 14.5714C14.2854 14.5854 14.2851 14.5994 14.2844 14.6134C14.2837 14.6275 14.2827 14.6414 14.2813 14.6554C14.2799 14.6694 14.2782 14.6833 14.2762 14.6972C14.2741 14.711 14.2717 14.7248 14.269 14.7386C14.2662 14.7524 14.2632 14.766 14.2598 14.7797C14.2563 14.7933 14.2526 14.8068 14.2485 14.8202C14.2445 14.8336 14.2401 14.8469 14.2353 14.8602C14.2306 14.8734 14.2256 14.8864 14.2202 14.8994C14.2148 14.9124 14.2091 14.9252 14.2031 14.9379C14.1972 14.9505 14.1908 14.9631 14.1842 14.9754C14.1776 14.9878 14.1707 15 14.1635 15.0121C14.1563 15.0241 14.1488 15.0359 14.141 15.0476C14.1332 15.0593 14.1251 15.0707 14.1168 15.082C14.1084 15.0933 14.0998 15.1043 14.0909 15.1152C14.082 15.126 14.0728 15.1366 14.0634 15.147C14.054 15.1574 14.0443 15.1676 14.0344 15.1775C14.0245 15.1874 14.0143 15.1971 14.0039 15.2065C13.9935 15.2159 13.9829 15.2251 13.9721 15.234C13.9612 15.2429 13.9502 15.2515 13.9389 15.2599C13.9276 15.2682 13.9162 15.2763 13.9045 15.2841C13.8928 15.2919 13.881 15.2994 13.869 15.3066C13.8569 15.3138 13.8447 15.3207 13.8324 15.3273C13.82 15.3339 13.8075 15.3402 13.7948 15.3462C13.7821 15.3522 13.7693 15.3579 13.7563 15.3633C13.7434 15.3687 13.7303 15.3737 13.7171 15.3784C13.7039 15.3832 13.6905 15.3876 13.6771 15.3916C13.6637 15.3957 13.6502 15.3994 13.6366 15.4029C13.623 15.4063 13.6093 15.4093 13.5955 15.4121C13.5817 15.4148 13.5679 15.4172 13.5541 15.4193C13.5402 15.4213 13.5263 15.423 13.5123 15.4244C13.4984 15.4258 13.4844 15.4268 13.4704 15.4275C13.4563 15.4282 13.4423 15.4285 13.4283 15.4285L13.4283 15.4286Z"   fill="currentColor" ></path><path d="M11.053 7.73137L8.7673 7.73137C8.75327 7.73136 8.73927 7.73101 8.72527 7.73031C8.71126 7.72961 8.69728 7.72857 8.68333 7.72718C8.66937 7.72581 8.65546 7.72409 8.64159 7.72201C8.62772 7.71995 8.61391 7.71754 8.60016 7.71479C8.58641 7.71206 8.57273 7.70898 8.55914 7.70556C8.54554 7.70214 8.53203 7.6984 8.51861 7.69432C8.50519 7.69025 8.49189 7.68584 8.47869 7.68111C8.46549 7.67637 8.45242 7.67132 8.43947 7.66595C8.42651 7.66059 8.4137 7.6549 8.40103 7.6489C8.38835 7.64289 8.37583 7.63657 8.36347 7.62996C8.35111 7.62336 8.33892 7.61643 8.32689 7.60923C8.31487 7.60201 8.30303 7.59451 8.29138 7.58671C8.27972 7.57891 8.26827 7.57084 8.25702 7.56248C8.24575 7.55413 8.2347 7.5455 8.22386 7.53661C8.21303 7.5277 8.20242 7.51854 8.19203 7.50912C8.18165 7.49971 8.1715 7.49003 8.16159 7.48011C8.15168 7.47019 8.14202 7.46004 8.13261 7.44965C8.12319 7.43926 8.11404 7.42864 8.10514 7.41779C8.09625 7.40695 8.08764 7.3959 8.07928 7.38464C8.07094 7.37338 8.06287 7.36191 8.05508 7.35025C8.0473 7.33859 8.0398 7.32675 8.03259 7.31471C8.02538 7.30268 8.01848 7.29049 8.01188 7.27812C8.00527 7.26576 7.99897 7.25323 7.99297 7.24056C7.98698 7.22788 7.9813 7.21506 7.97594 7.20211C7.97057 7.18915 7.96553 7.17607 7.96081 7.16287C7.95609 7.14967 7.9517 7.13636 7.94762 7.12293C7.94355 7.10952 7.93981 7.09601 7.93641 7.0824C7.93301 7.06881 7.92994 7.05513 7.9272 7.04137C7.92447 7.02762 7.92208 7.01381 7.92002 6.99995C7.91796 6.98607 7.91625 6.97216 7.91487 6.95821C7.9135 6.94426 7.91247 6.93028 7.91178 6.91628C7.91109 6.90227 7.91075 6.88825 7.91075 6.87423C7.91075 6.86021 7.91109 6.84619 7.91178 6.83218C7.91247 6.81818 7.9135 6.8042 7.91487 6.79025C7.91625 6.7763 7.91796 6.76239 7.92002 6.74851C7.92208 6.73465 7.92447 6.72084 7.9272 6.70709C7.92993 6.69333 7.933 6.67965 7.93641 6.66606C7.93981 6.65246 7.94355 6.63894 7.94762 6.62553C7.9517 6.6121 7.95609 6.59879 7.96081 6.58559C7.96553 6.57239 7.97057 6.55931 7.97594 6.54636C7.9813 6.5334 7.98698 6.52058 7.99297 6.5079C7.99897 6.49523 8.00527 6.4827 8.01188 6.47034C8.01848 6.45798 8.02538 6.44578 8.03259 6.43375C8.0398 6.42171 8.0473 6.40987 8.05508 6.39821C8.06287 6.38655 8.07094 6.37509 8.07928 6.36382C8.08764 6.35256 8.09625 6.34151 8.10514 6.33067C8.11404 6.31982 8.12319 6.3092 8.13261 6.29881C8.14202 6.28842 8.15168 6.27827 8.16159 6.26836C8.1715 6.25843 8.18165 6.24876 8.19203 6.23934C8.20242 6.22992 8.21303 6.22076 8.22386 6.21186C8.2347 6.20296 8.24575 6.19433 8.257 6.18598C8.26826 6.17763 8.27972 6.16955 8.29138 6.16175C8.30303 6.15395 8.31487 6.14645 8.32689 6.13923C8.33892 6.13202 8.35112 6.12511 8.36348 6.1185C8.37584 6.11188 8.38835 6.10557 8.40103 6.09957C8.4137 6.09356 8.42651 6.08788 8.43947 6.08251C8.45242 6.07714 8.46549 6.07208 8.47869 6.06736C8.49189 6.06263 8.50519 6.05822 8.51861 6.05414C8.53203 6.05006 8.54554 6.04632 8.55914 6.0429C8.57273 6.03949 8.58641 6.03641 8.60016 6.03367C8.61391 6.03092 8.62772 6.02851 8.64159 6.02645C8.65546 6.02438 8.66937 6.02265 8.68333 6.02128C8.69728 6.01989 8.71126 6.01885 8.72527 6.01815C8.73927 6.01745 8.75327 6.0171 8.7673 6.01709L11.053 6.01709C11.067 6.0171 11.081 6.01745 11.095 6.01815C11.1091 6.01885 11.123 6.01989 11.137 6.02128C11.1509 6.02265 11.1649 6.02438 11.1787 6.02645C11.1926 6.02851 11.2064 6.03092 11.2202 6.03367C11.2339 6.03641 11.2476 6.03949 11.2612 6.0429C11.2748 6.04632 11.2883 6.05006 11.3017 6.05414C11.3151 6.05822 11.3284 6.06263 11.3416 6.06736C11.3548 6.07208 11.3679 6.07714 11.3808 6.08251C11.3938 6.08788 11.4066 6.09356 11.4193 6.09957C11.432 6.10557 11.4445 6.11188 11.4568 6.1185C11.4692 6.12511 11.4814 6.13202 11.4934 6.13923C11.5054 6.14645 11.5173 6.15395 11.5289 6.16175C11.5406 6.16955 11.552 6.17763 11.5633 6.18598C11.5746 6.19433 11.5856 6.20296 11.5965 6.21186C11.6073 6.22076 11.6179 6.22992 11.6283 6.23934C11.6387 6.24877 11.6488 6.25844 11.6587 6.26836C11.6686 6.27827 11.6783 6.28843 11.6877 6.29882C11.6971 6.30921 11.7063 6.31982 11.7152 6.33067C11.7241 6.34151 11.7327 6.35256 11.741 6.36382C11.7494 6.3751 11.7575 6.38656 11.7652 6.39821C11.773 6.40987 11.7805 6.42171 11.7877 6.43375C11.7949 6.44578 11.8018 6.45798 11.8084 6.47034C11.815 6.4827 11.8214 6.49523 11.8273 6.5079C11.8333 6.52058 11.839 6.5334 11.8444 6.54636C11.8497 6.55931 11.8548 6.57239 11.8595 6.58559C11.8642 6.5988 11.8686 6.61211 11.8727 6.62553C11.8768 6.63894 11.8805 6.65246 11.8839 6.66606C11.8873 6.67965 11.8904 6.69333 11.8931 6.70709C11.8958 6.72084 11.8983 6.73465 11.9003 6.74851C11.9023 6.76239 11.9041 6.7763 11.9054 6.79025C11.9068 6.8042 11.9078 6.81818 11.9085 6.83218C11.9092 6.84619 11.9096 6.86021 11.9096 6.87423C11.9096 6.88825 11.9092 6.90227 11.9085 6.91628C11.9078 6.93028 11.9068 6.94426 11.9054 6.95821C11.9041 6.97216 11.9023 6.98607 11.9003 6.99995C11.8983 7.01381 11.8958 7.02762 11.8931 7.04137C11.8904 7.05513 11.8873 7.06881 11.8839 7.0824C11.8805 7.09601 11.8768 7.10952 11.8727 7.12293C11.8686 7.13636 11.8642 7.14967 11.8595 7.16287C11.8548 7.17607 11.8497 7.18915 11.8444 7.20211C11.839 7.21506 11.8333 7.22788 11.8273 7.24056C11.8214 7.25323 11.815 7.26576 11.8084 7.27812C11.8018 7.29049 11.7949 7.30268 11.7877 7.31471C11.7805 7.32675 11.773 7.33859 11.7652 7.35025C11.7575 7.36191 11.7494 7.37338 11.741 7.38464C11.7327 7.3959 11.7241 7.40695 11.7152 7.41779C11.7063 7.42864 11.6971 7.43926 11.6877 7.44965C11.6783 7.46004 11.6686 7.47019 11.6587 7.48011C11.6488 7.49003 11.6387 7.49971 11.6283 7.50912C11.6179 7.51854 11.6073 7.5277 11.5965 7.53661C11.5856 7.5455 11.5746 7.55413 11.5633 7.56248C11.552 7.57084 11.5406 7.57892 11.5289 7.58671C11.5173 7.59451 11.5054 7.60201 11.4934 7.60923C11.4814 7.61643 11.4692 7.62336 11.4568 7.62996C11.4445 7.63657 11.432 7.64289 11.4193 7.6489C11.4066 7.6549 11.3938 7.66059 11.3808 7.66595C11.3679 7.67132 11.3548 7.67637 11.3416 7.68111C11.3284 7.68584 11.3151 7.69025 11.3017 7.69432C11.2883 7.6984 11.2748 7.70214 11.2612 7.70556C11.2476 7.70898 11.2339 7.71206 11.2202 7.71479C11.2064 7.71754 11.1926 7.71995 11.1787 7.72201C11.1649 7.72409 11.1509 7.72581 11.137 7.72718C11.123 7.72857 11.1091 7.72961 11.095 7.73031C11.081 7.73101 11.067 7.73136 11.053 7.73137ZM11.053 11.1599L8.7673 11.1599C8.75327 11.1599 8.73925 11.1596 8.72523 11.1589C8.71122 11.1582 8.69724 11.1572 8.68328 11.1558C8.66932 11.1544 8.65541 11.1527 8.64153 11.1507C8.62766 11.1486 8.61384 11.1462 8.60008 11.1435C8.58632 11.1407 8.57264 11.1377 8.55903 11.1343C8.54542 11.1309 8.5319 11.1271 8.51848 11.123C8.50506 11.119 8.49174 11.1146 8.47853 11.1098C8.46532 11.1051 8.45224 11.1001 8.43928 11.0947C8.42632 11.0893 8.4135 11.0837 8.40083 11.0777C8.38814 11.0717 8.37561 11.0654 8.36325 11.0587C8.35087 11.0521 8.33867 11.0452 8.32664 11.038C8.31461 11.0308 8.30276 11.0233 8.29109 11.0155C8.27943 11.0077 8.26796 10.9996 8.2567 10.9913C8.24543 10.9829 8.23438 10.9743 8.22353 10.9654C8.21269 10.9565 8.20207 10.9473 8.19167 10.9379C8.18128 10.9285 8.17112 10.9188 8.1612 10.9089C8.15129 10.899 8.14162 10.8888 8.1322 10.8784C8.12278 10.868 8.11361 10.8574 8.10472 10.8466C8.09582 10.8357 8.08719 10.8247 8.07883 10.8134C8.07047 10.8021 8.0624 10.7907 8.05461 10.779C8.04682 10.7673 8.03931 10.7555 8.03209 10.7435C8.02489 10.7314 8.01797 10.7192 8.01136 10.7069C8.00475 10.6945 7.99845 10.682 7.99245 10.6693C7.98645 10.6566 7.98077 10.6438 7.97541 10.6308C7.97003 10.6179 7.96498 10.6048 7.96027 10.5916C7.95554 10.5784 7.95114 10.565 7.94706 10.5516C7.94299 10.5382 7.93925 10.5247 7.93584 10.5111C7.93244 10.4975 7.92936 10.4838 7.92662 10.47C7.92389 10.4563 7.92149 10.4424 7.91944 10.4286C7.91737 10.4147 7.91566 10.4008 7.91428 10.3868C7.91291 10.3729 7.91187 10.3589 7.91119 10.3449C7.9105 10.3309 7.91016 10.3168 7.91016 10.3028C7.91016 10.2888 7.9105 10.2748 7.91119 10.2607C7.91187 10.2467 7.91291 10.2327 7.91428 10.2188C7.91566 10.2048 7.91737 10.1909 7.91944 10.177C7.92149 10.1632 7.92389 10.1494 7.92662 10.1356C7.92936 10.1218 7.93244 10.1082 7.93584 10.0945C7.93925 10.0809 7.94299 10.0674 7.94706 10.054C7.95114 10.0406 7.95554 10.0272 7.96027 10.014C7.96498 10.0008 7.97003 9.98775 7.97541 9.97479C7.98077 9.96184 7.98645 9.94901 7.99245 9.93634C7.99845 9.92365 8.00475 9.91112 8.01136 9.89876C8.01797 9.88639 8.02489 9.87418 8.03209 9.86215C8.03931 9.85012 8.04682 9.83828 8.05461 9.82661C8.0624 9.81493 8.07047 9.80348 8.07883 9.79222C8.08719 9.78095 8.09582 9.76989 8.10472 9.75904C8.11361 9.7482 8.12278 9.73757 8.1322 9.72718C8.14162 9.71679 8.15129 9.70664 8.1612 9.69671C8.17112 9.68679 8.18128 9.67714 8.19167 9.66772C8.20207 9.65829 8.21269 9.64912 8.22353 9.64023C8.23438 9.63134 8.24543 9.6227 8.2567 9.61434C8.26796 9.60598 8.27943 9.59792 8.29109 9.59012C8.30276 9.58232 8.31461 9.57482 8.32664 9.56762C8.33867 9.5604 8.35087 9.55348 8.36323 9.54687C8.37561 9.54026 8.38814 9.53397 8.40083 9.52796C8.4135 9.52197 8.42632 9.51628 8.43928 9.51092C8.45224 9.50554 8.46532 9.5005 8.47853 9.49578C8.49174 9.49104 8.50506 9.48665 8.51848 9.48257C8.5319 9.4785 8.54542 9.47476 8.55903 9.47136C8.57264 9.46795 8.58632 9.46487 8.60008 9.46214C8.61384 9.4594 8.62766 9.457 8.64153 9.45495C8.65541 9.45289 8.66932 9.45117 8.68328 9.44979C8.69724 9.44842 8.71122 9.44739 8.72523 9.4467C8.73925 9.44601 8.75327 9.44567 8.7673 9.44567L11.053 9.44567C11.067 9.44567 11.0811 9.44601 11.0951 9.4467C11.1091 9.44739 11.1231 9.44842 11.137 9.44979C11.151 9.45117 11.1649 9.45289 11.1788 9.45495C11.1927 9.457 11.2065 9.4594 11.2202 9.46214C11.234 9.46487 11.2477 9.46795 11.2613 9.47136C11.2749 9.47476 11.2884 9.4785 11.3018 9.48257C11.3153 9.48665 11.3286 9.49104 11.3418 9.49578C11.355 9.5005 11.3681 9.50554 11.381 9.51092C11.394 9.51628 11.4068 9.52197 11.4195 9.52796C11.4322 9.53397 11.4447 9.54026 11.4571 9.54687C11.4694 9.55348 11.4816 9.5604 11.4937 9.56762C11.5057 9.57482 11.5175 9.58232 11.5292 9.59012C11.5409 9.59792 11.5523 9.60598 11.5636 9.61434C11.5749 9.6227 11.5859 9.63134 11.5968 9.64023C11.6076 9.64912 11.6182 9.65829 11.6286 9.66772C11.639 9.67714 11.6492 9.68679 11.6591 9.69671C11.669 9.70664 11.6787 9.71679 11.6881 9.72718C11.6975 9.73757 11.7067 9.7482 11.7156 9.75904C11.7245 9.76989 11.7331 9.78095 11.7415 9.79222C11.7498 9.80348 11.7579 9.81493 11.7657 9.82661C11.7735 9.83828 11.781 9.85012 11.7882 9.86215C11.7954 9.87418 11.8023 9.88639 11.809 9.89876C11.8156 9.91112 11.8219 9.92365 11.8279 9.93634C11.8339 9.94901 11.8395 9.96184 11.8449 9.97479C11.8503 9.98775 11.8553 10.0008 11.86 10.014C11.8648 10.0272 11.8692 10.0406 11.8733 10.054C11.8773 10.0674 11.8811 10.0809 11.8845 10.0945C11.8879 10.1082 11.891 10.1218 11.8937 10.1356C11.8964 10.1494 11.8988 10.1632 11.9009 10.177C11.9029 10.1909 11.9047 10.2048 11.906 10.2188C11.9074 10.2327 11.9084 10.2467 11.9091 10.2607C11.9098 10.2748 11.9102 10.2888 11.9102 10.3028C11.9102 10.3168 11.9098 10.3309 11.9091 10.3449C11.9084 10.3589 11.9074 10.3729 11.906 10.3868C11.9047 10.4008 11.9029 10.4147 11.9009 10.4286C11.8988 10.4424 11.8964 10.4563 11.8937 10.47C11.891 10.4838 11.8879 10.4975 11.8845 10.5111C11.8811 10.5247 11.8773 10.5382 11.8733 10.5516C11.8692 10.565 11.8648 10.5784 11.86 10.5916C11.8553 10.6048 11.8503 10.6179 11.8449 10.6308C11.8395 10.6438 11.8339 10.6566 11.8279 10.6693C11.8219 10.682 11.8156 10.6945 11.809 10.7069C11.8023 10.7192 11.7954 10.7314 11.7882 10.7435C11.781 10.7555 11.7735 10.7673 11.7657 10.779C11.7579 10.7907 11.7498 10.8021 11.7415 10.8134C11.7331 10.8247 11.7245 10.8357 11.7156 10.8466C11.7067 10.8574 11.6975 10.868 11.6881 10.8784C11.6787 10.8888 11.669 10.899 11.6591 10.9089C11.6492 10.9188 11.639 10.9285 11.6286 10.9379C11.6182 10.9473 11.6076 10.9565 11.5968 10.9654C11.5859 10.9743 11.5749 10.9829 11.5636 10.9913C11.5523 10.9996 11.5409 11.0077 11.5292 11.0155C11.5175 11.0233 11.5057 11.0308 11.4937 11.038C11.4816 11.0452 11.4694 11.0521 11.4571 11.0587C11.4447 11.0654 11.4322 11.0717 11.4195 11.0777C11.4068 11.0837 11.394 11.0893 11.381 11.0947C11.3681 11.1001 11.355 11.1051 11.3418 11.1098C11.3286 11.1146 11.3153 11.119 11.3018 11.123C11.2884 11.1271 11.2749 11.1309 11.2613 11.1343C11.2477 11.1377 11.234 11.1407 11.2202 11.1435C11.2065 11.1462 11.1927 11.1486 11.1788 11.1507C11.1649 11.1527 11.151 11.1544 11.137 11.1558C11.1231 11.1572 11.1091 11.1582 11.0951 11.1589C11.0811 11.1596 11.067 11.1599 11.053 11.1599Z"   fill="currentColor" ></path></svg>