<svg xmlns="http://www.w3.org/2000/svg" xmlns:xlink="http://www.w3.org/1999/xlink" width="21" height="21" viewBox="0 0 21 21" fill="none">
<path d="M10.4918 1.75C5.42021 1.74795 1.3125 5.85361 1.3125 10.9211C1.3125 14.9283 3.88213 18.3347 7.46074 19.5856C7.94268 19.7066 7.86885 19.3642 7.86885 19.1304L7.86885 17.541C5.08594 17.8671 4.97314 16.0255 4.78652 15.7179C4.40918 15.0739 3.51709 14.9099 3.78369 14.6022C4.41738 14.2762 5.06338 14.6843 5.81191 15.7896C6.35332 16.5915 7.40947 16.4562 7.94473 16.3228C8.06162 15.8409 8.31182 15.4103 8.65635 15.076C5.77295 14.5592 4.57119 12.7996 4.57119 10.7078C4.57119 9.69267 4.90547 8.75957 5.56172 8.00693C5.14336 6.76621 5.60068 5.70391 5.66221 5.546C6.85371 5.43935 8.09238 6.39912 8.18877 6.475C8.86553 6.29248 9.63867 6.19609 10.5041 6.19609C11.3736 6.19609 12.1488 6.29658 12.8317 6.48115C13.0635 6.30478 14.2119 5.48037 15.3193 5.58086C15.3788 5.73877 15.8259 6.77646 15.4321 8.00078C16.0966 8.75547 16.435 9.69678 16.435 10.714C16.435 12.8099 15.225 14.5715 12.3334 15.0801C12.8153 15.5559 13.1147 16.2162 13.1147 16.9463L13.1147 19.2534C13.1312 19.438 13.1147 19.6205 13.4224 19.6205C17.0543 18.3962 19.669 14.9652 19.669 10.9231C19.669 5.85361 15.5593 1.75 10.4918 1.75L10.4918 1.75Z"   fill="currentColor" >
</path>
</svg>
