<svg xmlns="http://www.w3.org/2000/svg" xmlns:xlink="http://www.w3.org/1999/xlink" width="12" height="12.0009765625" viewBox="0 0 12 12.0009765625" fill="none">
<path     fill="#09BB07"  d="M8.61612 7.20023C8.66396 6.80393 8.70017 6.40826 8.70017 6.00031C8.70017 5.59235 8.66396 5.19605 8.61612 4.80038L10.6442 4.80038C10.7399 5.18441 10.8 5.5859 10.8 6.00031C10.7994 6.10142 10.7956 6.20243 10.7888 6.30332C10.7819 6.4042 10.772 6.50479 10.759 6.60505C10.746 6.70533 10.7299 6.80511 10.7107 6.90441C10.6916 7.0037 10.6694 7.1023 10.6442 7.20023M7.5539 10.5363C7.914 9.87035 8.19007 9.15013 8.38209 8.40018L10.1522 8.40018C10.1343 8.43114 10.1159 8.46188 10.0973 8.49241C10.0786 8.52296 10.0596 8.5533 10.0403 8.58342C10.021 8.61353 10.0013 8.64344 9.98129 8.67312C9.96129 8.70281 9.94095 8.73227 9.92028 8.76149C9.89963 8.79072 9.87864 8.81971 9.85734 8.84847C9.83603 8.87723 9.81441 8.90575 9.79247 8.93404C9.77053 8.96231 9.74827 8.99035 9.72571 9.01814C9.70314 9.04591 9.68026 9.07344 9.65709 9.10072C9.63391 9.12799 9.61042 9.15501 9.58665 9.18176C9.56288 9.2085 9.5388 9.23499 9.51442 9.2612C9.49004 9.28741 9.46538 9.31336 9.44043 9.33903C9.41549 9.36468 9.39026 9.39006 9.36474 9.41517C9.33922 9.44028 9.31343 9.46508 9.28735 9.48961C9.26128 9.51414 9.23494 9.53837 9.20833 9.56231C9.18172 9.58626 9.15486 9.60989 9.12772 9.63323C9.10058 9.65658 9.0732 9.67961 9.04555 9.70234C9.01789 9.72507 8.99 9.7475 8.96184 9.7696C8.93369 9.79171 8.90529 9.8135 8.87667 9.83497C8.84803 9.85644 8.81917 9.8776 8.79006 9.89843C8.76095 9.91927 8.73161 9.93979 8.70205 9.95995C8.67249 9.98014 8.64271 9.99999 8.61269 10.0195C8.58269 10.039 8.55248 10.0582 8.52204 10.077C8.49161 10.0959 8.46097 10.1144 8.43012 10.1325C8.39928 10.1507 8.36824 10.1685 8.33699 10.186C8.30575 10.2034 8.2743 10.2205 8.24268 10.2373C8.21106 10.2541 8.17925 10.2705 8.14726 10.2866C8.11528 10.3026 8.08311 10.3183 8.05077 10.3336C8.01844 10.349 7.98593 10.364 7.95325 10.3786C7.92058 10.3932 7.88774 10.4074 7.85476 10.4213C7.82177 10.4352 7.78863 10.4487 7.75534 10.4619C7.72205 10.475 7.68861 10.4878 7.65503 10.5002C7.62145 10.5126 7.58773 10.5246 7.5539 10.5363ZM7.4039 7.20023L4.59673 7.20023C4.5366 6.80393 4.5004 6.40826 4.5004 6.00031C4.5004 5.59235 4.5366 5.19023 4.59673 4.80038L7.40455 4.80038C7.45886 5.19023 7.50088 5.59235 7.50088 6.00031C7.50088 6.40826 7.45886 6.80393 7.40455 7.20023M6.00096 10.7761C5.50315 10.0566 5.10037 9.25809 4.85469 8.40018L7.14659 8.40018C6.90091 9.25809 6.49879 10.0566 6.00032 10.7761M3.60045 3.5998L1.84839 3.5998C1.86618 3.56877 1.88432 3.53795 1.9028 3.50732C1.92127 3.4767 1.94011 3.4463 1.95928 3.4161C1.97844 3.3859 1.99796 3.35593 2.0178 3.32619C2.03765 3.29643 2.05783 3.26689 2.07833 3.2376C2.09885 3.20831 2.11968 3.17925 2.14085 3.15042C2.16202 3.12158 2.18352 3.093 2.20533 3.06465C2.22713 3.0363 2.24927 3.00821 2.27171 2.98037C2.29417 2.95254 2.31693 2.92494 2.33999 2.89761C2.36307 2.87029 2.38643 2.84322 2.41011 2.81642C2.4338 2.78961 2.45777 2.76308 2.48206 2.73682C2.50633 2.71056 2.53091 2.68458 2.55578 2.65886C2.58064 2.63316 2.6058 2.60774 2.63124 2.5826C2.65668 2.55746 2.68239 2.53261 2.7084 2.50805C2.7344 2.48348 2.76067 2.45922 2.78722 2.43527C2.81377 2.41131 2.84059 2.38764 2.86767 2.36428C2.89474 2.34093 2.92209 2.31786 2.94969 2.29512C2.9773 2.27238 3.00515 2.24995 3.03325 2.22784C3.06136 2.20573 3.08973 2.18393 3.11832 2.16246C3.14691 2.14099 3.17577 2.11983 3.20484 2.09901C3.23392 2.07818 3.26323 2.05769 3.29277 2.03754C3.32231 2.01737 3.35208 1.99755 3.38207 1.97805C3.41206 1.95856 3.44226 1.93941 3.47268 1.92061C3.50309 1.9018 3.53373 1.88333 3.56457 1.86522C3.5954 1.8471 3.62644 1.82933 3.65768 1.81192C3.68891 1.79451 3.72034 1.77744 3.75196 1.76073C3.78359 1.74402 3.81541 1.72768 3.84739 1.7117C3.87938 1.69571 3.91155 1.68007 3.9439 1.66481C3.97624 1.64955 4.00876 1.63466 4.04144 1.62013C4.07412 1.6056 4.10696 1.59143 4.13996 1.57765C4.17295 1.56387 4.2061 1.55046 4.23941 1.53741C4.27272 1.52436 4.30616 1.51171 4.33975 1.49942C4.37334 1.48714 4.40706 1.47523 4.44093 1.46371C4.08081 2.12962 3.81057 2.84983 3.60045 3.5998ZM1.84839 8.40018L3.60045 8.40018C3.81057 9.15013 4.08081 9.87035 4.44093 10.5363C4.40712 10.5246 4.37347 10.5126 4.33995 10.5002C4.30642 10.4878 4.27303 10.475 4.23979 10.4618C4.20656 10.4487 4.17347 10.4352 4.14052 10.4213C4.10758 10.4074 4.07481 10.3931 4.04218 10.3785C4.00956 10.3639 3.97712 10.3489 3.94483 10.3336C3.91254 10.3182 3.88043 10.3025 3.84849 10.2864C3.81656 10.2704 3.7848 10.254 3.75324 10.2372C3.72167 10.2204 3.69029 10.2033 3.65911 10.1858C3.62791 10.1683 3.59692 10.1505 3.56613 10.1324C3.53534 10.1142 3.50476 10.0957 3.47438 10.0769C3.444 10.058 3.41385 10.0388 3.3839 10.0193C3.35395 9.99979 3.32422 9.97994 3.29471 9.95977C3.26521 9.93959 3.23594 9.91907 3.20689 9.89824C3.17784 9.8774 3.14902 9.85625 3.12044 9.83478C3.09188 9.81329 3.06354 9.7915 3.03545 9.76939C3.00736 9.74728 2.97952 9.72486 2.95193 9.70213C2.92434 9.67939 2.89702 9.65635 2.86994 9.63302C2.84286 9.60967 2.81606 9.58603 2.78951 9.56209C2.76296 9.53815 2.73669 9.51392 2.71067 9.48939C2.68467 9.46485 2.65894 9.44005 2.63348 9.41496C2.60804 9.38985 2.58287 9.36447 2.55797 9.3388C2.53308 9.31314 2.50849 9.2872 2.48418 9.26099C2.45988 9.23479 2.43586 9.2083 2.41214 9.18156C2.38843 9.15481 2.365 9.1278 2.3419 9.10054C2.31879 9.07326 2.29598 9.04573 2.27348 9.01795C2.25098 8.99018 2.2288 8.96215 2.20692 8.93389C2.18505 8.90561 2.16349 8.87709 2.14224 8.84834C2.12102 8.81959 2.10011 8.7906 2.07951 8.76137C2.05892 8.73214 2.03865 8.7027 2.01872 8.67303C1.99879 8.64335 1.97919 8.61347 1.95993 8.58336C1.94065 8.55325 1.92173 8.52291 1.90313 8.49238C1.88454 8.46185 1.8663 8.43112 1.84839 8.40018ZM1.35639 7.20023C1.33115 7.1023 1.30893 7.0037 1.28974 6.90442C1.27054 6.80513 1.25441 6.70535 1.24133 6.60508C1.22825 6.5048 1.21826 6.40422 1.21135 6.30333C1.20445 6.20243 1.20065 6.10142 1.19994 6.00031C1.19994 5.58653 1.26007 5.18376 1.35574 4.79973L3.38387 4.79973C3.33602 5.19605 3.29982 5.59235 3.29982 6.00031C3.29982 6.40826 3.33602 6.80393 3.38387 7.20023M5.99967 1.21804C6.49748 1.93761 6.90027 2.74187 7.14594 3.5998L4.85405 3.5998C5.09972 2.74187 5.50186 1.93824 6.00032 1.21804M10.1522 3.5998L8.38209 3.5998C8.35866 3.50702 8.33382 3.4146 8.30756 3.32258C8.2813 3.23056 8.25365 3.13896 8.2246 3.04779C8.19556 2.95661 8.16511 2.86589 8.13329 2.77564C8.10146 2.68539 8.06826 2.59566 8.03369 2.50643C7.99913 2.41719 7.9632 2.3285 7.92591 2.24037C7.88864 2.15223 7.85001 2.06469 7.81006 1.97773C7.7701 1.89077 7.72882 1.80446 7.68623 1.71877C7.64363 1.63308 7.59974 1.54806 7.55454 1.46371C7.5884 1.47529 7.62215 1.48726 7.65574 1.4996C7.68935 1.51195 7.72281 1.52467 7.75613 1.53776C7.78945 1.55085 7.8226 1.56432 7.85562 1.57815C7.88864 1.59199 7.92149 1.6062 7.95419 1.62076C7.98687 1.63534 8.01941 1.65028 8.05177 1.66559C8.08412 1.68088 8.11631 1.69654 8.14832 1.71256C8.18034 1.72859 8.21216 1.74497 8.2438 1.7617C8.27546 1.77844 8.3069 1.79554 8.33816 1.81298C8.36942 1.83042 8.40048 1.84821 8.43135 1.86634C8.46221 1.88448 8.49287 1.90295 8.52331 1.92179C8.55375 1.94061 8.58398 1.95978 8.614 1.97928C8.64402 1.99878 8.67382 2.01861 8.70338 2.03878C8.73296 2.05895 8.76231 2.07944 8.79142 2.10027C8.82053 2.12111 8.84941 2.14226 8.87805 2.16373C8.90669 2.1852 8.93508 2.20699 8.96324 2.2291C8.99139 2.25121 9.01929 2.27363 9.04694 2.29638C9.07459 2.31911 9.10198 2.34215 9.12911 2.3655C9.15625 2.38886 9.18312 2.41249 9.20971 2.43645C9.23632 2.46041 9.26266 2.48465 9.28872 2.5092C9.31476 2.53373 9.34056 2.55857 9.36606 2.58369C9.39156 2.6088 9.41677 2.63421 9.44171 2.65989C9.46664 2.68558 9.49128 2.71155 9.51563 2.73778C9.53998 2.76401 9.56404 2.79052 9.5878 2.8173C9.61156 2.84407 9.63502 2.87111 9.65817 2.89841C9.68131 2.92572 9.70416 2.95328 9.72669 2.98108C9.74922 3.00889 9.77145 3.03695 9.79335 3.06527C9.81526 3.09359 9.83685 3.12214 9.85811 3.15093C9.87937 3.17974 9.90031 3.20877 9.92093 3.23803C9.94154 3.26729 9.96183 3.29679 9.98179 3.3265C10.0017 3.35622 10.0214 3.38616 10.0406 3.41632C10.0599 3.44648 10.0789 3.47685 10.0975 3.50743C10.1161 3.53802 10.1343 3.56881 10.1522 3.5998ZM5.99967 0.000636411C2.68176 0.000636411 1.15606e-07 2.70049 1.15606e-07 6.00031C-2.01154e-05 6.09851 0.00236901 6.19666 0.00716734 6.29474C0.0119657 6.39282 0.0191683 6.49074 0.0287751 6.58846C0.0383818 6.68619 0.0503828 6.78363 0.064778 6.88077C0.0791629 6.97791 0.0959268 7.07465 0.11507 7.17098C0.134213 7.26729 0.155705 7.36308 0.179544 7.45835C0.203384 7.55361 0.229553 7.64822 0.258051 7.7422C0.286538 7.83618 0.317313 7.9294 0.350376 8.02188C0.38345 8.11435 0.418765 8.20595 0.456324 8.29667C0.493892 8.3874 0.533663 8.47717 0.575636 8.56595C0.617609 8.65473 0.661739 8.74243 0.708026 8.82905C0.754302 8.91566 0.802674 9.00109 0.853143 9.08532C0.903621 9.16956 0.956136 9.2525 1.01069 9.33416C1.06522 9.41582 1.12174 9.4961 1.18023 9.57498C1.23872 9.65387 1.29911 9.73127 1.36141 9.80718C1.4237 9.88311 1.48781 9.95745 1.55374 10.0302C1.61969 10.103 1.68738 10.1741 1.75681 10.2436C1.82623 10.313 1.89733 10.3807 1.97009 10.4467C2.04284 10.5126 2.11718 10.5767 2.19308 10.6391C2.26898 10.7013 2.34638 10.7618 2.42525 10.8203C2.50412 10.8788 2.58439 10.9353 2.66603 10.9899C2.74769 11.0444 2.83062 11.097 2.91485 11.1475C2.99907 11.1979 3.08449 11.2463 3.17108 11.2926C3.2577 11.3389 3.34539 11.3831 3.43415 11.4251C3.52293 11.4671 3.61268 11.5069 3.7034 11.5444C3.79412 11.582 3.88572 11.6174 3.97818 11.6504C4.07064 11.6835 4.16386 11.7143 4.25782 11.7429C4.3518 11.7714 4.44641 11.7976 4.54168 11.8214C4.63694 11.8453 4.73272 11.8668 4.82903 11.886C4.92536 11.9051 5.02208 11.9219 5.11922 11.9363C5.21637 11.9507 5.3138 11.9627 5.41152 11.9724C5.50925 11.982 5.60715 11.9892 5.70524 11.994C5.80332 11.9989 5.90147 12.0013 5.99967 12.0013C6.09788 12.0013 6.19603 11.9989 6.29412 11.9941C6.39222 11.9893 6.49013 11.9821 6.58787 11.9724C6.6856 11.9628 6.78305 11.9508 6.88019 11.9364C6.97734 11.922 7.07407 11.9052 7.1704 11.8861C7.26672 11.8669 7.36252 11.8454 7.45779 11.8216C7.55305 11.7977 7.64768 11.7715 7.74166 11.743C7.83565 11.7145 7.92887 11.6837 8.02133 11.6506C8.11381 11.6175 8.20541 11.5822 8.29614 11.5446C8.38687 11.507 8.47664 11.4673 8.56542 11.4253C8.6542 11.3833 8.74189 11.3391 8.8285 11.2928C8.91511 11.2466 9.00054 11.1982 9.08478 11.1477C9.16901 11.0972 9.25196 11.0447 9.33362 10.9901C9.41527 10.9355 9.49555 10.879 9.57442 10.8205C9.65331 10.762 9.73071 10.7016 9.80662 10.6393C9.88254 10.577 9.95688 10.5128 10.0296 10.4469C10.1024 10.3809 10.1735 10.3132 10.2429 10.2438C10.3124 10.1743 10.3801 10.1032 10.446 10.0304C10.512 9.95766 10.5761 9.88333 10.6384 9.80741C10.7007 9.73148 10.7611 9.65408 10.8196 9.5752C10.8781 9.49629 10.9346 9.41602 10.9892 9.33436C11.0437 9.2527 11.0963 9.16974 11.1467 9.08551C11.1972 9.00127 11.2456 8.91584 11.2919 8.82921C11.3382 8.7426 11.3823 8.65489 11.4243 8.56612C11.4663 8.47734 11.506 8.38757 11.5436 8.29682C11.5812 8.20609 11.6165 8.11449 11.6496 8.02201C11.6826 7.92953 11.7134 7.83632 11.7419 7.74232C11.7704 7.64833 11.7966 7.5537 11.8204 7.45844C11.8443 7.36317 11.8658 7.26738 11.8849 7.17105C11.904 7.07473 11.9208 6.97797 11.9352 6.88083C11.9496 6.78369 11.9616 6.68624 11.9712 6.5885C11.9808 6.49077 11.988 6.39285 11.9928 6.29475C11.9976 6.19667 12 6.09851 12 6.00031C12 5.9021 11.9976 5.80397 11.9928 5.70589C11.988 5.60781 11.9808 5.50992 11.9712 5.4122C11.9615 5.31448 11.9495 5.21705 11.9351 5.1199C11.9207 5.02278 11.904 4.92606 11.8848 4.82974C11.8657 4.73343 11.8442 4.63765 11.8203 4.54239C11.7965 4.44714 11.7703 4.35253 11.7418 4.25855C11.7133 4.16459 11.6825 4.07137 11.6494 3.9789C11.6164 3.88646 11.581 3.79486 11.5435 3.70414C11.5059 3.61342 11.4661 3.52367 11.4241 3.43489C11.3822 3.34611 11.338 3.25842 11.2918 3.17183C11.2455 3.08523 11.1971 2.99981 11.1466 2.91558C11.0961 2.83134 11.0436 2.74841 10.9891 2.66676C10.9345 2.58511 10.878 2.50485 10.8195 2.42598C10.761 2.34711 10.7006 2.26971 10.6384 2.19379C10.5761 2.11788 10.512 2.04354 10.446 1.97079C10.3801 1.89803 10.3124 1.82693 10.2429 1.75749C10.1735 1.68804 10.1024 1.62036 10.0297 1.55441C9.95692 1.48846 9.88258 1.42433 9.80668 1.36203C9.73078 1.29973 9.6534 1.23934 9.57453 1.18084C9.49566 1.12234 9.41539 1.06581 9.33375 1.01126C9.25211 0.956701 9.16918 0.904177 9.08496 0.853689C9.00072 0.8032 8.91531 0.754813 8.82871 0.708526C8.74211 0.66223 8.65444 0.61809 8.56566 0.576106C8.4769 0.534122 8.38716 0.494337 8.29644 0.456748C8.20572 0.419169 8.11413 0.383838 8.02168 0.350755C7.92923 0.317672 7.83601 0.286876 7.74205 0.258369C7.64809 0.229862 7.55347 0.203678 7.45821 0.179817C7.36296 0.155956 7.26718 0.13445 7.17087 0.115297C7.07456 0.0961338 6.97784 0.0793496 6.88071 0.0649445C6.78358 0.0505291 6.68615 0.038513 6.58843 0.0288962C6.49071 0.0192692 6.39281 0.0120464 6.29472 0.0072278C6.19664 0.00240924 6.09851 0 6.00032 0L5.99967 0.000636411Z">
</path>
</svg>
