<svg xmlns="http://www.w3.org/2000/svg" xmlns:xlink="http://www.w3.org/1999/xlink" width="20" height="20" viewBox="0 0 20 20" fill="none">
<path     fill="#FBBC05"  d="M4.74999 10.0707C4.74999 9.48172 4.849 8.91672 5.024 8.38672L1.94 6.05273C1.90141 6.13039 1.86395 6.20859 1.82763 6.28734C1.7913 6.36609 1.75612 6.44536 1.72208 6.52514C1.68805 6.6049 1.65517 6.68514 1.62345 6.76586C1.59173 6.84658 1.56119 6.92773 1.53182 7.00934C1.50245 7.09094 1.47426 7.17294 1.44726 7.25535C1.42026 7.33777 1.39446 7.42056 1.36986 7.50371C1.34525 7.58687 1.32185 7.67038 1.29966 7.75422C1.27747 7.83806 1.25649 7.9222 1.23673 8.00664C1.21697 8.09107 1.19843 8.1758 1.18112 8.26078C1.16381 8.34576 1.14773 8.43096 1.13288 8.51641C1.11803 8.60186 1.10442 8.6875 1.09205 8.77334C1.07968 8.85918 1.06855 8.94518 1.05866 9.03133C1.04877 9.11748 1.04014 9.20377 1.03274 9.2902C1.02535 9.3766 1.01921 9.46311 1.01432 9.54969C1.00943 9.63627 1.00579 9.72291 1.0034 9.80961C1.00101 9.89629 0.999881 9.98299 1 10.0697C1 11.5147 1.338 12.8767 1.938 14.0857L5.02198 11.7467C4.99956 11.6793 4.97847 11.6114 4.95874 11.5431C4.93902 11.4747 4.92068 11.4061 4.9037 11.337C4.88675 11.268 4.87116 11.1986 4.85697 11.1289C4.84279 11.0593 4.83001 10.9893 4.81863 10.9192C4.80724 10.849 4.79726 10.7786 4.7887 10.708C4.78015 10.6374 4.773 10.5667 4.76728 10.4958C4.76155 10.4249 4.75726 10.354 4.75437 10.2829C4.75148 10.2119 4.75003 10.1408 4.74999 10.0697">
</path>
<path     fill="#EA4335"  d="M10.167 4.711C10.205 4.71092 10.2431 4.71125 10.2811 4.71199C10.3191 4.71272 10.3571 4.71387 10.3951 4.71543C10.4331 4.71697 10.4711 4.71893 10.5091 4.72129C10.5471 4.72365 10.585 4.72643 10.6229 4.72959C10.6608 4.73277 10.6987 4.73635 10.7365 4.74033C10.7743 4.74432 10.8121 4.74871 10.8498 4.7535C10.8875 4.75828 10.9252 4.76348 10.9628 4.76908C11.0005 4.77469 11.038 4.78068 11.0755 4.78709C11.113 4.7935 11.1504 4.80029 11.1878 4.8075C11.2251 4.81471 11.2624 4.8223 11.2996 4.83031C11.3367 4.8383 11.3738 4.8467 11.4108 4.85549C11.4479 4.8643 11.4847 4.87348 11.5216 4.88307C11.5584 4.89266 11.5951 4.90262 11.6317 4.91299C11.6683 4.92336 11.7047 4.93412 11.7411 4.94527C11.7775 4.95643 11.8137 4.96795 11.8498 4.97988C11.8859 4.99182 11.9219 5.00412 11.9578 5.01682C11.9936 5.02951 12.0294 5.04258 12.0649 5.05604C12.1005 5.06949 12.1359 5.08334 12.1712 5.09756C12.2065 5.11178 12.2416 5.12637 12.2766 5.14133C12.3115 5.15631 12.3463 5.17164 12.381 5.18736C12.4156 5.20307 12.4501 5.21914 12.4844 5.23561C12.5187 5.25205 12.5528 5.26887 12.5867 5.28606C12.6206 5.30322 12.6544 5.32076 12.688 5.33867C12.7215 5.35658 12.7549 5.37484 12.788 5.39346C12.8212 5.41207 12.8542 5.43104 12.8869 5.45035C12.9197 5.46967 12.9522 5.48936 12.9846 5.50938C13.0169 5.52939 13.049 5.54975 13.081 5.57045C13.1129 5.59115 13.1445 5.61219 13.176 5.63357C13.2074 5.65496 13.2387 5.67668 13.2696 5.69873C13.3006 5.72078 13.3314 5.74316 13.3619 5.76588C13.3924 5.78859 13.4227 5.81162 13.4527 5.83498C13.4827 5.85832 13.5125 5.88199 13.542 5.906L16.209 3.26801C14.584 1.866 12.5 1 10.167 1C6.545 1 3.431 3.05301 1.94 6.05301L5.02699 8.38699C5.04944 8.32033 5.07315 8.25412 5.09817 8.18838C5.12319 8.12266 5.14949 8.05742 5.17705 7.99272C5.20461 7.92801 5.23344 7.86385 5.26352 7.80025C5.2936 7.73668 5.3249 7.67371 5.35744 7.61135C5.38998 7.54898 5.42373 7.48727 5.45867 7.42623C5.49362 7.3652 5.52975 7.30484 5.56707 7.24521C5.60438 7.18559 5.64283 7.12672 5.68244 7.06859C5.72207 7.01047 5.76279 6.95315 5.80465 6.8966C5.84651 6.84006 5.88944 6.78438 5.93348 6.72953C5.97752 6.67467 6.0226 6.6207 6.06873 6.5676C6.11488 6.51451 6.16203 6.46234 6.21022 6.41109C6.2584 6.35984 6.30758 6.30955 6.35772 6.26023C6.40787 6.21092 6.45897 6.16258 6.511 6.11525C6.56303 6.06793 6.61598 6.02164 6.66983 5.97639C6.72367 5.93113 6.77838 5.88693 6.83397 5.84383C6.88953 5.8007 6.94594 5.75869 7.00315 5.71777C7.06035 5.67686 7.11836 5.63709 7.17713 5.59844C7.2359 5.55979 7.29541 5.52231 7.35565 5.486C7.4159 5.44969 7.47682 5.41455 7.53842 5.38061C7.60004 5.34668 7.66229 5.31396 7.72518 5.28246C7.78807 5.25096 7.85154 5.22068 7.91563 5.19168C7.97971 5.16266 8.04432 5.1349 8.10949 5.1084C8.17465 5.08189 8.24029 5.0567 8.30645 5.03277C8.3726 5.00885 8.43918 4.98621 8.50621 4.9649C8.57324 4.94357 8.64067 4.92357 8.70848 4.90488C8.77629 4.88619 8.84443 4.86885 8.91293 4.85281C8.98143 4.8368 9.0502 4.82213 9.11926 4.80879C9.18832 4.79545 9.25762 4.78348 9.32715 4.77285C9.3967 4.76223 9.46641 4.75297 9.53631 4.74506C9.60619 4.73717 9.67621 4.73064 9.74637 4.72549C9.81652 4.72031 9.88676 4.71652 9.95705 4.71412C10.0273 4.7117 10.0977 4.71066 10.168 4.711">
</path>
<path     fill="#34A853"  d="M10.207 15.3122C7.78901 15.3122 5.75301 13.7842 5.037 11.6592L1.937 13.9792C3.43699 16.9602 6.566 19.0002 10.208 19.0002C12.454 19.0002 14.598 18.2192 16.209 16.7532L13.266 14.5242C12.436 15.0362 11.39 15.3122 10.206 15.3122">
</path>
<path     fill="#4285F4"  d="M19 9.9857C19 9.45271 18.916 8.87871 18.79 8.3457L10.206 8.3457L10.206 11.8297L15.146 11.8297C15.1393 11.8643 15.1321 11.8988 15.1245 11.9332C15.1168 11.9676 15.1088 12.0019 15.1002 12.0361C15.0917 12.0703 15.0827 12.1043 15.0733 12.1383C15.0639 12.1722 15.054 12.2061 15.0438 12.2397C15.0335 12.2734 15.0227 12.307 15.0116 12.3404C15.0004 12.3738 14.9888 12.4071 14.9768 12.4402C14.9647 12.4733 14.9523 12.5063 14.9394 12.5391C14.9265 12.5719 14.9131 12.6045 14.8994 12.6369C14.8857 12.6694 14.8715 12.7016 14.8569 12.7337C14.8423 12.7658 14.8273 12.7977 14.8119 12.8293C14.7965 12.861 14.7806 12.8925 14.7644 12.9238C14.7482 12.955 14.7315 12.9861 14.7145 13.0169C14.6974 13.0478 14.68 13.0784 14.6622 13.1087C14.6443 13.1391 14.6261 13.1693 14.6074 13.1992C14.5888 13.2291 14.5698 13.2587 14.5504 13.2882C14.531 13.3176 14.5112 13.3467 14.491 13.3756C14.4709 13.4045 14.4503 13.4331 14.4294 13.4615C14.4085 13.4899 14.3872 13.5179 14.3656 13.5457C14.3439 13.5735 14.322 13.6011 14.2996 13.6283C14.2772 13.6555 14.2545 13.6825 14.2315 13.7091C14.2084 13.7357 14.185 13.7621 14.1613 13.7881C14.1375 13.8141 14.1134 13.8398 14.089 13.8653C14.0646 13.8906 14.0398 13.9157 14.0148 13.9405C13.9897 13.9652 13.9643 13.9897 13.9386 14.0138C13.9129 14.0379 13.8869 14.0616 13.8605 14.085C13.8342 14.1084 13.8076 14.1315 13.7806 14.1542C13.7537 14.177 13.7265 14.1993 13.699 14.2213C13.6715 14.2433 13.6437 14.265 13.6156 14.2863C13.5875 14.3076 13.5592 14.3285 13.5306 14.349C13.5019 14.3696 13.4731 14.3898 13.4439 14.4096C13.4148 14.4293 13.3854 14.4487 13.3557 14.4678C13.326 14.4868 13.2961 14.5054 13.266 14.5237L16.208 16.7537C17.9 15.2147 19 12.9227 19 9.98471">
</path>
</svg>
