<svg xmlns="http://www.w3.org/2000/svg" xmlns:xlink="http://www.w3.org/1999/xlink" width="16" height="16" viewBox="0 0 16 16" fill="none"><path    stroke="currentColor" stroke-width="1" stroke-linejoin="round" stroke-linecap="round"  d="M7.99997 8L7.99997 4M7.99997 8L4.5 10.0207L7.99997 8ZM7.99997 8L11.4999 10.0207L7.99997 8Z"></path><path d="M4.66667 5.33333C4.66667 6.0697 4.0697 6.66667 3.33333 6.66667C2.59695 6.66667 2 6.0697 2 5.33333C2 4.59697 2.59695 4 3.33333 4C4.0697 4 4.66667 4.59697 4.66667 5.33333Z" stroke="currentColor" stroke-width="1" stroke-linejoin="round" stroke-linecap="round" ></path><path d="M4.66667 10.6654C4.66667 11.4017 4.0697 11.9987 3.33333 11.9987C2.59695 11.9987 2 11.4017 2 10.6654C2 9.929 2.59695 9.33203 3.33333 9.33203C4.0697 9.33203 4.66667 9.929 4.66667 10.6654Z" stroke="currentColor" stroke-width="1" stroke-linejoin="round" stroke-linecap="round" ></path><path d="M9.33268 13.3333C9.33268 14.0697 8.73572 14.6667 7.99935 14.6667C7.26298 14.6667 6.66602 14.0697 6.66602 13.3333C6.66602 12.597 7.26298 12 7.99935 12C8.73572 12 9.33268 12.597 9.33268 13.3333Z" stroke="currentColor" stroke-width="1" stroke-linejoin="round" stroke-linecap="round" ></path><path d="M14.0007 10.6654C14.0007 11.4017 13.4037 11.9987 12.6673 11.9987C11.931 11.9987 11.334 11.4017 11.334 10.6654C11.334 9.929 11.931 9.33203 12.6673 9.33203C13.4037 9.33203 14.0007 9.929 14.0007 10.6654Z" stroke="currentColor" stroke-width="1" stroke-linejoin="round" stroke-linecap="round" ></path><path d="M14.0007 5.33333C14.0007 6.0697 13.4037 6.66667 12.6673 6.66667C11.931 6.66667 11.334 6.0697 11.334 5.33333C11.334 4.59697 11.931 4 12.6673 4C13.4037 4 14.0007 4.59697 14.0007 5.33333Z" stroke="currentColor" stroke-width="1" stroke-linejoin="round" stroke-linecap="round" ></path><path d="M9.33268 2.66536C9.33268 3.40173 8.73572 3.9987 7.99935 3.9987C7.26298 3.9987 6.66602 3.40173 6.66602 2.66536C6.66602 1.92898 7.26298 1.33203 7.99935 1.33203C8.73572 1.33203 9.33268 1.92898 9.33268 2.66536Z" stroke="currentColor" stroke-width="1" stroke-linejoin="round" stroke-linecap="round" ></path></svg>