<svg xmlns="http://www.w3.org/2000/svg" xmlns:xlink="http://www.w3.org/1999/xlink" width="20" height="20" viewBox="0 0 20 20" fill="none"><path d="M3.70084 2.05974L9.45059 2.81771C9.5459 2.83034 9.64155 2.83982 9.7375 2.84615C9.83342 2.85247 9.92946 2.85563 10.0256 2.85563C10.1217 2.85563 10.2178 2.85247 10.3137 2.84615C10.4097 2.83982 10.5053 2.83034 10.6006 2.81771C13.5007 2.36312 15.2502 2.11062 16.3504 2.00934C16.3765 2.00638 16.4026 2.00412 16.4289 2.00256C16.4551 2.00102 16.4814 2.00017 16.5077 2.00002C16.534 1.99987 16.5602 2.00043 16.5865 2.0017C16.6127 2.00296 16.6389 2.00493 16.6651 2.0076C16.6912 2.01028 16.7173 2.01365 16.7432 2.01772C16.7692 2.02179 16.795 2.02656 16.8208 2.03201C16.8465 2.03746 16.872 2.04361 16.8974 2.05044C16.9228 2.05728 16.948 2.06478 16.973 2.07295C16.998 2.08114 17.0228 2.08999 17.0473 2.0995C17.0719 2.10901 17.0962 2.11918 17.1202 2.12999C17.1441 2.14081 17.1678 2.15226 17.1913 2.16434C17.2146 2.17642 17.2377 2.18913 17.2605 2.20246C17.2832 2.21579 17.3055 2.22971 17.3276 2.24423C17.3495 2.25876 17.3711 2.27386 17.3924 2.28954C17.4136 2.30523 17.4343 2.32148 17.4547 2.33829C17.475 2.35508 17.4949 2.37241 17.5144 2.39029C17.5338 2.40815 17.5528 2.42652 17.5712 2.44541C17.5897 2.4643 17.6077 2.48367 17.6252 2.50352C17.6426 2.52337 17.6595 2.54368 17.6759 2.56444C17.6923 2.5852 17.7081 2.60638 17.7234 2.62799C17.7387 2.64959 17.7534 2.6716 17.7675 2.694C17.7816 2.7164 17.7952 2.73916 17.8081 2.76228C17.821 2.7854 17.8333 2.80885 17.845 2.83264C17.8567 2.85642 17.8677 2.8805 17.8782 2.90488C17.8886 2.92926 17.8984 2.95389 17.9075 2.9788C17.9166 3.0037 17.9251 3.02884 17.9329 3.0542C17.9407 3.07955 17.9478 3.1051 17.9543 3.13083C17.9608 3.15657 17.9665 3.18247 17.9717 3.20853C17.9768 3.23458 17.9812 3.26075 17.9849 3.28704C17.9886 3.31333 17.9917 3.33969 17.994 3.36614C17.9963 3.39259 17.998 3.41909 17.9989 3.44563C17.9999 3.47217 18.0001 3.49871 17.9997 3.52527L17.9997 15.2969C17.9999 15.3193 17.9997 15.3417 17.9989 15.364C17.9982 15.3864 17.997 15.4087 17.9953 15.431C17.9935 15.4533 17.9914 15.4756 17.9887 15.4978C17.986 15.52 17.9828 15.5421 17.9792 15.5641C17.9755 15.5862 17.9714 15.6082 17.9668 15.63C17.9622 15.6519 17.9571 15.6737 17.9516 15.6953C17.946 15.717 17.94 15.7385 17.9335 15.7599C17.927 15.7812 17.92 15.8025 17.9126 15.8236C17.9052 15.8446 17.8973 15.8655 17.889 15.8862C17.8806 15.9069 17.8719 15.9275 17.8626 15.9478C17.8534 15.9681 17.8437 15.9883 17.8336 16.0082C17.8235 16.0281 17.813 16.0477 17.802 16.0671C17.791 16.0865 17.7797 16.1057 17.7679 16.1247C17.7561 16.1436 17.7439 16.1622 17.7313 16.1806C17.7187 16.199 17.7056 16.2171 17.6922 16.2349C17.6788 16.2527 17.665 16.2701 17.6509 16.2873C17.6367 16.3045 17.6222 16.3214 17.6073 16.3379C17.5924 16.3545 17.5771 16.3707 17.5615 16.3865C17.5459 16.4024 17.53 16.4179 17.5137 16.433C17.4974 16.4482 17.4808 16.4629 17.4639 16.4773C17.4469 16.4917 17.4297 16.5058 17.4121 16.5194C17.3946 16.533 17.3767 16.5463 17.3586 16.5591C17.3405 16.572 17.3221 16.5844 17.3035 16.5964C17.2848 16.6084 17.2659 16.62 17.2467 16.6312C17.2276 16.6424 17.2081 16.6531 17.1885 16.6635C17.1689 16.6738 17.149 16.6837 17.129 16.6931C17.1089 16.7025 17.0886 16.7115 17.0682 16.72C17.0477 16.7286 17.027 16.7366 17.0062 16.7442C16.9854 16.7518 16.9645 16.759 16.9433 16.7657C16.9222 16.7723 16.901 16.7785 16.8796 16.7843C16.8582 16.79 16.8366 16.7952 16.815 16.8C16.7934 16.8048 16.7717 16.8091 16.7499 16.8129L10.7004 17.9241C10.6429 17.9367 10.5852 17.9477 10.5271 17.9572C10.4691 17.9667 10.4109 17.9746 10.3524 17.9809C10.294 17.9872 10.2354 17.992 10.1767 17.9951C10.118 17.9983 10.0592 17.9999 10.0004 17.9999C9.94164 17.9999 9.8829 17.9983 9.8242 17.9951C9.76549 17.992 9.7069 17.9872 9.64845 17.9809C9.59 17.9746 9.53174 17.9667 9.47371 17.9572C9.41566 17.9477 9.35791 17.9367 9.30047 17.9241L3.25098 16.8129C3.22939 16.8085 3.20791 16.8037 3.18655 16.7985C3.16517 16.7932 3.1439 16.7875 3.12276 16.7814C3.10163 16.7752 3.08063 16.7686 3.05976 16.7615C3.0389 16.7545 3.01819 16.7469 2.99765 16.739C2.97711 16.731 2.95674 16.7226 2.93655 16.7138C2.91636 16.7049 2.89636 16.6957 2.87655 16.686C2.85675 16.6763 2.83716 16.6662 2.81779 16.6557C2.79841 16.6451 2.77927 16.6342 2.76036 16.6228C2.74143 16.6115 2.72275 16.5997 2.70433 16.5876C2.68592 16.5754 2.66777 16.5629 2.64987 16.5499C2.63197 16.537 2.61436 16.5237 2.59702 16.51C2.57968 16.4963 2.56265 16.4822 2.54591 16.4678C2.52916 16.4534 2.51273 16.4386 2.49662 16.4235C2.4805 16.4083 2.4647 16.3929 2.44921 16.3771C2.43374 16.3613 2.41861 16.3451 2.40382 16.3287C2.38904 16.3122 2.37461 16.2954 2.36052 16.2784C2.34643 16.2613 2.33271 16.2439 2.31934 16.2262C2.30599 16.2086 2.29301 16.1906 2.28041 16.1724C2.26781 16.1542 2.25559 16.1357 2.24377 16.1169C2.23195 16.0982 2.22053 16.0792 2.20952 16.0599C2.19849 16.0407 2.18787 16.0212 2.17767 16.0015C2.16746 15.9818 2.15767 15.9619 2.14831 15.9418C2.13894 15.9217 2.13 15.9014 2.12149 15.8809C2.11297 15.8604 2.10489 15.8397 2.09724 15.8189C2.08961 15.798 2.08241 15.777 2.07565 15.7558C2.06889 15.7347 2.06257 15.7134 2.0567 15.692C2.05085 15.6705 2.04544 15.649 2.04047 15.6273C2.03551 15.6057 2.03101 15.5839 2.02697 15.5621C2.02293 15.5402 2.01934 15.5183 2.01623 15.4963C2.01311 15.4743 2.01046 15.4522 2.00826 15.4301C2.00607 15.4079 2.00435 15.3858 2.00308 15.3636C2.00182 15.3414 2.00102 15.3192 2.0007 15.2969L2.0007 3.57567C1.99988 3.54843 1.99978 3.52119 2.00041 3.49395C2.00106 3.46671 2.00245 3.43951 2.00458 3.41235C2.0067 3.38519 2.00956 3.3581 2.01316 3.33111C2.01676 3.3041 2.02109 3.27722 2.02615 3.25046C2.03121 3.2237 2.03699 3.19709 2.04349 3.17064C2.04999 3.14421 2.05721 3.11797 2.06515 3.09194C2.07308 3.06589 2.08171 3.04009 2.09105 3.01453C2.10037 2.98897 2.11039 2.96368 2.12111 2.93868C2.13181 2.91367 2.14319 2.88898 2.15523 2.86461C2.16729 2.84024 2.18 2.81622 2.19335 2.79255C2.20671 2.76888 2.22071 2.74559 2.23532 2.72269C2.24994 2.69981 2.26517 2.67734 2.28103 2.65529C2.29686 2.63325 2.31329 2.61166 2.3303 2.59052C2.34733 2.56939 2.36491 2.54874 2.38304 2.5286C2.40119 2.50843 2.41986 2.48879 2.43907 2.46966C2.45827 2.45054 2.47798 2.43196 2.4982 2.41394C2.51842 2.39591 2.53912 2.37846 2.5603 2.36158C2.58146 2.3447 2.60307 2.32842 2.62512 2.31275C2.64716 2.29707 2.66962 2.28201 2.69249 2.26759C2.71537 2.25316 2.73861 2.23937 2.76223 2.22622C2.78585 2.21308 2.80981 2.20061 2.83412 2.18879C2.85841 2.17698 2.883 2.16585 2.9079 2.1554C2.93281 2.14496 2.95798 2.13521 2.9834 2.12616C3.00884 2.11711 3.0345 2.10877 3.06038 2.10115C3.08628 2.09353 3.11235 2.08663 3.13862 2.08047C3.16487 2.07428 3.19127 2.06884 3.21783 2.06413C3.24438 2.05942 3.27105 2.05545 3.29783 2.05223C3.32461 2.04899 3.35144 2.0465 3.37834 2.04476C3.40525 2.04302 3.43219 2.04203 3.45916 2.04179C3.48611 2.04154 3.51306 2.04204 3.54 2.04329C3.56694 2.04455 3.59382 2.04655 3.62064 2.04928C3.64746 2.05203 3.67419 2.05552 3.70084 2.05974ZM6.8004 5.2932L6.50066 5.2932C6.46393 5.29358 6.42725 5.29485 6.39059 5.29701C6.35393 5.29917 6.31736 5.30225 6.28086 5.30622C6.24433 5.31018 6.20796 5.31504 6.17169 5.32077C6.13541 5.32652 6.09928 5.33316 6.06333 5.34067C6.02737 5.34819 5.99162 5.35657 5.95606 5.36584C5.92051 5.37509 5.88519 5.38523 5.85014 5.39622C5.81507 5.40721 5.78029 5.41907 5.74579 5.43177C5.71127 5.44445 5.67708 5.45798 5.64324 5.47236C5.60939 5.48674 5.5759 5.50194 5.54279 5.51794C5.50966 5.53397 5.47693 5.55078 5.44464 5.56838C5.4123 5.58599 5.38043 5.60438 5.349 5.62357C5.31757 5.64274 5.28662 5.66267 5.25614 5.68337C5.22565 5.70406 5.19568 5.72548 5.16625 5.74766C5.13678 5.76981 5.10789 5.79268 5.07954 5.81624C5.05118 5.83982 5.02341 5.86408 4.99621 5.88902C4.96901 5.91396 4.94244 5.93955 4.9165 5.96578C4.89051 5.99202 4.86519 6.01885 4.84053 6.04634C4.81585 6.07382 4.79185 6.10188 4.76854 6.13052C4.7452 6.15919 4.72257 6.18839 4.70064 6.21814C4.67872 6.2479 4.6575 6.27819 4.63703 6.30899C4.61656 6.33978 4.59682 6.37107 4.57785 6.40283C4.55888 6.4346 4.54066 6.4668 4.52323 6.49946C4.50581 6.53211 4.48916 6.56519 4.47332 6.59867C4.45748 6.63212 4.44244 6.66596 4.42823 6.70017C4.41401 6.73439 4.40062 6.76892 4.38804 6.80378C4.37547 6.83864 4.36374 6.87379 4.35289 6.90923C4.34199 6.94467 4.33197 6.98035 4.3228 7.01628C4.31362 7.05221 4.30533 7.08835 4.2979 7.12468C4.29044 7.16101 4.28389 7.1975 4.27822 7.23416C4.27253 7.27083 4.26772 7.30761 4.2638 7.3445C4.25987 7.38138 4.25685 7.41834 4.25471 7.45539C4.25255 7.49243 4.25129 7.5295 4.25091 7.56661L4.25091 7.76869C4.25149 7.80905 4.25305 7.84935 4.25557 7.88963C4.25806 7.92991 4.26152 7.97009 4.26596 8.01019C4.27037 8.05029 4.27575 8.09028 4.28208 8.13011C4.28841 8.16994 4.29569 8.20962 4.30392 8.24911C4.31212 8.28859 4.32128 8.32786 4.33138 8.36691C4.34146 8.40594 4.35247 8.44473 4.36442 8.48324C4.37635 8.52174 4.38921 8.55994 4.40298 8.59781C4.41674 8.63568 4.43139 8.67321 4.44696 8.71037C4.46249 8.74755 4.47892 8.78433 4.49624 8.82068C4.51353 8.85703 4.5317 8.89297 4.55072 8.92845C4.56973 8.96394 4.58958 8.99893 4.61027 9.03346C4.63096 9.06798 4.65245 9.10197 4.67477 9.13543C4.69707 9.16891 4.72016 9.20181 4.74405 9.23415C4.76792 9.26649 4.79253 9.29825 4.81794 9.32939C4.84331 9.36053 4.86943 9.39105 4.89629 9.42094C4.92311 9.4508 4.95066 9.48 4.97892 9.50853C5.00715 9.53709 5.03605 9.5649 5.0656 9.59203C5.09516 9.61916 5.12536 9.64555 5.15619 9.6712C5.18701 9.69686 5.21842 9.72175 5.25045 9.74587C5.28243 9.77001 5.31501 9.79335 5.34814 9.81588C5.38125 9.83842 5.41488 9.86015 5.44905 9.88106C5.48319 9.90194 5.51785 9.922 5.55296 9.94124C5.58808 9.96045 5.62361 9.9788 5.65961 9.99629C5.69559 10.0138 5.73198 10.0304 5.76877 10.0461C5.80554 10.0618 5.84266 10.0766 5.88016 10.0905C5.91764 10.1044 5.95542 10.1174 5.99354 10.1295C6.03165 10.1416 6.07001 10.1527 6.10865 10.1629C6.1473 10.1731 6.18614 10.1823 6.22523 10.1906C6.26431 10.1989 6.30355 10.2063 6.34299 10.2127C6.38241 10.2191 6.42196 10.2245 6.46166 10.229C6.50134 10.2335 6.54111 10.237 6.58097 10.2395C6.62081 10.242 6.66071 10.2436 6.70065 10.2442C6.73478 10.2446 6.7689 10.2442 6.80304 10.2429C6.83714 10.2416 6.87122 10.2395 6.90524 10.2365C6.93925 10.2335 6.97315 10.2297 7.00699 10.225C7.04082 10.2203 7.0745 10.2148 7.10808 10.2085C7.14162 10.2021 7.175 10.1949 7.20822 10.1869C7.24141 10.1788 7.27439 10.17 7.30717 10.1603C7.33994 10.1506 7.37246 10.1401 7.4047 10.1288C7.43695 10.1175 7.46891 10.1054 7.50059 10.0925L8.65064 11.8609C8.63694 11.8796 8.62353 11.8985 8.61043 11.9177C8.5973 11.9368 8.58449 11.9561 8.57198 11.9757C8.55945 11.9952 8.54721 12.0149 8.5353 12.0348C8.52339 12.0547 8.51176 12.0748 8.50047 12.0951C8.48916 12.1154 8.47817 12.1358 8.46749 12.1564C8.45682 12.177 8.44645 12.1978 8.43642 12.2188C8.42636 12.2397 8.41665 12.2608 8.40726 12.2821C8.39786 12.3033 8.38877 12.3247 8.38004 12.3462C8.3713 12.3677 8.3629 12.3894 8.35483 12.4112C8.34673 12.433 8.33899 12.4549 8.33158 12.4769C8.32417 12.499 8.31709 12.5211 8.31038 12.5434C8.30363 12.5656 8.29726 12.588 8.29121 12.6104C8.28517 12.6329 8.27946 12.6554 8.2741 12.678C8.26874 12.7007 8.26373 12.7234 8.25908 12.7462C8.2544 12.769 8.2501 12.7918 8.24615 12.8147C8.24218 12.8377 8.23856 12.8607 8.23532 12.8837C8.23205 12.9067 8.22914 12.9298 8.22658 12.9529C8.22403 12.9761 8.22184 12.9992 8.21999 13.0224C8.21814 13.0456 8.21666 13.0688 8.21553 13.0921C8.21439 13.1153 8.21362 13.1386 8.2132 13.1618C8.21278 13.1851 8.21271 13.2084 8.213 13.2317C8.21328 13.2549 8.21392 13.2782 8.21494 13.3014C8.21595 13.3247 8.2173 13.3479 8.21902 13.3711C8.22074 13.3943 8.22279 13.4175 8.22522 13.4406C8.22764 13.4638 8.23042 13.4869 8.23355 13.5099C8.23669 13.533 8.24017 13.556 8.24401 13.5789C8.24783 13.6019 8.25202 13.6248 8.25656 13.6476C8.26108 13.6704 8.26596 13.6931 8.27121 13.7158C8.27641 13.7384 8.28199 13.761 8.28793 13.7835C8.29384 13.806 8.3001 13.8284 8.30672 13.8507C8.31331 13.873 8.32026 13.8952 8.32756 13.9172C8.33484 13.9393 8.34245 13.9613 8.35042 13.9831C8.35602 13.9973 8.3618 14.0115 8.36775 14.0255C8.37371 14.0396 8.37986 14.0536 8.38617 14.0675C8.39248 14.0814 8.39894 14.0953 8.4056 14.109C8.41226 14.1228 8.41908 14.1364 8.42609 14.15C8.43309 14.1635 8.44025 14.177 8.4476 14.1904C8.45492 14.2038 8.46244 14.2171 8.47012 14.2303C8.4778 14.2435 8.48563 14.2566 8.49363 14.2696C8.50162 14.2826 8.5098 14.2955 8.51814 14.3083C8.52645 14.321 8.53495 14.3337 8.54359 14.3463C8.55224 14.3588 8.56104 14.3713 8.57 14.3836C8.57895 14.396 8.58806 14.4082 8.59733 14.4203C8.60659 14.4324 8.61601 14.4444 8.62558 14.4563C8.63515 14.4681 8.64486 14.4799 8.65472 14.4915C8.66458 14.5031 8.67459 14.5146 8.68474 14.5259C8.69489 14.5373 8.70519 14.5485 8.71562 14.5596C8.72605 14.5707 8.73662 14.5817 8.74734 14.5925C8.75804 14.6033 8.76889 14.614 8.77987 14.6245C8.79084 14.6351 8.80195 14.6454 8.8132 14.6557C8.82443 14.666 8.83579 14.6761 8.8473 14.6861C8.85877 14.696 8.8704 14.7059 8.88215 14.7155C8.89389 14.7252 8.90573 14.7347 8.91773 14.7441C8.92969 14.7534 8.9418 14.7626 8.95402 14.7717C8.96621 14.7807 8.97854 14.7896 8.99098 14.7984C9.0034 14.8071 9.01595 14.8157 9.02861 14.8241C9.04125 14.8325 9.054 14.8407 9.06686 14.8488C9.07972 14.8569 9.09269 14.8648 9.10575 14.8726C9.11881 14.8804 9.13195 14.8879 9.14521 14.8954C9.15844 14.9028 9.17179 14.91 9.18522 14.9171C9.19863 14.9242 9.21215 14.9311 9.22576 14.9378C9.23935 14.9445 9.25305 14.9511 9.26683 14.9575C9.2806 14.9638 9.29443 14.97 9.30837 14.976C9.32229 14.9821 9.33629 14.9879 9.35036 14.9936C9.38738 15.0107 9.42488 15.0267 9.46286 15.0415C9.50084 15.0564 9.53926 15.07 9.57809 15.0824C9.61691 15.0948 9.65606 15.106 9.69559 15.116C9.73509 15.1259 9.77486 15.1347 9.81492 15.1421C9.85495 15.1496 9.89518 15.1558 9.93561 15.1608C9.97602 15.1658 10.0166 15.1695 10.0572 15.1719C10.0979 15.1744 10.1386 15.1755 10.1793 15.1754C10.22 15.1753 10.2607 15.174 10.3013 15.1713C10.342 15.1687 10.3825 15.1648 10.4229 15.1596C10.4633 15.1544 10.5035 15.148 10.5435 15.1403C10.5835 15.1326 10.6232 15.1237 10.6627 15.1135C10.7021 15.1034 10.7412 15.092 10.78 15.0794C10.8188 15.0667 10.8571 15.0529 10.895 15.0379C10.9329 15.0229 10.9704 15.0068 11.0073 14.9894C11.0442 14.9721 11.0806 14.9536 11.1164 14.934C11.1522 14.9144 11.1874 14.8937 11.2219 14.8718C11.2564 14.85 11.2902 14.8272 11.3234 14.8032C11.3565 14.7793 11.3889 14.7544 11.4205 14.7284C11.4521 14.7025 11.4829 14.6756 11.5129 14.6477C11.5428 14.6198 11.5719 14.5911 11.6001 14.5614C11.6283 14.5317 11.6556 14.5012 11.6819 14.4698C11.7082 14.4384 11.7336 14.4062 11.758 14.3732C11.7823 14.3403 11.8056 14.3066 11.8279 14.2721C11.8502 14.2377 11.8715 14.2026 11.8916 14.1668C11.9118 14.1311 11.9308 14.0947 11.9488 14.0578C11.9667 14.0209 11.9835 13.9834 11.9991 13.9454C12.0148 13.9074 12.0292 13.8689 12.0425 13.8301C12.0558 13.7912 12.0679 13.7519 12.0788 13.7122C12.0897 13.6726 12.0993 13.6326 12.1078 13.5924C12.1162 13.5521 12.1234 13.5116 12.1294 13.4709C12.1354 13.4302 12.1401 13.3893 12.1435 13.3484C12.147 13.3074 12.1492 13.2663 12.1502 13.2251C12.1502 12.9218 12.1003 12.7706 12.1003 12.5685L13.8503 11.1034C13.9097 11.1281 13.9701 11.1497 14.0315 11.1685C14.093 11.1873 14.1552 11.203 14.2181 11.2157C14.2811 11.2285 14.3444 11.2381 14.4083 11.2447C14.4722 11.2513 14.5362 11.2548 14.6004 11.2551C14.6317 11.2549 14.663 11.2536 14.6942 11.2513C14.7255 11.2491 14.7566 11.2458 14.7877 11.2415C14.8187 11.2373 14.8496 11.232 14.8803 11.2258C14.911 11.2195 14.9415 11.2123 14.9717 11.204C15.002 11.1958 15.032 11.1866 15.0616 11.1765C15.0913 11.1664 15.1206 11.1553 15.1496 11.1432C15.1786 11.1312 15.2072 11.1182 15.2353 11.1043C15.2634 11.0905 15.2912 11.0757 15.3184 11.06C15.3456 11.0444 15.3723 11.0279 15.3985 11.0105C15.4247 10.9931 15.4503 10.9749 15.4754 10.9559C15.5004 10.9369 15.5248 10.917 15.5486 10.8965C15.5724 10.8758 15.5955 10.8545 15.6179 10.8324C15.6404 10.8103 15.6621 10.7875 15.6831 10.7641C15.7041 10.7406 15.7244 10.7164 15.7439 10.6916C15.7633 10.6668 15.782 10.6415 15.7999 10.6155C15.8178 10.5895 15.8348 10.5629 15.8511 10.5359C15.8672 10.5088 15.8826 10.4812 15.8971 10.4531C15.9115 10.425 15.9251 10.3965 15.9378 10.3675C15.9505 10.3386 15.9622 10.3093 15.9731 10.2796C15.9839 10.2499 15.9937 10.2198 16.0027 10.1895C16.0116 10.1592 16.0196 10.1286 16.0266 10.0977C16.0336 10.0668 16.0396 10.0358 16.0447 10.0045C16.0497 9.97329 16.0538 9.94191 16.0568 9.91041C16.0599 9.87892 16.062 9.84733 16.063 9.8157C16.0641 9.78405 16.0642 9.7524 16.0633 9.72077C16.0624 9.68912 16.0604 9.65754 16.0576 9.62602C16.0546 9.5945 16.0507 9.5631 16.0458 9.53183C16.0409 9.50055 16.0351 9.46948 16.0282 9.43859C16.0214 9.4077 16.0136 9.37705 16.0048 9.34667C15.996 9.31629 15.9863 9.2862 15.9756 9.25644C15.9649 9.22668 15.9533 9.19728 15.9408 9.16828C15.9283 9.13926 15.9148 9.11067 15.9005 9.08251C15.8923 9.06635 15.8838 9.05037 15.8749 9.03455C15.8661 9.01872 15.857 9.00307 15.8475 8.98761C15.8381 8.97216 15.8284 8.95687 15.8183 8.94178C15.8083 8.92669 15.798 8.91182 15.7874 8.89713C15.7768 8.88247 15.7659 8.868 15.7548 8.85374C15.7436 8.83949 15.7322 8.82545 15.7205 8.81165C15.7089 8.79786 15.6969 8.78428 15.6847 8.77095C15.6725 8.7576 15.66 8.74452 15.6473 8.73166C15.6346 8.71882 15.6216 8.70622 15.6084 8.69388C15.5952 8.68155 15.5818 8.66947 15.5681 8.65766C15.5545 8.64584 15.5406 8.6343 15.5265 8.62304C15.5124 8.61178 15.4981 8.6008 15.4835 8.59007C15.469 8.57938 15.4543 8.56897 15.4394 8.55882C15.4244 8.54868 15.4093 8.53885 15.394 8.52934C15.3787 8.5198 15.3632 8.51057 15.3476 8.50163C15.3319 8.49269 15.3161 8.48409 15.3001 8.47577C15.2723 8.46089 15.244 8.44691 15.2153 8.43387C15.1866 8.42083 15.1576 8.40873 15.1281 8.39758C15.0986 8.38642 15.0689 8.37623 15.0387 8.36702C15.0086 8.35782 14.9782 8.34959 14.9476 8.34237C14.917 8.33513 14.8861 8.32891 14.8551 8.32367C14.8241 8.31845 14.7929 8.31424 14.7616 8.31106C14.7303 8.30787 14.6989 8.30568 14.6675 8.30452C14.636 8.30339 14.6046 8.30325 14.5731 8.30415C14.5417 8.30506 14.5103 8.30698 14.479 8.30992C14.4476 8.31286 14.4164 8.31683 14.3853 8.3218C14.3543 8.32677 14.3234 8.33274 14.2927 8.33974C14.262 8.34672 14.2316 8.3547 14.2014 8.36366C14.1712 8.37264 14.1413 8.38258 14.1118 8.39348C14.0822 8.4044 14.053 8.41626 14.0242 8.42908C13.9954 8.44189 13.9671 8.45565 13.9392 8.47031C13.9113 8.48496 13.8838 8.50051 13.8569 8.51696C13.83 8.53341 13.8036 8.55073 13.7778 8.5689C13.752 8.58706 13.7268 8.60603 13.7021 8.62585C13.6775 8.64566 13.6536 8.66624 13.6303 8.68761C13.607 8.70899 13.5844 8.7311 13.5625 8.75395C13.5406 8.77679 13.5195 8.80031 13.4991 8.82451C13.4787 8.84874 13.4591 8.8736 13.4403 8.8991C13.4215 8.92457 13.4035 8.95065 13.3864 8.97733C13.3692 9.00399 13.353 9.03118 13.3376 9.05891C13.3222 9.08664 13.3077 9.11483 13.2941 9.1435C13.2805 9.17216 13.2678 9.20125 13.256 9.23074C13.2443 9.26023 13.2335 9.29007 13.2236 9.32028C13.2138 9.35048 13.2049 9.38097 13.197 9.41175C13.1891 9.44253 13.1822 9.47352 13.1763 9.50474C13.1704 9.53597 13.1654 9.56736 13.1615 9.59889C13.1576 9.63043 13.1547 9.66208 13.1528 9.69382C13.1509 9.72556 13.15 9.75733 13.1501 9.78913C13.1481 9.82738 13.1476 9.86565 13.1487 9.90395C13.1497 9.94224 13.1524 9.98042 13.1565 10.0185C13.1607 10.0566 13.1664 10.0944 13.1737 10.132C13.1809 10.1696 13.1897 10.2068 13.2 10.2437L11.45 11.7087C11.4283 11.6904 11.4063 11.6725 11.3839 11.6551C11.3615 11.6377 11.3387 11.6209 11.3155 11.6045C11.2924 11.5881 11.2689 11.5722 11.245 11.5569C11.2212 11.5416 11.197 11.5268 11.1725 11.5126C11.148 11.4984 11.1232 11.4846 11.0981 11.4715C11.073 11.4584 11.0476 11.4458 11.022 11.4338C10.9964 11.4218 10.9705 11.4104 10.9443 11.3995C10.9182 11.3887 10.8918 11.3784 10.8652 11.3688C10.8386 11.3591 10.8118 11.35 10.7849 11.3415C10.7579 11.3331 10.7307 11.3252 10.7034 11.3179C10.676 11.3107 10.6486 11.304 10.621 11.298C10.5933 11.2919 10.5656 11.2865 10.5377 11.2817C10.5099 11.2769 10.4819 11.2727 10.4539 11.2692C10.4258 11.2656 10.3977 11.2627 10.3695 11.2604C10.3414 11.2581 10.3132 11.2564 10.2849 11.2554C10.2567 11.2544 10.2284 11.254 10.2002 11.2542C10.1747 11.2522 10.1491 11.251 10.1235 11.2505C10.0979 11.2501 10.0723 11.2505 10.0468 11.2516C10.0212 11.2527 9.99568 11.2547 9.97022 11.2574C9.94475 11.2601 9.91938 11.2635 9.89415 11.2677C9.86889 11.272 9.84379 11.277 9.81884 11.2828C9.79387 11.2886 9.76912 11.2951 9.74458 11.3024C9.72 11.3097 9.6957 11.3177 9.67161 11.3265C9.64752 11.3352 9.62374 11.3447 9.60023 11.355L8.45018 9.58657C8.46416 9.57192 8.47795 9.5571 8.49158 9.54212C8.50521 9.52714 8.51865 9.51201 8.5319 9.4967C8.54516 9.48138 8.55824 9.46592 8.57114 9.45029C8.58402 9.43467 8.59673 9.41889 8.60926 9.40295C8.62177 9.38701 8.63407 9.37092 8.6462 9.35467C8.65834 9.33842 8.67027 9.32204 8.682 9.30552C8.69374 9.28901 8.7053 9.27233 8.71663 9.2555C8.72797 9.2387 8.73909 9.22176 8.75003 9.20466C8.76097 9.18756 8.77169 9.17036 8.78221 9.15302C8.79273 9.13568 8.80305 9.1182 8.81316 9.10059C8.82326 9.083 8.83314 9.06528 8.84282 9.04743C8.85249 9.0296 8.86195 9.01166 8.87121 8.99358C8.88045 8.9755 8.88948 8.95732 8.8983 8.93902C8.90712 8.92072 8.9157 8.90233 8.92408 8.88383C8.93247 8.86533 8.94061 8.84674 8.94855 8.82804C8.95646 8.80934 8.96416 8.79052 8.97166 8.77164C8.97912 8.75277 8.98637 8.73377 8.99341 8.71472C9.00043 8.69566 9.00722 8.67649 9.01379 8.65726C9.02036 8.63802 9.0267 8.61872 9.0328 8.59933C9.03889 8.57996 9.04478 8.5605 9.05043 8.54095C9.05605 8.52142 9.06146 8.50183 9.06664 8.48217C9.0718 8.46249 9.07672 8.44276 9.08144 8.42299C9.08614 8.40322 9.0906 8.38338 9.09483 8.36348C9.09904 8.34358 9.10303 8.32365 9.10678 8.30366C9.11053 8.28366 9.11404 8.26365 9.11731 8.24356C9.12057 8.22348 9.12359 8.20337 9.12637 8.18323C9.12915 8.16308 9.13171 8.14288 9.13403 8.12266C9.13632 8.10245 9.13837 8.08223 9.1402 8.06197C9.14201 8.04171 9.1436 8.02143 9.14492 8.00112C9.14625 7.98081 9.14735 7.96051 9.14821 7.94018C9.14905 7.91985 9.14964 7.89953 9.15002 7.87917C9.15037 7.85882 9.1505 7.8385 9.15037 7.81815C9.15231 7.77787 9.15326 7.73757 9.15322 7.69725C9.15315 7.65693 9.15209 7.61663 9.15004 7.57635C9.14799 7.53607 9.14495 7.49589 9.14089 7.45579C9.13683 7.41567 9.13178 7.37568 9.12573 7.33583C9.11969 7.29595 9.11267 7.25627 9.10467 7.21678C9.09664 7.17726 9.08766 7.13798 9.07769 7.09896C9.06772 7.0599 9.0568 7.02114 9.04491 6.98265C9.033 6.94416 9.02017 6.90597 9.0064 6.86815C8.99259 6.8303 8.97788 6.79283 8.96224 6.75574C8.94658 6.71865 8.93002 6.68199 8.91255 6.64572C8.89508 6.60946 8.8767 6.57368 8.85747 6.53835C8.83821 6.50302 8.8181 6.46823 8.79712 6.43393C8.77612 6.39962 8.75431 6.36588 8.73166 6.33269C8.709 6.2995 8.68553 6.26689 8.66127 6.2349C8.63698 6.2029 8.61193 6.17154 8.5861 6.1408C8.56025 6.11006 8.53367 6.08002 8.50634 6.05064C8.47901 6.02124 8.45097 5.99257 8.42221 5.96462C8.39345 5.93665 8.36402 5.90943 8.33392 5.88298C8.30381 5.85652 8.27306 5.83082 8.24169 5.80592C8.21028 5.78102 8.1783 5.75693 8.14574 5.73366C8.11314 5.71037 8.08001 5.68792 8.04633 5.66632C8.01263 5.64472 7.97842 5.624 7.9437 5.60414C7.90896 5.58428 7.87375 5.56529 7.83809 5.54721C7.80242 5.52913 7.76634 5.51197 7.72981 5.49572C7.69328 5.47947 7.65638 5.46418 7.6191 5.4498C7.58182 5.43543 7.54419 5.42201 7.50626 5.40955C7.4683 5.39709 7.43007 5.38559 7.39156 5.37507C7.35302 5.36452 7.31427 5.35498 7.27527 5.34645C7.23627 5.33789 7.19708 5.33033 7.15773 5.32376C7.11835 5.31718 7.07885 5.31161 7.03919 5.30704C6.99953 5.30247 6.95981 5.29893 6.91999 5.29639C6.88016 5.29382 6.8403 5.29228 6.8004 5.29177L6.8004 5.2932Z"   fill="url(#linear_fill_469_2010)" ></path><defs><linearGradient id="linear_fill_469_2010" x1="19.4111328125" y1="18.9609375" x2="0.7548828125" y2="1.1259765625" gradientUnits="userSpaceOnUse"><stop offset="0" stop-color="#2563EB"  /><stop offset="1" stop-color="#61A3FF"  /></linearGradient></defs></svg>
