<svg t="1740725141549" class="icon" viewBox="0 0 1024 1024" version="1.1" xmlns="http://www.w3.org/2000/svg" p-id="14199" width="32" height="32"><path d="M213.2992 117.3504a10.6496 10.6496 0 0 0-10.6496 10.6496v768c0 5.888 4.7616 10.6496 10.6496 10.6496H512a32 32 0 1 1 0 64H213.2992A74.6496 74.6496 0 0 1 138.6496 896v-768c0-41.2672 33.4336-74.6496 74.6496-74.6496h597.3504c41.216 0 74.6496 33.3824 74.6496 74.6496V512a32 32 0 1 1-64 0V128a10.6496 10.6496 0 0 0-10.6496-10.6496H213.2992z" p-id="14200"></path><path d="M757.3504 629.2992c17.664 0 32 14.336 32 32v277.3504a32 32 0 0 1-64 0v-277.2992c0-17.7152 14.336-32.0512 32-32.0512z" p-id="14201"></path><path d="M757.3504 608c8.4992 0 16.64 3.3792 22.6304 9.3696l96 96a32 32 0 1 1-45.2608 45.2608l-73.3696-73.3696-73.3696 73.3696a32 32 0 1 1-45.2608-45.2608l96-96a32 32 0 0 1 22.6304-9.3696zM309.3504 341.3504c0-17.7152 14.336-32 32-32h341.3504a32 32 0 0 1 0 64H341.3504a32 32 0 0 1-32-32zM309.3504 512c0-17.664 14.336-32 32-32H512a32 32 0 1 1 0 64H341.3504A32 32 0 0 1 309.3504 512z" p-id="14202"></path></svg>
