<svg xmlns="http://www.w3.org/2000/svg" xmlns:xlink="http://www.w3.org/1999/xlink" width="14.33587646484375" height="12.49853515625" viewBox="0 0 14.33587646484375 12.49853515625" fill="none"><path d="M6.0287 0.290625C6.05056 0.278761 6.07261 0.267245 6.09483 0.256078C6.11705 0.244902 6.13944 0.234073 6.16198 0.223594C6.18455 0.213114 6.20727 0.202984 6.23012 0.193203C6.253 0.183433 6.27602 0.174016 6.29919 0.164953C6.32234 0.155901 6.34564 0.147208 6.36908 0.138875C6.39252 0.130531 6.41608 0.122557 6.43975 0.114953C6.46342 0.107359 6.48722 0.10013 6.51113 0.0932655C6.53503 0.0864009 6.55905 0.0799062 6.58316 0.0737813C6.60727 0.0676667 6.63145 0.061927 6.65575 0.0565625C6.68003 0.0511978 6.70439 0.0462083 6.72883 0.0415936C6.75328 0.0369895 6.77778 0.0327603 6.80236 0.0289063C6.82694 0.0250625 6.85156 0.0215989 6.87623 0.0185156C6.90091 0.0154322 6.92564 0.0127343 6.95041 0.0104219C6.97517 0.00810933 6.99995 0.00617706 7.02478 0.00462497C7.04961 0.00308323 7.07445 0.00192702 7.09931 0.00115621C7.12417 0.000385403 7.14903 0 7.17391 0C7.19877 0 7.22364 0.000385403 7.2485 0.00115621C7.27336 0.00192702 7.2982 0.00308323 7.32303 0.00462497C7.34786 0.00617706 7.37264 0.00810933 7.39741 0.0104219C7.42217 0.0127343 7.44691 0.0154322 7.47158 0.0185156C7.49625 0.0215989 7.52087 0.0250625 7.54545 0.0289063C7.57003 0.0327603 7.59453 0.0369895 7.61897 0.0415936C7.64342 0.0462083 7.66778 0.0511978 7.69206 0.0565625C7.71636 0.061927 7.74055 0.0676667 7.76466 0.0737813C7.78877 0.0799062 7.81277 0.0864009 7.83667 0.0932655C7.86058 0.10013 7.88438 0.107359 7.90806 0.114953C7.93173 0.122557 7.9553 0.130531 7.97873 0.138875C8.00216 0.147208 8.02545 0.155901 8.04862 0.164953C8.0718 0.174016 8.09481 0.183433 8.11767 0.193203C8.14055 0.202984 8.16327 0.213114 8.18581 0.223594C8.20837 0.234073 8.23077 0.244902 8.25298 0.256078C8.2752 0.267245 8.29725 0.278761 8.31911 0.290625L8.4695 0.378625L13.9791 3.91383C13.9899 3.921 14.0005 3.92844 14.0109 3.93613C14.0213 3.94383 14.0316 3.95177 14.0416 3.95995C14.0516 3.96814 14.0615 3.97656 14.0711 3.98523C14.0807 3.99391 14.0901 4.0028 14.0993 4.01192C14.1085 4.02103 14.1175 4.03038 14.1262 4.03994C14.135 4.0495 14.1435 4.05927 14.1517 4.06923C14.16 4.0792 14.168 4.08938 14.1758 4.09973C14.1836 4.11009 14.1911 4.12064 14.1984 4.13137C14.2056 4.14209 14.2126 4.15298 14.2194 4.16406C14.2261 4.17513 14.2325 4.18634 14.2387 4.19773C14.2449 4.20911 14.2508 4.22062 14.2565 4.2323C14.2621 4.24397 14.2674 4.25578 14.2725 4.2677C14.2775 4.27962 14.2823 4.29167 14.2867 4.30383C14.2912 4.31598 14.2954 4.32825 14.2993 4.34061C14.3031 4.35297 14.3067 4.36541 14.31 4.37795C14.3132 4.39048 14.3162 4.40309 14.3189 4.41577C14.3215 4.42844 14.3239 4.44117 14.3259 4.45397C14.328 4.46677 14.3297 4.47959 14.3311 4.49247C14.3325 4.50534 14.3336 4.51825 14.3344 4.53119C14.3352 4.54411 14.3357 4.55705 14.3358 4.57C14.336 4.58295 14.3358 4.59591 14.3353 4.60884C14.3349 4.6218 14.3341 4.63472 14.333 4.64762C14.3319 4.66053 14.3305 4.67341 14.3288 4.68625C14.327 4.69908 14.325 4.71187 14.3227 4.72461C14.3203 4.73734 14.3177 4.75003 14.3147 4.76264C14.3118 4.77525 14.3085 4.78778 14.3049 4.80023C14.3013 4.81269 14.2975 4.82505 14.2933 4.83731C14.2891 4.84958 14.2847 4.86173 14.2799 4.87378C14.2751 4.88583 14.2701 4.89775 14.2648 4.90955C14.2594 4.92134 14.2538 4.93302 14.2479 4.94455C14.242 4.95608 14.2358 4.96745 14.2293 4.97869C14.2229 4.98992 14.2162 5.00098 14.2092 5.01188C14.2022 5.02278 14.1949 5.03352 14.1874 5.04406C14.1799 5.05461 14.1721 5.06497 14.1641 5.07514C14.1561 5.08531 14.1478 5.09528 14.1393 5.10505C14.1308 5.11481 14.1221 5.12437 14.1131 5.13373C14.1041 5.14308 14.0949 5.1522 14.0855 5.16109C14.0761 5.17 14.0665 5.17867 14.0567 5.18709C14.0468 5.19553 14.0368 5.20372 14.0266 5.21166C14.0163 5.21961 14.0059 5.2273 13.9953 5.23473C13.9847 5.24217 13.9739 5.24934 13.963 5.25627C13.952 5.26319 13.9409 5.26983 13.9296 5.2762C13.9184 5.28258 13.9069 5.28867 13.8954 5.2945C13.8838 5.30033 13.8721 5.30586 13.8602 5.31111C13.8484 5.31636 13.8364 5.32133 13.8243 5.326C13.8123 5.33067 13.8001 5.33505 13.7878 5.33913C13.7755 5.3432 13.7631 5.34697 13.7506 5.35045C13.7381 5.35394 13.7256 5.35711 13.713 5.35997C13.7003 5.36283 13.6876 5.36539 13.6749 5.36764C13.6621 5.36991 13.6493 5.37184 13.6365 5.37347C13.6236 5.37509 13.6107 5.37641 13.5978 5.37742C13.5849 5.37842 13.572 5.37911 13.559 5.37948C13.5461 5.37986 13.5331 5.37992 13.5202 5.37967C13.5072 5.37941 13.4943 5.37884 13.4814 5.37795C13.4684 5.37708 13.4555 5.37589 13.4427 5.37437C13.4298 5.37286 13.417 5.37105 13.4042 5.36891C13.3914 5.36678 13.3787 5.36434 13.3661 5.36159C13.3534 5.35884 13.3408 5.35578 13.3283 5.35242C13.3158 5.34906 13.3034 5.34541 13.291 5.34144C13.2787 5.33747 13.2665 5.3332 13.2544 5.32866C13.2422 5.32409 13.2302 5.31925 13.2183 5.31411C13.2065 5.30897 13.1947 5.30353 13.1831 5.29783C13.1714 5.29211 13.16 5.28611 13.1486 5.27984C13.1373 5.27358 13.1261 5.26703 13.1151 5.26022L12.8007 5.05863L12.8007 11.6986C12.8007 11.7117 12.8004 11.7248 12.7997 11.7379C12.7991 11.751 12.7981 11.764 12.7969 11.777C12.7956 11.7901 12.794 11.8031 12.792 11.816C12.7901 11.829 12.7879 11.8419 12.7853 11.8547C12.7828 11.8675 12.7799 11.8803 12.7767 11.893C12.7735 11.9057 12.77 11.9183 12.7662 11.9309C12.7625 11.9434 12.7583 11.9558 12.7539 11.9681C12.7495 11.9805 12.7448 11.9927 12.7398 12.0048C12.7348 12.0169 12.7295 12.0288 12.7239 12.0407C12.7183 12.0525 12.7124 12.0642 12.7062 12.0758C12.7001 12.0873 12.6936 12.0987 12.6869 12.1099C12.6802 12.1211 12.6731 12.1322 12.6659 12.1431C12.6586 12.154 12.6511 12.1647 12.6433 12.1752C12.6355 12.1857 12.6274 12.196 12.6191 12.2061C12.6108 12.2163 12.6023 12.2262 12.5935 12.2359C12.5847 12.2456 12.5757 12.255 12.5664 12.2643C12.5571 12.2736 12.5477 12.2826 12.538 12.2914C12.5282 12.3002 12.5183 12.3087 12.5082 12.317C12.4981 12.3253 12.4878 12.3334 12.4773 12.3412C12.4668 12.349 12.456 12.3565 12.4452 12.3638C12.4343 12.3711 12.4232 12.3781 12.412 12.3848C12.4008 12.3915 12.3894 12.398 12.3778 12.4042C12.3663 12.4103 12.3546 12.4162 12.3427 12.4218C12.3309 12.4274 12.319 12.4327 12.3068 12.4377C12.2948 12.4427 12.2825 12.4475 12.2702 12.4519C12.2579 12.4563 12.2455 12.4604 12.2329 12.4642C12.2204 12.468 12.2078 12.4715 12.1951 12.4747C12.1824 12.4778 12.1696 12.4807 12.1568 12.4832C12.1439 12.4858 12.131 12.488 12.1181 12.49C12.1051 12.4919 12.0921 12.4935 12.0791 12.4948C12.0661 12.4961 12.053 12.497 12.04 12.4977C12.0269 12.4983 12.0138 12.4986 12.0007 12.4986L2.4007 12.4986C2.38761 12.4986 2.37453 12.4983 2.36145 12.4977C2.34838 12.497 2.33531 12.4961 2.3223 12.4948C2.30927 12.4935 2.29627 12.4919 2.28331 12.49C2.27036 12.488 2.25747 12.4858 2.24463 12.4832C2.2318 12.4807 2.21902 12.4778 2.20631 12.4747C2.19361 12.4715 2.181 12.468 2.16847 12.4642C2.15595 12.4604 2.14352 12.4563 2.13119 12.4519C2.11886 12.4475 2.10666 12.4427 2.09456 12.4377C2.08245 12.4327 2.07048 12.4274 2.05866 12.4218C2.04683 12.4162 2.03513 12.4103 2.02358 12.4042C2.01203 12.398 2.00066 12.3915 1.98942 12.3848C1.97819 12.3781 1.96714 12.3711 1.95625 12.3638C1.94536 12.3565 1.93466 12.349 1.92414 12.3412C1.91363 12.3334 1.90331 12.3253 1.89319 12.317C1.88306 12.3087 1.87316 12.3002 1.86345 12.2914C1.85375 12.2826 1.84428 12.2736 1.83502 12.2643C1.82575 12.255 1.81673 12.2456 1.80794 12.2359C1.79914 12.2262 1.79059 12.2163 1.7823 12.2061C1.77398 12.196 1.76594 12.1857 1.75814 12.1752C1.75034 12.1647 1.7428 12.154 1.73553 12.1431C1.72825 12.1322 1.72125 12.1211 1.71452 12.1099C1.70778 12.0987 1.70134 12.0873 1.69517 12.0758C1.689 12.0642 1.68311 12.0525 1.67752 12.0407C1.67191 12.0288 1.66661 12.0169 1.66159 12.0048C1.65658 11.9927 1.65188 11.9805 1.64747 11.9681C1.64305 11.9558 1.63895 11.9434 1.63516 11.9309C1.63136 11.9183 1.62786 11.9057 1.62467 11.893C1.6215 11.8803 1.61863 11.8675 1.61608 11.8547C1.61353 11.8419 1.61128 11.829 1.60936 11.816C1.60744 11.8031 1.60584 11.7901 1.60456 11.777C1.60327 11.764 1.60231 11.751 1.60167 11.7379C1.60103 11.7248 1.6007 11.7117 1.6007 11.6986L1.6007 5.02342L1.2327 5.26022L1.1615 5.30103C1.15057 5.30656 1.13953 5.31184 1.12836 5.31687C1.11719 5.32189 1.10592 5.32666 1.09453 5.33117C1.08313 5.33569 1.07165 5.33992 1.06006 5.34391C1.04849 5.34789 1.03682 5.35159 1.02506 5.35505C1.01331 5.3585 1.00149 5.36167 0.989594 5.36458C0.977687 5.36747 0.965723 5.37009 0.953703 5.37245C0.941681 5.37481 0.929614 5.37689 0.9175 5.37869C0.905384 5.38048 0.893239 5.38202 0.881063 5.38325C0.868875 5.38448 0.856666 5.38545 0.844437 5.38613C0.832208 5.3868 0.819969 5.3872 0.807719 5.38733C0.795469 5.38744 0.783223 5.38728 0.770984 5.38684C0.758747 5.38639 0.746525 5.38567 0.734319 5.38466C0.722112 5.38366 0.709934 5.38237 0.697788 5.38081C0.685639 5.37923 0.673534 5.37739 0.661472 5.37528C0.649408 5.37316 0.6374 5.37077 0.625447 5.36809C0.613494 5.36542 0.601608 5.36247 0.589791 5.35925C0.577973 5.35603 0.566236 5.35255 0.554578 5.34878C0.54292 5.34503 0.531356 5.34102 0.519884 5.33672C0.508411 5.33242 0.497042 5.32788 0.48578 5.32306C0.474514 5.31827 0.463367 5.3132 0.452338 5.30788C0.441306 5.30255 0.430403 5.29698 0.419628 5.29116C0.408853 5.28533 0.398217 5.27927 0.38772 5.27295C0.377223 5.26664 0.366878 5.26009 0.356683 5.2533C0.346487 5.2465 0.336453 5.23948 0.32658 5.23225C0.316706 5.225 0.307005 5.21753 0.297475 5.20983C0.287944 5.20214 0.278595 5.19423 0.26943 5.18611C0.260262 5.17798 0.251287 5.16966 0.242503 5.16113C0.233719 5.15258 0.225134 5.14384 0.216753 5.13492C0.208369 5.126 0.200195 5.11688 0.192231 5.10756C0.184266 5.09827 0.176519 5.08878 0.168991 5.07912C0.161463 5.06945 0.154159 5.05963 0.147081 5.04964C0.140003 5.03964 0.133159 5.02948 0.126548 5.01917C0.119937 5.00886 0.113567 4.99841 0.107435 4.9878C0.101305 4.9772 0.0954208 4.96647 0.0897822 4.95559C0.0841447 4.94472 0.0787598 4.93372 0.0736275 4.92259C0.0684952 4.91148 0.0636208 4.90025 0.0590041 4.88891C0.0543873 4.87755 0.0500337 4.86611 0.0459431 4.85456C0.0418525 4.84302 0.0380286 4.83139 0.0344713 4.81967C0.030915 4.80795 0.0276295 4.79616 0.024615 4.78428C0.0215994 4.77241 0.0188581 4.76047 0.0163916 4.74848C0.0139249 4.73648 0.0117353 4.72444 0.00982278 4.71234C0.00790923 4.70023 0.00627434 4.68811 0.00491809 4.67594C0.00356186 4.66377 0.00248581 4.65156 0.00168997 4.63934C0.00089413 4.62711 0.000379562 4.61487 0.00014621 4.60264C-8.81553e-05 4.59039 -4.07695e-05 4.57814 0.000288427 4.56591C0.00061655 4.55366 0.00122595 4.54142 0.00211656 4.52922C0.00300616 4.517 0.00417591 4.50481 0.00562591 4.49264C0.00707698 4.48048 0.00880563 4.46836 0.0108119 4.45628C0.0128192 4.4442 0.0151025 4.43217 0.0176619 4.42019C0.0202213 4.4082 0.0230541 4.3963 0.0261603 4.38445C0.0292666 4.37261 0.0326436 4.36084 0.0362916 4.34914C0.0399384 4.33745 0.043852 4.32584 0.0480322 4.31433C0.0522123 4.30281 0.0566545 4.29141 0.0613587 4.28011C0.066063 4.2688 0.0710237 4.25759 0.0762416 4.24652C0.0814603 4.23544 0.0869302 4.22448 0.0926509 4.21366C0.0983728 4.20283 0.10434 4.19212 0.110552 4.18158C0.116765 4.17103 0.123217 4.16062 0.129907 4.15036C0.136598 4.14009 0.14352 4.13 0.150674 4.12005C0.15783 4.11011 0.165209 4.10034 0.172813 4.09073C0.180416 4.08112 0.188234 4.0717 0.196272 4.06247C0.204306 4.05323 0.21255 4.04417 0.221003 4.03531C0.229455 4.02645 0.238106 4.01778 0.246956 4.00931C0.255806 4.00084 0.264845 3.99258 0.274075 3.98453C0.283303 3.97648 0.292713 3.96864 0.302303 3.96103L0.368703 3.91303L5.8783 0.379422L6.0287 0.289828L6.0287 0.290625ZM5.6007 9.29862C5.58761 9.29862 5.57453 9.29895 5.56145 9.29959C5.54838 9.30023 5.53531 9.30119 5.5223 9.30248C5.50927 9.30377 5.49627 9.30536 5.48331 9.30728C5.47036 9.3092 5.45747 9.31145 5.44462 9.314C5.4318 9.31655 5.41902 9.31942 5.40631 9.32259C5.39361 9.32578 5.381 9.32928 5.36847 9.33308C5.35595 9.33687 5.34352 9.34098 5.33119 9.34539C5.31886 9.3498 5.30666 9.3545 5.29456 9.35952C5.28245 9.36453 5.27048 9.36983 5.25866 9.37544C5.24683 9.38103 5.23513 9.38692 5.22358 9.39309C5.21203 9.39927 5.20066 9.4057 5.18942 9.41244C5.17819 9.41917 5.16714 9.42617 5.15625 9.43345C5.14536 9.44072 5.13466 9.44827 5.12414 9.45606C5.11363 9.46386 5.10331 9.47192 5.09319 9.48022C5.08306 9.48852 5.07316 9.49706 5.06345 9.50586C5.05375 9.51466 5.04428 9.52367 5.03502 9.53294C5.02575 9.5422 5.01673 9.55167 5.00794 9.56137C4.99914 9.57108 4.99059 9.58098 4.9823 9.59111C4.97398 9.60123 4.96594 9.61155 4.95814 9.62206C4.95034 9.63258 4.9428 9.64328 4.93553 9.65417C4.92825 9.66506 4.92125 9.67611 4.91452 9.68734C4.90778 9.69858 4.90134 9.70995 4.89517 9.7215C4.889 9.73305 4.88311 9.74475 4.87752 9.75658C4.87191 9.76841 4.86661 9.78037 4.86159 9.79248C4.85658 9.80458 4.85187 9.81678 4.84747 9.82911C4.84305 9.84144 4.83895 9.85388 4.83516 9.86639C4.83136 9.87892 4.82786 9.89153 4.82467 9.90423C4.8215 9.91694 4.81862 9.92972 4.81608 9.94255C4.81353 9.95539 4.81128 9.96828 4.80936 9.98123C4.80744 9.99419 4.80584 10.0072 4.80456 10.0202C4.80327 10.0332 4.80231 10.0463 4.80167 10.0594C4.80103 10.0725 4.8007 10.0855 4.8007 10.0986C4.8007 10.1117 4.80103 10.1248 4.80167 10.1379C4.80231 10.151 4.80327 10.164 4.80456 10.177C4.80584 10.1901 4.80744 10.2031 4.80936 10.216C4.81128 10.229 4.81353 10.2419 4.81608 10.2547C4.81862 10.2675 4.8215 10.2803 4.82467 10.293C4.82786 10.3057 4.83136 10.3183 4.83516 10.3309C4.83895 10.3434 4.84305 10.3558 4.84747 10.3681C4.85187 10.3805 4.85658 10.3927 4.86159 10.4048C4.86661 10.4169 4.87191 10.4288 4.87752 10.4407C4.88311 10.4525 4.889 10.4642 4.89517 10.4757C4.90134 10.4873 4.90778 10.4987 4.91452 10.5099C4.92125 10.5211 4.92825 10.5322 4.93553 10.5431C4.9428 10.554 4.95034 10.5647 4.95814 10.5752C4.96594 10.5857 4.97398 10.596 4.9823 10.6061C4.99059 10.6163 4.99914 10.6262 5.00794 10.6359C5.01673 10.6456 5.02575 10.655 5.03502 10.6643C5.04428 10.6736 5.05375 10.6826 5.06345 10.6914C5.07316 10.7002 5.08306 10.7087 5.09319 10.717C5.10331 10.7253 5.11363 10.7334 5.12414 10.7412C5.13466 10.749 5.14536 10.7565 5.15625 10.7638C5.16714 10.7711 5.17819 10.7781 5.18942 10.7848C5.20066 10.7915 5.21203 10.798 5.22358 10.8042C5.23513 10.8103 5.24683 10.8162 5.25866 10.8218C5.27048 10.8274 5.28245 10.8327 5.29456 10.8377C5.30666 10.8427 5.31886 10.8475 5.33119 10.8519C5.34352 10.8563 5.35595 10.8604 5.36847 10.8642C5.381 10.868 5.39361 10.8715 5.40631 10.8747C5.41902 10.8778 5.4318 10.8807 5.44462 10.8833C5.45747 10.8858 5.47036 10.888 5.48331 10.89C5.49627 10.8919 5.50927 10.8935 5.5223 10.8948C5.53531 10.8961 5.54838 10.897 5.56145 10.8977C5.57453 10.8983 5.58761 10.8986 5.6007 10.8986L8.8007 10.8986C8.8138 10.8986 8.82687 10.8983 8.83995 10.8977C8.85303 10.897 8.86609 10.8961 8.87912 10.8948C8.89214 10.8935 8.90514 10.8919 8.91809 10.89C8.93105 10.888 8.94394 10.8858 8.95678 10.8833C8.96961 10.8807 8.98239 10.8778 8.99509 10.8747C9.0078 10.8715 9.02041 10.868 9.03294 10.8642C9.04545 10.8604 9.05789 10.8563 9.07022 10.8519C9.08255 10.8475 9.09475 10.8427 9.10684 10.8377C9.11895 10.8327 9.13092 10.8274 9.14275 10.8218C9.15458 10.8162 9.16628 10.8103 9.17783 10.8042C9.18937 10.798 9.20075 10.7915 9.21198 10.7848C9.22322 10.7781 9.23427 10.7711 9.24516 10.7638C9.25605 10.7565 9.26675 10.749 9.27727 10.7412C9.28778 10.7334 9.29809 10.7253 9.30822 10.717C9.31833 10.7087 9.32825 10.7002 9.33795 10.6914C9.34766 10.6826 9.35713 10.6736 9.36639 10.6643C9.37566 10.655 9.38467 10.6456 9.39347 10.6359C9.40227 10.6262 9.41081 10.6163 9.41911 10.6061C9.42741 10.596 9.43547 10.5857 9.44327 10.5752C9.45106 10.5647 9.45861 10.554 9.46587 10.5431C9.47314 10.5322 9.48016 10.5211 9.48689 10.5099C9.49362 10.4987 9.50006 10.4873 9.50623 10.4757C9.51241 10.4642 9.5183 10.4525 9.52389 10.4407C9.5295 10.4288 9.5348 10.4169 9.53981 10.4048C9.54483 10.3927 9.54953 10.3805 9.55394 10.3681C9.55836 10.3558 9.56245 10.3434 9.56625 10.3309C9.57005 10.3183 9.57355 10.3057 9.57673 10.293C9.57991 10.2803 9.58278 10.2675 9.58533 10.2547C9.58788 10.2419 9.59013 10.229 9.59205 10.216C9.59397 10.2031 9.59556 10.1901 9.59686 10.177C9.59814 10.164 9.59909 10.151 9.59973 10.1379C9.60038 10.1248 9.6007 10.1117 9.6007 10.0986C9.6007 10.0855 9.60038 10.0725 9.59973 10.0594C9.59909 10.0463 9.59814 10.0332 9.59686 10.0202C9.59556 10.0072 9.59397 9.99419 9.59205 9.98123C9.59013 9.96828 9.58788 9.95539 9.58533 9.94255C9.58278 9.92972 9.57991 9.91694 9.57673 9.90423C9.57355 9.89153 9.57005 9.87892 9.56625 9.86639C9.56245 9.85388 9.55836 9.84144 9.55394 9.82911C9.54953 9.81678 9.54483 9.80458 9.53981 9.79247C9.5348 9.78037 9.5295 9.76841 9.52389 9.75658C9.5183 9.74475 9.51241 9.73305 9.50623 9.7215C9.50006 9.70995 9.49362 9.69858 9.48689 9.68734C9.48016 9.67611 9.47316 9.66506 9.46587 9.65417C9.45861 9.64328 9.45106 9.63258 9.44327 9.62206C9.43547 9.61155 9.42742 9.60123 9.41911 9.59111C9.41081 9.58098 9.40227 9.57108 9.39347 9.56137C9.38467 9.55167 9.37566 9.5422 9.36639 9.53294C9.35713 9.52367 9.34766 9.51466 9.33795 9.50586C9.32825 9.49706 9.31834 9.48852 9.30822 9.48022C9.29809 9.47192 9.28778 9.46386 9.27727 9.45606C9.26675 9.44827 9.25605 9.44072 9.24516 9.43345C9.23427 9.42617 9.22322 9.41917 9.21198 9.41244C9.20075 9.4057 9.18937 9.39927 9.17783 9.39309C9.16628 9.38692 9.15458 9.38103 9.14275 9.37544C9.13092 9.36983 9.11895 9.36453 9.10684 9.35952C9.09475 9.3545 9.08255 9.3498 9.07022 9.34539C9.05789 9.34098 9.04545 9.33687 9.03294 9.33308C9.02041 9.32928 9.0078 9.32578 8.99509 9.32259C8.98239 9.31942 8.96961 9.31655 8.95678 9.314C8.94394 9.31145 8.93105 9.3092 8.91809 9.30728C8.90514 9.30536 8.89214 9.30377 8.87912 9.30248C8.86609 9.30119 8.85303 9.30023 8.83995 9.29959C8.82687 9.29895 8.8138 9.29862 8.8007 9.29862L5.6007 9.29862Z"   fill="currentColor" ></path></svg>