<svg xmlns="http://www.w3.org/2000/svg" xmlns:xlink="http://www.w3.org/1999/xlink" width="16" height="16" viewBox="0 0 16 16" fill="none">
<path d="M5.04 14.2801L5.04 9.30849C5.04 9.29541 5.04033 9.28232 5.04097 9.26924C5.04161 9.25618 5.04256 9.24312 5.04386 9.23008C5.04514 9.21705 5.04673 9.20407 5.04866 9.19112C5.05058 9.17816 5.05283 9.16526 5.05537 9.15243C5.05792 9.13958 5.0608 9.12682 5.06397 9.11411C5.06716 9.10141 5.07066 9.0888 5.07445 9.07627C5.07825 9.06374 5.08236 9.05132 5.08676 9.03899C5.09117 9.02666 5.09587 9.01444 5.10089 9.00235C5.10591 8.99026 5.1112 8.9783 5.11681 8.96646C5.12241 8.95462 5.1283 8.94293 5.13447 8.93138C5.14064 8.91983 5.14708 8.90844 5.15381 8.89721C5.16055 8.88599 5.16755 8.87493 5.17483 8.86404C5.18209 8.85315 5.18964 8.84246 5.19744 8.83194C5.20523 8.82143 5.2133 8.81112 5.22159 8.80099C5.22989 8.79086 5.23844 8.78096 5.24723 8.77126C5.25603 8.76155 5.26505 8.75207 5.27431 8.74282C5.28358 8.73357 5.29305 8.72454 5.30275 8.71574C5.31245 8.70694 5.32236 8.6984 5.33248 8.69008C5.34261 8.68179 5.35292 8.67374 5.36344 8.66593C5.37395 8.65813 5.38466 8.6506 5.39555 8.64332C5.40644 8.63605 5.41748 8.62905 5.42872 8.62232C5.43995 8.6156 5.45134 8.60913 5.46289 8.60296C5.47444 8.5968 5.48612 8.59091 5.49795 8.5853C5.50978 8.57971 5.52175 8.57441 5.53386 8.5694C5.54595 8.56438 5.55816 8.55968 5.57048 8.55526C5.58281 8.55085 5.59525 8.54676 5.60776 8.54294C5.6203 8.53915 5.63291 8.53565 5.64561 8.53247C5.65831 8.52929 5.67109 8.52641 5.68392 8.52387C5.69676 8.52132 5.70966 8.51908 5.72261 8.51716C5.73556 8.51524 5.74856 8.51363 5.76159 8.51235C5.77461 8.51107 5.78767 8.5101 5.80075 8.50946C5.81383 8.50882 5.82691 8.50849 5.84 8.50849L10.1511 8.50849C10.1642 8.50849 10.1773 8.50882 10.1904 8.50946C10.2034 8.5101 10.2165 8.51107 10.2295 8.51235C10.2425 8.51363 10.2555 8.51524 10.2685 8.51716C10.2815 8.51908 10.2943 8.52132 10.3072 8.52387C10.32 8.52641 10.3328 8.52929 10.3455 8.53247C10.3582 8.53565 10.3708 8.53915 10.3833 8.54294C10.3959 8.54676 10.4083 8.55085 10.4206 8.55526C10.433 8.55968 10.4452 8.56438 10.4572 8.5694C10.4694 8.57441 10.4813 8.57971 10.4932 8.5853C10.505 8.59091 10.5167 8.5968 10.5282 8.60296C10.5398 8.60913 10.5512 8.61558 10.5624 8.62232C10.5736 8.62905 10.5847 8.63605 10.5956 8.64332C10.6065 8.6506 10.6172 8.65813 10.6277 8.66593C10.6382 8.67374 10.6485 8.68179 10.6586 8.69008C10.6687 8.6984 10.6787 8.70694 10.6884 8.71574C10.6981 8.72454 10.7075 8.73355 10.7168 8.7428C10.7261 8.75207 10.7351 8.76155 10.7439 8.77126C10.7527 8.78096 10.7612 8.79086 10.7695 8.80097C10.7778 8.8111 10.7859 8.82143 10.7937 8.83194C10.8015 8.84246 10.809 8.85315 10.8163 8.86404C10.8236 8.87493 10.8306 8.88599 10.8373 8.89721C10.844 8.90844 10.8505 8.91983 10.8566 8.93138C10.8628 8.94293 10.8687 8.95462 10.8743 8.96646C10.8799 8.9783 10.8852 8.99026 10.8902 9.00235C10.8952 9.01444 10.8999 9.02666 10.9043 9.03899C10.9088 9.05132 10.9129 9.06374 10.9167 9.07627C10.9205 9.0888 10.924 9.10141 10.9271 9.11411C10.9303 9.12682 10.9332 9.13958 10.9357 9.15243C10.9383 9.16526 10.9405 9.17816 10.9425 9.19112C10.9444 9.20407 10.946 9.21705 10.9473 9.23008C10.9485 9.24312 10.9495 9.25618 10.9502 9.26924C10.9508 9.28232 10.9511 9.29541 10.9511 9.30849L10.9511 14.2801L12.8507 14.2801L12.8507 8.74405C12.8507 8.73096 12.851 8.71788 12.8516 8.7048C12.8523 8.69172 12.8532 8.67868 12.8545 8.66565C12.8558 8.65262 12.8574 8.63962 12.8593 8.62666C12.8612 8.61372 12.8635 8.60082 12.866 8.58797C12.8686 8.57515 12.8715 8.56238 12.8746 8.54966C12.8778 8.53696 12.8813 8.52435 12.8851 8.51182C12.8889 8.4993 12.893 8.48687 12.8974 8.47454C12.9018 8.46221 12.9065 8.45001 12.9116 8.43791C12.9166 8.42582 12.9219 8.41385 12.9275 8.40201C12.9331 8.39018 12.939 8.37849 12.9451 8.36693C12.9513 8.35538 12.9577 8.34401 12.9645 8.33277C12.9712 8.32154 12.9782 8.31049 12.9855 8.2996C12.9928 8.28871 13.0003 8.27801 13.0081 8.26749C13.0159 8.25699 13.024 8.24666 13.0323 8.23654C13.0406 8.22641 13.0491 8.21651 13.0579 8.2068C13.0667 8.1971 13.0757 8.18763 13.085 8.17837C13.0942 8.16912 13.1037 8.16008 13.1134 8.15129C13.1231 8.14249 13.133 8.13396 13.1432 8.12565C13.1533 8.11733 13.1636 8.10929 13.1741 8.10149C13.1846 8.09369 13.1953 8.08615 13.2062 8.07888C13.2171 8.0716 13.2282 8.0646 13.2394 8.05787C13.2506 8.05115 13.262 8.04469 13.2735 8.03852C13.2851 8.03235 13.2968 8.02646 13.3086 8.02087C13.3205 8.01526 13.3324 8.00996 13.3445 8.00494C13.3566 7.99994 13.3688 7.99522 13.3812 7.99082C13.3935 7.98641 13.4059 7.9823 13.4184 7.97851C13.431 7.97471 13.4436 7.97121 13.4563 7.96802C13.469 7.96485 13.4817 7.96197 13.4946 7.95943C13.5074 7.95688 13.5203 7.95463 13.5333 7.95271C13.5462 7.95079 13.5592 7.94919 13.5722 7.94791C13.5853 7.94662 13.5983 7.94566 13.6114 7.94502C13.6245 7.94438 13.6376 7.94405 13.6507 7.94405C13.6638 7.94405 13.6768 7.94438 13.6899 7.94502C13.703 7.94566 13.716 7.94662 13.7291 7.94791C13.7421 7.94919 13.7551 7.95079 13.768 7.95271C13.781 7.95463 13.7939 7.95688 13.8067 7.95943C13.8196 7.96197 13.8323 7.96485 13.845 7.96802C13.8577 7.97121 13.8704 7.97471 13.8829 7.97851C13.8954 7.9823 13.9078 7.98641 13.9202 7.99082C13.9325 7.99522 13.9447 7.99994 13.9568 8.00494C13.9689 8.00996 13.9809 8.01526 13.9927 8.02087C14.0045 8.02646 14.0162 8.03235 14.0278 8.03852C14.0393 8.04469 14.0507 8.05115 14.062 8.05787C14.0732 8.0646 14.0842 8.0716 14.0951 8.07888C14.106 8.08615 14.1167 8.09369 14.1272 8.10149C14.1377 8.10929 14.1481 8.11733 14.1582 8.12565C14.1683 8.13396 14.1782 8.14249 14.1879 8.15129C14.1976 8.16008 14.2071 8.16912 14.2164 8.17837C14.2256 8.18763 14.2346 8.1971 14.2434 8.2068C14.2522 8.21651 14.2608 8.22641 14.2691 8.23654C14.2774 8.24666 14.2854 8.25699 14.2932 8.26749C14.301 8.27801 14.3086 8.28871 14.3158 8.2996C14.3231 8.31049 14.3301 8.32154 14.3368 8.33277C14.3436 8.34401 14.35 8.35538 14.3562 8.36693C14.3624 8.37849 14.3682 8.39018 14.3739 8.40201C14.3795 8.41385 14.3847 8.42582 14.3898 8.43791C14.3948 8.45001 14.3995 8.46221 14.4039 8.47454C14.4083 8.48687 14.4124 8.4993 14.4162 8.51182C14.42 8.52435 14.4235 8.53696 14.4267 8.54966C14.4299 8.56238 14.4327 8.57515 14.4353 8.58797C14.4378 8.60082 14.4401 8.61372 14.442 8.62666C14.4439 8.63962 14.4455 8.65262 14.4468 8.66565C14.4481 8.67868 14.4491 8.69172 14.4497 8.7048C14.4503 8.71788 14.4507 8.73096 14.4507 8.74405L14.4507 15.0801C14.4507 15.0931 14.4503 15.1062 14.4497 15.1193C14.4491 15.1324 14.4481 15.1454 14.4468 15.1585C14.4455 15.1715 14.4439 15.1845 14.442 15.1974C14.4401 15.2104 14.4378 15.2233 14.4353 15.2361C14.4327 15.249 14.4299 15.2617 14.4267 15.2744C14.4235 15.2871 14.42 15.2998 14.4162 15.3123C14.4124 15.3248 14.4083 15.3372 14.4039 15.3496C14.3995 15.3619 14.3948 15.3741 14.3898 15.3862C14.3847 15.3983 14.3795 15.4103 14.3739 15.4221C14.3683 15.4339 14.3624 15.4456 14.3562 15.4572C14.35 15.4687 14.3436 15.4801 14.3368 15.4913C14.3301 15.5026 14.3231 15.5136 14.3158 15.5245C14.3086 15.5354 14.301 15.5461 14.2932 15.5566C14.2854 15.5671 14.2774 15.5774 14.2691 15.5876C14.2608 15.5977 14.2522 15.6076 14.2434 15.6173C14.2346 15.6271 14.2256 15.6365 14.2164 15.6457C14.2071 15.6549 14.1976 15.664 14.1879 15.6729C14.1782 15.6816 14.1683 15.6902 14.1582 15.6985C14.1481 15.7068 14.1377 15.7148 14.1272 15.7226C14.1167 15.7304 14.106 15.7379 14.0951 15.7452C14.0842 15.7525 14.0732 15.7595 14.062 15.7662C14.0507 15.773 14.0393 15.7794 14.0278 15.7855C14.0162 15.7917 14.0045 15.7976 13.9927 15.8031C13.9809 15.8087 13.9689 15.8141 13.9568 15.8191C13.9447 15.8241 13.9325 15.8289 13.9202 15.8333C13.9078 15.8376 13.8954 15.8419 13.8829 15.8456C13.8704 15.8494 13.8577 15.853 13.845 15.8561C13.8323 15.8592 13.8196 15.8622 13.8067 15.8647C13.7939 15.8672 13.781 15.8695 13.768 15.8714C13.7551 15.8733 13.7421 15.8748 13.7291 15.8761C13.716 15.8775 13.703 15.8784 13.6899 15.8791C13.6768 15.8797 13.6638 15.88 13.6507 15.88L2.33778 15.88C2.32469 15.88 2.31161 15.8797 2.29853 15.8791C2.28545 15.8784 2.27239 15.8775 2.25936 15.8761C2.24633 15.8748 2.23334 15.8733 2.22039 15.8714C2.20744 15.8695 2.19455 15.8672 2.1817 15.8647C2.16886 15.8622 2.15609 15.8592 2.14339 15.8561C2.13069 15.853 2.11808 15.8494 2.10555 15.8456C2.09301 15.8419 2.08059 15.8376 2.06826 15.8333C2.05594 15.8289 2.04373 15.8241 2.03162 15.8191C2.01953 15.8141 2.00756 15.8087 1.99573 15.8031C1.98391 15.7976 1.9722 15.7917 1.96066 15.7855C1.94911 15.7794 1.93773 15.773 1.9265 15.7662C1.91526 15.7595 1.90422 15.7525 1.89333 15.7452C1.88244 15.7379 1.87173 15.7304 1.86122 15.7226C1.8507 15.7148 1.84037 15.7068 1.83026 15.6985C1.82014 15.6902 1.81023 15.6816 1.80053 15.6729C1.79083 15.664 1.78136 15.6549 1.77209 15.6457C1.76283 15.6365 1.75381 15.6271 1.74501 15.6173C1.73622 15.6076 1.72767 15.5977 1.71937 15.5876C1.71106 15.5774 1.70301 15.5671 1.69522 15.5566C1.68742 15.5461 1.67987 15.5354 1.67261 15.5245C1.66533 15.5136 1.65832 15.5026 1.65159 15.4913C1.64486 15.4801 1.63841 15.4687 1.63223 15.4572C1.62606 15.4456 1.62019 15.4339 1.61459 15.4221C1.60899 15.4103 1.60368 15.3983 1.59867 15.3862C1.59366 15.3741 1.58895 15.3619 1.58454 15.3496C1.58013 15.3372 1.57602 15.3248 1.57222 15.3123C1.56842 15.2998 1.56493 15.2871 1.56175 15.2744C1.55857 15.2617 1.5557 15.249 1.55315 15.2361C1.55059 15.2233 1.54836 15.2104 1.54643 15.1974C1.54451 15.1845 1.54291 15.1715 1.54163 15.1585C1.54034 15.1454 1.53938 15.1324 1.53874 15.1193C1.5381 15.1062 1.53778 15.0931 1.53778 15.0801L1.53778 8.78138C1.53777 8.76829 1.53808 8.75521 1.53872 8.74212C1.53936 8.72904 1.54031 8.71597 1.54159 8.70294C1.54287 8.68991 1.54447 8.67693 1.54638 8.66396C1.5483 8.65101 1.55053 8.6381 1.55308 8.62526C1.55563 8.61241 1.55849 8.59965 1.56167 8.58693C1.56485 8.57422 1.56833 8.5616 1.57214 8.54907C1.57593 8.53654 1.58003 8.5241 1.58443 8.51177C1.58884 8.49944 1.59355 8.48722 1.59856 8.47511C1.60357 8.46301 1.60887 8.45105 1.61447 8.43921C1.62006 8.42737 1.62594 8.41566 1.63211 8.40412C1.63828 8.39257 1.64474 8.38118 1.65147 8.36993C1.65819 8.35869 1.66519 8.34765 1.67247 8.33674C1.67973 8.32585 1.68728 8.31515 1.69508 8.30462C1.70287 8.2941 1.71092 8.28377 1.71923 8.27365C1.72753 8.26352 1.73608 8.25362 1.74487 8.2439C1.75367 8.23419 1.76269 8.22471 1.77195 8.21544C1.78122 8.20618 1.79069 8.19716 1.80039 8.18836C1.81009 8.17957 1.82001 8.17101 1.83012 8.16269C1.84025 8.15438 1.85058 8.14632 1.86109 8.13852C1.87161 8.13072 1.88231 8.12318 1.8932 8.1159C1.90409 8.10863 1.91514 8.10162 1.92637 8.09488C1.93761 8.08815 1.949 8.08171 1.96055 8.07552C1.97209 8.06935 1.9838 8.06346 1.99564 8.05785C2.00747 8.05224 2.01944 8.04694 2.03155 8.04193C2.04364 8.03691 2.05586 8.03221 2.06819 8.02779C2.08051 8.02337 2.09295 8.01926 2.10548 8.01546C2.11801 8.01166 2.13062 8.00818 2.14333 8.00499C2.15603 8.0018 2.16881 7.99894 2.18166 7.99638C2.1945 7.99382 2.20741 7.99158 2.22036 7.98966C2.23331 7.98774 2.24631 7.98613 2.25934 7.98485C2.27237 7.98357 2.28544 7.9826 2.29851 7.98196C2.31159 7.98132 2.32469 7.98099 2.33778 7.98099C2.35087 7.98099 2.36397 7.98132 2.37705 7.98196C2.39012 7.9826 2.40319 7.98357 2.41622 7.98485C2.42925 7.98613 2.44225 7.98774 2.4552 7.98966C2.46816 7.99158 2.48105 7.99382 2.49389 7.99638C2.50675 7.99894 2.51951 8.0018 2.53222 8.00499C2.54492 8.00818 2.55755 8.01166 2.57008 8.01546C2.58261 8.01926 2.59505 8.02337 2.60737 8.02779C2.6197 8.03221 2.63191 8.03691 2.64401 8.04193C2.65611 8.04694 2.66808 8.05224 2.67992 8.05785C2.69175 8.06346 2.70345 8.06935 2.715 8.07552C2.72655 8.08171 2.73794 8.08815 2.74917 8.09488C2.76041 8.10162 2.77147 8.10863 2.78236 8.1159C2.79325 8.12318 2.80395 8.13072 2.81447 8.13852C2.82498 8.14632 2.8353 8.15438 2.84542 8.16269C2.85555 8.17101 2.86545 8.17957 2.87516 8.18836C2.88486 8.19716 2.89434 8.20618 2.90359 8.21544C2.91286 8.22471 2.92187 8.23419 2.93067 8.2439C2.93947 8.25362 2.94803 8.26352 2.95633 8.27365C2.96462 8.28377 2.97269 8.2941 2.98048 8.30462C2.98828 8.31515 2.99583 8.32585 3.00309 8.33674C3.01036 8.34765 3.01736 8.35869 3.02409 8.36993C3.03083 8.38118 3.03726 8.39257 3.04344 8.40412C3.04961 8.41566 3.0555 8.42737 3.06109 8.43921C3.06669 8.45105 3.07198 8.46301 3.077 8.47511C3.082 8.48722 3.0867 8.49944 3.09111 8.51177C3.09553 8.5241 3.09962 8.53654 3.10342 8.54907C3.10722 8.5616 3.11072 8.57422 3.11389 8.58693C3.11706 8.59965 3.11992 8.61241 3.12247 8.62526C3.12501 8.6381 3.12725 8.65101 3.12917 8.66396C3.13109 8.67693 3.13269 8.68991 3.13397 8.70294C3.13523 8.71597 3.13619 8.72904 3.13683 8.74212C3.13747 8.75521 3.13778 8.76829 3.13778 8.78138L3.13778 14.2801L5.04 14.2801ZM6.64 14.2801L9.35111 14.2801L9.35111 10.1085L6.64 10.1085L6.64 14.2801ZM1.47911 8.34138C1.46973 8.35066 1.46012 8.35971 1.45029 8.36851C1.44047 8.37732 1.43043 8.38587 1.42017 8.39416C1.40992 8.40247 1.39947 8.41052 1.38882 8.4183C1.37817 8.4261 1.36734 8.43362 1.35632 8.44087C1.34529 8.44812 1.3341 8.45508 1.32273 8.46179C1.31137 8.46849 1.29984 8.4749 1.28816 8.48104C1.27647 8.48716 1.26464 8.49301 1.25267 8.49854C1.2407 8.50408 1.22859 8.50932 1.21636 8.51427C1.20413 8.51921 1.19178 8.52385 1.17932 8.52818C1.16686 8.53251 1.1543 8.53654 1.14164 8.54026C1.12898 8.54397 1.11623 8.54737 1.1034 8.55044C1.09058 8.55354 1.07768 8.55629 1.06471 8.55872C1.05175 8.56118 1.03873 8.5633 1.02566 8.56508C1.01259 8.5669 0.999482 8.56837 0.986338 8.56952C0.973194 8.57068 0.960032 8.57149 0.946847 8.57199C0.933663 8.57249 0.920474 8.57266 0.907282 8.57251C0.894088 8.57235 0.880908 8.57187 0.86774 8.57107C0.854569 8.57027 0.841429 8.56913 0.828316 8.56768C0.815202 8.56623 0.802133 8.56444 0.789108 8.56235C0.776083 8.56026 0.763118 8.55782 0.750213 8.55507C0.737307 8.55233 0.724477 8.54927 0.711724 8.5459C0.698971 8.54252 0.686308 8.53882 0.673737 8.53482C0.661165 8.5308 0.648701 8.52649 0.636344 8.52188C0.623985 8.51726 0.611749 8.51233 0.599637 8.5071C0.587521 8.50187 0.575544 8.49635 0.563704 8.49054C0.551863 8.48471 0.540172 8.4786 0.528635 8.47221C0.517096 8.46582 0.505722 8.45913 0.494515 8.45216C0.483305 8.44521 0.472277 8.43797 0.461427 8.43047C0.450577 8.42297 0.439919 8.41519 0.429454 8.40716C0.418988 8.39913 0.408727 8.39083 0.398671 8.3823C0.388615 8.37377 0.378777 8.36497 0.369157 8.35594C0.359535 8.34691 0.350143 8.33765 0.34098 8.32816C0.331816 8.31868 0.322893 8.30896 0.314212 8.29902C0.305529 8.28908 0.297097 8.27894 0.288918 8.26858C0.280737 8.25824 0.272817 8.24769 0.265158 8.23694C0.257499 8.22621 0.250112 8.21529 0.242994 8.20416C0.235875 8.19307 0.229036 8.18179 0.222477 8.17033C0.215916 8.1589 0.209643 8.14729 0.203656 8.13552C0.197671 8.12377 0.191979 8.11188 0.186581 8.09983C0.181184 8.0878 0.176088 8.07563 0.171292 8.06333C0.166496 8.05104 0.162008 8.03865 0.157827 8.02613C0.153645 8.01363 0.149775 8.00102 0.146217 7.9883C0.142659 7.9756 0.139417 7.9628 0.136491 7.94994C0.133566 7.93708 0.13096 7.92415 0.128674 7.91116C0.126389 7.89816 0.124426 7.88513 0.122785 7.87204C0.121145 7.85894 0.119829 7.84582 0.118838 7.83266C0.117847 7.81951 0.117181 7.80633 0.116842 7.79315C0.116503 7.77996 0.116489 7.76677 0.116803 7.75357C0.117116 7.74038 0.117755 7.72721 0.11872 7.71405C0.119685 7.7009 0.120975 7.68777 0.122589 7.67468C0.124203 7.66158 0.126141 7.64854 0.1284 7.63554C0.13066 7.62254 0.13324 7.6096 0.13614 7.59672C0.13904 7.58387 0.142256 7.57107 0.145789 7.55835C0.149322 7.54565 0.153167 7.53302 0.157323 7.52051C0.161481 7.50799 0.165945 7.49558 0.170716 7.48327C0.175487 7.47097 0.180559 7.4588 0.185933 7.44674C0.191306 7.43469 0.196973 7.42279 0.202936 7.41102C0.208899 7.39926 0.215149 7.38763 0.221686 7.37616C0.228223 7.36471 0.23504 7.35341 0.242136 7.3423C0.249233 7.33118 0.256599 7.32024 0.264236 7.30947C0.271873 7.29871 0.279772 7.28815 0.287933 7.27779C0.296093 7.26743 0.304504 7.25726 0.313166 7.2473C0.321829 7.23737 0.330732 7.22763 0.339877 7.21812C0.349021 7.2086 0.358394 7.19932 0.367997 7.19027L7.45867 0.346723C7.46787 0.337843 7.4773 0.32919 7.48694 0.320764C7.49656 0.312336 7.50639 0.304145 7.51641 0.29619C7.52644 0.288234 7.53664 0.280523 7.54703 0.273057C7.55742 0.265591 7.568 0.258379 7.57873 0.251421C7.58947 0.244462 7.60037 0.237766 7.61144 0.23133C7.6225 0.224895 7.6337 0.218728 7.64506 0.21283C7.65642 0.206932 7.66791 0.20131 7.67953 0.195965C7.69116 0.190619 7.70291 0.185555 7.71478 0.180772C7.72664 0.17599 7.73862 0.171495 7.75072 0.167286C7.7628 0.163079 7.77498 0.159164 7.78725 0.15554C7.79951 0.151917 7.81187 0.14859 7.82431 0.14556C7.83673 0.142529 7.84923 0.139799 7.8618 0.137368C7.87436 0.134937 7.88697 0.132809 7.89964 0.130984C7.91231 0.129158 7.92501 0.127638 7.93775 0.126422C7.95048 0.125206 7.96325 0.124296 7.97603 0.123693C7.98881 0.123089 8.00161 0.122793 8.01441 0.122803C8.0272 0.122813 8.03998 0.12313 8.05276 0.123754C8.06555 0.124378 8.07831 0.125308 8.09105 0.126545C8.10378 0.127781 8.11648 0.129322 8.12914 0.131167C8.14181 0.133013 8.15442 0.135161 8.16698 0.137612C8.17953 0.140063 8.19203 0.142814 8.20445 0.145864C8.21689 0.148914 8.22923 0.152261 8.2415 0.155904C8.25377 0.159546 8.26594 0.163481 8.27801 0.167708C8.29009 0.171935 8.30208 0.176449 8.31394 0.181251C8.3258 0.186053 8.33753 0.191136 8.34916 0.196501C8.36076 0.201865 8.37225 0.207505 8.38359 0.213421C8.39495 0.219336 8.40614 0.225521 8.41719 0.231974C8.42823 0.238428 8.43912 0.245143 8.44986 0.252118C8.46059 0.259094 8.47114 0.266323 8.48153 0.273805C8.49191 0.281287 8.50209 0.289014 8.51211 0.296986C8.52212 0.304957 8.53194 0.313164 8.54155 0.321607C8.55117 0.330048 8.56058 0.338717 8.56978 0.347612L10.9511 2.65427C10.9603 2.66344 10.9692 2.67282 10.9779 2.68243C10.9867 2.69204 10.9951 2.70183 11.0034 2.71185C11.0116 2.72187 11.0196 2.73207 11.0273 2.74247C11.0351 2.75288 11.0426 2.76346 11.0498 2.77422C11.057 2.78499 11.064 2.79593 11.0707 2.80704C11.0774 2.81815 11.0838 2.8294 11.09 2.84082C11.0961 2.85224 11.102 2.86379 11.1076 2.87549C11.1132 2.88719 11.1185 2.89904 11.1235 2.91099C11.1285 2.92294 11.1332 2.93502 11.1376 2.94721C11.142 2.9594 11.1462 2.97169 11.15 2.98408C11.1538 2.99647 11.1573 3.00894 11.1606 3.02151C11.1638 3.03407 11.1667 3.04671 11.1693 3.05941C11.1719 3.07212 11.1742 3.08487 11.1762 3.09768C11.1782 3.11051 11.1798 3.12337 11.1812 3.13626C11.1826 3.14915 11.1836 3.16207 11.1843 3.17502C11.1851 3.18797 11.1855 3.20093 11.1856 3.21388C11.1857 3.22685 11.1855 3.23982 11.185 3.25277C11.1844 3.26572 11.1836 3.27866 11.1824 3.29158C11.1813 3.30451 11.1798 3.31738 11.178 3.33022C11.1762 3.34307 11.1741 3.35587 11.1717 3.3686C11.1693 3.38133 11.1666 3.39402 11.1636 3.40663C11.1606 3.41924 11.1572 3.43177 11.1536 3.44422C11.15 3.45668 11.146 3.46902 11.1418 3.48129C11.1376 3.49354 11.133 3.50568 11.1282 3.51772C11.1234 3.52976 11.1183 3.54166 11.1129 3.55346C11.1075 3.56526 11.1018 3.5769 11.0958 3.58841C11.0898 3.59993 11.0836 3.61129 11.0771 3.62249C11.0706 3.63369 11.0638 3.64474 11.0567 3.65562C11.0497 3.66651 11.0423 3.67721 11.0347 3.68772C11.0272 3.69824 11.0193 3.70858 11.0113 3.71872C11.0032 3.72887 10.9949 3.7388 10.9863 3.74854C10.9777 3.75827 10.9689 3.7678 10.9599 3.7771C10.9509 3.78641 10.9416 3.79549 10.9322 3.80435C10.9227 3.81321 10.913 3.82183 10.9031 3.83022C10.8932 3.83862 10.8831 3.84676 10.8729 3.85466C10.8626 3.86255 10.8521 3.87019 10.8415 3.87758C10.8308 3.88497 10.82 3.8921 10.809 3.89896C10.798 3.90582 10.7868 3.91241 10.7755 3.91874C10.7641 3.92505 10.7527 3.93108 10.741 3.93685C10.7294 3.94262 10.7177 3.94808 10.7058 3.95329C10.6939 3.95847 10.6819 3.96337 10.6698 3.96797C10.6577 3.97258 10.6454 3.9769 10.6331 3.98091C10.6208 3.98493 10.6084 3.98863 10.5958 3.99204C10.5833 3.99544 10.5707 3.99854 10.5581 4.00133C10.5454 4.00413 10.5327 4.00663 10.5199 4.0088C10.5071 4.01097 10.4943 4.01285 10.4814 4.0144C10.4686 4.01594 10.4557 4.01719 10.4427 4.01812C10.4298 4.01904 10.4168 4.01965 10.4039 4.01994C10.3909 4.02024 10.3779 4.02021 10.365 4.01988C10.352 4.01955 10.3391 4.0189 10.3261 4.01794C10.3132 4.01697 10.3003 4.01569 10.2874 4.0141C10.2746 4.01251 10.2617 4.0106 10.249 4.0084C10.2362 4.00618 10.2235 4.00365 10.2108 4.00082C10.1982 3.99799 10.1856 3.99485 10.1731 3.9914C10.1606 3.98796 10.1482 3.98421 10.1358 3.98016C10.1235 3.97612 10.1113 3.97177 10.0992 3.96713C10.0871 3.96249 10.0751 3.95755 10.0632 3.95232C10.0514 3.9471 10.0396 3.94158 10.028 3.93579C10.0164 3.92999 10.005 3.92393 9.99369 3.91757C9.98237 3.91121 9.97123 3.90458 9.96025 3.89769C9.94926 3.8908 9.93847 3.88365 9.92783 3.87622C9.91719 3.8688 9.90675 3.86112 9.89648 3.85319C9.88622 3.84527 9.87615 3.8371 9.8663 3.82868C9.85644 3.82026 9.84678 3.81162 9.83733 3.80272L8.01244 2.03562L1.47911 8.34138ZM11.4418 5.35738C11.4324 5.34827 11.4232 5.33893 11.4142 5.32937C11.4053 5.3198 11.3966 5.31004 11.3881 5.30004C11.3797 5.29005 11.3715 5.27985 11.3635 5.26946C11.3555 5.25907 11.3478 5.24847 11.3404 5.23769C11.3329 5.22693 11.3257 5.21597 11.3188 5.20485C11.3119 5.19372 11.3053 5.18244 11.2989 5.17099C11.2926 5.15954 11.2865 5.14793 11.2807 5.13618C11.2749 5.12443 11.2695 5.11255 11.2642 5.10054C11.259 5.08852 11.2542 5.07638 11.2495 5.06412C11.2449 5.05187 11.2406 5.03949 11.2366 5.02702C11.2326 5.01455 11.229 5.00197 11.2256 4.98933C11.2222 4.97668 11.2191 4.96394 11.2164 4.95115C11.2136 4.93835 11.2112 4.92547 11.209 4.91255C11.2069 4.89963 11.2051 4.88668 11.2036 4.87366C11.2021 4.86066 11.201 4.84762 11.2001 4.83454C11.1993 4.82147 11.1987 4.80838 11.1985 4.79529C11.1983 4.78219 11.1985 4.7691 11.1989 4.75602C11.1993 4.74293 11.2001 4.72987 11.2012 4.7168C11.2022 4.70376 11.2036 4.69074 11.2054 4.67776C11.2071 4.66477 11.2091 4.65183 11.2115 4.63894C11.2138 4.62607 11.2165 4.61326 11.2195 4.60049C11.2224 4.58774 11.2257 4.57507 11.2293 4.56249C11.233 4.5499 11.2369 4.5374 11.2411 4.52501C11.2453 4.5126 11.2498 4.5003 11.2546 4.48813C11.2595 4.47596 11.2646 4.46391 11.27 4.45199C11.2754 4.44007 11.2811 4.42829 11.2871 4.41663C11.2931 4.40499 11.2994 4.39349 11.3059 4.38215C11.3125 4.37082 11.3193 4.35965 11.3264 4.34865C11.3335 4.33765 11.3409 4.32682 11.3485 4.31618C11.3561 4.30554 11.364 4.2951 11.3722 4.28483C11.3803 4.27458 11.3887 4.26454 11.3974 4.25469C11.406 4.24487 11.4149 4.23524 11.424 4.22583C11.4331 4.21643 11.4425 4.20726 11.452 4.1983C11.4616 4.18935 11.4714 4.18065 11.4813 4.17218C11.4913 4.16372 11.5015 4.15551 11.5119 4.14754C11.5223 4.13957 11.5329 4.13187 11.5437 4.12441C11.5545 4.11697 11.5654 4.1098 11.5765 4.10288C11.5877 4.09597 11.599 4.08935 11.6104 4.08299C11.6219 4.07663 11.6335 4.07057 11.6452 4.06479C11.657 4.05899 11.6688 4.05351 11.6809 4.0483C11.6929 4.0431 11.705 4.03821 11.7173 4.0336C11.7295 4.02899 11.7419 4.02469 11.7544 4.02069C11.7668 4.01669 11.7794 4.01301 11.7921 4.00961C11.8047 4.00624 11.8174 4.00318 11.8302 4.00041C11.843 3.99766 11.8559 3.99522 11.8688 3.9931C11.8817 3.99097 11.8947 3.98916 11.9077 3.98768C11.9207 3.98619 11.9338 3.98502 11.9468 3.98416C11.9599 3.98332 11.973 3.98279 11.9861 3.98258C11.9992 3.98238 12.0123 3.98251 12.0254 3.98293C12.0385 3.98337 12.0515 3.98413 12.0646 3.98521C12.0776 3.98629 12.0907 3.98769 12.1036 3.9894C12.1166 3.99112 12.1295 3.99315 12.1424 3.99551C12.1553 3.99787 12.1681 4.00052 12.1809 4.00351C12.1936 4.00649 12.2063 4.00979 12.2189 4.0134C12.2315 4.01701 12.244 4.02091 12.2564 4.02513C12.2688 4.02935 12.2811 4.03386 12.2932 4.03868C12.3054 4.04351 12.3175 4.04862 12.3294 4.05404C12.3413 4.05944 12.3531 4.06515 12.3648 4.07115C12.3764 4.07713 12.3879 4.08341 12.3992 4.08996C12.4106 4.09651 12.4217 4.10333 12.4327 4.11044C12.4437 4.11755 12.4546 4.12491 12.4652 4.13255C12.4758 4.14019 12.4863 4.14808 12.4965 4.15624C12.5068 4.16438 12.5168 4.17277 12.5267 4.18141C12.5365 4.19007 12.5462 4.19894 12.5556 4.20805L15.6347 7.19116C15.6441 7.20027 15.6532 7.20962 15.6622 7.21918C15.6711 7.22874 15.6798 7.23852 15.6883 7.24852C15.6967 7.25851 15.705 7.26871 15.713 7.2791C15.7209 7.28949 15.7286 7.30008 15.7361 7.31085C15.7435 7.32162 15.7506 7.33257 15.7577 7.34369C15.7645 7.35482 15.7711 7.36612 15.7775 7.37757C15.7839 7.38902 15.79 7.40062 15.7958 7.41237C15.8016 7.42412 15.807 7.43601 15.8122 7.44802C15.8174 7.46004 15.8224 7.47219 15.8269 7.48444C15.8314 7.49671 15.8358 7.50907 15.8399 7.52154C15.8438 7.53401 15.8475 7.54657 15.851 7.55922C15.8542 7.57188 15.8574 7.5846 15.8602 7.5974C15.8628 7.61021 15.8653 7.62307 15.8674 7.63599C15.8695 7.64893 15.8714 7.66188 15.8728 7.6749C15.8742 7.68791 15.8755 7.70094 15.8764 7.71401C15.8772 7.72708 15.8778 7.74016 15.878 7.75326C15.8781 7.76635 15.878 7.77944 15.8775 7.79254C15.877 7.80563 15.8764 7.81869 15.8753 7.83174C15.8742 7.84479 15.8728 7.85782 15.8711 7.8708C15.8694 7.88379 15.8674 7.89671 15.865 7.9096C15.8627 7.92249 15.86 7.9353 15.857 7.94805C15.8541 7.9608 15.8506 7.97347 15.847 7.98607C15.8435 7.99866 15.8395 8.01116 15.8353 8.02355C15.8311 8.03596 15.8267 8.04824 15.8219 8.06041C15.817 8.07258 15.8119 8.08465 15.8064 8.09657C15.801 8.10849 15.7953 8.12029 15.7894 8.13193C15.7833 8.14358 15.777 8.15507 15.7705 8.1664C15.7639 8.17774 15.757 8.1889 15.75 8.19991C15.743 8.21091 15.7356 8.22172 15.728 8.23237C15.7203 8.24301 15.7123 8.25346 15.7042 8.26371C15.6961 8.27396 15.6877 8.28401 15.6791 8.29385C15.6704 8.30369 15.6616 8.31332 15.6525 8.32272C15.6433 8.33213 15.634 8.3413 15.6244 8.35024C15.6149 8.35919 15.6051 8.3679 15.5951 8.37637C15.5851 8.38483 15.5749 8.39305 15.5645 8.40101C15.5541 8.40897 15.5435 8.41668 15.5327 8.42413C15.522 8.43158 15.511 8.43876 15.4999 8.44566C15.4888 8.45257 15.4775 8.45919 15.466 8.46555C15.4546 8.47191 15.443 8.47799 15.4312 8.48377C15.4195 8.48955 15.4076 8.49504 15.3956 8.50024C15.3836 8.50546 15.3714 8.51037 15.3592 8.51496C15.3469 8.51957 15.3345 8.52387 15.3221 8.52787C15.3096 8.53187 15.297 8.53555 15.2844 8.53893C15.2717 8.5423 15.259 8.54537 15.2462 8.54813C15.2334 8.5509 15.2205 8.55333 15.2076 8.55546C15.1947 8.55758 15.1817 8.5594 15.1687 8.56088C15.1557 8.56238 15.1427 8.56354 15.1296 8.56438C15.1165 8.56522 15.1034 8.56576 15.0903 8.56596C15.0772 8.56616 15.0642 8.56605 15.0511 8.56562C15.038 8.56518 15.0249 8.56441 15.0119 8.56333C14.9988 8.56226 14.9858 8.56087 14.9728 8.55915C14.9598 8.55743 14.9469 8.5554 14.934 8.55304C14.9211 8.55069 14.9083 8.54802 14.8955 8.54504C14.8828 8.54207 14.8701 8.53877 14.8575 8.53516C14.845 8.53157 14.8325 8.52765 14.8201 8.52343C14.8077 8.51921 14.7954 8.51469 14.7832 8.50986C14.771 8.50505 14.759 8.49993 14.747 8.49452C14.7351 8.4891 14.7233 8.4834 14.7117 8.47741C14.7 8.47143 14.6885 8.46515 14.6772 8.45858C14.6659 8.45204 14.6547 8.44521 14.6437 8.4381C14.6327 8.43099 14.6219 8.42363 14.6112 8.41599C14.6006 8.40837 14.5902 8.40047 14.5799 8.39232C14.5696 8.38418 14.5596 8.37577 14.5497 8.36713C14.5399 8.35849 14.5303 8.34962 14.5209 8.34049L11.4418 5.35738Z"   fill="#777777" >
</path>
</svg>
