<svg t="1742895127917" class="icon" viewBox="0 0 1024 1024" version="1.1" xmlns="http://www.w3.org/2000/svg"
  p-id="29364" width="32" height="32">
  <path
    d="M971.3 656.4c-19.7-2.5-20.4-14-20.4-29.9 0.1-140.2-0.5-280.3-0.8-420.5-0.2-76.4-38.1-115-113.5-115-216.6 0-433.1 0-649.7 0.1-74 0-112.4 38.8-112.6 113.1-0.4 141.1-0.9 282.1-1 423.2 0 14 1.3 26.1-18.5 28.3-15.8 1.8-25.4 13.2-24.8 30.2 0.7 17.1 8.4 30.1 26.4 32.2 16.5 1.9 17 11.6 16.9 24.4-0.1 38.6 0.6 77.2 0.9 115.9 0.5 68.4 40.4 108.3 109.3 108.4 109.6 0.2 219.3 0.1 328.9 0.1 111.4 0 222.9 0.3 334.3-0.1 61.5-0.3 102.5-41.9 103.4-103.4 0.6-39.5 1.3-79.1 0.9-118.6-0.1-15.2 1.4-25 20.1-27.5 16-2.1 23.1-15.5 23-31.9-0.2-15.5-7.6-27-22.8-29zM838 900.3c-109.6 0.2-219.1 0.1-328.7 0.1H191.4c-40.5 0-50.6-10.2-50.5-51.1 0.1-36.8 1.2-73.6 0.8-110.4-0.1-13.9 4.2-19 18.5-18.8 37.7 0.8 75.4 0.7 113.2 0 13-0.2 18.9 5.8 24.3 16.6 42.9 85.3 19.5 73 122.9 73.7 78.1 0.5 156.3-0.7 234.4 0.5 26.2 0.4 44.5-8.6 51.4-33.4 13.6-49.1 44.5-65.9 93.6-57.7 20.1 3.3 41.3 1.6 61.9 0.2 17.2-1.1 21.2 6 20.9 21.9-0.6 37.7 0.8 75.4 0.7 113.1-0.1 33.6-11.7 45.2-45.5 45.3z m45-273.5c0.1 21.9-6.6 27.1-27.3 26.4-42.2-1.5-84.5 0.3-126.7-0.8-24.5-0.6-43.2 7-50.3 31.2-14.7 50.3-46.7 64.6-97.9 60.1-59.8-5.2-120.3-1.8-180.6-0.9-17.2 0.3-26.9-4-35.2-20.8-38.4-77.9-23.7-68.9-113-69.2-30.6-0.1-61.1-0.6-91.7 0.2-14 0.4-18.7-4.1-18.7-18.3 0-145.6-0.7-291.2-0.7-436.8 0-28.9 13.3-40.2 45-40.3 108.8-0.2 217.5-0.1 326.3-0.1h320.9c40.4 0 50.5 10.3 50.4 51.3-0.3 139.4-1.2 278.7-0.5 418z"
    p-id="29365"></path>
  <path
    d="M511.5 360.8c-47.6 0-95.2 0.1-142.7 0-31.8-0.1-47.6-11.9-47.2-34.8 0.4-21.9 15.8-33.5 45.8-33.5 97-0.1 193.9-0.2 290.9 0 29.4 0.1 44.9 12.5 44.5 34.8-0.4 21.9-15.8 33.4-45.8 33.5-48.5 0.1-97 0-145.5 0zM513.2 540c-50.2 0-100.5-0.3-150.7 0.1-22.9 0.2-38.9-7.6-40.6-32.5-1.4-21.9 13.4-34.3 41.3-34.4 99.6-0.3 199.2 0 298.7-0.2 22.7 0 39.1 7.5 40.6 32.6 1.3 21.8-13.8 34.2-41.3 34.3-49.3 0.3-98.7 0.1-148 0.1z"
    p-id="29366"></path>
</svg>
