<svg t="1742354416220" class="icon" viewBox="0 0 1024 1024" version="1.1" xmlns="http://www.w3.org/2000/svg"
  p-id="24911" width="32" height="32">
  <path
    d="M629.328 896H394.672C247.632 896 128 776.368 128 629.328V394.672C128 247.632 247.632 128 394.672 128h234.672C776.368 128 896 247.632 896 394.672v234.672C896 776.368 776.368 896 629.328 896zM394.672 192C282.912 192 192 282.912 192 394.672v234.672C192 741.072 282.912 832 394.672 832h234.672C741.072 832 832 741.072 832 629.328V394.672C832 282.912 741.072 192 629.328 192H394.672z"
    p-id="24912"></path>
  <path
    d="M549.248 388.048c32.128 0 56.704-27.072 56.704-56.224 0-23.392-14.176-43.808-42.528-43.808-37.328 0-55.984 32.128-55.984 55.504-0.72 27.712 14.976 44.528 41.808 44.528z m-2.96 277.792c-5.2 0-7.456-7.296-2.24-28.512l29.472-119.904c11.216-43.888 7.456-72.336-14.896-72.336-26.832 0-89.552 28.672-144.016 77.696l11.216 19.712c17.216-12.416 46.304-25.072 52.944-25.072 5.2 0 4.48 7.296 0 25.552l-25.712 114.064C437.344 721.344 453.76 736 476.192 736s80.256-21.952 133.2-78.976l-12.656-18.256c-21.696 18.256-43.728 27.072-50.448 27.072z"
    p-id="24913"></path>
</svg>
