<svg xmlns="http://www.w3.org/2000/svg" xmlns:xlink="http://www.w3.org/1999/xlink" width="16" height="16"
  viewBox="0 0 16 16" fill="none">
  <path fill="#1D1E1F"
    d="M2 2.33333L14 2.33333C14.9205 2.33333 15.6667 3.07953 15.6667 4L15.6667 12C15.6667 12.9205 14.9205 13.6667 14 13.6667L2 13.6667C1.07953 13.6667 0.333333 12.9205 0.333333 12L0.333333 4C0.333333 3.07953 1.07953 2.33333 2 2.33333ZM2 3.66667C1.81591 3.66667 1.66667 3.81591 1.66667 4L1.66667 12C1.66667 12.1841 1.81591 12.3333 2 12.3333L14 12.3333C14.1841 12.3333 14.3333 12.1841 14.3333 12L14.3333 4C14.3333 3.81591 14.1841 3.66667 14 3.66667L2 3.66667Z">
  </path>
  <rect x="10" y="6" width="2" height="4" rx="1" fill="#1D1E1F">
  </rect>
</svg>
