<svg xmlns="http://www.w3.org/2000/svg" xmlns:xlink="http://www.w3.org/1999/xlink" width="12" height="13.4990234375" viewBox="0 0 12 13.4990234375" fill="none"><path d="M0 11.827L0 11.837C0.02 12.757 0.751 13.499 1.672 13.499L11 13.499C11.552 13.499 12 13.058 12 12.505L12 0.999C12 0.982636 11.9996 0.966287 11.9988 0.949953C11.998 0.933609 11.9968 0.917297 11.9952 0.901016C11.9936 0.884734 11.9916 0.868506 11.9892 0.852328C11.9868 0.836141 11.984 0.820027 11.9808 0.803984C11.9776 0.787944 11.974 0.771984 11.97 0.756109C11.966 0.740245 11.9617 0.724484 11.9569 0.708828C11.9522 0.693172 11.947 0.677641 11.9415 0.662234C11.936 0.646839 11.9301 0.631584 11.9239 0.616469C11.9176 0.601355 11.911 0.586406 11.904 0.571625C11.897 0.556834 11.8896 0.542225 11.8819 0.527797C11.8742 0.51337 11.8661 0.499141 11.8577 0.485109C11.8493 0.471089 11.8405 0.457277 11.8314 0.443672C11.8223 0.430078 11.8129 0.416709 11.8032 0.403562C11.7934 0.390428 11.7833 0.377542 11.773 0.364906C11.7626 0.352261 11.7519 0.339881 11.7409 0.327766C11.7299 0.315648 11.7186 0.303809 11.707 0.292247C11.6955 0.280684 11.6836 0.269414 11.6715 0.258433C11.6594 0.247453 11.647 0.236777 11.6343 0.226405C11.6217 0.216034 11.6088 0.20598 11.5956 0.196242C11.5825 0.186505 11.5691 0.177095 11.5555 0.168014C11.5419 0.158934 11.5281 0.150193 11.514 0.141791C11.5 0.13339 11.4858 0.125338 11.4713 0.117636C11.4569 0.109934 11.4423 0.102591 11.4275 0.0956067C11.4127 0.0886234 11.3977 0.0820067 11.3826 0.0757567C11.3675 0.0695077 11.3522 0.0636337 11.3368 0.0581348C11.3214 0.0526348 11.3059 0.0475166 11.2902 0.0427802C11.2746 0.0380447 11.2588 0.0336956 11.2429 0.0297333C11.227 0.0257717 11.2111 0.0222025 11.195 0.0190255C11.179 0.0158473 11.1629 0.0130656 11.1467 0.0106801C11.1305 0.0082947 11.1143 0.00630772 11.098 0.00471914C11.0817 0.00313067 11.0654 0.00194311 11.049 0.00115669C11.0327 0.000369191 11.0164 -1.62125e-05 11 4.76837e-07L2 4.76837e-07C0.895 4.76837e-07 0 0.888 0 1.993L0 11.828L0 11.827ZM2.8 5.783L2.8 1.949C2.8 1.729 2.98 1.549 3.2 1.549L5.6 1.549C5.821 1.549 6 1.729 6 1.949L6 5.783C6 5.78792 5.99991 5.79283 5.99973 5.79773C5.99956 5.80264 5.9993 5.80755 5.99894 5.81244C5.99858 5.81734 5.99814 5.82223 5.99759 5.82711C5.99705 5.832 5.99642 5.83687 5.99572 5.84173C5.995 5.84659 5.99419 5.85144 5.9933 5.85627C5.99241 5.86109 5.99142 5.86591 5.99034 5.8707C5.98927 5.8755 5.98811 5.88027 5.98686 5.88502C5.98561 5.88977 5.98427 5.89448 5.98284 5.89919C5.98142 5.90389 5.97992 5.90858 5.97831 5.91322C5.97672 5.91786 5.97505 5.92248 5.97328 5.92706C5.97152 5.93164 5.96966 5.93619 5.96773 5.9407C5.9658 5.94522 5.96378 5.9497 5.96169 5.95414C5.95959 5.95859 5.95742 5.96298 5.95516 5.96734C5.95289 5.9717 5.95055 5.97603 5.94813 5.9803C5.9457 5.98458 5.94322 5.98881 5.94064 5.99298C5.93806 5.99717 5.93542 6.00131 5.93269 6.00539C5.92995 6.00947 5.92716 6.01352 5.92428 6.0175C5.92141 6.02148 5.91845 6.02541 5.91544 6.02928C5.91242 6.03316 5.90933 6.03697 5.90617 6.04073C5.903 6.0445 5.89978 6.04819 5.89648 6.05183C5.89319 6.05547 5.88981 6.05905 5.88639 6.06256C5.88297 6.06608 5.87947 6.06953 5.87591 6.07292C5.87236 6.07631 5.86873 6.07963 5.86506 6.08289C5.86138 6.08614 5.85764 6.08933 5.85384 6.09245C5.85005 6.09556 5.8462 6.09861 5.84228 6.10159C5.83838 6.10456 5.83442 6.10747 5.83041 6.1103C5.82639 6.11312 5.82231 6.11587 5.8182 6.11856C5.81409 6.12123 5.80992 6.12384 5.8057 6.12636C5.8015 6.12889 5.79724 6.13134 5.79294 6.1337C5.78864 6.13608 5.7843 6.13837 5.77991 6.14058C5.77552 6.14278 5.77108 6.14491 5.76663 6.14695C5.76216 6.149 5.75766 6.15097 5.75311 6.15284C5.74858 6.15473 5.74402 6.15653 5.73941 6.15823C5.7348 6.15995 5.73017 6.16158 5.7255 6.16313C5.72083 6.16466 5.71614 6.16611 5.71142 6.16748C5.7067 6.16884 5.70197 6.17013 5.6972 6.17133C5.69244 6.17252 5.68766 6.17362 5.68284 6.17464C5.67805 6.17566 5.67322 6.17659 5.66838 6.17742C5.66355 6.17827 5.65869 6.17902 5.65381 6.17967C5.64895 6.18034 5.64408 6.18091 5.63919 6.18139C5.6343 6.18188 5.62941 6.18227 5.6245 6.18256C5.61959 6.18286 5.61469 6.18308 5.60978 6.1832C5.60486 6.18331 5.59995 6.18334 5.59505 6.18328C5.59013 6.18322 5.58522 6.18306 5.58031 6.18283C5.57541 6.18259 5.57052 6.18225 5.56563 6.18183C5.56073 6.18141 5.55584 6.18091 5.55097 6.1803C5.54609 6.17969 5.54123 6.179 5.53638 6.17822C5.53153 6.17744 5.5267 6.17656 5.52188 6.17561C5.51706 6.17466 5.51227 6.17361 5.50748 6.17247C5.5027 6.17133 5.49795 6.17011 5.49322 6.1688C5.48848 6.16748 5.48377 6.16609 5.47909 6.16461C5.47441 6.16313 5.46975 6.16155 5.46513 6.15989C5.4605 6.15823 5.45591 6.1565 5.45136 6.15467C5.4468 6.15284 5.44227 6.15094 5.43778 6.14894C5.4333 6.14695 5.42884 6.14488 5.42442 6.14272C5.42 6.14056 5.41563 6.13833 5.4113 6.13602C5.40697 6.13369 5.40269 6.1313 5.39844 6.12883C5.3942 6.12634 5.39 6.1238 5.38586 6.12117C5.3817 6.11853 5.37761 6.11583 5.37356 6.11305C5.36952 6.11027 5.36552 6.10741 5.36156 6.10448C5.35763 6.10156 5.35373 6.09856 5.34991 6.09548C5.34608 6.09241 5.3423 6.08927 5.33858 6.08606C5.33486 6.08286 5.3312 6.07958 5.32761 6.07623C5.324 6.07289 5.32047 6.06948 5.317 6.066L4.683 5.432C4.67838 5.42736 4.67364 5.42284 4.66878 5.41844C4.66392 5.41405 4.65897 5.40977 4.65391 5.40561C4.64884 5.40144 4.64369 5.39741 4.63842 5.39352C4.63316 5.38961 4.62781 5.38583 4.62236 5.38219C4.61692 5.37855 4.61139 5.37505 4.60577 5.37167C4.60016 5.3683 4.59445 5.36506 4.58869 5.36198C4.58291 5.35889 4.57706 5.35594 4.57114 5.35314C4.56522 5.35034 4.55922 5.34769 4.55317 5.34517C4.54713 5.34266 4.54102 5.3403 4.53484 5.33809C4.52867 5.33589 4.52245 5.33383 4.51619 5.33194C4.50992 5.33003 4.50363 5.32828 4.49727 5.32669C4.49091 5.32509 4.48452 5.32366 4.47809 5.32237C4.47167 5.32111 4.46522 5.31998 4.45873 5.31902C4.45225 5.31806 4.44575 5.31725 4.43923 5.31661C4.43272 5.31597 4.42619 5.3155 4.41964 5.31517C4.41309 5.31484 4.40655 5.31469 4.4 5.31469C4.39345 5.31469 4.38691 5.31484 4.38036 5.31517C4.37381 5.3155 4.36728 5.31597 4.36077 5.31661C4.35425 5.31725 4.34775 5.31806 4.34127 5.31902C4.33478 5.31998 4.32833 5.32111 4.32191 5.32237C4.31549 5.32366 4.30909 5.32509 4.30273 5.32669C4.29638 5.32828 4.29008 5.33003 4.28381 5.33194C4.27755 5.33383 4.27133 5.33589 4.26516 5.33809C4.25899 5.3403 4.25288 5.34266 4.24683 5.34517C4.24078 5.34769 4.23478 5.35034 4.22886 5.35314C4.22294 5.35594 4.21709 5.35889 4.21131 5.36198C4.20555 5.36508 4.19984 5.36831 4.19423 5.37167C4.18861 5.37505 4.18308 5.37855 4.17764 5.38219C4.17219 5.38583 4.16684 5.38961 4.16158 5.39352C4.15631 5.39741 4.15116 5.40144 4.14609 5.40561C4.14103 5.40977 4.13608 5.41405 4.13122 5.41844C4.12636 5.42284 4.12163 5.42736 4.117 5.432L3.483 6.066C3.47953 6.06948 3.476 6.07289 3.47239 6.07623C3.4688 6.07958 3.46514 6.08286 3.46142 6.08606C3.4577 6.08927 3.45392 6.09241 3.45009 6.09548C3.44627 6.09856 3.44238 6.10156 3.43844 6.10448C3.43448 6.10741 3.43048 6.11027 3.42644 6.11305C3.42239 6.11583 3.4183 6.11853 3.41414 6.12117C3.41 6.1238 3.4058 6.12634 3.40156 6.12883C3.39731 6.1313 3.39303 6.13369 3.3887 6.13602C3.38438 6.13833 3.38 6.14056 3.37558 6.14272C3.37116 6.14488 3.3667 6.14695 3.36222 6.14894C3.35773 6.15094 3.3532 6.15284 3.34864 6.15467C3.34409 6.1565 3.3395 6.15823 3.33488 6.15989C3.33025 6.16155 3.32559 6.16313 3.32091 6.16461C3.31623 6.16609 3.31152 6.16748 3.30678 6.1688C3.30205 6.17011 3.2973 6.17133 3.29252 6.17247C3.28773 6.17361 3.28294 6.17466 3.27813 6.17561C3.2733 6.17656 3.26847 6.17744 3.26363 6.17822C3.25877 6.179 3.25391 6.17969 3.24903 6.1803C3.24416 6.18091 3.23927 6.18141 3.23438 6.18183C3.22948 6.18225 3.22459 6.18259 3.21969 6.18283C3.21478 6.18306 3.20988 6.18322 3.20495 6.18328C3.20005 6.18334 3.19514 6.18331 3.19022 6.1832C3.18531 6.18308 3.18041 6.18286 3.1755 6.18256C3.17059 6.18227 3.1657 6.18188 3.16081 6.18139C3.15592 6.18091 3.15105 6.18034 3.14617 6.17967C3.14131 6.17902 3.13645 6.17827 3.13163 6.17742C3.12678 6.17659 3.12195 6.17566 3.11716 6.17464C3.11234 6.17362 3.10756 6.17252 3.1028 6.17133C3.09803 6.17013 3.0933 6.16884 3.08858 6.16748C3.08386 6.16611 3.07917 6.16466 3.0745 6.16313C3.06983 6.16158 3.0652 6.15995 3.06059 6.15823C3.05598 6.15653 3.05142 6.15473 3.04689 6.15284C3.04234 6.15097 3.03784 6.149 3.03338 6.14695C3.02892 6.14491 3.02448 6.14278 3.02009 6.14058C3.0157 6.13837 3.01136 6.13608 3.00706 6.1337C3.00277 6.13134 2.9985 6.12889 2.9943 6.12636C2.99008 6.12384 2.98591 6.12123 2.9818 6.11856C2.97769 6.11587 2.97361 6.11312 2.96959 6.1103C2.96558 6.10747 2.96163 6.10456 2.95772 6.10159C2.9538 6.09861 2.94995 6.09556 2.94616 6.09245C2.94236 6.08933 2.93861 6.08614 2.93494 6.08289C2.93127 6.07963 2.92764 6.07631 2.92409 6.07292C2.92053 6.06953 2.91703 6.06608 2.91361 6.06256C2.91019 6.05905 2.90681 6.05547 2.90352 6.05183C2.90022 6.04819 2.897 6.0445 2.89383 6.04073C2.89067 6.03697 2.88758 6.03316 2.88456 6.02928C2.88155 6.02541 2.87859 6.02148 2.87572 6.0175C2.87284 6.01352 2.87005 6.00947 2.86731 6.00539C2.86458 6.00131 2.86194 5.99717 2.85936 5.99298C2.85678 5.98881 2.8543 5.98458 2.85188 5.9803C2.84945 5.97603 2.84711 5.9717 2.84484 5.96734C2.84258 5.96298 2.84041 5.95859 2.83831 5.95414C2.83622 5.9497 2.8342 5.94522 2.83227 5.9407C2.83033 5.93619 2.82848 5.93164 2.82672 5.92706C2.82495 5.92248 2.82328 5.91786 2.82167 5.91322C2.82008 5.90858 2.81858 5.90389 2.81716 5.89919C2.81573 5.89448 2.81439 5.88977 2.81314 5.88502C2.81189 5.88027 2.81073 5.8755 2.80966 5.8707C2.80858 5.86591 2.80759 5.86109 2.8067 5.85627C2.80581 5.85144 2.805 5.84659 2.80428 5.84173C2.80358 5.83687 2.80295 5.832 2.80241 5.82711C2.80186 5.82223 2.80142 5.81734 2.80106 5.81244C2.8007 5.80755 2.80044 5.80264 2.80027 5.79773C2.80009 5.79283 2.8 5.78792 2.8 5.783ZM1.576 12.133C1.45867 12.017 1.4 11.8757 1.4 11.709C1.4 11.5437 1.45867 11.4023 1.576 11.285C1.69267 11.1677 1.834 11.109 2 11.109L10.6 11.109L10.6 12.309L2 12.309C1.834 12.309 1.69267 12.2503 1.576 12.133Z"   fill="currentColor" ></path></svg>