<svg t="1744011414428" class="icon" viewBox="0 0 1024 1024" version="1.1" xmlns="http://www.w3.org/2000/svg"
  p-id="26168" width="32" height="32">
  <path
    d="M571.057003 923.902248H452.941656a100.097752 100.097752 0 0 1-100.097752-100.097751c0-37.036168-19.018573-70.068426-51.049853-90.087977A396.387097 396.387097 0 0 1 115.612233 396.387097a396.387097 396.387097 0 1 1 741.72434 195.190616 399.390029 399.390029 0 0 1-135.131965 141.13783c-32.031281 20.01955-51.049853 53.051808-51.049853 90.087976a100.097752 100.097752 0 0 1-100.097752 101.098729zM511.999329 80.078201C337.829241 80.078201 195.690434 222.217009 195.690434 396.387097c0 110.107527 56.054741 210.205279 149.14565 268.261974a189.184751 189.184751 0 0 1 64.062561 68.066472 186.181818 186.181818 0 0 1 24.02346 91.088954 20.01955 20.01955 0 0 0 20.019551 20.01955h118.115347a20.01955 20.01955 0 0 0 20.01955-20.01955 186.181818 186.181818 0 0 1 24.023461-91.088954 189.184751 189.184751 0 0 1 64.062561-68.066472c93.090909-58.056696 149.14565-158.154448 149.14565-268.261974 0-174.170088-142.138807-316.308895-316.308896-316.308896zM633.117609 1024H390.88105a40.039101 40.039101 0 0 1 0-80.078201h242.236559a40.039101 40.039101 0 1 1 0 80.078201z"
    fill="" p-id="26169"></path>
  <path
    d="M612.097081 818.799609H411.901578a40.039101 40.039101 0 0 1 0-80.078201h200.195503a40.039101 40.039101 0 0 1 0 80.078201z"
    fill="" p-id="26170"></path>
  <path
    d="M511.999329 779.761486a40.039101 40.039101 0 0 1-40.0391-40.039101V457.446725a40.039101 40.039101 0 0 1 15.014662-31.030303l103.100685-85.083089a40.179238 40.179238 0 0 1 51.049853 62.060606l-89.086999 73.071359v263.257087a40.039101 40.039101 0 0 1-40.039101 40.039101z"
    fill="" p-id="26171"></path>
  <path
    d="M513.000307 495.483871a40.039101 40.039101 0 0 1-24.023461-8.00782l-112.109481-83.081134a40.039101 40.039101 0 0 1 48.04692-64.062561l112.109482 83.081134a40.039101 40.039101 0 0 1-24.02346 72.070381z"
    fill="" p-id="26172"></path>
</svg>
