<svg xmlns="http://www.w3.org/2000/svg" xmlns:xlink="http://www.w3.org/1999/xlink" width="12" height="12" viewBox="0 0 12 12" fill="none"><path d="M8.2615 1.75L9.49902 1.75C9.77517 1.75 9.99902 1.97386 9.99902 2.25L9.99902 10.5C9.99902 10.7761 9.77517 11 9.49902 11L2.49902 11C2.22288 11 1.99902 10.7761 1.99902 10.5L1.99902 2.25C1.99902 1.97386 2.22288 1.75 2.49902 1.75L3.99902 1.75L4.24902 1.75L4.24902 2.5L7.74902 2.5L7.74902 1.75L8.2615 1.75Z" stroke="rgba(238, 119, 2, 1)" stroke-width="0.8999999999999999" stroke-linejoin="round"  ></path><rect x="4.2490234375" y="1" width="3.5" height="1.5" stroke="rgba(238, 119, 2, 1)" stroke-width="0.8999999999999999" stroke-linejoin="round" stroke-linecap="round" ></rect><path    stroke="rgba(238, 119, 2, 1)" stroke-width="0.8999999999999999" stroke-linejoin="round" stroke-linecap="round"  d="M6.75088 4.75L4.75098 6.7503L7.25198 6.7503L5.25105 8.75045"></path></svg>