<svg t="1709090030981" class="icon" viewBox="0 0 1024 1024" version="1.1" xmlns="http://www.w3.org/2000/svg" p-id="1049" width="64" height="64"><path d="M460.074667 192.426667c14.08-36.394667 46.336-54.613333 82.090666-53.76 27.989333 0.725333 54.058667 13.397333 73.301334 39.850666 26.666667 36.565333 27.221333 84.992 25.429333 126.293334-0.896 20.309333-6.186667 42.069333-11.946667 60.714666a18.816 18.816 0 0 0 2.432 15.786667c2.901333 4.394667 6.656 6.144 10.325334 6.144h131.242666a96 96 0 0 1 93.525334 117.546667l-56.746667 246.613333a117.333333 117.333333 0 0 1-114.346667 91.050667H256A74.666667 74.666667 0 0 1 181.333333 768v-289.28c0-41.258667 33.450667-74.666667 74.666667-74.666667h62.592l5.12-1.450666c5.632-1.621333 13.44-4.010667 22.016-7.125334 18.218667-6.613333 36.138667-14.976 46.293333-23.594666 25.898667-22.016 34.986667-40.576 48.384-78.933334 5.461333-15.701333 6.826667-28.842667 8.32-44.586666l0.128-1.28c1.450667-15.274667 3.2-34.048 11.221334-54.698667z m-169.386667 275.626666H256a10.666667 10.666667 0 0 0-10.666667 10.666667V768c0 5.888 4.778667 10.666667 10.666667 10.666667h34.688v-310.613334z m64 310.613334h340.650667a53.333333 53.333333 0 0 0 52.010666-41.386667l56.746667-246.613333a32 32 0 0 0-31.146667-39.210667H641.706667c-56.448 0-88.533333-57.514667-73.898667-104.874667 5.12-16.554667 8.618667-32.298667 9.130667-44.544 1.877333-42.88-1.237333-69.418667-13.226667-85.845333-7.68-10.581333-15.36-13.312-23.125333-13.525333-11.434667-0.256-17.408 4.053333-20.821334 12.885333-4.650667 11.904-5.802667 22.741333-7.338666 38.869333l-0.042667 0.469334c-1.493333 15.786667-3.413333 35.669333-11.52 59.050666-14.890667 42.752-28.8 73.941333-67.413333 106.709334-19.413333 16.469333-46.506667 27.946667-65.92 34.986666a403.669333 403.669333 0 0 1-12.842667 4.394667v318.634667z" p-id="1050"></path></svg>
