<svg xmlns="http://www.w3.org/2000/svg" xmlns:xlink="http://www.w3.org/1999/xlink" width="16" height="16" viewBox="0 0 16 16" fill="none"><path d="M9.2 6.2L9.2 3.80001C9.2 2.80589 8.39413 2 7.4 2L5 7.4L5 14L11.972 14C12.5704 14.0068 13.0823 13.5716 13.172 12.98L14 7.58C14.0528 7.2319 13.9501 6.87817 13.7191 6.6125C13.4881 6.34683 13.1521 6.196 12.8 6.2L9.2 6.2Z"   fill="#7F7F7F" ></path><path d="M5 7.33027L2.864 7.33027C1.92681 7.31784 1.12564 7.90007 1 8.59671L1 12.7967C1.12564 13.4934 1.92681 14.0091 2.864 13.9967L5 13.9967L5 7.33027Z"   fill="#7F7F7F" ></path></svg>