<svg t="1743149307808" class="icon" viewBox="0 0 1059 1024" version="1.1" xmlns="http://www.w3.org/2000/svg" p-id="6317"
  width="32" height="32">
  <path
    d="M520.163139 172.713346c23.654711 0 38.071069 16.368721 42.923681 35.765018 5.489251 27.460403-14.600276 49.049572-41.905057 49.049572-25.140204 0-36.85438-14.600276-41.905057-34.746394-3.367118-16.83559 4.060348-28.57806 12.26593-36.783642 7.356728-7.356728 14.671014-13.284554 28.620503-13.284554z m-164.521912 123.649627c-25.309975 0-42.923681-17.627853-42.923681-42.92368 0-23.42835 13.907046-36.175297 32.694999-40.872286 4.088643-1.018624 8.177287-2.051395 9.19591-2.051395 24.234761 0 41.905057 17.910804 41.905057 42.923681 0 21.829677-8.96955 31.563194-23.499088 38.835037-6.125891 3.070019-7.158663 4.088643-17.373197 4.088643z m374.033048-42.92368c0 25.309975-17.627853 42.923681-42.923681 42.92368-25.39486 0-40.872285-17.146836-40.872285-42.92368 0-24.277204 12.237635-36.019674 31.676375-40.872286 4.088643-1.018624 8.177287-2.051395 9.19591-2.051395a42.654877 42.654877 0 0 1 42.923681 42.923681z m-466.0063 106.290577c0 25.309975-17.627853 42.923681-42.923681 42.923681-13.638243 0-19.184084-2.843658-25.550484-9.195911-8.049959-8.049959-16.354573-17.387345-16.354573-33.72777 0-19.169936 11.799061-33.911688 26.569108-38.835037 3.070019-1.018624 6.125891-3.070019 9.19591-3.07002h10.214535c22.310694 0 38.835037 18.632329 38.835037 41.905057z m557.979552 42.909533c-25.309975 0-42.923681-17.627853-42.923681-42.92368 0-18.193755 8.644156-26.017353 17.373197-34.746394 3.466151-3.452003 13.765571-7.158663 19.410445-7.158663h9.195911c22.254103 0 38.835037 19.254822 38.835037 41.905057 0 16.071622-8.361205 25.734402-16.354573 33.72777-6.309809 6.309809-11.982979 9.19591-25.550484 9.19591z m-296.362973-58.245482c58.853827 0 100.419342 16.524344 136.93418 40.872285 29.087372 19.396297 51.907378 43.121746 71.530036 72.562808 25.451451 38.170102 41.905057 78.3916 41.905057 141.022824 0 18.391821 0 26.569107-1.018624 35.765017-10.313567 61.867256-35.75087 108.313678-72.562807 145.111468-27.432108 27.432108-56.236529 48.625145-97.08052 60.296877-24.121581 6.889859-45.144847 14.303178-75.618679 14.303178-89.143741 0-145.988616-32.553523-191.105167-77.670075-18.901133-18.901133-33.911688-38.24084-45.9937-65.404144-15.873556-35.722575-25.550484-60.22614-25.550484-112.416469 0-61.471125 15.661343-103.206411 40.872286-141.022824 19.396297-29.087372 43.121746-51.907378 72.562807-71.530036 21.419398-14.28903 52.926002-30.968997 81.758718-35.765018 10.667256-1.782592 28.493175-6.125891 38.835037-6.125891h24.53186z m11.233158 84.828737h-27.587731c-24.376237 0-45.654159 8.516828-63.366897 17.373197-34.902017 17.443935-59.193368 41.749434-76.651451 76.651451-8.997845 18.009837-17.373197 38.651119-17.373197 63.366897v24.531859c0 24.800663 8.3895 45.399503 17.373197 63.366897 15.392539 30.799226 36.656314 51.001934 64.385521 69.492788 18.023985 12.011274 46.474717 24.53186 75.618679 24.53186h24.53186c24.192318 0 45.838077-8.615861 63.366897-17.373197 30.799226-15.392539 51.001934-36.656314 69.492788-64.385521 12.011274-18.023985 24.53186-46.474717 24.531859-75.618679v-24.53186c0-40.971318-21.320365-70.313346-37.816413-95.043271-19.127494-28.691241-57.637137-51.383918-97.080519-59.278254-5.107267-1.018624-14.303178-3.070019-19.410445-3.070019zM148.181487 471.113567c14.444653 0 22.834153 6.47958 30.65775 14.303178 7.201105 7.201105 11.247306 13.058193 11.247306 26.569107 0 17.203426-5.814645 25.22509-14.303177 33.727771-13.128931 13.128931-43.659353 13.567505-57.226859 0-6.762531-5.078972-13.284554-18.462559-13.284553-29.639127 0-17.373197 5.814645-25.22509 14.303177-33.72777 3.197347-3.197347 13.525062-10.214534 18.391821-10.214535 2.051395 0 7.158663-1.018624 10.214535-1.018624z m748.066095 0c17.260017 0 25.352418 11.04924 33.72777 19.410445 5.220448 5.220448 7.158663 14.92567 7.158663 25.550484 0 17.189279-11.74247 32.525228-24.53186 36.783642-32.256424 10.752141-60.296878-8.219729-60.296877-40.872286 0-13.53921 4.017905-19.353855 11.247306-26.569107 8.785631-8.785631 15.463277-14.303178 32.709146-14.303178z m-373.014424 42.923681c19.169936 0 26.356894 2.730478 38.835038 10.214534 25.22509 14.416358 42.923681 35.298149 42.92368 74.600056 0 39.202874-17.656148 60.16955-42.92368 74.600055-13.440177 8.064106-19.778281 9.19591-40.872286 9.19591-33.78436 0-45.258027-9.493009-62.334125-26.569107-14.317325-14.317325-21.46184-29.426914-21.46184-57.226858 0-21.46184 1.697707-24.871401 8.177286-37.816414 2.051395-4.088643 4.088643-9.19591 6.125891-12.26593 6.621056-9.917436 23.018071-23.683006 34.746394-27.587731l12.26593-4.088643c3.070019-1.018624 7.158663-2.051395 8.177287-2.051396s8.177287-1.018624 16.354573-1.018624zM105.257806 686.750594c0-27.064272 16.750705-44.960928 43.942305-44.960928 23.569826 0 40.872285 18.759657 40.872285 42.92368 0 19.297264-10.525781 31.322686-23.499088 37.816414-4.088643 2.051395-10.214534 4.088643-13.284554 4.088643h-11.247306c-18.85869 0-36.783642-20.570544-36.783642-39.853661z m747.047472-2.051395c0-25.111909 17.316607-42.923681 41.905056-42.923681 26.512517 0 42.923681 18.519149 42.923681 44.960929 0 19.297264-17.924952 39.853661-36.783642 39.853661h-11.247306c-20.146118 0-36.783642-21.277922-36.783642-41.905057zM179.857861 838.0021c0-25.352418 16.595082-42.923681 40.872285-42.923681 24.942139 0 42.923681 17.076098 42.923681 42.923681 0 21.334512-10.327715 31.732965-24.53186 38.835037-4.088643 2.051395-9.19591 4.088643-14.303177 4.088644-28.153634 0-44.960928-15.633048-44.960929-42.923681z m598.865985 0c0-27.050124 18.391821-42.923681 44.960929-42.923681 22.777563 0 38.835037 19.580216 38.835037 42.923681 0 27.290633-16.821442 42.923681-44.960928 42.923681-22.239956 0-38.835037-19.849019-38.835038-42.923681zM355.641227 987.202211c-25.790992 0-41.905057-16.25554-41.905057-42.923681 0-24.659188 11.813208-34.590771 30.657751-40.872285 3.070019-1.018624 8.177287-2.051395 10.214534-2.051396 10.384305 0 26.979387 6.239072 31.676375 13.284554 4.484775 6.720088 11.247306 16.793147 11.247306 27.587732 0 26.837911-15.859409 44.960928-41.905057 44.960928z m331.109367 0c-25.111909 0-40.872285-16.89218-40.872285-42.923681 0-24.659188 11.813208-34.590771 30.657751-40.872285 3.070019-1.018624 8.177287-2.051395 10.214534-2.051396 10.384305 0 26.979387 6.239072 31.676375 13.284554 4.484775 6.720088 11.247306 16.793147 11.247306 27.587732 0 27.432108-16.14236 44.960928-42.923681 44.960928z m-166.587455-48.030948c-23.95181 0-46.304946 22.933186-40.872285 50.082343 4.923349 19.665101 16.83559 34.746394 41.905056 34.746394 25.140204 0 36.85438-14.586129 41.905057-34.746394 5.361923-26.837911-13.921194-42.456811-33.72777-49.049572-3.070019-1.018624-7.158663-1.018624-9.19591-1.018624z"
    p-id="6318"></path>
</svg>