<svg t="1742355270069" class="icon" viewBox="0 0 1024 1024" version="1.1" xmlns="http://www.w3.org/2000/svg"
  p-id="33632" width="32" height="32">
  <path
    d="M793.6 314.5216h-32.9216a263.3216 263.3216 0 0 0-526.6432 0H201.216A98.7648 98.7648 0 0 0 102.4 413.184v460.8C102.4 928.6144 146.5856 972.8 201.1648 972.8H793.6a98.7648 98.7648 0 0 0 98.7648-98.7648v-460.8A98.7648 98.7648 0 0 0 793.6 314.5216zM497.3568 117.0432a197.4784 197.4784 0 0 1 197.4784 197.4784H299.8784a197.4784 197.4784 0 0 1 197.4784-197.4784z m329.1648 756.992a32.9216 32.9216 0 0 1-32.9216 32.9216H201.1648a32.9216 32.9216 0 0 1-32.9216-32.9216v-460.8c0-18.176 14.7456-32.8704 32.9216-32.8704H793.6c18.176 0 32.9216 14.6944 32.9216 32.8704v460.8z m-296.2432-286.3104V479.0784H464.4352v108.6464a65.8432 65.8432 0 0 0 0 111.872v108.6464h65.8432v-108.6464a65.8432 65.8432 0 0 0 0-111.872z"
    p-id="33633"></path>
</svg>
