<svg xmlns="http://www.w3.org/2000/svg" xmlns:xlink="http://www.w3.org/1999/xlink" width="16" height="16" viewBox="0 0 16 16" fill="none"><path d="M11.2004 4.65605L4.80039 4.65605C4.79136 4.65605 4.78233 4.65627 4.77331 4.65673C4.76428 4.65716 4.75527 4.65782 4.74628 4.65871C4.7373 4.6596 4.72833 4.6607 4.71939 4.66202C4.71045 4.66335 4.70156 4.6649 4.6927 4.66666C4.68384 4.66843 4.67503 4.6704 4.66627 4.6726C4.6575 4.67479 4.6488 4.6772 4.64016 4.67982C4.63152 4.68245 4.62294 4.68527 4.61442 4.68832C4.60592 4.69137 4.5975 4.69462 4.58916 4.69807C4.5808 4.70152 4.57255 4.7052 4.56437 4.70905C4.5562 4.71291 4.54814 4.71698 4.54019 4.72124C4.53222 4.72549 4.52436 4.72995 4.51661 4.73459C4.50886 4.73923 4.50123 4.74407 4.49372 4.74909C4.4862 4.7541 4.47883 4.7593 4.47156 4.76468C4.46431 4.77007 4.45719 4.77562 4.4502 4.78135C4.44322 4.78709 4.43639 4.79298 4.42969 4.79905C4.423 4.80512 4.41645 4.81134 4.41006 4.81773C4.40367 4.82412 4.39745 4.83066 4.39139 4.83735C4.38531 4.84405 4.37942 4.85088 4.37369 4.85787C4.36795 4.86485 4.36241 4.87198 4.35702 4.87923C4.35164 4.88649 4.34644 4.89387 4.34142 4.90138C4.33641 4.9089 4.33156 4.91652 4.32692 4.92427C4.32228 4.93202 4.31783 4.93988 4.31358 4.94785C4.30931 4.9558 4.30525 4.96387 4.30139 4.97204C4.29753 4.98021 4.29386 4.98846 4.29041 4.99682C4.28695 5.00516 4.2837 5.01359 4.28066 5.02209C4.27761 5.0306 4.27478 5.03918 4.27216 5.04782C4.26953 5.05646 4.26713 5.06516 4.26494 5.07393C4.26273 5.0827 4.26077 5.09151 4.259 5.10037C4.25723 5.10923 4.25569 5.11812 4.25436 5.12705C4.25303 5.13599 4.25194 5.14496 4.25105 5.15395C4.25016 5.16293 4.2495 5.17195 4.24906 5.18098C4.24861 5.18999 4.24839 5.19902 4.24839 5.20805C4.24839 5.50405 4.46439 5.93605 4.80039 5.93605L7.36039 5.93605L7.36039 10.8721C7.3615 10.8817 7.36284 10.8912 7.36439 10.9008C7.36595 10.9103 7.36773 10.9199 7.36972 10.9293C7.37172 10.9388 7.37394 10.9482 7.37638 10.9575C7.37881 10.9669 7.38147 10.9762 7.38433 10.9854C7.3872 10.9947 7.39028 11.0039 7.39358 11.0129C7.39687 11.022 7.40039 11.0311 7.40409 11.04C7.40781 11.0489 7.41173 11.0578 7.41586 11.0665C7.41998 11.0753 7.42431 11.0839 7.42884 11.0925C7.43336 11.101 7.43809 11.1094 7.44302 11.1178C7.44794 11.1261 7.45305 11.1343 7.45834 11.1424C7.46364 11.1505 7.46912 11.1585 7.4748 11.1663C7.48047 11.1741 7.48633 11.1818 7.49236 11.1894C7.49839 11.1969 7.50459 11.2044 7.51097 11.2116C7.51734 11.2189 7.52389 11.226 7.53059 11.233C7.5373 11.24 7.54417 11.2468 7.55119 11.2534C7.5582 11.2601 7.56537 11.2666 7.5727 11.2729C7.58003 11.2792 7.5875 11.2854 7.59511 11.2913C7.60272 11.2973 7.61047 11.3031 7.61834 11.3087C7.62623 11.3143 7.63423 11.3197 7.64237 11.325C7.6505 11.3302 7.65875 11.3353 7.66713 11.3401C7.67548 11.345 7.68397 11.3496 7.69255 11.3541C7.70113 11.3585 7.70981 11.3628 7.71859 11.3669C7.72738 11.3709 7.73625 11.3748 7.7452 11.3784C7.75417 11.3821 7.76322 11.3855 7.77233 11.3887C7.78145 11.3919 7.79064 11.3949 7.79991 11.3977C7.80917 11.4005 7.81848 11.4031 7.82786 11.4055C7.83725 11.4078 7.84667 11.41 7.85616 11.4119C7.86564 11.4138 7.87516 11.4155 7.88472 11.417C7.89427 11.4185 7.90386 11.4198 7.91348 11.4208C7.92309 11.4218 7.93273 11.4226 7.94239 11.4232C7.95205 11.4238 7.9617 11.4242 7.97137 11.4243C7.98105 11.4245 7.99072 11.4244 8.00039 11.4241C8.01016 11.4243 8.01991 11.4243 8.02966 11.4241C8.03942 11.4239 8.04917 11.4234 8.05891 11.4228C8.06864 11.4221 8.07836 11.4212 8.08806 11.4202C8.09776 11.4191 8.10744 11.4178 8.11708 11.4162C8.12672 11.4147 8.13631 11.4129 8.14587 11.411C8.15544 11.409 8.16495 11.4068 8.17441 11.4044C8.18386 11.4021 8.19327 11.3994 8.20263 11.3966C8.21197 11.3938 8.22125 11.3908 8.23045 11.3876C8.23966 11.3843 8.24878 11.3809 8.25783 11.3772C8.26687 11.3736 8.27584 11.3697 8.28473 11.3657C8.29361 11.3616 8.30239 11.3574 8.31108 11.3529C8.31977 11.3484 8.32834 11.3438 8.33681 11.339C8.3453 11.3341 8.35366 11.3291 8.36191 11.3239C8.37016 11.3187 8.37828 11.3133 8.38628 11.3077C8.3943 11.3021 8.40217 11.2963 8.40991 11.2904C8.41766 11.2844 8.42527 11.2783 8.43273 11.2721C8.4402 11.2658 8.44753 11.2593 8.4547 11.2527C8.46187 11.2461 8.46891 11.2393 8.47577 11.2324C8.48264 11.2254 8.48936 11.2184 8.49591 11.2111C8.50245 11.2039 8.50883 11.1965 8.51505 11.189C8.52127 11.1815 8.52731 11.1738 8.53319 11.166C8.53905 11.1582 8.54473 11.1503 8.55025 11.1422C8.55577 11.1342 8.56109 11.126 8.56623 11.1177C8.57137 11.1094 8.57633 11.101 8.58109 11.0925C8.58586 11.084 8.59044 11.0754 8.59481 11.0666C8.59919 11.0579 8.60336 11.0491 8.60733 11.0402C8.61131 11.0312 8.61508 11.0222 8.61864 11.0132C8.62222 11.0041 8.62558 10.9949 8.62873 10.9857C8.63189 10.9764 8.63483 10.9671 8.63756 10.9578C8.6403 10.9484 8.64283 10.939 8.64512 10.9295C8.64744 10.92 8.64953 10.9105 8.65141 10.9009C8.65328 10.8913 8.65494 10.8817 8.65639 10.8721L8.65639 5.93605L11.2004 5.93605C11.5364 5.93605 11.7524 5.50405 11.7524 5.20805C11.7524 5.19902 11.7522 5.18999 11.7517 5.18096C11.7513 5.17195 11.7506 5.16293 11.7497 5.15395C11.7488 5.14496 11.7478 5.13599 11.7464 5.12705C11.7451 5.11812 11.7435 5.10923 11.7418 5.10037C11.74 5.09151 11.738 5.0827 11.7358 5.07393C11.7337 5.06516 11.7312 5.05646 11.7286 5.04782C11.726 5.03918 11.7232 5.0306 11.7201 5.02209C11.7171 5.01359 11.7138 5.00516 11.7104 4.99682C11.7069 4.98846 11.7032 4.98021 11.6994 4.97204C11.6955 4.96387 11.6915 4.9558 11.6872 4.94784C11.683 4.93988 11.6785 4.93202 11.6739 4.92427C11.6692 4.91652 11.6644 4.9089 11.6594 4.90138C11.6543 4.89387 11.6491 4.88649 11.6438 4.87923C11.6384 4.87198 11.6328 4.86485 11.6271 4.85787C11.6214 4.85088 11.6155 4.84405 11.6094 4.83735C11.6033 4.83066 11.5971 4.82412 11.5907 4.81773C11.5843 4.81134 11.5778 4.80512 11.5711 4.79905C11.5644 4.79298 11.5576 4.78709 11.5506 4.78135C11.5436 4.77562 11.5365 4.77007 11.5292 4.76468C11.522 4.7593 11.5146 4.7541 11.5071 4.74909C11.4995 4.74407 11.4919 4.73923 11.4842 4.73459C11.4764 4.72995 11.4686 4.72549 11.4606 4.72123C11.4526 4.71698 11.4446 4.71291 11.4364 4.70905C11.4282 4.7052 11.42 4.70152 11.4116 4.69807C11.4033 4.69462 11.3949 4.69137 11.3864 4.68832C11.3778 4.68527 11.3693 4.68245 11.3606 4.67982C11.352 4.6772 11.3433 4.67479 11.3345 4.6726C11.3258 4.6704 11.3169 4.66843 11.3081 4.66666C11.2992 4.6649 11.2903 4.66335 11.2814 4.66202C11.2725 4.6607 11.2635 4.6596 11.2545 4.65871C11.2455 4.65782 11.2365 4.65716 11.2275 4.65673C11.2185 4.65627 11.2094 4.65605 11.2004 4.65605ZM13.7204 2.40005L8.49639 0.704055C8.47622 0.6976 8.45594 0.691537 8.43555 0.685867C8.41514 0.680197 8.39464 0.674925 8.37403 0.67005C8.35342 0.665174 8.33274 0.660699 8.31197 0.656625C8.29119 0.652551 8.27034 0.648881 8.24942 0.645614C8.2285 0.642348 8.20753 0.639487 8.1865 0.637033C8.16547 0.634578 8.14439 0.632531 8.12328 0.630894C8.10217 0.629255 8.08105 0.628026 8.05989 0.627206C8.03873 0.626386 8.01756 0.625977 7.99639 0.625977C7.97522 0.625977 7.95405 0.626386 7.93289 0.627206C7.91173 0.628026 7.89061 0.629255 7.8695 0.630894C7.84839 0.632531 7.82731 0.634578 7.80628 0.637033C7.78525 0.639487 7.76428 0.642348 7.74336 0.645614C7.72244 0.648881 7.70159 0.652551 7.68081 0.656625C7.66005 0.660699 7.63936 0.665174 7.61875 0.67005C7.59814 0.674925 7.57764 0.680197 7.55723 0.685867C7.53684 0.691537 7.51656 0.6976 7.49639 0.704055L2.28039 2.40005C2.2646 2.40509 2.24891 2.41043 2.23333 2.41609C2.21775 2.42174 2.20228 2.4277 2.18694 2.43396C2.17158 2.44023 2.15636 2.44677 2.14128 2.45363C2.12619 2.46049 2.11124 2.46765 2.09644 2.4751C2.08162 2.48255 2.06697 2.49029 2.05247 2.4983C2.03796 2.50634 2.02361 2.51465 2.00944 2.52323C1.99526 2.53182 1.98126 2.54068 1.96744 2.54982C1.9536 2.55896 1.93996 2.56837 1.9265 2.57804C1.91304 2.58771 1.89978 2.59765 1.88672 2.60785C1.87365 2.61805 1.86078 2.62851 1.84812 2.63921C1.83547 2.64991 1.82303 2.66087 1.81081 2.67205C1.79858 2.68326 1.78658 2.69468 1.77481 2.70635C1.76303 2.71802 1.75149 2.72991 1.74019 2.74202C1.72888 2.75415 1.71781 2.76649 1.70698 2.77904C1.69616 2.79159 1.68559 2.80435 1.67527 2.81732C1.66495 2.8303 1.6549 2.84348 1.64509 2.85684C1.63529 2.8702 1.62575 2.88376 1.61648 2.89749C1.60721 2.91123 1.59822 2.92515 1.5895 2.93926C1.58077 2.95335 1.57233 2.96762 1.56417 2.98204C1.55601 2.99646 1.54814 3.01105 1.54055 3.02579C1.53297 3.04052 1.52567 3.05541 1.51867 3.07043C1.51167 3.08545 1.50497 3.1006 1.49856 3.1159C1.49216 3.1312 1.48605 3.1466 1.48025 3.16212C1.47446 3.17765 1.46896 3.19329 1.46378 3.20904C1.4586 3.22477 1.45372 3.24062 1.44916 3.25655C1.4446 3.27249 1.44036 3.28851 1.43643 3.30462C1.4325 3.32073 1.42889 3.3369 1.42559 3.35313C1.4223 3.36938 1.41932 3.38568 1.41667 3.40204C1.41402 3.4184 1.41169 3.43482 1.40968 3.45127C1.40768 3.46773 1.40599 3.48421 1.40463 3.50073C1.40328 3.51724 1.40224 3.53379 1.40154 3.55035C1.40083 3.56691 1.40045 3.58348 1.40039 3.60005L1.40039 7.30405C1.4006 7.3719 1.4018 7.43973 1.40399 7.50752C1.40618 7.57534 1.40935 7.6431 1.41351 7.7108C1.41768 7.77852 1.42282 7.84616 1.42896 7.91373C1.43509 7.98129 1.44221 8.04874 1.4503 8.1161C1.4584 8.18346 1.46748 8.25068 1.47754 8.31777C1.4876 8.38487 1.49863 8.45181 1.51064 8.51857C1.52265 8.58534 1.53563 8.65193 1.54958 8.71832C1.56353 8.78471 1.57844 8.85088 1.59431 8.91684C1.6102 8.98279 1.62704 9.04851 1.64483 9.11398C1.66262 9.17945 1.68136 9.24465 1.70105 9.30957C1.72075 9.37449 1.74138 9.4391 1.76295 9.50343C1.78453 9.56774 1.80704 9.63173 1.83048 9.6954C1.85392 9.75907 1.87828 9.82237 1.90356 9.88532C1.92885 9.94827 1.95505 10.0109 1.98216 10.073C2.00926 10.1352 2.03727 10.197 2.06619 10.2584C2.09509 10.3198 2.12489 10.3807 2.15558 10.4412C2.18627 10.5017 2.21782 10.5618 2.25025 10.6214C2.28269 10.6809 2.31598 10.74 2.35014 10.7986C2.3843 10.8573 2.4193 10.9154 2.45516 10.973C2.49101 11.0306 2.52769 11.0876 2.5652 11.1441C2.60271 11.2007 2.64104 11.2566 2.68019 11.3121C2.71933 11.3675 2.75928 11.4223 2.80002 11.4765C2.84075 11.5308 2.88228 11.5844 2.92459 11.6375C2.96689 11.6905 3.00997 11.7429 3.0538 11.7947C3.09763 11.8465 3.1422 11.8976 3.18753 11.9481C3.23286 11.9986 3.27891 12.0484 3.32567 12.0975C3.37244 12.1466 3.41992 12.1951 3.46811 12.2429C3.5163 12.2906 3.56517 12.3377 3.61473 12.384C3.66428 12.4303 3.7145 12.4759 3.76539 12.5208C3.81628 12.5656 3.86781 12.6098 3.91998 12.6531C3.97216 12.6965 4.02494 12.7391 4.07836 12.7809C4.13178 12.8228 4.18578 12.8638 4.24039 12.9041L7.24839 15.1201C7.26188 15.13 7.27556 15.1397 7.28944 15.1492C7.30331 15.1586 7.31738 15.1678 7.33161 15.1767C7.34584 15.1856 7.36027 15.1941 7.37484 15.2024C7.38942 15.2107 7.40417 15.2188 7.41906 15.2265C7.43397 15.2342 7.44902 15.2416 7.46422 15.2487C7.47942 15.2559 7.49475 15.2627 7.51022 15.2692C7.52569 15.2757 7.54128 15.2819 7.55698 15.2878C7.5727 15.2936 7.58853 15.2992 7.60447 15.3045C7.62041 15.3097 7.63644 15.3147 7.65258 15.3193C7.6687 15.3239 7.68492 15.3282 7.70123 15.3322C7.71753 15.3361 7.73391 15.3398 7.75036 15.3431C7.76681 15.3464 7.78331 15.3494 7.79989 15.3521C7.81647 15.3547 7.83308 15.3571 7.84973 15.3591C7.86641 15.3611 7.88309 15.3627 7.89983 15.3641C7.91655 15.3654 7.9333 15.3664 7.95006 15.3671C7.96683 15.3678 7.98361 15.3681 8.00039 15.3681C8.01717 15.3681 8.03395 15.3678 8.05072 15.3671C8.06748 15.3664 8.08423 15.3654 8.10095 15.3641C8.11769 15.3627 8.13437 15.3611 8.15105 15.3591C8.1677 15.3571 8.18431 15.3547 8.20089 15.3521C8.21747 15.3494 8.23397 15.3464 8.25042 15.3431C8.26687 15.3398 8.28325 15.3361 8.29955 15.3322C8.31586 15.3282 8.33208 15.3239 8.3482 15.3193C8.36434 15.3147 8.38037 15.3097 8.39631 15.3045C8.41225 15.2992 8.42808 15.2936 8.4438 15.2878C8.4595 15.2819 8.47509 15.2757 8.49056 15.2692C8.50603 15.2627 8.52136 15.2559 8.53656 15.2487C8.55177 15.2416 8.56681 15.2342 8.58172 15.2265C8.59661 15.2188 8.61136 15.2107 8.62594 15.2024C8.64052 15.1941 8.65494 15.1856 8.66917 15.1767C8.68341 15.1678 8.69747 15.1586 8.71134 15.1492C8.72522 15.1397 8.73891 15.13 8.75239 15.1201L11.7604 12.9041C11.815 12.8638 11.869 12.8228 11.9224 12.7809C11.9758 12.7391 12.0286 12.6965 12.0808 12.6531C12.133 12.6098 12.1845 12.5656 12.2354 12.5208C12.2863 12.4759 12.3365 12.4303 12.386 12.384C12.4356 12.3377 12.4845 12.2906 12.5327 12.2429C12.5808 12.1951 12.6283 12.1466 12.6751 12.0975C12.7219 12.0484 12.7679 11.9986 12.8132 11.9481C12.8586 11.8976 12.9032 11.8465 12.947 11.7947C12.9908 11.7429 13.0339 11.6905 13.0762 11.6375C13.1185 11.5844 13.16 11.5308 13.2008 11.4765C13.2415 11.4223 13.2815 11.3675 13.3206 11.3121C13.3597 11.2566 13.3981 11.2007 13.4356 11.1441C13.4731 11.0876 13.5098 11.0306 13.5456 10.973C13.5815 10.9154 13.6165 10.8573 13.6506 10.7986C13.6848 10.74 13.7181 10.6809 13.7505 10.6214C13.783 10.5618 13.8145 10.5017 13.8452 10.4412C13.8759 10.3807 13.9057 10.3198 13.9346 10.2584C13.9635 10.197 13.9915 10.1352 14.0186 10.073C14.0457 10.0109 14.0719 9.94827 14.0972 9.88532C14.1225 9.82237 14.1469 9.75907 14.1703 9.6954C14.1938 9.63173 14.2163 9.56774 14.2378 9.50343C14.2594 9.4391 14.28 9.37449 14.2997 9.30957C14.3194 9.24465 14.3382 9.17945 14.356 9.11398C14.3737 9.04851 14.3906 8.98279 14.4065 8.91684C14.4223 8.85088 14.4373 8.78471 14.4512 8.71832C14.4652 8.65193 14.4781 8.58534 14.4901 8.51857C14.5022 8.45181 14.5132 8.38487 14.5232 8.31777C14.5333 8.25068 14.5424 8.18346 14.5505 8.1161C14.5586 8.04874 14.5657 7.98129 14.5718 7.91373C14.578 7.84616 14.5831 7.77852 14.5873 7.7108C14.5914 7.6431 14.5946 7.57534 14.5968 7.50752C14.599 7.43973 14.6002 7.3719 14.6004 7.30405L14.6004 3.60005C14.6003 3.58348 14.6 3.56691 14.5992 3.55035C14.5985 3.53379 14.5975 3.51724 14.5961 3.50073C14.5948 3.48421 14.5931 3.46773 14.5911 3.45127C14.5891 3.43482 14.5868 3.4184 14.5841 3.40204C14.5815 3.38568 14.5785 3.36938 14.5752 3.35313C14.5719 3.3369 14.5683 3.32073 14.5644 3.30462C14.5604 3.28851 14.5562 3.27249 14.5516 3.25655C14.5471 3.24062 14.5422 3.22477 14.537 3.20904C14.5318 3.19329 14.5263 3.17765 14.5205 3.16212C14.5147 3.1466 14.5086 3.1312 14.5022 3.1159C14.4958 3.1006 14.4891 3.08545 14.4821 3.07043C14.4751 3.05541 14.4678 3.04052 14.4602 3.02579C14.4526 3.01105 14.4448 2.99646 14.4366 2.98204C14.4285 2.96762 14.42 2.95335 14.4113 2.93926C14.4026 2.92515 14.3936 2.91123 14.3843 2.89749C14.375 2.88376 14.3655 2.8702 14.3557 2.85684C14.3459 2.84348 14.3358 2.8303 14.3255 2.81732C14.3152 2.80435 14.3046 2.79159 14.2938 2.77904C14.283 2.76649 14.2719 2.75415 14.2606 2.74202C14.2493 2.72991 14.2378 2.71802 14.226 2.70635C14.2142 2.69468 14.2022 2.68326 14.19 2.67205C14.1777 2.66087 14.1653 2.64991 14.1527 2.63921C14.14 2.62851 14.1271 2.61805 14.1141 2.60785C14.101 2.59765 14.0877 2.58771 14.0743 2.57804C14.0608 2.56837 14.0472 2.55896 14.0333 2.54982C14.0195 2.54068 14.0055 2.53182 13.9913 2.52323C13.9772 2.51465 13.9628 2.50634 13.9483 2.4983C13.9338 2.49029 13.9192 2.48255 13.9043 2.4751C13.8895 2.46765 13.8746 2.46049 13.8595 2.45363C13.8444 2.44677 13.8292 2.44023 13.8138 2.43396C13.7985 2.4277 13.783 2.42174 13.7675 2.41609C13.7519 2.41043 13.7362 2.40509 13.7204 2.40005ZM13.2884 7.33605C13.2882 7.39104 13.2872 7.44602 13.2855 7.50099C13.2837 7.55596 13.2811 7.61088 13.2778 7.66577C13.2744 7.72066 13.2702 7.77551 13.2653 7.83027C13.2603 7.88504 13.2546 7.93973 13.248 7.99434C13.2415 8.04895 13.2341 8.10343 13.226 8.15782C13.2179 8.21221 13.209 8.26648 13.1993 8.3206C13.1895 8.37474 13.1791 8.42871 13.1678 8.48254C13.1565 8.53637 13.1445 8.59002 13.1316 8.64349C13.1188 8.69698 13.1052 8.75026 13.0908 8.80334C13.0764 8.85641 13.0613 8.90927 13.0454 8.96191C13.0295 9.01455 13.0128 9.06696 12.9953 9.11912C12.9779 9.17127 12.9597 9.22316 12.9408 9.27479C12.9218 9.32641 12.9021 9.37776 12.8817 9.42882C12.8613 9.47987 12.8401 9.53062 12.8182 9.58107C12.7963 9.63151 12.7736 9.68162 12.7503 9.7314C12.7269 9.78118 12.7028 9.83062 12.678 9.87971C12.6532 9.92879 12.6277 9.97751 12.6015 10.0259C12.5753 10.0742 12.5484 10.1221 12.5208 10.1697C12.4931 10.2173 12.4648 10.2644 12.4359 10.3111C12.4069 10.3579 12.3772 10.4042 12.3469 10.4501C12.3166 10.496 12.2856 10.5414 12.254 10.5864C12.2223 10.6314 12.19 10.6759 12.1571 10.7199C12.1242 10.7639 12.0906 10.8075 12.0564 10.8506C12.0222 10.8936 11.9874 10.9362 11.9519 10.9782C11.9165 11.0203 11.8804 11.0618 11.8438 11.1028C11.8072 11.1438 11.7699 11.1843 11.7321 11.2242C11.6943 11.2641 11.6559 11.3035 11.6169 11.3423C11.578 11.3811 11.5385 11.4194 11.4984 11.457C11.4583 11.4947 11.4177 11.5318 11.3765 11.5683C11.3354 11.6047 11.2937 11.6406 11.2515 11.6759C11.2093 11.7112 11.1666 11.7458 11.1234 11.7799C11.0802 11.8139 11.0366 11.8473 10.9924 11.8801L8.08839 14.0161C8.08506 14.018 8.08169 14.0198 8.07823 14.0215C8.07478 14.0232 8.0713 14.0248 8.06775 14.0262C8.0642 14.0277 8.06061 14.0291 8.05697 14.0303C8.05333 14.0315 8.04966 14.0326 8.04594 14.0336C8.04223 14.0346 8.0385 14.0355 8.03473 14.0363C8.03097 14.037 8.02717 14.0376 8.02336 14.0381C8.01956 14.0386 8.01573 14.039 8.01191 14.0393C8.00808 14.0395 8.00423 14.0396 8.00039 14.0396C7.99655 14.0396 7.9927 14.0395 7.98887 14.0393C7.98505 14.039 7.98122 14.0386 7.97742 14.0381C7.97361 14.0376 7.96983 14.037 7.96606 14.0363C7.9623 14.0355 7.95855 14.0346 7.95484 14.0336C7.95114 14.0326 7.94745 14.0315 7.94381 14.0303C7.94017 14.0291 7.93658 14.0277 7.93303 14.0262C7.92948 14.0248 7.926 14.0232 7.92255 14.0215C7.91909 14.0198 7.91572 14.018 7.91239 14.0161L5.00839 11.8721C4.96411 11.8394 4.92031 11.8061 4.877 11.7722C4.8337 11.7382 4.79089 11.7037 4.74859 11.6685C4.7063 11.6333 4.66452 11.5975 4.62327 11.5611C4.58202 11.5247 4.5413 11.4877 4.50113 11.4501C4.46095 11.4125 4.42134 11.3744 4.38228 11.3356C4.34323 11.2969 4.30475 11.2575 4.26684 11.2177C4.22894 11.1778 4.19163 11.1374 4.15489 11.0964C4.11816 11.0554 4.08205 11.0139 4.04653 10.9719C4.01102 10.9299 3.97613 10.8874 3.94186 10.8443C3.90759 10.8013 3.87395 10.7577 3.84095 10.7137C3.80795 10.6697 3.77561 10.6252 3.74391 10.5802C3.7122 10.5352 3.68117 10.4898 3.65081 10.4439C3.62044 10.3981 3.59075 10.3517 3.56173 10.305C3.53272 10.2583 3.50439 10.2111 3.47675 10.1635C3.44911 10.1159 3.42217 10.068 3.39594 10.0196C3.3697 9.97127 3.34417 9.92254 3.31936 9.87343C3.29455 9.82432 3.27045 9.77487 3.24709 9.72505C3.22373 9.67524 3.20109 9.6251 3.17919 9.57463C3.15728 9.52415 3.13613 9.47337 3.1157 9.42229C3.09528 9.37119 3.07562 9.31982 3.0567 9.26815C3.03778 9.21648 3.01962 9.16455 3.00223 9.11237C2.98484 9.06016 2.9682 9.00773 2.95234 8.95504C2.93647 8.90237 2.92138 8.84946 2.90706 8.79634C2.89274 8.74321 2.8792 8.6899 2.86644 8.63638C2.85368 8.58287 2.8417 8.52916 2.8305 8.47529C2.81931 8.42143 2.80891 8.36741 2.7993 8.31324C2.78968 8.25907 2.78086 8.20476 2.77283 8.15034C2.7648 8.0959 2.75757 8.04137 2.75114 7.98673C2.7447 7.93209 2.73907 7.87735 2.73423 7.82255C2.7294 7.76774 2.72537 7.71288 2.72214 7.65796C2.71891 7.60304 2.71648 7.54807 2.71486 7.49307C2.71323 7.43809 2.71241 7.38307 2.71239 7.32805L2.71239 3.75205C2.71245 3.74823 2.71267 3.74441 2.71303 3.74062C2.7134 3.73682 2.71391 3.73304 2.71458 3.72927C2.71525 3.72551 2.71606 3.72177 2.71703 3.71807C2.71799 3.71437 2.7191 3.71073 2.72036 3.70712C2.72161 3.70351 2.723 3.69995 2.72455 3.69645C2.72608 3.69295 2.72775 3.68951 2.72956 3.68615C2.73137 3.68279 2.73332 3.67949 2.73539 3.67629C2.73746 3.67309 2.73966 3.66996 2.74198 3.66691C2.74431 3.66388 2.74675 3.66095 2.7493 3.6581C2.75186 3.65526 2.75453 3.65252 2.7573 3.6499C2.76007 3.64726 2.76294 3.64474 2.76591 3.64235C2.76889 3.63996 2.77195 3.63768 2.77511 3.63551C2.77827 3.63335 2.7815 3.63132 2.78481 3.62943C2.78813 3.62754 2.79151 3.62577 2.79497 3.62413C2.79843 3.62251 2.80194 3.62102 2.80552 3.61966C2.8091 3.61832 2.81272 3.61712 2.81639 3.61605L7.84839 2.01605C7.87356 2.01188 7.89889 2.00979 7.92439 2.00979C7.94991 2.00979 7.97523 2.01188 8.00039 2.01605C8.01284 2.01316 8.02544 2.01098 8.03814 2.00952C8.05084 2.00807 8.06359 2.00735 8.07639 2.00735C8.08919 2.00735 8.10194 2.00807 8.11464 2.00952C8.12734 2.01098 8.13994 2.01316 8.15239 2.01605L13.1844 3.61605C13.1881 3.61712 13.1917 3.61832 13.1953 3.61966C13.1988 3.62102 13.2024 3.62251 13.2058 3.62413C13.2093 3.62577 13.2127 3.62754 13.216 3.62943C13.2193 3.63132 13.2225 3.63335 13.2257 3.63552C13.2288 3.63768 13.2319 3.63996 13.2349 3.64235C13.2378 3.64476 13.2407 3.64727 13.2435 3.6499C13.2463 3.65252 13.2489 3.65526 13.2515 3.6581C13.254 3.66095 13.2565 3.66388 13.2588 3.66691C13.2611 3.66996 13.2633 3.67309 13.2654 3.67629C13.2675 3.67949 13.2694 3.68279 13.2712 3.68615C13.273 3.68951 13.2747 3.69295 13.2762 3.69645C13.2778 3.69995 13.2792 3.70351 13.2804 3.70712C13.2817 3.71073 13.2828 3.71437 13.2837 3.71807C13.2847 3.72177 13.2855 3.72551 13.2862 3.72927C13.2869 3.73304 13.2874 3.73682 13.2878 3.74062C13.2881 3.74441 13.2883 3.74823 13.2884 3.75205L13.2884 7.33605Z"   fill="currentColor" ></path></svg>