<svg t="1740723828328" class="icon" viewBox="0 0 1024 1024" version="1.1" xmlns="http://www.w3.org/2000/svg" p-id="6269" width="32" height="32"><path d="M711.192381 252.050286a73.728 73.728 0 0 1 73.630476 73.630476 8.679619 8.679619 0 0 0 17.359238 0 73.728 73.728 0 0 1 73.630476-73.630476 8.679619 8.679619 0 0 0 0-17.359238 73.728 73.728 0 0 1-73.630476-73.630477 8.679619 8.679619 0 1 0-17.359238 0 73.776762 73.776762 0 0 1-73.630476 73.581715 8.679619 8.679619 0 0 0 0 17.310476v0.097524zM250.148571 605.817905a5.266286 5.266286 0 0 0-5.266285-5.266286 44.81219 44.81219 0 0 1-44.812191-44.763429 5.266286 5.266286 0 0 0-10.532571 0 44.860952 44.860952 0 0 1-44.763429 44.763429 5.315048 5.315048 0 0 0-4.973714 5.266286 5.266286 5.266286 0 0 0 4.973714 5.266285 44.860952 44.860952 0 0 1 44.763429 44.763429 5.315048 5.315048 0 0 0 5.266286 5.607619 5.217524 5.217524 0 0 0 4.973714-3.462095 5.315048 5.315048 0 0 0 0.292571-2.145524 44.860952 44.860952 0 0 1 44.812191-44.763429 5.266286 5.266286 0 0 0 5.266285-5.266285z m158.183619 202.849524a73.776762 73.776762 0 0 1-73.679238-73.630477 8.679619 8.679619 0 0 0-17.359238 0 73.776762 73.776762 0 0 1-73.630476 73.630477 8.679619 8.679619 0 1 0 0 17.359238 73.776762 73.776762 0 0 1 73.630476 73.679238 8.679619 8.679619 0 0 0 17.359238 0 73.776762 73.776762 0 0 1 73.630477-73.630476 8.679619 8.679619 0 1 0 0-17.359239z m448.073143-115.419429L354.011429 190.805333a114.297905 114.297905 0 0 0-161.645715 161.645715L694.857143 854.893714a114.297905 114.297905 0 1 0 161.645714-161.645714h-0.097524zM224.694857 223.183238a68.559238 68.559238 0 0 1 96.987429 0l118.832762 118.832762-96.987429 96.987429-118.832762-118.832762a68.656762 68.656762 0 0 1 0-96.987429zM824.07619 822.613333a68.656762 68.656762 0 0 1-96.987428 0L375.856762 471.332571l96.987428-96.938666L824.07619 725.577143a68.559238 68.559238 0 0 1 0 96.987428z"  p-id="6270"></path></svg>
