<svg xmlns="http://www.w3.org/2000/svg" xmlns:xlink="http://www.w3.org/1999/xlink" width="24" height="24" viewBox="0 0 24 24" fill="none">
<path     fill="#2563EB"  d="M0 20L0 4C0 1.79086 1.79086 0 4 0L20 0C22.2091 0 24 1.79086 24 4L24 20C24 22.2091 22.2091 24 20 24L4 24C1.79086 24 0 22.2091 0 20Z">
</path>
<path d="M5.33303 12.0529C5.32903 11.4783 5.93969 11.149 6.41169 11.403L6.47503 11.4416L8.26036 12.6443C8.90836 13.0809 8.51169 14.0729 7.77103 13.9823L7.69303 13.9689L6.98436 13.8129C7.02907 13.9367 7.0783 14.0586 7.13203 14.1786C7.18577 14.2987 7.24387 14.4167 7.30633 14.5324C7.36879 14.6482 7.43543 14.7615 7.50627 14.8723C7.57711 14.9832 7.65195 15.0913 7.73079 15.1966C7.80963 15.3019 7.89225 15.4041 7.97865 15.5033C8.06505 15.6025 8.15499 15.6984 8.24849 15.7909C8.34199 15.8835 8.43877 15.9725 8.53885 16.0579C8.63892 16.1433 8.74201 16.2249 8.84812 16.3026C8.95423 16.3803 9.06307 16.4541 9.17463 16.5237C9.2862 16.5935 9.40019 16.659 9.51659 16.7203C9.633 16.7815 9.75151 16.8384 9.87214 16.8909C9.99275 16.9435 10.1151 16.9914 10.2393 17.0349C10.3635 17.0783 10.4891 17.1171 10.6161 17.1513C10.7432 17.1854 10.8713 17.2149 11.0005 17.2395C11.1297 17.2642 11.2596 17.2841 11.3904 17.2991C11.521 17.3142 11.6521 17.3245 11.7836 17.3298C11.915 17.3352 12.0464 17.3357 12.1779 17.3313C12.3094 17.327 12.4405 17.3178 12.5713 17.3037C12.7021 17.2897 12.8323 17.2709 12.9616 17.2471C13.0911 17.2235 13.2194 17.195 13.3467 17.1618C13.474 17.1287 13.5999 17.0909 13.7243 17.0483C13.8489 17.0059 13.9717 16.9589 14.0927 16.9073C14.2137 16.8557 14.3327 16.7997 14.4495 16.7393C14.5664 16.679 14.6809 16.6144 14.793 16.5455C14.9051 16.4767 15.0145 16.4038 15.1212 16.3269C15.2279 16.2499 15.3317 16.1692 15.4323 16.0845C15.5331 16 15.6306 15.9118 15.7247 15.8199C15.819 15.7281 15.9097 15.6329 15.9968 15.5344C16.084 15.4359 16.1675 15.3343 16.2471 15.2295C16.3267 15.1249 16.4024 15.0174 16.4741 14.9071C16.5458 14.7968 16.6133 14.684 16.6767 14.5687C16.74 14.4534 16.799 14.3359 16.8537 14.2163C16.8725 14.1775 16.8947 14.1407 16.9206 14.1062C16.9465 14.0717 16.9754 14.0399 17.0074 14.011C17.0395 13.9821 17.074 13.9566 17.1109 13.9343C17.1479 13.9122 17.1867 13.8937 17.2273 13.879C17.2679 13.8643 17.3095 13.8537 17.3521 13.8471C17.3947 13.8405 17.4377 13.8381 17.4807 13.8397C17.5239 13.8415 17.5664 13.8473 17.6083 13.8573C17.6503 13.8673 17.6909 13.8812 17.7302 13.8991C17.7695 13.9169 17.8067 13.9385 17.8417 13.9635C17.8769 13.9886 17.9093 14.0169 17.9389 14.0482C17.9685 14.0796 17.9948 14.1135 18.0178 14.1499C18.0409 14.1865 18.0602 14.2248 18.0757 14.265C18.0913 14.3053 18.1029 14.3467 18.1105 14.3891C18.1181 14.4316 18.1215 14.4744 18.1207 14.5175C18.12 14.5607 18.1151 14.6033 18.106 14.6455C18.097 14.6877 18.084 14.7287 18.067 14.7683C16.7423 17.6816 13.4697 19.2969 10.2757 18.4409C10.1884 18.4176 10.1016 18.3925 10.0153 18.3655C9.92897 18.3386 9.84326 18.31 9.75813 18.2796C9.67301 18.2492 9.58853 18.2171 9.5047 18.1833C9.42088 18.1495 9.33778 18.1139 9.2554 18.0767C9.17302 18.0395 9.09143 18.0007 9.01063 17.9601C8.92983 17.9196 8.84989 17.8775 8.77081 17.8337C8.69172 17.7899 8.61356 17.7445 8.53633 17.6975C8.45909 17.6506 8.38283 17.6021 8.30757 17.552C8.23231 17.502 8.15809 17.4504 8.08492 17.3973C8.01175 17.3443 7.93969 17.2897 7.86875 17.2337C7.79779 17.1777 7.72801 17.1203 7.6594 17.0614C7.59079 17.0026 7.5234 16.9424 7.45723 16.8808C7.39107 16.8192 7.32619 16.7563 7.26258 16.6921C7.19897 16.6279 7.1367 16.5624 7.07576 16.4956C7.01482 16.4288 6.95526 16.3609 6.89709 16.2917C6.83891 16.2225 6.78216 16.1521 6.72685 16.0807C6.67153 16.0092 6.61769 15.9366 6.56533 15.8629C6.51297 15.7893 6.46213 15.7145 6.4128 15.6387C6.36347 15.563 6.31571 15.4863 6.26951 15.4086C6.22331 15.3309 6.17871 15.2523 6.1357 15.1728C6.09269 15.0933 6.05132 15.0129 6.01158 14.9317C5.97184 14.8506 5.93377 14.7687 5.89737 14.6859C5.86097 14.6031 5.82626 14.5197 5.79325 14.4355C5.76025 14.3514 5.72896 14.2667 5.69939 14.1812C5.66983 14.0958 5.64202 14.0098 5.61596 13.9232C5.5899 13.8367 5.56561 13.7497 5.54308 13.6621C5.52056 13.5745 5.49983 13.4866 5.48088 13.3982C5.46194 13.3098 5.4448 13.2211 5.42946 13.132C5.41413 13.0429 5.40061 12.9535 5.38891 12.8639C5.37721 12.7743 5.36734 12.6845 5.35929 12.5944C5.35124 12.5044 5.34503 12.4143 5.34065 12.3239C5.33627 12.2337 5.33373 12.1433 5.33303 12.0529ZM14.2817 8.94897C14.3169 8.97499 14.3493 9.00419 14.3787 9.03658C14.4082 9.06897 14.4343 9.10392 14.4568 9.14144C14.4794 9.17896 14.4981 9.21832 14.5129 9.25953C14.5278 9.30073 14.5385 9.34299 14.5449 9.3863C14.5515 9.42961 14.5537 9.47313 14.5515 9.51687C14.5495 9.56061 14.5432 9.60373 14.5326 9.64623C14.5221 9.68873 14.5074 9.72979 14.4887 9.7694C14.4701 9.80901 14.4477 9.84643 14.4217 9.88164L13.349 11.333L13.9997 11.333C14.0435 11.333 14.0868 11.3372 14.1297 11.3458C14.1727 11.3543 14.2144 11.3669 14.2548 11.3837C14.2953 11.4005 14.3337 11.421 14.3701 11.4453C14.4065 11.4696 14.4401 11.4973 14.4711 11.5282C14.502 11.5592 14.5297 11.5928 14.554 11.6292C14.5783 11.6656 14.5989 11.7041 14.6156 11.7445C14.6324 11.785 14.645 11.8266 14.6535 11.8696C14.6621 11.9125 14.6663 11.9559 14.6663 11.9996C14.6663 12.0434 14.6621 12.0867 14.6535 12.1297C14.645 12.1726 14.6324 12.2143 14.6156 12.2547C14.5989 12.2952 14.5783 12.3336 14.554 12.37C14.5297 12.4064 14.502 12.4401 14.4711 12.471C14.4401 12.5019 14.4065 12.5296 14.3701 12.5539C14.3337 12.5783 14.2953 12.5988 14.2548 12.6155C14.2144 12.6323 14.1727 12.6449 14.1297 12.6535C14.0868 12.662 14.0435 12.6663 13.9997 12.6663L12.6663 12.6663L12.6663 13.3329L13.9997 13.3329C14.0435 13.3329 14.0868 13.3372 14.1297 13.3457C14.1727 13.3543 14.2144 13.3669 14.2548 13.3837C14.2953 13.4005 14.3337 13.421 14.3701 13.4453C14.4065 13.4696 14.4401 13.4973 14.4711 13.5282C14.502 13.5591 14.5297 13.5928 14.554 13.6292C14.5783 13.6656 14.5989 13.7041 14.6156 13.7445C14.6324 13.7849 14.645 13.8266 14.6535 13.8695C14.6621 13.9125 14.6663 13.9559 14.6663 13.9996C14.6663 14.0434 14.6621 14.0867 14.6535 14.1297C14.645 14.1726 14.6324 14.2143 14.6156 14.2547C14.5989 14.2952 14.5783 14.3336 14.554 14.37C14.5297 14.4064 14.502 14.4401 14.4711 14.471C14.4401 14.5019 14.4065 14.5296 14.3701 14.5539C14.3337 14.5783 14.2953 14.5988 14.2548 14.6155C14.2144 14.6323 14.1727 14.6449 14.1297 14.6535C14.0868 14.662 14.0435 14.6663 13.9997 14.6663L12.6663 14.6663L12.6663 15.3329C12.6663 15.3767 12.6621 15.4201 12.6535 15.463C12.645 15.5059 12.6324 15.5477 12.6156 15.5881C12.5989 15.6285 12.5783 15.6669 12.554 15.7033C12.5297 15.7397 12.502 15.7734 12.4711 15.8043C12.4401 15.8353 12.4065 15.8629 12.3701 15.8873C12.3337 15.9116 12.2953 15.9321 12.2548 15.9489C12.2144 15.9657 12.1727 15.9783 12.1297 15.9868C12.0868 15.9953 12.0435 15.9996 11.9997 15.9996C11.9559 15.9996 11.9126 15.9953 11.8696 15.9868C11.8267 15.9783 11.785 15.9657 11.7446 15.9489C11.7041 15.9321 11.6657 15.9116 11.6293 15.8873C11.5929 15.8629 11.5592 15.8353 11.5283 15.8043C11.4973 15.7734 11.4697 15.7397 11.4454 15.7033C11.421 15.6669 11.4005 15.6285 11.3838 15.5881C11.367 15.5477 11.3544 15.5059 11.3458 15.463C11.3373 15.4201 11.333 15.3767 11.333 15.3329L11.333 14.6663L9.99969 14.6663C9.95592 14.6663 9.91257 14.662 9.86963 14.6535C9.8267 14.6449 9.78502 14.6323 9.74457 14.6155C9.70413 14.5988 9.66571 14.5783 9.62931 14.5539C9.59292 14.5296 9.55924 14.5019 9.52829 14.471C9.49733 14.4401 9.4697 14.4064 9.44538 14.37C9.42106 14.3336 9.40053 14.2952 9.38377 14.2547C9.36702 14.2143 9.35437 14.1726 9.34583 14.1297C9.33729 14.0867 9.33303 14.0434 9.33303 13.9996C9.33303 13.9559 9.33729 13.9125 9.34583 13.8695C9.35437 13.8266 9.36702 13.7849 9.38377 13.7445C9.40053 13.7041 9.42106 13.6656 9.44538 13.6292C9.4697 13.5928 9.49733 13.5591 9.52829 13.5282C9.55924 13.4973 9.59292 13.4696 9.62931 13.4453C9.66571 13.421 9.70413 13.4005 9.74457 13.3837C9.78502 13.3669 9.8267 13.3543 9.86963 13.3457C9.91257 13.3372 9.95592 13.3329 9.99969 13.3329L11.333 13.3329L11.333 12.6663L9.99969 12.6663C9.95592 12.6663 9.91257 12.662 9.86963 12.6535C9.8267 12.6449 9.78502 12.6323 9.74457 12.6155C9.70413 12.5988 9.66571 12.5783 9.62931 12.5539C9.59292 12.5296 9.55924 12.5019 9.52829 12.471C9.49733 12.4401 9.4697 12.4064 9.44538 12.37C9.42106 12.3336 9.40053 12.2952 9.38377 12.2547C9.36702 12.2143 9.35437 12.1726 9.34583 12.1297C9.33729 12.0867 9.33303 12.0434 9.33303 11.9996C9.33303 11.9559 9.33729 11.9125 9.34583 11.8696C9.35437 11.8266 9.36702 11.785 9.38377 11.7445C9.40053 11.7041 9.42106 11.6656 9.44538 11.6292C9.4697 11.5928 9.49733 11.5592 9.52829 11.5282C9.55924 11.4973 9.59292 11.4696 9.62931 11.4453C9.66571 11.421 9.70413 11.4005 9.74457 11.3837C9.78502 11.3669 9.8267 11.3543 9.86963 11.3458C9.91257 11.3372 9.95592 11.333 9.99969 11.333L10.6504 11.333L9.57769 9.88164C9.55163 9.84643 9.52925 9.80901 9.51056 9.76939C9.49187 9.72976 9.47723 9.68869 9.46663 9.64619C9.45604 9.60367 9.44969 9.56054 9.4476 9.51678C9.4455 9.47302 9.4477 9.42947 9.45419 9.38615C9.46067 9.34282 9.47133 9.30055 9.48615 9.25932C9.50097 9.21809 9.51967 9.17871 9.54225 9.14117C9.56483 9.10362 9.59085 9.06865 9.62033 9.03623C9.6498 9.00382 9.68215 8.97459 9.71739 8.94856C9.75262 8.92252 9.79006 8.90017 9.82969 8.88151C9.86934 8.86285 9.91041 8.84825 9.95293 8.83769C9.99544 8.82712 10.0386 8.82081 10.0823 8.81875C10.1261 8.81668 10.1696 8.81891 10.213 8.82543C10.2563 8.83195 10.2986 8.84264 10.3398 8.85749C10.381 8.87234 10.4204 8.89107 10.4579 8.91368C10.4954 8.93629 10.5304 8.96234 10.5628 8.99185C10.5952 9.02134 10.6244 9.05372 10.6504 9.08897L11.9997 10.9156L13.349 9.08897C13.375 9.05375 13.4042 9.02139 13.4366 8.99192C13.469 8.96245 13.504 8.93642 13.5415 8.91383C13.579 8.89125 13.6183 8.87254 13.6595 8.85771C13.7007 8.84289 13.743 8.83222 13.7863 8.82572C13.8297 8.81922 13.8731 8.81701 13.9169 8.81909C13.9607 8.82116 14.0038 8.82749 14.0463 8.83806C14.0888 8.84863 14.1298 8.86325 14.1694 8.88192C14.2091 8.90059 14.2465 8.92293 14.2817 8.94897ZM5.93503 9.23431C7.25969 6.32097 10.5324 4.70631 13.7263 5.56164C13.8137 5.58501 13.9005 5.61014 13.9867 5.63705C14.073 5.66395 14.1587 5.69259 14.2439 5.72298C14.329 5.75337 14.4135 5.78547 14.4973 5.81929C14.5811 5.85312 14.6642 5.88863 14.7465 5.92583C14.8289 5.96303 14.9105 6.00189 14.9913 6.04242C15.0721 6.08294 15.1521 6.12509 15.2311 6.16886C15.3102 6.21263 15.3884 6.25799 15.4656 6.30494C15.5428 6.35189 15.6191 6.40039 15.6943 6.45045C15.7696 6.5005 15.8438 6.55206 15.9169 6.60513C15.9901 6.6582 16.0622 6.71273 16.1331 6.76874C16.2041 6.82474 16.2739 6.88216 16.3425 6.941C16.4111 6.99984 16.4785 7.06005 16.5446 7.12163C16.6108 7.18321 16.6757 7.24611 16.7393 7.31033C16.8029 7.37454 16.8651 7.44003 16.9261 7.50679C16.987 7.57353 17.0466 7.6415 17.1047 7.71067C17.1629 7.77985 17.2197 7.85017 17.275 7.92166C17.3303 7.99314 17.3841 8.06571 17.4365 8.13939C17.4889 8.21306 17.5397 8.28777 17.589 8.36351C17.6383 8.43925 17.6861 8.51596 17.7323 8.59364C17.7785 8.67132 17.8231 8.74991 17.8661 8.82941C17.9092 8.90891 17.9505 8.98925 17.9903 9.07043C18.03 9.1516 18.0681 9.23355 18.1045 9.31629C18.1409 9.39901 18.1756 9.48245 18.2086 9.5666C18.2417 9.65073 18.2729 9.73551 18.3025 9.82092C18.3321 9.90633 18.3599 9.99231 18.3859 10.0789C18.412 10.1654 18.4363 10.2524 18.4588 10.34C18.4813 10.4275 18.5021 10.5155 18.521 10.6038C18.54 10.6922 18.5571 10.7809 18.5725 10.87C18.5878 10.9591 18.6013 11.0484 18.6131 11.138C18.6248 11.2277 18.6347 11.3175 18.6427 11.4075C18.6507 11.4975 18.6569 11.5877 18.6613 11.678C18.6657 11.7682 18.6683 11.8586 18.669 11.949C18.6737 12.5243 18.0623 12.8543 17.591 12.5996L17.527 12.5609L15.7417 11.3583C15.0937 10.9216 15.4903 9.92964 16.231 10.0203L16.309 10.0336L17.0177 10.1896C16.973 10.0659 16.9237 9.94403 16.87 9.82395C16.8163 9.70387 16.7582 9.58594 16.6957 9.47017C16.6333 9.35439 16.5666 9.24107 16.4957 9.13023C16.4249 9.01938 16.3501 8.9113 16.2712 8.80599C16.1924 8.70068 16.1098 8.59843 16.0234 8.49923C15.937 8.40003 15.8471 8.30416 15.7535 8.21161C15.6601 8.11907 15.5633 8.0301 15.4632 7.94472C15.3631 7.85933 15.2601 7.77776 15.1539 7.70001C15.0478 7.62225 14.939 7.54851 14.8274 7.47881C14.7159 7.4091 14.6019 7.34361 14.4854 7.28234C14.369 7.22106 14.2505 7.16417 14.1299 7.11167C14.0093 7.05916 13.8869 7.01118 13.7627 6.96773C13.6386 6.92428 13.513 6.88547 13.3859 6.85131C13.2589 6.81715 13.1307 6.78773 13.0015 6.76305C12.8723 6.73837 12.7424 6.7185 12.6117 6.70343C12.481 6.68836 12.3499 6.67814 12.2185 6.67277C12.0871 6.6674 11.9556 6.66689 11.8242 6.67125C11.6926 6.67559 11.5615 6.6848 11.4307 6.69886C11.2999 6.71291 11.1698 6.73178 11.0404 6.75546C10.911 6.77914 10.7827 6.80757 10.6554 6.84074C10.5281 6.87391 10.4022 6.91175 10.2777 6.95424C10.1532 6.99673 10.0304 7.04375 9.90938 7.09533C9.78836 7.14689 9.66941 7.20287 9.55253 7.26324C9.43565 7.32361 9.32116 7.38821 9.20906 7.45705C9.09696 7.52589 8.98755 7.59878 8.88085 7.67571C8.77413 7.75265 8.67041 7.83341 8.56968 7.91803C8.46895 8.00263 8.37147 8.09085 8.27727 8.18267C8.18306 8.27448 8.09237 8.36965 8.00521 8.46818C7.91804 8.56671 7.83463 8.66832 7.75498 8.77302C7.67533 8.87771 7.59966 8.98521 7.52796 9.09551C7.45626 9.2058 7.38874 9.31859 7.32539 9.43389C7.26203 9.54917 7.20302 9.66665 7.14836 9.78631C7.13965 9.80667 7.12994 9.82654 7.11924 9.84593C7.10854 9.86533 7.09691 9.88414 7.08434 9.90237C7.07177 9.9206 7.05832 9.93817 7.04399 9.95506C7.02967 9.97195 7.01455 9.98809 6.99861 10.0035C6.98269 10.0189 6.96603 10.0334 6.94865 10.0471C6.93127 10.0609 6.91325 10.0737 6.89459 10.0856C6.87593 10.0975 6.85673 10.1085 6.83697 10.1185C6.81722 10.1286 6.79701 10.1376 6.77637 10.1456C6.75571 10.1536 6.73471 10.1605 6.71337 10.1664C6.69203 10.1723 6.67045 10.1772 6.64862 10.1809C6.62679 10.1847 6.60483 10.1873 6.58275 10.1889C6.56065 10.1905 6.53854 10.191 6.5164 10.1903C6.49426 10.1897 6.47221 10.188 6.45025 10.1851C6.42828 10.1823 6.40651 10.1784 6.38494 10.1734C6.36336 10.1684 6.34209 10.1623 6.32112 10.1552C6.30015 10.1481 6.27959 10.1399 6.25943 10.1307C6.23927 10.1216 6.21961 10.1114 6.20047 10.1003C6.18132 10.0892 6.16277 10.0771 6.14483 10.0641C6.12689 10.0512 6.10963 10.0373 6.09306 10.0226C6.07649 10.0079 6.0607 9.99243 6.04567 9.97617C6.03065 9.95989 6.01647 9.94292 6.00315 9.92523C5.98981 9.90755 5.97739 9.88924 5.96589 9.87032C5.95438 9.8514 5.94384 9.83195 5.93427 9.81198C5.92471 9.79201 5.91615 9.77161 5.90861 9.75078C5.90108 9.72996 5.89459 9.70881 5.88917 9.68734C5.88374 9.66587 5.87939 9.64418 5.87613 9.62227C5.87286 9.60037 5.87069 9.57836 5.86961 9.55624C5.86854 9.53412 5.86857 9.512 5.8697 9.48988C5.87083 9.46776 5.87306 9.44576 5.87638 9.42386C5.8797 9.40196 5.88411 9.38028 5.88959 9.35883C5.89508 9.33737 5.90162 9.31624 5.90921 9.29544C5.9168 9.27463 5.92541 9.25425 5.93503 9.23431Z"   fill="#FFFFFF" >
</path>
</svg>
