<!-- <svg xmlns="http://www.w3.org/2000/svg" xmlns:xlink="http://www.w3.org/1999/xlink" width="20" height="20" viewBox="0 0 20 20" fill="none"><path d="M19.0664 5.4933C19.1 5.56254 19.1327 5.63219 19.1646 5.70225C19.1971 5.77386 19.2286 5.84591 19.2592 5.91838C19.2897 5.99086 19.3194 6.06371 19.348 6.13697C19.3766 6.21021 19.4044 6.28382 19.431 6.35784C19.4576 6.43181 19.4834 6.50615 19.508 6.58082C19.5329 6.65549 19.5565 6.73049 19.5791 6.80578C19.6017 6.8811 19.6235 6.95668 19.6441 7.03256C19.6649 7.10844 19.6846 7.18459 19.7031 7.261C19.7219 7.3374 19.7395 7.41404 19.7561 7.49091C19.7726 7.56779 19.7882 7.64486 19.803 7.72215C19.8176 7.79944 19.8311 7.87691 19.8436 7.95458C19.8561 8.03221 19.8676 8.11003 19.878 8.18796C19.8882 8.26591 19.8976 8.344 19.9061 8.42221C19.9145 8.50041 19.9217 8.57871 19.9281 8.65711C19.9344 8.73551 19.9396 8.81399 19.9437 8.89252C19.9479 8.97105 19.951 9.04965 19.9531 9.12826C19.9552 9.20687 19.9562 9.28553 19.9562 9.36417C19.9562 9.44284 19.9552 9.52146 19.9531 9.60007C19.951 9.67869 19.9479 9.75729 19.9437 9.83583C19.9396 9.91435 19.9344 9.99284 19.9281 10.0712C19.9217 10.1496 19.9145 10.2279 19.9061 10.3061C19.8976 10.3843 19.8882 10.4624 19.878 10.5404C19.8676 10.6183 19.8561 10.6961 19.8436 10.7738C19.8311 10.8514 19.8176 10.9289 19.803 11.0062C19.7882 11.0835 19.7726 11.1606 19.7561 11.2374C19.7395 11.3143 19.7219 11.3909 19.7031 11.4673C19.6846 11.5437 19.6649 11.6199 19.6441 11.6958C19.6235 11.7717 19.6017 11.8472 19.5791 11.9226C19.5565 11.9979 19.5329 12.0729 19.508 12.1475C19.4834 12.2222 19.4576 12.2965 19.431 12.3705C19.4044 12.4445 19.3766 12.5181 19.348 12.5914C19.3194 12.6646 19.2897 12.7375 19.2592 12.81C19.2286 12.8824 19.1971 12.9545 19.1646 13.0261C19.1336 13.0953 19.1017 13.164 19.069 13.2324C19.0362 13.3008 19.0027 13.3687 18.9683 13.4364C18.934 13.5039 18.8987 13.571 18.8627 13.6378C18.8267 13.7045 18.7899 13.7708 18.7522 13.8365C18.7146 13.9024 18.6762 13.9678 18.637 14.0325C18.5979 14.0975 18.5579 14.1619 18.517 14.2257C18.4762 14.2896 18.4346 14.353 18.3924 14.4159C18.35 14.4789 18.3069 14.5413 18.2631 14.603C18.2192 14.6649 18.1746 14.7261 18.1292 14.7869C18.084 14.8478 18.0379 14.9079 17.9911 14.9675C17.9442 15.0271 17.8967 15.0863 17.8485 15.1447C17.8002 15.2031 17.7512 15.261 17.7016 15.3184C17.652 15.3756 17.6016 15.4323 17.5506 15.4884C17.4996 15.5444 17.4479 15.5999 17.3955 15.6546C17.3431 15.7094 17.2901 15.7636 17.2364 15.8171C17.1826 15.8706 17.1282 15.9235 17.0734 15.9756C17.0159 16.0292 16.9577 16.0822 16.899 16.1345C16.8402 16.1868 16.7809 16.2384 16.721 16.2892C16.661 16.3401 16.6004 16.3903 16.5392 16.4398C16.4781 16.4893 16.4165 16.5379 16.3541 16.5859C16.2919 16.6339 16.229 16.6811 16.1656 16.7276C16.1022 16.7741 16.0382 16.82 15.9737 16.865C15.9094 16.91 15.8444 16.9541 15.7787 16.9976C15.7132 17.0411 15.6472 17.0837 15.5807 17.1257C15.5141 17.1676 15.4471 17.2087 15.3796 17.249C15.3121 17.2894 15.2441 17.3289 15.1757 17.3676C15.1072 17.4064 15.0384 17.4442 14.9691 17.4814C14.8997 17.5185 14.83 17.5548 14.7599 17.5903C14.6896 17.6256 14.619 17.6602 14.548 17.6941C14.477 17.7279 14.4056 17.7609 14.3339 17.7929C14.2621 17.825 14.1899 17.8562 14.1174 17.8867C14.0449 17.9171 13.972 17.9466 13.8989 17.9753C13.8296 18.0024 13.76 18.0286 13.6902 18.0541C13.6204 18.0798 13.5504 18.1045 13.48 18.1286C13.4097 18.1528 13.3391 18.1761 13.2684 18.1987C13.1976 18.2214 13.1265 18.2432 13.0552 18.2644C12.984 18.2855 12.9125 18.3059 12.8409 18.3255C12.7691 18.3453 12.6972 18.3641 12.6251 18.3822C12.5531 18.4004 12.4808 18.4179 12.4084 18.4345C12.3359 18.4511 12.2633 18.467 12.1905 18.4821C12.1178 18.4972 12.0448 18.5116 11.9718 18.5252C11.8987 18.5389 11.8255 18.5516 11.7521 18.5638C11.6788 18.5759 11.6053 18.5871 11.5317 18.5976C11.4581 18.6082 11.3845 18.618 11.3107 18.627C11.2369 18.636 11.163 18.6443 11.0891 18.6518C11.0151 18.6593 10.9411 18.6659 10.867 18.6719C10.7929 18.6777 10.7187 18.6829 10.6445 18.6873C10.5703 18.6916 10.4961 18.6952 10.4218 18.6981C10.3475 18.7009 10.2732 18.703 10.1989 18.7043C10.1246 18.7055 10.0503 18.706 9.97591 18.7057C9.90158 18.7055 9.82726 18.7045 9.75296 18.7026C9.67864 18.7009 9.60435 18.6982 9.5301 18.6949C9.45584 18.6915 9.38164 18.6874 9.30746 18.6824C9.23328 18.6775 9.15918 18.6717 9.08514 18.6654C9.01108 18.6589 8.93711 18.6516 8.8632 18.6436C8.7893 18.6356 8.71549 18.6269 8.64178 18.6173C8.56806 18.6077 8.49445 18.5974 8.42095 18.5864C8.34744 18.5753 8.27406 18.5634 8.20083 18.5507C8.12756 18.5381 8.05444 18.5247 7.98146 18.5106C7.9085 18.4965 7.83566 18.4816 7.763 18.466C7.69033 18.4504 7.61783 18.4339 7.54553 18.4167C7.47319 18.3996 7.40105 18.3816 7.32913 18.363C7.25716 18.3443 7.18541 18.3249 7.11389 18.3047C7.04233 18.2845 6.971 18.2636 6.8999 18.2419L4.00035 19.9084C3.98706 19.9159 3.97358 19.9229 3.95984 19.9295C3.94611 19.9361 3.93219 19.9424 3.91806 19.948C3.90393 19.9538 3.88963 19.959 3.87515 19.9639C3.86069 19.9688 3.84608 19.973 3.83133 19.977C3.81658 19.9806 3.80171 19.9841 3.78676 19.9871C3.77178 19.99 3.75674 19.9924 3.74163 19.9944C3.72649 19.9963 3.71131 19.9976 3.69611 19.9986C3.68088 19.9996 3.66564 20 3.65041 20C3.6397 20 3.62904 19.9996 3.61838 19.999C3.6077 19.9984 3.59703 19.9979 3.5864 19.9969C3.57578 19.9959 3.56518 19.9945 3.55459 19.993C3.544 19.9916 3.53348 19.9899 3.52296 19.9879C3.51246 19.9858 3.50201 19.9836 3.49163 19.9813C3.48121 19.9788 3.47088 19.976 3.4606 19.973C3.45031 19.9701 3.4401 19.967 3.42998 19.9636C3.41983 19.9604 3.40976 19.9566 3.3998 19.9529C3.38983 19.949 3.37994 19.9449 3.37015 19.9406C3.36038 19.9365 3.35069 19.932 3.34109 19.9271C3.33151 19.9225 3.32203 19.9176 3.31268 19.9125C3.3033 19.9073 3.29406 19.902 3.28494 19.8963C3.27581 19.8909 3.26684 19.8851 3.25796 19.8791C3.2491 19.873 3.24039 19.867 3.23181 19.8605C3.22323 19.8541 3.2148 19.8476 3.20653 19.8409C3.19824 19.834 3.1901 19.8271 3.18213 19.8201C3.17416 19.8129 3.16635 19.8056 3.15873 19.7983C3.15108 19.7906 3.14361 19.783 3.13633 19.7752C3.12903 19.7674 3.12189 19.7594 3.11498 19.7514C3.10803 19.7434 3.10129 19.735 3.09475 19.7265C3.08819 19.7181 3.08181 19.7096 3.07564 19.7008C3.06948 19.692 3.0635 19.6833 3.05774 19.6743C3.05195 19.6652 3.0464 19.656 3.04105 19.6469C3.03569 19.6377 3.03053 19.6284 3.0256 19.6187C3.02066 19.6091 3.01595 19.5996 3.01146 19.59C3.00695 19.5805 3.00268 19.5707 2.99863 19.5607C2.99458 19.5508 2.99073 19.5409 2.98713 19.5308C2.98351 19.5206 2.98014 19.5106 2.97701 19.5004C2.97385 19.4901 2.97094 19.4799 2.96826 19.4695C2.96556 19.4591 2.96313 19.4488 2.96094 19.4384C2.95871 19.4279 2.95674 19.4174 2.955 19.4069C2.95326 19.3962 2.95178 19.3857 2.95053 19.3751L2.50059 15.534C2.45144 15.4827 2.40291 15.4307 2.35501 15.3782C2.30709 15.3258 2.2598 15.2727 2.21316 15.2191C2.1665 15.1655 2.12049 15.1114 2.07511 15.0566C2.02973 15.0019 1.98501 14.9466 1.94095 14.8909C1.89688 14.8351 1.85348 14.7789 1.81074 14.7221C1.76801 14.6652 1.72595 14.608 1.68458 14.5503C1.6432 14.4924 1.60251 14.4341 1.56251 14.3754C1.52251 14.3166 1.48321 14.2574 1.44461 14.1978C1.40603 14.1381 1.36814 14.0779 1.33096 14.0174C1.29379 13.9567 1.25734 13.8958 1.22161 13.8344C1.18588 13.7729 1.15088 13.711 1.11662 13.6488C1.08236 13.5865 1.04883 13.5239 1.01605 13.4607C0.983269 13.3978 0.95124 13.3343 0.91996 13.2705C0.888682 13.2066 0.85816 13.1425 0.8284 13.0779C0.79864 13.0134 0.76965 12.9485 0.741425 12.8833C0.713202 12.818 0.685754 12.7525 0.659082 12.6866C0.63241 12.6208 0.606522 12.5545 0.581417 12.488C0.556313 12.4215 0.531998 12.3547 0.508473 12.2877C0.484948 12.2206 0.46222 12.1533 0.440292 12.0857C0.418362 12.0181 0.397234 11.9502 0.37691 11.8821C0.356585 11.814 0.33707 11.7457 0.318365 11.6771C0.29966 11.6085 0.281768 11.5398 0.264689 11.4707C0.247613 11.4017 0.231354 11.3326 0.215914 11.2632C0.200473 11.1938 0.185857 11.1243 0.172064 11.0545C0.15827 10.9848 0.145304 10.9149 0.133164 10.8449C0.121025 10.7749 0.109716 10.7047 0.0992379 10.6344C0.0887596 10.5641 0.0791148 10.4937 0.0703036 10.4232C0.0614919 10.3527 0.0535164 10.2821 0.0463769 10.2113C0.0392371 10.1406 0.0329353 10.0698 0.0274717 9.99896C0.0220078 9.92809 0.0173834 9.85716 0.0135986 9.78621C0.00981361 9.71524 0.00686916 9.64421 0.0047652 9.57319C0.00266124 9.50215 0.00139836 9.43108 0.000976562 9.36C0.00174477 9.28125 0.00356715 9.20253 0.00644369 9.12381C0.00932025 9.0451 0.0132499 8.96645 0.0182328 8.88784C0.0232157 8.80924 0.0292498 8.73073 0.0363353 8.65226C0.0434209 8.57382 0.0515553 8.49549 0.0607384 8.41726C0.0699217 8.33904 0.0801504 8.26096 0.0914246 8.18301C0.102699 8.10506 0.115014 8.02729 0.128372 7.94965C0.141729 7.87204 0.156123 7.79461 0.171553 7.71739C0.186984 7.64014 0.203445 7.56313 0.220939 7.48633C0.238432 7.40954 0.256949 7.33299 0.276492 7.2567C0.296035 7.18039 0.316595 7.10437 0.338174 7.02864C0.359752 6.95288 0.38234 6.87743 0.405939 6.80229C0.429539 6.72715 0.454139 6.65233 0.47974 6.57785C0.505344 6.50338 0.531938 6.42924 0.559525 6.35546C0.587113 6.2817 0.615682 6.2083 0.645234 6.13531C0.674787 6.0623 0.70531 5.98971 0.736809 5.9175C0.768305 5.84531 0.800762 5.77355 0.834179 5.70225C0.865514 5.6324 0.897699 5.56295 0.93074 5.4939C0.963782 5.42486 0.997664 5.35621 1.03239 5.28799C1.06712 5.21976 1.10268 5.15199 1.13908 5.08465C1.17547 5.0173 1.21269 4.95041 1.25073 4.88399C1.28876 4.81756 1.32761 4.7516 1.36728 4.68614C1.40694 4.62065 1.4474 4.55566 1.48866 4.49119C1.52991 4.42671 1.57196 4.36275 1.61479 4.29931C1.65763 4.23586 1.70123 4.17295 1.74561 4.11059C1.78999 4.0482 1.83513 3.98639 1.88103 3.92511C1.92691 3.86385 1.97355 3.80316 2.02095 3.74305C2.06834 3.68292 2.11646 3.6234 2.16533 3.56447C2.21418 3.50555 2.26375 3.44721 2.31404 3.38949C2.36431 3.33177 2.41531 3.27469 2.46701 3.21823C2.51869 3.16176 2.57108 3.10596 2.62414 3.05078C2.6772 2.9956 2.73094 2.94109 2.78535 2.88725C2.83975 2.8334 2.8948 2.78021 2.95053 2.72771C3.00801 2.67406 3.06611 2.62111 3.12486 2.56882C3.18359 2.51654 3.24293 2.46496 3.30289 2.41409C3.36285 2.3632 3.4234 2.31305 3.48453 2.2636C3.54566 2.21416 3.60738 2.16543 3.66966 2.11744C3.73195 2.06945 3.7948 2.02219 3.8582 1.97569C3.9216 1.92916 3.98555 1.88341 4.05004 1.83841C4.11451 1.79341 4.17951 1.74917 4.24504 1.7057C4.31056 1.66224 4.3766 1.61955 4.44314 1.57764C4.50966 1.53572 4.57668 1.4946 4.64418 1.45428C4.71168 1.41395 4.77966 1.37443 4.8481 1.33569C4.91653 1.29696 4.98541 1.25905 5.05475 1.22196C5.12408 1.18485 5.19383 1.14858 5.26403 1.11312C5.3342 1.07767 5.40479 1.04305 5.4758 1.00926C5.5468 0.975469 5.61819 0.942521 5.68998 0.910416C5.76175 0.87831 5.8339 0.847059 5.90643 0.816656C5.97893 0.786254 6.0518 0.756711 6.12501 0.728028C6.20199 0.698041 6.2793 0.668954 6.35695 0.640761C6.43459 0.61257 6.51256 0.585284 6.59084 0.558904C6.66913 0.532521 6.7477 0.507052 6.82658 0.482498C6.90545 0.45794 6.98459 0.434303 7.06403 0.411584C7.14344 0.388865 7.2231 0.367073 7.30305 0.346203C7.38296 0.325334 7.46313 0.305396 7.54351 0.286389C7.6239 0.267381 7.70449 0.249309 7.78531 0.232174C7.86614 0.215037 7.94713 0.19884 8.02833 0.183585C8.10949 0.16833 8.19086 0.154019 8.27239 0.140652C8.35389 0.127286 8.43555 0.114867 8.51736 0.103397C8.59916 0.0919264 8.68109 0.081407 8.76314 0.0718389C8.8452 0.0622707 8.92734 0.0536563 9.00961 0.0459955C9.09184 0.0383347 9.17416 0.0316296 9.25658 0.0258805C9.33899 0.0201315 9.42145 0.0153396 9.50396 0.0115051C9.58649 0.00767056 9.66904 0.00479444 9.75163 0.00287666C9.8342 0.000958887 9.9168 0 9.99941 0C10.082 0 10.1646 0.000958886 10.2472 0.00287666C10.3298 0.00479444 10.4123 0.00767056 10.4949 0.0115051C10.5774 0.0153396 10.6598 0.0201315 10.7423 0.0258805C10.8247 0.0316296 10.907 0.0383347 10.9892 0.0459955C11.0715 0.0536563 11.1536 0.0622707 11.2357 0.0718389C11.3177 0.081407 11.3997 0.0919264 11.4815 0.103397C11.5633 0.114867 11.6449 0.127286 11.7265 0.140652C11.808 0.154019 11.8893 0.16833 11.9705 0.183585C12.0517 0.19884 12.1327 0.215037 12.2135 0.232174C12.2943 0.249309 12.3749 0.267381 12.4553 0.286389C12.5357 0.305396 12.6159 0.325334 12.6957 0.346203C12.7757 0.367073 12.8554 0.388865 12.9349 0.411584C13.0142 0.434303 13.0934 0.45794 13.1722 0.482498C13.2511 0.507052 13.3297 0.532521 13.408 0.558902C13.4862 0.585284 13.5642 0.61257 13.6419 0.640761C13.7195 0.668954 13.7969 0.698041 13.8739 0.728028C13.9462 0.756941 14.0184 0.786701 14.0902 0.817306C14.162 0.847912 14.2334 0.879351 14.3045 0.911629C14.3755 0.943906 14.4461 0.97701 14.5165 1.01094C14.5867 1.04487 14.6566 1.07962 14.726 1.11519C14.7955 1.15075 14.8645 1.18713 14.9331 1.22431C15.0017 1.2615 15.0699 1.29948 15.1376 1.33826C15.2054 1.37704 15.2726 1.4166 15.3394 1.45696C15.4062 1.49731 15.4725 1.53844 15.5384 1.58035C15.6041 1.62225 15.6695 1.66492 15.7344 1.70836C15.7991 1.7518 15.8635 1.79599 15.9272 1.84093C15.991 1.88587 16.0542 1.93155 16.117 1.97797C16.1797 2.0244 16.2419 2.07156 16.3035 2.11944C16.3651 2.1673 16.4262 2.2159 16.4867 2.26521C16.5471 2.31452 16.6071 2.36454 16.6664 2.41524C16.7257 2.46596 16.7844 2.51735 16.8425 2.56944C16.9006 2.62152 16.9581 2.67427 17.015 2.72771C17.0715 2.77996 17.1274 2.83291 17.1825 2.88656C17.2377 2.94021 17.2922 2.99454 17.3461 3.04954C17.3999 3.10453 17.4531 3.1602 17.5055 3.2165C17.558 3.27284 17.6097 3.3298 17.6609 3.3874C17.7119 3.445 17.7621 3.50324 17.8117 3.56209C17.8614 3.62094 17.9102 3.68041 17.9584 3.74046C18.0065 3.80052 18.0539 3.86119 18.1005 3.92244C18.1471 3.98368 18.193 4.04549 18.238 4.10787C18.2831 4.17026 18.3274 4.23319 18.371 4.29666C18.4145 4.36016 18.4572 4.42416 18.4991 4.48871C18.541 4.55326 18.5821 4.6183 18.6225 4.68386C18.6627 4.74944 18.7022 4.81549 18.741 4.88204C18.7796 4.94858 18.8175 5.01559 18.8545 5.08306C18.8915 5.15055 18.9276 5.2185 18.963 5.28687C18.9984 5.35525 19.0327 5.42406 19.0664 5.4933Z" fill-rule="evenodd"  fill="url(#linear_fill_625_4011)" ></path><path d="M10.0033 14.6634C10.0033 14.6634 14.3366 11.8314 14.3366 8.55734C14.3366 6.22269 12.3965 4.33008 10.0033 4.33008C7.61002 4.33008 5.66992 6.22269 5.66992 8.55734C5.66992 11.8314 10.0033 14.6634 10.0033 14.6634Z" stroke="rgba(255, 255, 255, 1)" stroke-width="1" stroke-linejoin="round"  ></path><path d="M9.99675 10.3333C10.9172 10.3333 11.6634 9.58713 11.6634 8.66667C11.6634 7.7462 10.9172 7 9.99675 7C9.07628 7 8.33008 7.7462 8.33008 8.66667C8.33008 9.58713 9.07628 10.3333 9.99675 10.3333Z" stroke="rgba(255, 255, 255, 1)" stroke-width="1" stroke-linejoin="round"  ></path><defs><linearGradient id="linear_fill_625_4011" x1="11.926025390625" y1="21.9580078125" x2="3.9169921875" y2="-1.15966796875" gradientUnits="userSpaceOnUse"><stop offset="0" stop-color="#2563EB"  /><stop offset="1" stop-color="#61A3FF"  /></linearGradient></defs></svg> -->
<svg xmlns="http://www.w3.org/2000/svg" xmlns:xlink="http://www.w3.org/1999/xlink" width="20" height="20" viewBox="0 0 20 20" fill="none"><path d="M19.0664 5.4933C19.1 5.56254 19.1327 5.63219 19.1646 5.70225C19.1971 5.77386 19.2286 5.84591 19.2592 5.91838C19.2897 5.99086 19.3194 6.06371 19.348 6.13697C19.3766 6.21021 19.4044 6.28382 19.431 6.35784C19.4576 6.43181 19.4834 6.50615 19.508 6.58082C19.5329 6.65549 19.5565 6.73049 19.5791 6.80578C19.6017 6.8811 19.6235 6.95668 19.6441 7.03256C19.6649 7.10844 19.6846 7.18459 19.7031 7.261C19.7219 7.3374 19.7395 7.41404 19.7561 7.49091C19.7726 7.56779 19.7882 7.64486 19.803 7.72215C19.8176 7.79944 19.8311 7.87691 19.8436 7.95458C19.8561 8.03221 19.8676 8.11003 19.878 8.18796C19.8882 8.26591 19.8976 8.344 19.9061 8.42221C19.9145 8.50041 19.9217 8.57871 19.9281 8.65711C19.9344 8.73551 19.9396 8.81399 19.9437 8.89252C19.9479 8.97105 19.951 9.04965 19.9531 9.12826C19.9552 9.20687 19.9562 9.28553 19.9562 9.36417C19.9562 9.44284 19.9552 9.52146 19.9531 9.60007C19.951 9.67869 19.9479 9.75729 19.9437 9.83583C19.9396 9.91435 19.9344 9.99284 19.9281 10.0712C19.9217 10.1496 19.9145 10.2279 19.9061 10.3061C19.8976 10.3843 19.8882 10.4624 19.878 10.5404C19.8676 10.6183 19.8561 10.6961 19.8436 10.7738C19.8311 10.8514 19.8176 10.9289 19.803 11.0062C19.7882 11.0835 19.7726 11.1606 19.7561 11.2374C19.7395 11.3143 19.7219 11.3909 19.7031 11.4673C19.6846 11.5437 19.6649 11.6199 19.6441 11.6958C19.6235 11.7717 19.6017 11.8472 19.5791 11.9226C19.5565 11.9979 19.5329 12.0729 19.508 12.1475C19.4834 12.2222 19.4576 12.2965 19.431 12.3705C19.4044 12.4445 19.3766 12.5181 19.348 12.5914C19.3194 12.6646 19.2897 12.7375 19.2592 12.81C19.2286 12.8824 19.1971 12.9545 19.1646 13.0261C19.1336 13.0953 19.1017 13.164 19.069 13.2324C19.0362 13.3008 19.0027 13.3687 18.9683 13.4364C18.934 13.5039 18.8987 13.571 18.8627 13.6378C18.8267 13.7045 18.7899 13.7708 18.7522 13.8365C18.7146 13.9024 18.6762 13.9678 18.637 14.0325C18.5979 14.0975 18.5579 14.1619 18.517 14.2257C18.4762 14.2896 18.4346 14.353 18.3924 14.4159C18.35 14.4789 18.3069 14.5413 18.2631 14.603C18.2192 14.6649 18.1746 14.7261 18.1292 14.7869C18.084 14.8478 18.0379 14.9079 17.9911 14.9675C17.9442 15.0271 17.8967 15.0863 17.8485 15.1447C17.8002 15.2031 17.7512 15.261 17.7016 15.3184C17.652 15.3756 17.6016 15.4323 17.5506 15.4884C17.4996 15.5444 17.4479 15.5999 17.3955 15.6546C17.3431 15.7094 17.2901 15.7636 17.2364 15.8171C17.1826 15.8706 17.1282 15.9235 17.0734 15.9756C17.0159 16.0292 16.9577 16.0822 16.899 16.1345C16.8402 16.1868 16.7809 16.2384 16.721 16.2892C16.661 16.3401 16.6004 16.3903 16.5392 16.4398C16.4781 16.4893 16.4165 16.5379 16.3541 16.5859C16.2919 16.6339 16.229 16.6811 16.1656 16.7276C16.1022 16.7741 16.0382 16.82 15.9737 16.865C15.9094 16.91 15.8444 16.9541 15.7787 16.9976C15.7132 17.0411 15.6472 17.0837 15.5807 17.1257C15.5141 17.1676 15.4471 17.2087 15.3796 17.249C15.3121 17.2894 15.2441 17.3289 15.1757 17.3676C15.1072 17.4064 15.0384 17.4442 14.9691 17.4814C14.8997 17.5185 14.83 17.5548 14.7599 17.5903C14.6896 17.6256 14.619 17.6602 14.548 17.6941C14.477 17.7279 14.4056 17.7609 14.3339 17.7929C14.2621 17.825 14.1899 17.8562 14.1174 17.8867C14.0449 17.9171 13.972 17.9466 13.8989 17.9753C13.8296 18.0024 13.76 18.0286 13.6902 18.0541C13.6204 18.0798 13.5504 18.1045 13.48 18.1286C13.4097 18.1528 13.3391 18.1761 13.2684 18.1987C13.1976 18.2214 13.1265 18.2432 13.0552 18.2644C12.984 18.2855 12.9125 18.3059 12.8409 18.3255C12.7691 18.3453 12.6972 18.3641 12.6251 18.3822C12.5531 18.4004 12.4808 18.4179 12.4084 18.4345C12.3359 18.4511 12.2633 18.467 12.1905 18.4821C12.1178 18.4972 12.0448 18.5116 11.9718 18.5252C11.8987 18.5389 11.8255 18.5516 11.7521 18.5638C11.6788 18.5759 11.6053 18.5871 11.5317 18.5976C11.4581 18.6082 11.3845 18.618 11.3107 18.627C11.2369 18.636 11.163 18.6443 11.0891 18.6518C11.0151 18.6593 10.9411 18.6659 10.867 18.6719C10.7929 18.6777 10.7187 18.6829 10.6445 18.6873C10.5703 18.6916 10.4961 18.6952 10.4218 18.6981C10.3475 18.7009 10.2732 18.703 10.1989 18.7043C10.1246 18.7055 10.0503 18.706 9.97591 18.7057C9.90158 18.7055 9.82726 18.7045 9.75296 18.7026C9.67864 18.7009 9.60435 18.6982 9.5301 18.6949C9.45584 18.6915 9.38164 18.6874 9.30746 18.6824C9.23328 18.6775 9.15918 18.6717 9.08514 18.6654C9.01108 18.6589 8.93711 18.6516 8.8632 18.6436C8.7893 18.6356 8.71549 18.6269 8.64178 18.6173C8.56806 18.6077 8.49445 18.5974 8.42095 18.5864C8.34744 18.5753 8.27406 18.5634 8.20083 18.5507C8.12756 18.5381 8.05444 18.5247 7.98146 18.5106C7.9085 18.4965 7.83566 18.4816 7.763 18.466C7.69033 18.4504 7.61783 18.4339 7.54553 18.4167C7.47319 18.3996 7.40105 18.3816 7.32913 18.363C7.25716 18.3443 7.18541 18.3249 7.11389 18.3047C7.04233 18.2845 6.971 18.2636 6.8999 18.2419L4.00035 19.9084C3.98706 19.9159 3.97358 19.9229 3.95984 19.9295C3.94611 19.9361 3.93219 19.9424 3.91806 19.948C3.90393 19.9538 3.88963 19.959 3.87515 19.9639C3.86069 19.9688 3.84608 19.973 3.83133 19.977C3.81658 19.9806 3.80171 19.9841 3.78676 19.9871C3.77178 19.99 3.75674 19.9924 3.74163 19.9944C3.72649 19.9963 3.71131 19.9976 3.69611 19.9986C3.68088 19.9996 3.66564 20 3.65041 20C3.6397 20 3.62904 19.9996 3.61838 19.999C3.6077 19.9984 3.59703 19.9979 3.5864 19.9969C3.57578 19.9959 3.56518 19.9945 3.55459 19.993C3.544 19.9916 3.53348 19.9899 3.52296 19.9879C3.51246 19.9858 3.50201 19.9836 3.49163 19.9813C3.48121 19.9788 3.47088 19.976 3.4606 19.973C3.45031 19.9701 3.4401 19.967 3.42998 19.9636C3.41983 19.9604 3.40976 19.9566 3.3998 19.9529C3.38983 19.949 3.37994 19.9449 3.37015 19.9406C3.36038 19.9365 3.35069 19.932 3.34109 19.9271C3.33151 19.9225 3.32203 19.9176 3.31268 19.9125C3.3033 19.9073 3.29406 19.902 3.28494 19.8963C3.27581 19.8909 3.26684 19.8851 3.25796 19.8791C3.2491 19.873 3.24039 19.867 3.23181 19.8605C3.22323 19.8541 3.2148 19.8476 3.20653 19.8409C3.19824 19.834 3.1901 19.8271 3.18213 19.8201C3.17416 19.8129 3.16635 19.8056 3.15873 19.7983C3.15108 19.7906 3.14361 19.783 3.13633 19.7752C3.12903 19.7674 3.12189 19.7594 3.11498 19.7514C3.10803 19.7434 3.10129 19.735 3.09475 19.7265C3.08819 19.7181 3.08181 19.7096 3.07564 19.7008C3.06948 19.692 3.0635 19.6833 3.05774 19.6743C3.05195 19.6652 3.0464 19.656 3.04105 19.6469C3.03569 19.6377 3.03053 19.6284 3.0256 19.6187C3.02066 19.6091 3.01595 19.5996 3.01146 19.59C3.00695 19.5805 3.00268 19.5707 2.99863 19.5607C2.99458 19.5508 2.99073 19.5409 2.98713 19.5308C2.98351 19.5206 2.98014 19.5106 2.97701 19.5004C2.97385 19.4901 2.97094 19.4799 2.96826 19.4695C2.96556 19.4591 2.96313 19.4488 2.96094 19.4384C2.95871 19.4279 2.95674 19.4174 2.955 19.4069C2.95326 19.3962 2.95178 19.3857 2.95053 19.3751L2.50059 15.534C2.45144 15.4827 2.40291 15.4307 2.35501 15.3782C2.30709 15.3258 2.2598 15.2727 2.21316 15.2191C2.1665 15.1655 2.12049 15.1114 2.07511 15.0566C2.02973 15.0019 1.98501 14.9466 1.94095 14.8909C1.89688 14.8351 1.85348 14.7789 1.81074 14.7221C1.76801 14.6652 1.72595 14.608 1.68458 14.5503C1.6432 14.4924 1.60251 14.4341 1.56251 14.3754C1.52251 14.3166 1.48321 14.2574 1.44461 14.1978C1.40603 14.1381 1.36814 14.0779 1.33096 14.0174C1.29379 13.9567 1.25734 13.8958 1.22161 13.8344C1.18588 13.7729 1.15088 13.711 1.11662 13.6488C1.08236 13.5865 1.04883 13.5239 1.01605 13.4607C0.983269 13.3978 0.95124 13.3343 0.91996 13.2705C0.888682 13.2066 0.85816 13.1425 0.8284 13.0779C0.79864 13.0134 0.76965 12.9485 0.741425 12.8833C0.713202 12.818 0.685754 12.7525 0.659082 12.6866C0.63241 12.6208 0.606522 12.5545 0.581417 12.488C0.556313 12.4215 0.531998 12.3547 0.508473 12.2877C0.484948 12.2206 0.46222 12.1533 0.440292 12.0857C0.418362 12.0181 0.397234 11.9502 0.37691 11.8821C0.356585 11.814 0.33707 11.7457 0.318365 11.6771C0.29966 11.6085 0.281768 11.5398 0.264689 11.4707C0.247613 11.4017 0.231354 11.3326 0.215914 11.2632C0.200473 11.1938 0.185857 11.1243 0.172064 11.0545C0.15827 10.9848 0.145304 10.9149 0.133164 10.8449C0.121025 10.7749 0.109716 10.7047 0.0992379 10.6344C0.0887596 10.5641 0.0791148 10.4937 0.0703036 10.4232C0.0614919 10.3527 0.0535164 10.2821 0.0463769 10.2113C0.0392371 10.1406 0.0329353 10.0698 0.0274717 9.99896C0.0220078 9.92809 0.0173834 9.85716 0.0135986 9.78621C0.00981361 9.71524 0.00686916 9.64421 0.0047652 9.57319C0.00266124 9.50215 0.00139836 9.43108 0.000976562 9.36C0.00174477 9.28125 0.00356715 9.20253 0.00644369 9.12381C0.00932025 9.0451 0.0132499 8.96645 0.0182328 8.88784C0.0232157 8.80924 0.0292498 8.73073 0.0363353 8.65226C0.0434209 8.57382 0.0515553 8.49549 0.0607384 8.41726C0.0699217 8.33904 0.0801504 8.26096 0.0914246 8.18301C0.102699 8.10506 0.115014 8.02729 0.128372 7.94965C0.141729 7.87204 0.156123 7.79461 0.171553 7.71739C0.186984 7.64014 0.203445 7.56313 0.220939 7.48633C0.238432 7.40954 0.256949 7.33299 0.276492 7.2567C0.296035 7.18039 0.316595 7.10437 0.338174 7.02864C0.359752 6.95288 0.38234 6.87743 0.405939 6.80229C0.429539 6.72715 0.454139 6.65233 0.47974 6.57785C0.505344 6.50338 0.531938 6.42924 0.559525 6.35546C0.587113 6.2817 0.615682 6.2083 0.645234 6.13531C0.674787 6.0623 0.70531 5.98971 0.736809 5.9175C0.768305 5.84531 0.800762 5.77355 0.834179 5.70225C0.865514 5.6324 0.897699 5.56295 0.93074 5.4939C0.963782 5.42486 0.997664 5.35621 1.03239 5.28799C1.06712 5.21976 1.10268 5.15199 1.13908 5.08465C1.17547 5.0173 1.21269 4.95041 1.25073 4.88399C1.28876 4.81756 1.32761 4.7516 1.36728 4.68614C1.40694 4.62065 1.4474 4.55566 1.48866 4.49119C1.52991 4.42671 1.57196 4.36275 1.61479 4.29931C1.65763 4.23586 1.70123 4.17295 1.74561 4.11059C1.78999 4.0482 1.83513 3.98639 1.88103 3.92511C1.92691 3.86385 1.97355 3.80316 2.02095 3.74305C2.06834 3.68292 2.11646 3.6234 2.16533 3.56447C2.21418 3.50555 2.26375 3.44721 2.31404 3.38949C2.36431 3.33177 2.41531 3.27469 2.46701 3.21823C2.51869 3.16176 2.57108 3.10596 2.62414 3.05078C2.6772 2.9956 2.73094 2.94109 2.78535 2.88725C2.83975 2.8334 2.8948 2.78021 2.95053 2.72771C3.00801 2.67406 3.06611 2.62111 3.12486 2.56882C3.18359 2.51654 3.24293 2.46496 3.30289 2.41409C3.36285 2.3632 3.4234 2.31305 3.48453 2.2636C3.54566 2.21416 3.60738 2.16543 3.66966 2.11744C3.73195 2.06945 3.7948 2.02219 3.8582 1.97569C3.9216 1.92916 3.98555 1.88341 4.05004 1.83841C4.11451 1.79341 4.17951 1.74917 4.24504 1.7057C4.31056 1.66224 4.3766 1.61955 4.44314 1.57764C4.50966 1.53572 4.57668 1.4946 4.64418 1.45428C4.71168 1.41395 4.77966 1.37443 4.8481 1.33569C4.91653 1.29696 4.98541 1.25905 5.05475 1.22196C5.12408 1.18485 5.19383 1.14858 5.26403 1.11312C5.3342 1.07767 5.40479 1.04305 5.4758 1.00926C5.5468 0.975469 5.61819 0.942521 5.68998 0.910416C5.76175 0.87831 5.8339 0.847059 5.90643 0.816656C5.97893 0.786254 6.0518 0.756711 6.12501 0.728028C6.20199 0.698041 6.2793 0.668954 6.35695 0.640761C6.43459 0.61257 6.51256 0.585284 6.59084 0.558904C6.66913 0.532521 6.7477 0.507052 6.82658 0.482498C6.90545 0.45794 6.98459 0.434303 7.06403 0.411584C7.14344 0.388865 7.2231 0.367073 7.30305 0.346203C7.38296 0.325334 7.46313 0.305396 7.54351 0.286389C7.6239 0.267381 7.70449 0.249309 7.78531 0.232174C7.86614 0.215037 7.94713 0.19884 8.02833 0.183585C8.10949 0.16833 8.19086 0.154019 8.27239 0.140652C8.35389 0.127286 8.43555 0.114867 8.51736 0.103397C8.59916 0.0919264 8.68109 0.081407 8.76314 0.0718389C8.8452 0.0622707 8.92734 0.0536563 9.00961 0.0459955C9.09184 0.0383347 9.17416 0.0316296 9.25658 0.0258805C9.33899 0.0201315 9.42145 0.0153396 9.50396 0.0115051C9.58649 0.00767056 9.66904 0.00479444 9.75163 0.00287666C9.8342 0.000958887 9.9168 0 9.99941 0C10.082 0 10.1646 0.000958886 10.2472 0.00287666C10.3298 0.00479444 10.4123 0.00767056 10.4949 0.0115051C10.5774 0.0153396 10.6598 0.0201315 10.7423 0.0258805C10.8247 0.0316296 10.907 0.0383347 10.9892 0.0459955C11.0715 0.0536563 11.1536 0.0622707 11.2357 0.0718389C11.3177 0.081407 11.3997 0.0919264 11.4815 0.103397C11.5633 0.114867 11.6449 0.127286 11.7265 0.140652C11.808 0.154019 11.8893 0.16833 11.9705 0.183585C12.0517 0.19884 12.1327 0.215037 12.2135 0.232174C12.2943 0.249309 12.3749 0.267381 12.4553 0.286389C12.5357 0.305396 12.6159 0.325334 12.6957 0.346203C12.7757 0.367073 12.8554 0.388865 12.9349 0.411584C13.0142 0.434303 13.0934 0.45794 13.1722 0.482498C13.2511 0.507052 13.3297 0.532521 13.408 0.558902C13.4862 0.585284 13.5642 0.61257 13.6419 0.640761C13.7195 0.668954 13.7969 0.698041 13.8739 0.728028C13.9462 0.756941 14.0184 0.786701 14.0902 0.817306C14.162 0.847912 14.2334 0.879351 14.3045 0.911629C14.3755 0.943906 14.4461 0.97701 14.5165 1.01094C14.5867 1.04487 14.6566 1.07962 14.726 1.11519C14.7955 1.15075 14.8645 1.18713 14.9331 1.22431C15.0017 1.2615 15.0699 1.29948 15.1376 1.33826C15.2054 1.37704 15.2726 1.4166 15.3394 1.45696C15.4062 1.49731 15.4725 1.53844 15.5384 1.58035C15.6041 1.62225 15.6695 1.66492 15.7344 1.70836C15.7991 1.7518 15.8635 1.79599 15.9272 1.84093C15.991 1.88587 16.0542 1.93155 16.117 1.97797C16.1797 2.0244 16.2419 2.07156 16.3035 2.11944C16.3651 2.1673 16.4262 2.2159 16.4867 2.26521C16.5471 2.31452 16.6071 2.36454 16.6664 2.41524C16.7257 2.46596 16.7844 2.51735 16.8425 2.56944C16.9006 2.62152 16.9581 2.67427 17.015 2.72771C17.0715 2.77996 17.1274 2.83291 17.1825 2.88656C17.2377 2.94021 17.2922 2.99454 17.3461 3.04954C17.3999 3.10453 17.4531 3.1602 17.5055 3.2165C17.558 3.27284 17.6097 3.3298 17.6609 3.3874C17.7119 3.445 17.7621 3.50324 17.8117 3.56209C17.8614 3.62094 17.9102 3.68041 17.9584 3.74046C18.0065 3.80052 18.0539 3.86119 18.1005 3.92244C18.1471 3.98368 18.193 4.04549 18.238 4.10787C18.2831 4.17026 18.3274 4.23319 18.371 4.29666C18.4145 4.36016 18.4572 4.42416 18.4991 4.48871C18.541 4.55326 18.5821 4.6183 18.6225 4.68386C18.6627 4.74944 18.7022 4.81549 18.741 4.88204C18.7796 4.94858 18.8175 5.01559 18.8545 5.08306C18.8915 5.15055 18.9276 5.2185 18.963 5.28687C18.9984 5.35525 19.0327 5.42406 19.0664 5.4933Z" fill-rule="evenodd"  fill="currentColor" ></path><path d="M10.0033 14.6634C10.0033 14.6634 14.3366 11.8314 14.3366 8.55734C14.3366 6.22269 12.3965 4.33008 10.0033 4.33008C7.61002 4.33008 5.66992 6.22269 5.66992 8.55734C5.66992 11.8314 10.0033 14.6634 10.0033 14.6634Z" stroke="rgba(255, 255, 255, 1)" stroke-width="1" stroke-linejoin="round"  ></path><path d="M9.99675 10.3333C10.9172 10.3333 11.6634 9.58713 11.6634 8.66667C11.6634 7.7462 10.9172 7 9.99675 7C9.07628 7 8.33008 7.7462 8.33008 8.66667C8.33008 9.58713 9.07628 10.3333 9.99675 10.3333Z" stroke="rgba(255, 255, 255, 1)" stroke-width="1" stroke-linejoin="round"  ></path><defs><linearGradient id="linear_fill_625_4011" x1="11.926025390625" y1="21.9580078125" x2="3.9169921875" y2="-1.15966796875" gradientUnits="userSpaceOnUse"><stop offset="0" stop-color="#2563EB"  /><stop offset="1" stop-color="#61A3FF"  /></linearGradient></defs></svg>