<svg xmlns="http://www.w3.org/2000/svg" xmlns:xlink="http://www.w3.org/1999/xlink" width="60" height="60" viewBox="0 0 60 60" fill="none"><path   fill="currentColor"  d="M30 2.50098C36.2132 2.50098 41.25 7.53777 41.25 13.751L41.25 30.001C41.25 36.2142 36.2132 41.251 30 41.251C23.7868 41.251 18.75 36.2142 18.75 30.001L18.75 13.751C18.75 7.53777 23.7868 2.50098 30 2.50098ZM30 7.50098C26.5482 7.50098 23.75 10.2992 23.75 13.751L23.75 30.001C23.75 33.4528 26.5482 36.251 30 36.251C33.4518 36.251 36.25 33.4528 36.25 30.001L36.25 13.751C36.25 10.2992 33.4518 7.50098 30 7.50098Z"></path><path    stroke="rgba(37, 99, 235, 1)" stroke-width="5" stroke-linejoin="round" stroke-linecap="round"  d="M11.25 28.749C11.25 39.1044 19.6446 47.499 30 47.499C40.3554 47.499 48.75 39.1044 48.75 28.749"></path><path    stroke="rgba(37, 99, 235, 1)" stroke-width="5" stroke-linejoin="round" stroke-linecap="round"  d="M30 47.499L30 55.3115"></path></svg>