<svg xmlns="http://www.w3.org/2000/svg" xmlns:xlink="http://www.w3.org/1999/xlink" width="24" height="24" viewBox="0 0 24 24" fill="none">
<path     fill="#30C767"  d="M0 12Q0 11.7054 0.0144545 11.4112Q0.028909 11.117 0.0577833 10.8238Q0.0866575 10.5306 0.129882 10.2392Q0.173106 9.94784 0.230577 9.65891Q0.288047 9.36999 0.359625 9.08424Q0.431203 8.79848 0.516716 8.51658Q0.602229 8.23468 0.701471 7.95732Q0.800713 7.67996 0.913446 7.4078Q1.02618 7.13564 1.15213 6.86934Q1.27808 6.60304 1.41694 6.34324Q1.55581 6.08344 1.70726 5.83077Q1.8587 5.57809 2.02236 5.33316Q2.18603 5.08822 2.36151 4.85161Q2.53699 4.615 2.72387 4.38728Q2.91076 4.15956 3.10859 3.94129Q3.30642 3.72302 3.51472 3.51472Q3.72302 3.30642 3.94129 3.10859Q4.15956 2.91076 4.38728 2.72387Q4.615 2.53699 4.85161 2.36151Q5.08822 2.18603 5.33316 2.02236Q5.57809 1.8587 5.83077 1.70726Q6.08344 1.55581 6.34324 1.41694Q6.60304 1.27808 6.86934 1.15213Q7.13564 1.02618 7.4078 0.913446Q7.67996 0.800713 7.95732 0.701471Q8.23468 0.602229 8.51658 0.516716Q8.79848 0.431203 9.08424 0.359625Q9.36999 0.288047 9.65892 0.230577Q9.94784 0.173106 10.2392 0.129882Q10.5306 0.0866575 10.8238 0.0577833Q11.117 0.028909 11.4112 0.0144545Q11.7054 0 12 0Q12.2946 0 12.5888 0.0144545Q12.883 0.028909 13.1762 0.0577833Q13.4694 0.0866575 13.7608 0.129882Q14.0522 0.173106 14.3411 0.230577Q14.63 0.288047 14.9158 0.359625Q15.2015 0.431203 15.4834 0.516716Q15.7653 0.602229 16.0427 0.701471Q16.32 0.800713 16.5922 0.913446Q16.8644 1.02618 17.1307 1.15213Q17.397 1.27808 17.6568 1.41694Q17.9166 1.55581 18.1692 1.70726Q18.4219 1.8587 18.6668 2.02236Q18.9118 2.18603 19.1484 2.36151Q19.385 2.53699 19.6127 2.72387Q19.8404 2.91076 20.0587 3.10859Q20.277 3.30642 20.4853 3.51472Q20.6936 3.72302 20.8914 3.94129Q21.0892 4.15956 21.2761 4.38728Q21.463 4.615 21.6385 4.85161Q21.814 5.08822 21.9776 5.33316Q22.1413 5.57809 22.2927 5.83077Q22.4442 6.08344 22.5831 6.34324Q22.7219 6.60304 22.8479 6.86934Q22.9738 7.13564 23.0866 7.4078Q23.1993 7.67996 23.2985 7.95732Q23.3978 8.23468 23.4833 8.51658Q23.5688 8.79848 23.6404 9.08424Q23.712 9.36999 23.7694 9.65892Q23.8269 9.94784 23.8701 10.2392Q23.9133 10.5306 23.9422 10.8238Q23.9711 11.117 23.9855 11.4112Q24 11.7054 24 12Q24 12.2946 23.9855 12.5888Q23.9711 12.883 23.9422 13.1762Q23.9133 13.4694 23.8701 13.7608Q23.8269 14.0522 23.7694 14.3411Q23.712 14.63 23.6404 14.9158Q23.5688 15.2015 23.4833 15.4834Q23.3978 15.7653 23.2985 16.0427Q23.1993 16.32 23.0866 16.5922Q22.9738 16.8644 22.8479 17.1307Q22.7219 17.397 22.5831 17.6568Q22.4442 17.9166 22.2927 18.1692Q22.1413 18.4219 21.9776 18.6668Q21.814 18.9118 21.6385 19.1484Q21.463 19.385 21.2761 19.6127Q21.0892 19.8404 20.8914 20.0587Q20.6936 20.277 20.4853 20.4853Q20.277 20.6936 20.0587 20.8914Q19.8404 21.0892 19.6127 21.2761Q19.385 21.463 19.1484 21.6385Q18.9118 21.814 18.6668 21.9776Q18.4219 22.1413 18.1692 22.2927Q17.9166 22.4442 17.6568 22.5831Q17.397 22.7219 17.1307 22.8479Q16.8644 22.9738 16.5922 23.0866Q16.32 23.1993 16.0427 23.2985Q15.7653 23.3978 15.4834 23.4833Q15.2015 23.5688 14.9158 23.6404Q14.63 23.712 14.3411 23.7694Q14.0522 23.8269 13.7608 23.8701Q13.4694 23.9133 13.1762 23.9422Q12.883 23.9711 12.5888 23.9855Q12.2946 24 12 24Q11.7054 24 11.4112 23.9855Q11.117 23.9711 10.8238 23.9422Q10.5306 23.9133 10.2392 23.8701Q9.94784 23.8269 9.65891 23.7694Q9.36999 23.712 9.08424 23.6404Q8.79848 23.5688 8.51658 23.4833Q8.23468 23.3978 7.95732 23.2985Q7.67996 23.1993 7.4078 23.0866Q7.13564 22.9738 6.86934 22.8479Q6.60304 22.7219 6.34324 22.5831Q6.08344 22.4442 5.83077 22.2927Q5.57809 22.1413 5.33316 21.9776Q5.08822 21.814 4.85161 21.6385Q4.615 21.463 4.38728 21.2761Q4.15956 21.0892 3.94129 20.8914Q3.72302 20.6936 3.51472 20.4853Q3.30642 20.277 3.10859 20.0587Q2.91076 19.8404 2.72387 19.6127Q2.53699 19.385 2.36151 19.1484Q2.18603 18.9118 2.02236 18.6668Q1.8587 18.4219 1.70726 18.1692Q1.55581 17.9166 1.41694 17.6568Q1.27808 17.397 1.15213 17.1307Q1.02618 16.8644 0.913446 16.5922Q0.800713 16.32 0.701471 16.0427Q0.602229 15.7653 0.516716 15.4834Q0.431203 15.2015 0.359625 14.9158Q0.288047 14.63 0.230577 14.3411Q0.173106 14.0522 0.129882 13.7608Q0.0866575 13.4694 0.0577833 13.1762Q0.028909 12.883 0.0144545 12.5888Q0 12.2946 0 12Z">
</path>
<path d="M8 5.1C7.9853 5.10008 7.97059 5.10051 7.95591 5.10131C7.94122 5.1021 7.92656 5.10325 7.91194 5.10476C7.8973 5.10627 7.88272 5.10814 7.86817 5.11036C7.85364 5.11258 7.83917 5.11515 7.82475 5.11808C7.81033 5.12101 7.796 5.12428 7.78175 5.12791C7.76748 5.13153 7.75333 5.1355 7.73928 5.13982C7.72522 5.14414 7.71127 5.14879 7.69744 5.15379C7.68361 5.15878 7.66991 5.16412 7.65633 5.16978C7.64275 5.17544 7.62933 5.18144 7.61605 5.18775C7.60277 5.19408 7.58964 5.20071 7.57669 5.20767C7.56373 5.21463 7.55095 5.2219 7.53834 5.22948C7.52574 5.23707 7.51333 5.24495 7.50111 5.25314C7.48889 5.26133 7.47688 5.26981 7.46508 5.27858C7.45328 5.28735 7.44169 5.29641 7.43033 5.30575C7.41896 5.31509 7.40783 5.3247 7.39694 5.33458C7.38604 5.34446 7.3754 5.3546 7.365 5.365C7.35459 5.3754 7.34445 5.38604 7.33458 5.39694C7.32469 5.40783 7.31508 5.41896 7.30575 5.43033C7.29641 5.44169 7.28735 5.45327 7.27858 5.46508C7.26981 5.47688 7.26133 5.48889 7.25314 5.50111C7.24495 5.51333 7.23707 5.52574 7.22948 5.53834C7.2219 5.55095 7.21463 5.56373 7.20767 5.57669C7.20071 5.58964 7.19407 5.60277 7.18775 5.61605C7.18144 5.62933 7.17545 5.64275 7.16978 5.65633C7.16411 5.66991 7.15878 5.68361 7.15378 5.69744C7.14879 5.71127 7.14414 5.72522 7.13983 5.73928C7.1355 5.75333 7.13153 5.76748 7.12791 5.78175C7.12428 5.796 7.121 5.81033 7.11808 5.82475C7.11515 5.83917 7.11258 5.85364 7.11036 5.86817C7.10814 5.88272 7.10628 5.8973 7.10477 5.91194C7.10325 5.92656 7.1021 5.94122 7.10131 5.95591C7.10051 5.97059 7.10007 5.9853 7.1 6L7.1 18C7.10007 18.0147 7.10051 18.0294 7.10131 18.0441C7.1021 18.0588 7.10325 18.0734 7.10477 18.0881C7.10628 18.1027 7.10814 18.1173 7.11036 18.1318C7.11258 18.1464 7.11515 18.1608 7.11808 18.1753C7.121 18.1897 7.12428 18.204 7.12791 18.2183C7.13153 18.2325 7.1355 18.2467 7.13983 18.2607C7.14414 18.2748 7.14879 18.2887 7.15378 18.3026C7.15878 18.3164 7.16411 18.3301 7.16978 18.3437C7.17545 18.3573 7.18144 18.3707 7.18775 18.384C7.19407 18.3972 7.20071 18.4104 7.20767 18.4233C7.21463 18.4363 7.2219 18.449 7.22948 18.4617C7.23707 18.4743 7.24495 18.4867 7.25314 18.4989C7.26133 18.5111 7.26981 18.5231 7.27858 18.5349C7.28735 18.5467 7.29641 18.5583 7.30575 18.5697C7.31508 18.581 7.32469 18.5922 7.33458 18.6031C7.34445 18.614 7.35459 18.6246 7.365 18.635C7.3754 18.6454 7.38604 18.6555 7.39694 18.6654C7.40783 18.6753 7.41896 18.6849 7.43033 18.6943C7.44169 18.7036 7.45328 18.7127 7.46508 18.7214C7.47688 18.7302 7.48889 18.7387 7.50111 18.7469C7.51333 18.755 7.52574 18.7629 7.53834 18.7705C7.55095 18.7781 7.56373 18.7854 7.57669 18.7923C7.58964 18.7993 7.60277 18.8059 7.61605 18.8123C7.62933 18.8186 7.64275 18.8245 7.65633 18.8302C7.66991 18.8359 7.68361 18.8412 7.69744 18.8462C7.71127 18.8512 7.72522 18.8559 7.73928 18.8602C7.75333 18.8645 7.76748 18.8685 7.78175 18.8721C7.796 18.8757 7.81033 18.879 7.82475 18.8819C7.83917 18.8848 7.85364 18.8874 7.86817 18.8896C7.88272 18.8919 7.8973 18.8937 7.91194 18.8952C7.92656 18.8968 7.94122 18.8979 7.95591 18.8987C7.97059 18.8995 7.9853 18.8999 8 18.9L16 18.9C16.0147 18.8999 16.0294 18.8995 16.0441 18.8987C16.0588 18.8979 16.0734 18.8967 16.088 18.8952C16.1027 18.8937 16.1173 18.8918 16.1318 18.8896C16.1463 18.8874 16.1608 18.8848 16.1752 18.8819C16.1896 18.8789 16.204 18.8756 16.2182 18.872C16.2325 18.8684 16.2466 18.8644 16.2607 18.8601C16.2747 18.8558 16.2887 18.8511 16.3025 18.8461C16.3163 18.8411 16.33 18.8358 16.3436 18.8301C16.3572 18.8244 16.3706 18.8185 16.3839 18.8121C16.3972 18.8058 16.4103 18.7992 16.4232 18.7922C16.4362 18.7852 16.449 18.778 16.4616 18.7704C16.4742 18.7628 16.4866 18.7549 16.4988 18.7467C16.511 18.7385 16.523 18.7301 16.5348 18.7213C16.5466 18.7125 16.5582 18.7035 16.5696 18.6941C16.5809 18.6848 16.5921 18.6752 16.603 18.6653C16.6138 18.6554 16.6245 18.6453 16.6349 18.6349C16.6453 18.6245 16.6554 18.6138 16.6653 18.603C16.6752 18.5921 16.6848 18.5809 16.6941 18.5696C16.7035 18.5582 16.7125 18.5466 16.7213 18.5348C16.7301 18.523 16.7385 18.511 16.7467 18.4988C16.7549 18.4866 16.7628 18.4742 16.7704 18.4616C16.778 18.449 16.7852 18.4362 16.7922 18.4232C16.7992 18.4103 16.8058 18.3972 16.8121 18.3839C16.8185 18.3706 16.8244 18.3572 16.8301 18.3436C16.8358 18.33 16.8411 18.3163 16.8461 18.3025C16.8511 18.2887 16.8558 18.2747 16.8601 18.2607C16.8644 18.2466 16.8684 18.2325 16.872 18.2182C16.8756 18.204 16.8789 18.1896 16.8819 18.1752C16.8848 18.1608 16.8874 18.1463 16.8896 18.1318C16.8918 18.1173 16.8937 18.1027 16.8952 18.088C16.8967 18.0734 16.8979 18.0588 16.8987 18.0441C16.8995 18.0294 16.8999 18.0147 16.9 18L16.9 6C16.8999 5.9853 16.8995 5.97059 16.8987 5.95591C16.8979 5.94122 16.8968 5.92656 16.8952 5.91194C16.8937 5.8973 16.8919 5.88272 16.8896 5.86817C16.8874 5.85364 16.8848 5.83917 16.8819 5.82475C16.879 5.81033 16.8757 5.796 16.8721 5.78175C16.8685 5.76748 16.8645 5.75333 16.8602 5.73928C16.8559 5.72522 16.8512 5.71127 16.8462 5.69744C16.8412 5.68361 16.8359 5.66991 16.8302 5.65633C16.8245 5.64275 16.8186 5.62933 16.8122 5.61605C16.8059 5.60277 16.7993 5.58964 16.7923 5.57669C16.7854 5.56373 16.7781 5.55095 16.7705 5.53834C16.7629 5.52574 16.755 5.51333 16.7469 5.50111C16.7387 5.48889 16.7302 5.47688 16.7214 5.46508C16.7126 5.45327 16.7036 5.44169 16.6943 5.43033C16.6849 5.41896 16.6753 5.40783 16.6654 5.39694C16.6555 5.38604 16.6454 5.3754 16.635 5.365C16.6246 5.3546 16.614 5.34446 16.6031 5.33458C16.5922 5.3247 16.581 5.31509 16.5697 5.30575C16.5583 5.29641 16.5467 5.28735 16.5349 5.27858C16.5231 5.26981 16.5111 5.26133 16.4989 5.25314C16.4867 5.24495 16.4743 5.23707 16.4617 5.22948C16.449 5.2219 16.4363 5.21463 16.4233 5.20767C16.4104 5.20071 16.3972 5.19408 16.384 5.18776C16.3707 5.18144 16.3573 5.17544 16.3437 5.16978C16.3301 5.16412 16.3164 5.15878 16.3026 5.15379C16.2887 5.14879 16.2748 5.14414 16.2607 5.13982C16.2467 5.1355 16.2325 5.13153 16.2183 5.12791C16.204 5.12428 16.1897 5.12101 16.1753 5.11808C16.1608 5.11515 16.1464 5.11258 16.1318 5.11036C16.1173 5.10814 16.1027 5.10627 16.0881 5.10476C16.0734 5.10325 16.0588 5.1021 16.0441 5.10131C16.0294 5.10051 16.0147 5.10008 16 5.1L8 5.1ZM8 4L16 4C16.0327 4 16.0654 4.0008 16.0981 4.00241C16.1308 4.00401 16.1635 4.00642 16.196 4.00963C16.2286 4.01284 16.2611 4.01684 16.2935 4.02165C16.3258 4.02645 16.3581 4.03204 16.3902 4.03843C16.4223 4.04482 16.4542 4.05198 16.486 4.05994C16.5177 4.06789 16.5492 4.07662 16.5806 4.08612C16.6119 4.09562 16.643 4.10589 16.6738 4.11691C16.7046 4.12794 16.7351 4.13972 16.7654 4.15224C16.7956 4.16477 16.8255 4.17803 16.8551 4.19202C16.8847 4.20602 16.9139 4.22073 16.9428 4.23616C16.9717 4.25159 17.0001 4.26772 17.0282 4.28454C17.0563 4.30137 17.0839 4.31888 17.1111 4.33706C17.1384 4.35525 17.1651 4.37409 17.1914 4.39358C17.2177 4.41308 17.2435 4.43322 17.2688 4.45398C17.2941 4.47474 17.3189 4.49612 17.3431 4.5181C17.3674 4.54008 17.3911 4.56264 17.4142 4.58579C17.4374 4.60893 17.4599 4.63263 17.4819 4.65688C17.5039 4.68113 17.5252 4.70591 17.546 4.73121C17.5668 4.75652 17.5869 4.78231 17.6064 4.8086C17.6259 4.83489 17.6447 4.86164 17.6629 4.88886C17.6811 4.91607 17.6986 4.94372 17.7155 4.97179C17.7323 4.99987 17.7484 5.02834 17.7638 5.05721C17.7793 5.08607 17.794 5.1153 17.808 5.14489C17.822 5.17448 17.8352 5.20439 17.8477 5.23463C17.8603 5.26487 17.8721 5.2954 17.8831 5.32622C17.8941 5.35704 17.9044 5.38811 17.9139 5.41943C17.9234 5.45075 17.9321 5.48229 17.9401 5.51404C17.948 5.54579 17.9552 5.57772 17.9616 5.60981C17.968 5.64192 17.9735 5.67416 17.9784 5.70653C17.9832 5.73892 17.9872 5.77139 17.9904 5.80397C17.9936 5.83655 17.996 5.86917 17.9976 5.90186C17.9992 5.93456 18 5.96727 18 6L18 18C18 18.0327 17.9992 18.0654 17.9976 18.0981C17.996 18.1308 17.9936 18.1635 17.9904 18.196C17.9872 18.2286 17.9832 18.2611 17.9784 18.2935C17.9735 18.3258 17.968 18.3581 17.9616 18.3902C17.9552 18.4223 17.948 18.4542 17.9401 18.486C17.9321 18.5177 17.9234 18.5492 17.9139 18.5806C17.9044 18.6119 17.8941 18.643 17.8831 18.6738C17.8721 18.7046 17.8603 18.7351 17.8477 18.7654C17.8352 18.7956 17.822 18.8255 17.808 18.8551C17.794 18.8847 17.7793 18.9139 17.7638 18.9428C17.7484 18.9717 17.7323 19.0001 17.7155 19.0282C17.6986 19.0563 17.6811 19.0839 17.6629 19.1111C17.6447 19.1384 17.6259 19.1651 17.6064 19.1914C17.5869 19.2177 17.5668 19.2435 17.546 19.2688C17.5252 19.2941 17.5039 19.3189 17.4819 19.3431C17.4599 19.3674 17.4374 19.3911 17.4142 19.4142C17.3911 19.4374 17.3674 19.4599 17.3431 19.4819C17.3189 19.5039 17.2941 19.5252 17.2688 19.546C17.2435 19.5668 17.2177 19.5869 17.1914 19.6064C17.1651 19.6259 17.1384 19.6447 17.1111 19.663C17.0839 19.6811 17.0563 19.6986 17.0282 19.7155C17.0001 19.7322 16.9717 19.7484 16.9428 19.7639C16.9139 19.7794 16.8847 19.7941 16.8551 19.808C16.8255 19.8219 16.7956 19.8352 16.7654 19.8478C16.7351 19.8603 16.7046 19.872 16.6738 19.8831C16.643 19.8942 16.6119 19.9044 16.5806 19.9139C16.5492 19.9234 16.5177 19.932 16.486 19.94C16.4542 19.948 16.4223 19.9552 16.3902 19.9616C16.3581 19.968 16.3258 19.9734 16.2935 19.9783C16.2611 19.9831 16.2286 19.9872 16.196 19.9903C16.1635 19.9936 16.1308 19.9959 16.0981 19.9977C16.0654 19.9992 16.0327 20 16 20L8 20C7.96727 20 7.93456 19.9992 7.90186 19.9977C7.86917 19.9959 7.83655 19.9936 7.80397 19.9903C7.77139 19.9872 7.73892 19.9831 7.70653 19.9783C7.67416 19.9734 7.64192 19.968 7.60981 19.9616C7.57772 19.9552 7.5458 19.948 7.51405 19.94C7.48229 19.932 7.45075 19.9234 7.41944 19.9139C7.38811 19.9044 7.35704 19.8942 7.32622 19.8831C7.29541 19.872 7.26488 19.8603 7.23464 19.8478C7.20439 19.8352 7.17447 19.8219 7.14489 19.808C7.1153 19.7941 7.08607 19.7794 7.0572 19.7639C7.02834 19.7484 6.99987 19.7322 6.9718 19.7155C6.94372 19.6986 6.91608 19.6811 6.88886 19.663C6.86164 19.6447 6.83489 19.6259 6.80859 19.6064C6.78231 19.5869 6.75652 19.5668 6.73122 19.546C6.70592 19.5252 6.68114 19.5039 6.65688 19.4819C6.63263 19.4599 6.60893 19.4374 6.58578 19.4142C6.56264 19.3911 6.54007 19.3674 6.51809 19.3431C6.49611 19.3189 6.47475 19.2941 6.45398 19.2688C6.43321 19.2435 6.41308 19.2177 6.39358 19.1914C6.37409 19.1651 6.35525 19.1384 6.33706 19.1111C6.31887 19.0839 6.30137 19.0563 6.28455 19.0282C6.26771 19.0001 6.25158 18.9717 6.23616 18.9428C6.22073 18.9139 6.20602 18.8847 6.19202 18.8551C6.17803 18.8255 6.16477 18.7956 6.15223 18.7654C6.13971 18.7351 6.12794 18.7046 6.11691 18.6738C6.10589 18.643 6.09562 18.6119 6.08612 18.5806C6.07661 18.5492 6.06789 18.5177 6.05994 18.486C6.05198 18.4542 6.04481 18.4223 6.03842 18.3902C6.03204 18.3581 6.02644 18.3258 6.02164 18.2935C6.01684 18.2611 6.01283 18.2286 6.00962 18.196C6.00642 18.1635 6.00401 18.1308 6.00241 18.0981C6.0008 18.0654 6 18.0327 6 18L6 6C6 5.96727 6.0008 5.93456 6.00241 5.90186C6.00401 5.86917 6.00642 5.83655 6.00962 5.80397C6.01283 5.77139 6.01684 5.73892 6.02164 5.70653C6.02644 5.67416 6.03204 5.64192 6.03842 5.60981C6.04481 5.57772 6.05198 5.54579 6.05994 5.51404C6.06789 5.48229 6.07661 5.45075 6.08612 5.41943C6.09562 5.38811 6.10589 5.35704 6.11691 5.32622C6.12794 5.2954 6.13971 5.26487 6.15223 5.23463C6.16477 5.20439 6.17803 5.17448 6.19202 5.14489C6.20602 5.1153 6.22073 5.08607 6.23616 5.05721C6.25158 5.02834 6.26771 4.99987 6.28455 4.97179C6.30137 4.94372 6.31887 4.91607 6.33706 4.88886C6.35525 4.86164 6.37409 4.83489 6.39358 4.8086C6.41308 4.78231 6.43321 4.75652 6.45398 4.73121C6.47475 4.70591 6.49611 4.68113 6.51809 4.65688C6.54007 4.63263 6.56264 4.60893 6.58578 4.58579C6.60893 4.56264 6.63263 4.54008 6.65688 4.5181C6.68114 4.49612 6.70592 4.47474 6.73122 4.45398C6.75652 4.43322 6.78231 4.41308 6.80859 4.39358C6.83489 4.37409 6.86164 4.35525 6.88886 4.33706C6.91608 4.31888 6.94372 4.30137 6.9718 4.28454C6.99987 4.26772 7.02834 4.25159 7.0572 4.23616C7.08607 4.22073 7.1153 4.20602 7.14489 4.19202C7.17447 4.17803 7.20439 4.16477 7.23464 4.15224C7.26488 4.13972 7.29541 4.12794 7.32622 4.11691C7.35704 4.10589 7.38811 4.09562 7.41944 4.08612C7.45075 4.07662 7.48229 4.06789 7.51405 4.05994C7.5458 4.05198 7.57772 4.04482 7.60981 4.03843C7.64192 4.03204 7.67416 4.02645 7.70655 4.02165C7.73892 4.01684 7.77139 4.01284 7.80397 4.00963C7.83655 4.00642 7.86917 4.00401 7.90186 4.00241C7.93456 4.0008 7.96727 4 8 4ZM10.6 16L13.4 16C13.4098 16 13.4196 16.0002 13.4294 16.0007C13.4392 16.0012 13.449 16.0019 13.4588 16.0029C13.4686 16.0038 13.4783 16.005 13.488 16.0065C13.4977 16.0079 13.5074 16.0096 13.517 16.0115C13.5267 16.0135 13.5363 16.0156 13.5458 16.018C13.5553 16.0204 13.5648 16.023 13.5742 16.0258C13.5836 16.0287 13.5929 16.0318 13.6021 16.0351C13.6114 16.0384 13.6205 16.0419 13.6296 16.0457C13.6387 16.0494 13.6477 16.0534 13.6565 16.0576C13.6654 16.0618 13.6742 16.0662 13.6828 16.0708C13.6915 16.0755 13.7 16.0803 13.7085 16.0854C13.7169 16.0904 13.7252 16.0957 13.7333 16.1011C13.7415 16.1066 13.7495 16.1122 13.7574 16.1181C13.7653 16.1239 13.773 16.13 13.7806 16.1362C13.7882 16.1424 13.7957 16.1488 13.8029 16.1554C13.8102 16.162 13.8173 16.1688 13.8243 16.1757C13.8312 16.1827 13.838 16.1898 13.8446 16.1971C13.8512 16.2043 13.8576 16.2118 13.8638 16.2194C13.87 16.227 13.8761 16.2347 13.8819 16.2426C13.8878 16.2505 13.8934 16.2585 13.8989 16.2667C13.9043 16.2748 13.9096 16.2831 13.9146 16.2915C13.9197 16.3 13.9245 16.3085 13.9292 16.3172C13.9338 16.3258 13.9382 16.3346 13.9424 16.3435C13.9466 16.3523 13.9506 16.3613 13.9543 16.3704C13.9581 16.3795 13.9616 16.3886 13.9649 16.3979C13.9682 16.4071 13.9713 16.4164 13.9742 16.4258C13.977 16.4352 13.9796 16.4447 13.982 16.4542C13.9844 16.4637 13.9865 16.4733 13.9885 16.483C13.9904 16.4926 13.9921 16.5023 13.9935 16.512C13.995 16.5217 13.9962 16.5314 13.9971 16.5412C13.9981 16.551 13.9988 16.5607 13.9993 16.5706C13.9998 16.5804 14 16.5902 14 16.6C14 16.6098 13.9998 16.6196 13.9993 16.6294C13.9988 16.6392 13.9981 16.649 13.9971 16.6588C13.9962 16.6686 13.995 16.6783 13.9935 16.688C13.9921 16.6978 13.9904 16.7074 13.9885 16.717C13.9865 16.7267 13.9844 16.7363 13.982 16.7458C13.9796 16.7553 13.977 16.7648 13.9742 16.7742C13.9713 16.7836 13.9682 16.7929 13.9649 16.8021C13.9616 16.8114 13.9581 16.8205 13.9543 16.8296C13.9506 16.8387 13.9466 16.8477 13.9424 16.8565C13.9382 16.8654 13.9338 16.8742 13.9292 16.8828C13.9245 16.8915 13.9197 16.9 13.9146 16.9085C13.9096 16.9169 13.9043 16.9252 13.8989 16.9333C13.8934 16.9415 13.8878 16.9495 13.8819 16.9574C13.8761 16.9653 13.87 16.973 13.8638 16.9806C13.8576 16.9882 13.8512 16.9957 13.8446 17.0029C13.838 17.0102 13.8312 17.0173 13.8243 17.0243C13.8173 17.0312 13.8102 17.038 13.8029 17.0446C13.7957 17.0512 13.7882 17.0576 13.7806 17.0638C13.773 17.07 13.7653 17.0761 13.7574 17.0819C13.7495 17.0878 13.7415 17.0934 13.7333 17.0989C13.7252 17.1043 13.7169 17.1096 13.7085 17.1146C13.7 17.1197 13.6915 17.1245 13.6828 17.1292C13.6742 17.1338 13.6654 17.1382 13.6565 17.1424C13.6477 17.1466 13.6387 17.1506 13.6296 17.1543C13.6205 17.1581 13.6114 17.1616 13.6021 17.1649C13.5929 17.1682 13.5836 17.1713 13.5742 17.1742C13.5648 17.177 13.5553 17.1796 13.5458 17.182C13.5363 17.1844 13.5267 17.1865 13.517 17.1885C13.5074 17.1904 13.4977 17.1921 13.488 17.1935C13.4783 17.195 13.4686 17.1962 13.4588 17.1971C13.449 17.1981 13.4392 17.1988 13.4294 17.1993C13.4196 17.1998 13.4098 17.2 13.4 17.2L10.6 17.2C10.5902 17.2 10.5804 17.1998 10.5706 17.1993C10.5608 17.1988 10.551 17.1981 10.5412 17.1971C10.5314 17.1962 10.5217 17.195 10.512 17.1935C10.5023 17.1921 10.4926 17.1904 10.4829 17.1885C10.4733 17.1865 10.4637 17.1844 10.4542 17.182C10.4447 17.1796 10.4352 17.177 10.4258 17.1742C10.4164 17.1713 10.4071 17.1682 10.3979 17.1649C10.3886 17.1616 10.3795 17.1581 10.3704 17.1543C10.3613 17.1506 10.3523 17.1466 10.3435 17.1424C10.3346 17.1382 10.3258 17.1338 10.3172 17.1292C10.3085 17.1245 10.3 17.1197 10.2915 17.1146C10.2831 17.1096 10.2748 17.1043 10.2667 17.0989C10.2585 17.0934 10.2505 17.0878 10.2426 17.0819C10.2347 17.0761 10.227 17.07 10.2194 17.0638C10.2118 17.0576 10.2043 17.0512 10.1971 17.0446C10.1898 17.038 10.1827 17.0312 10.1757 17.0243C10.1688 17.0173 10.162 17.0102 10.1554 17.0029C10.1488 16.9957 10.1424 16.9882 10.1362 16.9806C10.13 16.973 10.1239 16.9653 10.1181 16.9574C10.1122 16.9495 10.1066 16.9415 10.1011 16.9333C10.0957 16.9252 10.0904 16.9169 10.0854 16.9085C10.0803 16.9 10.0755 16.8915 10.0708 16.8828C10.0662 16.8742 10.0618 16.8654 10.0576 16.8565C10.0534 16.8477 10.0494 16.8387 10.0457 16.8296C10.0419 16.8205 10.0384 16.8114 10.0351 16.8021C10.0318 16.7929 10.0287 16.7836 10.0258 16.7742C10.023 16.7648 10.0204 16.7553 10.018 16.7458C10.0156 16.7363 10.0135 16.7267 10.0115 16.717C10.0096 16.7074 10.0079 16.6978 10.0065 16.688C10.005 16.6783 10.0038 16.6686 10.0029 16.6588C10.0019 16.649 10.0012 16.6392 10.0007 16.6294C10.0002 16.6196 10 16.6098 10 16.6C10 16.5902 10.0002 16.5804 10.0007 16.5706C10.0012 16.5607 10.0019 16.551 10.0029 16.5412C10.0038 16.5314 10.005 16.5217 10.0065 16.512C10.0079 16.5023 10.0096 16.4926 10.0115 16.4829C10.0135 16.4733 10.0156 16.4637 10.018 16.4542C10.0204 16.4447 10.023 16.4352 10.0258 16.4258C10.0287 16.4164 10.0318 16.4071 10.0351 16.3979C10.0384 16.3886 10.0419 16.3795 10.0457 16.3704C10.0494 16.3613 10.0534 16.3523 10.0576 16.3435C10.0618 16.3346 10.0662 16.3258 10.0708 16.3172C10.0755 16.3085 10.0803 16.3 10.0854 16.2915C10.0904 16.2831 10.0957 16.2748 10.1011 16.2667C10.1066 16.2585 10.1122 16.2505 10.1181 16.2426C10.1239 16.2347 10.13 16.227 10.1362 16.2194C10.1424 16.2118 10.1488 16.2043 10.1554 16.1971C10.162 16.1898 10.1688 16.1827 10.1757 16.1757C10.1827 16.1688 10.1898 16.162 10.1971 16.1554C10.2043 16.1488 10.2118 16.1424 10.2194 16.1362C10.227 16.13 10.2347 16.1239 10.2426 16.1181C10.2505 16.1122 10.2585 16.1066 10.2667 16.1011C10.2748 16.0957 10.2831 16.0904 10.2915 16.0854C10.3 16.0803 10.3085 16.0755 10.3172 16.0708C10.3258 16.0662 10.3346 16.0618 10.3435 16.0576C10.3523 16.0534 10.3613 16.0494 10.3704 16.0457C10.3795 16.0419 10.3886 16.0384 10.3979 16.0351C10.4071 16.0318 10.4164 16.0287 10.4258 16.0258C10.4352 16.023 10.4447 16.0204 10.4542 16.018C10.4637 16.0156 10.4733 16.0135 10.4829 16.0115C10.4926 16.0096 10.5023 16.0079 10.512 16.0065C10.5217 16.005 10.5314 16.0038 10.5412 16.0029C10.551 16.0019 10.5608 16.0012 10.5706 16.0007C10.5804 16.0002 10.5902 16 10.6 16Z"   fill="#FFFFFF" >
</path>
</svg>
