<svg xmlns="http://www.w3.org/2000/svg" xmlns:xlink="http://www.w3.org/1999/xlink" width="24" height="24" viewBox="0 0 24 24" fill="none">
<circle cx="12" cy="12" r="12"   fill="#828492" fill-opacity="0.12">
</circle>
<path   fill="rgba(130, 132, 146, 1)"  d="M8.66699 4.78398L15.3337 4.78398C16.1897 4.78398 16.8837 5.47794 16.8837 6.33398L16.8837 17.6673C16.8837 18.5234 16.1897 19.2173 15.3337 19.2173L8.66699 19.2173C7.81095 19.2173 7.11699 18.5234 7.11699 17.6673L7.11699 6.33398C7.11699 5.47794 7.81095 4.78398 8.66699 4.78398ZM8.66699 5.88398C8.41846 5.88398 8.21699 6.08546 8.21699 6.33398L8.21699 17.6673C8.21699 17.9158 8.41846 18.1173 8.66699 18.1173L15.3337 18.1173C15.5822 18.1173 15.7837 17.9158 15.7837 17.6673L15.7837 6.33398C15.7837 6.08546 15.5822 5.88398 15.3337 5.88398L8.66699 5.88398Z">
</path>
<path    stroke="rgba(130, 132, 146, 1)" stroke-width="1.0999999999999999" stroke-linejoin="round" stroke-linecap="round"  d="M11.333 7.33398L12.6663 7.33398">
</path>
<path    stroke="rgba(130, 132, 146, 1)" stroke-width="1.0999999999999999" stroke-linejoin="round" stroke-linecap="round"  d="M10.667 16.666L13.3337 16.666">
</path>
</svg>
