<svg xmlns="http://www.w3.org/2000/svg" xmlns:xlink="http://www.w3.org/1999/xlink" width="16" height="12.800048828125" viewBox="0 0 16 12.800048828125" fill="none"><path d="M15.7699 11.7275L12.8174 9.41273C13.7999 8.49996 14.3999 7.30996 14.3999 5.99998C14.3999 3.12748 11.5349 0.822469 8.02242 0.822469C6.32893 0.822469 4.79493 1.36073 3.64992 2.23423L0.97017 0.127894C0.70842 -0.0764059 0.33292 -0.0312309 0.12767 0.229719C-0.076505 0.490719 -0.03093 0.867969 0.22962 1.07222L15.0071 12.6497C15.1399 12.7575 15.2699 12.8 15.3774 12.8C15.5555 12.8 15.7316 12.721 15.8499 12.5702C16.0774 12.31 16.0299 11.9325 15.7699 11.7275ZM11.8649 8.66498L4.60743 2.97747C5.51993 2.37123 6.70243 1.99997 8.00243 1.99997C10.8724 1.99997 13.2024 3.79373 13.2024 5.99998C13.2024 7.02496 12.6924 7.95746 11.8649 8.66498ZM8.00243 9.99996C7.33367 9.99996 6.67417 9.89684 6.04292 9.69697L5.47242 9.51996L4.98492 9.86246C4.62867 10.1155 4.13793 10.397 3.54743 10.5875C3.7318 10.2845 3.90692 9.94371 4.04443 9.58121L4.30993 8.88121L3.79443 8.33421C3.34492 7.85248 2.80242 7.05746 2.80242 5.99998C2.80242 5.57898 2.88838 5.17373 3.0456 4.79248L2.07818 4.03498C1.77293 4.64248 1.60067 5.30498 1.60067 5.97748C1.60067 7.16822 2.09842 8.25873 2.92342 9.13496C2.55142 10.1225 1.77667 10.957 1.76418 10.9662C1.59855 11.1412 1.55482 11.3975 1.64857 11.6162C1.74542 11.8575 1.95942 12 2.19992 12C3.73743 12 4.92742 11.3562 5.67742 10.8437C6.39943 11.0687 7.18118 11.2 7.99993 11.2C8.93768 11.2 9.82693 11.0321 10.6299 10.7375L9.47668 9.83372C9.35585 9.86126 9.23435 9.88541 9.11217 9.90615C8.99 9.92691 8.86734 9.94423 8.7442 9.9581C8.62105 9.972 8.49763 9.98242 8.3739 9.98941C8.25018 9.99639 8.12635 9.99991 8.00243 9.99996Z"   fill="#D43030" ></path></svg>