<svg xmlns="http://www.w3.org/2000/svg" xmlns:xlink="http://www.w3.org/1999/xlink" width="24" height="24"
  viewBox="0 0 22 22" fill="none">
  <path
    d="M12 20.6498L13.9999 20.6497L13.9999 20.6497C14.3589 20.6496 14.6499 20.3586 14.6499 19.9997C14.6499 19.6407 14.3589 19.3497 13.9999 19.3497L13.9998 19.3497L12 19.3498L5.19987 19.3498C4.89612 19.3498 4.64987 19.1036 4.64987 18.7998L4.64987 5.19963C4.64987 4.89587 4.89611 4.64962 5.19987 4.64962L18.8 4.64962C19.1038 4.64962 19.35 4.89587 19.35 5.19963L19.35 11.9997L19.35 11.9997L19.3498 13.9996L19.3498 13.9997C19.3498 14.3586 19.6409 14.6496 19.9998 14.6496C20.3589 14.6496 20.6499 14.3586 20.6499 13.9997L20.6499 13.9997L20.6501 11.9998L20.6501 5.19963C20.6501 4.17789 19.8217 3.34961 18.8 3.34961L5.19987 3.34961C4.17814 3.34961 3.34985 4.17789 3.34985 5.19963L3.34985 18.7998C3.34985 19.8215 4.17814 20.6498 5.19987 20.6498L12 20.6498Z"
    fill-rule="evenodd" fill="currentColor"></path>
  <rect x="7.2001953125" y="9.5986328125" width="2.697265625" height="9.60009765625"
    transform="rotate(-90 7.2001953125 9.5986328125)" rx="1" fill="currentColor"></rect>
  <path fill="currentColor"
    d="M19.2817 19.3814L17.0744 16.1702C17.0002 16.0622 17.0481 15.9132 17.1714 15.8688L18.3951 15.4279C18.5569 15.3696 18.5746 15.1478 18.4241 15.0646L14.003 12.6221C13.8587 12.5424 13.6854 12.6616 13.7082 12.8249L14.4068 17.8272C14.4306 17.9975 14.644 18.0604 14.7564 17.9301L15.6061 16.9447C15.6917 16.8454 15.8481 16.854 15.9224 16.962L18.1302 20.1732C18.1928 20.2642 18.3173 20.2873 18.4084 20.2247L19.2302 19.6595C19.3212 19.5969 19.3443 19.4724 19.2817 19.3814Z">
  </path>
</svg>
