<svg xmlns="http://www.w3.org/2000/svg" xmlns:xlink="http://www.w3.org/1999/xlink" width="24" height="24" viewBox="0 0 24 24" fill="none">
<circle cx="12" cy="12" r="12"   fill="#DEE7FF" >
</circle>
<path d="M12 5.3335C12.0639 5.33349 12.1278 5.33502 12.1916 5.33808C12.2554 5.34114 12.3191 5.34573 12.3827 5.35184C12.4463 5.35795 12.5098 5.36558 12.573 5.37473C12.6362 5.38388 12.6993 5.39454 12.762 5.40672C12.8247 5.41888 12.8871 5.43255 12.9492 5.44771C13.0113 5.46287 13.0729 5.47951 13.1342 5.49763C13.1955 5.51574 13.2563 5.53532 13.3167 5.55635C13.377 5.57738 13.4368 5.59985 13.4961 5.62374C13.5553 5.64764 13.6139 5.67294 13.672 5.69966C13.7301 5.72636 13.7875 5.75444 13.8441 5.7839C13.9009 5.81336 13.9568 5.84416 14.0121 5.8763C14.0673 5.90844 14.1217 5.94189 14.1753 5.97664C14.229 6.01139 14.2817 6.0474 14.3337 6.08468C14.3855 6.12196 14.4365 6.16046 14.4866 6.20018C14.5367 6.2399 14.5857 6.2808 14.6338 6.32287C14.6819 6.36494 14.7289 6.40815 14.775 6.45248C14.821 6.4968 14.8659 6.54221 14.9098 6.58869C14.9536 6.63517 14.9963 6.68268 15.0379 6.73121C15.0795 6.77974 15.1199 6.82924 15.1591 6.8797C15.1983 6.93016 15.2363 6.98154 15.273 7.03382C15.3097 7.08611 15.3452 7.13924 15.3794 7.19322C15.4136 7.2472 15.4465 7.30198 15.478 7.35754C15.5095 7.4131 15.5398 7.46938 15.5687 7.52639C15.5975 7.5834 15.6251 7.64106 15.6511 7.69939C15.6772 7.75772 15.7019 7.81663 15.7252 7.87614C15.7485 7.93565 15.7703 7.99568 15.7907 8.05624C15.8111 8.11679 15.8301 8.1778 15.8476 8.23926C15.8651 8.30072 15.8811 8.36257 15.8955 8.4248C15.9101 8.48704 15.9231 8.54958 15.9346 8.61243C15.9461 8.67528 15.9561 8.73838 15.9647 8.80171C15.9731 8.86504 15.9801 8.92854 15.9855 8.99221C15.991 9.05588 15.9949 9.11964 15.9973 9.1835L16 9.3335L16.6667 9.3335C16.7083 9.33348 16.7497 9.33541 16.7911 9.33928C16.8325 9.34315 16.8737 9.34894 16.9145 9.35666C16.9554 9.36438 16.9959 9.37399 17.0358 9.38549C17.0757 9.39699 17.1151 9.41034 17.1538 9.42552C17.1925 9.4407 17.2305 9.45766 17.2676 9.47638C17.3047 9.49511 17.3409 9.51554 17.3761 9.53765C17.4113 9.55976 17.4455 9.58348 17.4785 9.60878C17.5115 9.63409 17.5432 9.66088 17.5737 9.68916C17.6042 9.71744 17.6333 9.74708 17.661 9.77808C17.6887 9.80908 17.7149 9.84131 17.7397 9.87476C17.7644 9.90822 17.7875 9.94275 17.8089 9.97836C17.8304 10.014 17.8501 10.0505 17.8682 10.088C17.8863 10.1254 17.9025 10.1637 17.917 10.2027C17.9315 10.2416 17.9441 10.2812 17.9549 10.3214C17.9657 10.3615 17.9745 10.4021 17.9815 10.4431C17.9885 10.4841 17.9935 10.5254 17.9967 10.5668L18 10.6668L18 17.3335C18 17.3751 17.9981 17.4166 17.9942 17.458C17.9903 17.4994 17.9845 17.5405 17.9768 17.5814C17.9691 17.6222 17.9595 17.6627 17.948 17.7026C17.9365 17.7426 17.9231 17.7819 17.908 17.8206C17.8928 17.8594 17.8759 17.8973 17.8571 17.9344C17.8384 17.9716 17.8179 18.0077 17.7959 18.043C17.7737 18.0782 17.75 18.1123 17.7247 18.1453C17.6994 18.1783 17.6726 18.21 17.6443 18.2405C17.6161 18.271 17.5864 18.3002 17.5554 18.3278C17.5244 18.3556 17.4922 18.3818 17.4587 18.4065C17.4253 18.4312 17.3907 18.4543 17.3551 18.4758C17.3195 18.4972 17.283 18.517 17.2455 18.535C17.2081 18.5531 17.1699 18.5694 17.1309 18.5838C17.0919 18.5983 17.0523 18.611 17.0121 18.6217C16.9719 18.6325 16.9314 18.6414 16.8904 18.6484C16.8494 18.6554 16.8081 18.6604 16.7667 18.6635L16.6667 18.6668L7.33333 18.6668C7.29175 18.6668 7.25025 18.6649 7.20884 18.661C7.16743 18.6572 7.1263 18.6514 7.08543 18.6436C7.04457 18.636 7.00416 18.6264 6.96419 18.6148C6.92423 18.6033 6.88489 18.59 6.84617 18.5748C6.80745 18.5596 6.76953 18.5427 6.7324 18.524C6.69527 18.5052 6.65909 18.4848 6.62387 18.4627C6.58866 18.4406 6.55454 18.4168 6.52154 18.3916C6.48854 18.3662 6.45679 18.3394 6.4263 18.3112C6.39581 18.2829 6.3667 18.2532 6.33898 18.2222C6.31126 18.1912 6.28505 18.159 6.26034 18.1256C6.23564 18.0921 6.21255 18.0576 6.19107 18.022C6.1696 17.9864 6.14984 17.9498 6.13178 17.9124C6.11373 17.8749 6.09746 17.8367 6.08299 17.7977C6.06851 17.7587 6.05588 17.7191 6.04511 17.679C6.03433 17.6388 6.02546 17.5982 6.01848 17.5572C6.0115 17.5162 6.00645 17.475 6.00333 17.4335L6 17.3335L6 10.6668C5.99999 10.6252 6.00192 10.5837 6.00579 10.5423C6.00965 10.5009 6.01545 10.4598 6.02317 10.4189C6.03089 10.3781 6.0405 10.3377 6.052 10.2977C6.0635 10.2577 6.07684 10.2184 6.09202 10.1797C6.1072 10.1409 6.12416 10.103 6.14289 10.0659C6.16162 10.0288 6.18204 9.99259 6.20415 9.95737C6.22627 9.92215 6.24998 9.88804 6.27529 9.85504C6.30059 9.82204 6.32739 9.7903 6.35567 9.7598C6.38394 9.7293 6.41358 9.7002 6.44458 9.67248C6.47558 9.64476 6.50781 9.61854 6.54127 9.59384C6.57472 9.56914 6.60925 9.54604 6.64487 9.52457C6.68048 9.5031 6.71702 9.48334 6.75448 9.46528C6.79195 9.44722 6.83017 9.43096 6.86915 9.41648C6.90814 9.402 6.94772 9.38938 6.98789 9.3786C7.02805 9.36783 7.06863 9.35896 7.10963 9.35198C7.15063 9.345 7.19186 9.33995 7.23333 9.33683L7.33333 9.3335L8 9.3335C8 9.26804 8.00161 9.20261 8.00482 9.13722C8.00803 9.07184 8.01284 9.00658 8.01926 8.94143C8.02568 8.87628 8.03369 8.81133 8.04329 8.74658C8.0529 8.68182 8.06409 8.61734 8.07686 8.55314C8.08963 8.48893 8.10397 8.42508 8.11987 8.36158C8.13578 8.29808 8.15323 8.235 8.17224 8.17236C8.19125 8.10971 8.21177 8.04757 8.23383 7.98594C8.25588 7.9243 8.27943 7.86324 8.30448 7.80276C8.32953 7.74228 8.35605 7.68246 8.38404 7.62328C8.41203 7.5641 8.44145 7.50564 8.47231 7.44791C8.50317 7.39018 8.53543 7.33324 8.56909 7.27708C8.60274 7.22094 8.63775 7.16565 8.67412 7.11122C8.71049 7.05678 8.74817 7.00328 8.78717 6.9507C8.82617 6.89812 8.86643 6.84653 8.90796 6.79592C8.94949 6.74532 8.99223 6.69576 9.03619 6.64726C9.08016 6.59876 9.12529 6.55136 9.17157 6.50507C9.21786 6.45878 9.26526 6.41366 9.31377 6.36969C9.36227 6.32573 9.41182 6.28298 9.46243 6.24146C9.51303 6.19993 9.56462 6.15966 9.6172 6.12066C9.66978 6.08167 9.72329 6.04398 9.77772 6.00762C9.83215 5.97125 9.88744 5.93624 9.94359 5.90258C9.99974 5.86893 10.0567 5.83667 10.1144 5.80581C10.1721 5.77495 10.2306 5.74553 10.2898 5.71754C10.349 5.68955 10.4088 5.66303 10.4693 5.63798C10.5297 5.61293 10.5908 5.58938 10.6524 5.56732C10.7141 5.54526 10.7762 5.52474 10.8389 5.50574C10.9015 5.48673 10.9646 5.46928 11.0281 5.45337C11.0916 5.43746 11.1554 5.42312 11.2197 5.41036C11.2838 5.39758 11.3483 5.38639 11.4131 5.37679C11.4778 5.36719 11.5428 5.35917 11.6079 5.35276C11.6731 5.34634 11.7384 5.34153 11.8037 5.33832C11.8691 5.3351 11.9345 5.3335 12 5.3335ZM16.6667 10.6668L7.33333 10.6668L7.33333 17.3335L16.6667 17.3335L16.6667 10.6668ZM12 12.0002C12.0707 12.0002 12.1409 12.0058 12.2106 12.017C12.2804 12.0282 12.3488 12.0448 12.4159 12.0668C12.483 12.0889 12.548 12.1161 12.6108 12.1485C12.6736 12.1809 12.7334 12.218 12.7903 12.2599C12.8471 12.3018 12.9004 12.348 12.9499 12.3983C12.9995 12.4486 13.0447 12.5026 13.0857 12.5602C13.1267 12.6177 13.1629 12.6782 13.1943 12.7414C13.2257 12.8048 13.2518 12.8702 13.2728 12.9376C13.2938 13.0051 13.3093 13.0738 13.3193 13.1437C13.3294 13.2136 13.3339 13.2839 13.3327 13.3546C13.3316 13.4252 13.3249 13.4953 13.3127 13.5649C13.3004 13.6344 13.2827 13.7026 13.2597 13.7694C13.2365 13.8362 13.2083 13.9007 13.175 13.963C13.1416 14.0252 13.1035 14.0845 13.0608 14.1407C13.018 14.197 12.9711 14.2495 12.9199 14.2982C12.8688 14.347 12.8142 14.3914 12.756 14.4315L12.6667 14.4882L12.6667 15.3335C12.6666 15.3756 12.6626 15.4173 12.6547 15.4586C12.6467 15.5 12.635 15.5402 12.6194 15.5794C12.6038 15.6185 12.5847 15.6558 12.5621 15.6912C12.5394 15.7268 12.5137 15.7598 12.4848 15.7904C12.4559 15.821 12.4243 15.8486 12.3902 15.8733C12.3561 15.8979 12.3199 15.9192 12.2818 15.937C12.2436 15.9548 12.2041 15.9688 12.1633 15.9791C12.1225 15.9894 12.0811 15.9958 12.0391 15.9983C11.997 16.0008 11.9551 15.9992 11.9134 15.9938C11.8717 15.9883 11.8308 15.979 11.7909 15.9658C11.7509 15.9526 11.7125 15.9357 11.6757 15.9152C11.6389 15.8948 11.6044 15.871 11.5721 15.844C11.5398 15.817 11.5104 15.7872 11.4837 15.7546C11.4571 15.722 11.4338 15.6871 11.4137 15.6501C11.3937 15.6131 11.3773 15.5745 11.3645 15.5344C11.3518 15.4943 11.343 15.4533 11.338 15.4115L11.3333 15.3335L11.3333 14.4882C11.2702 14.4517 11.2105 14.4104 11.1541 14.3642C11.0978 14.3179 11.0456 14.2674 10.9976 14.2126C10.9495 14.1578 10.9062 14.0994 10.8678 14.0376C10.8293 13.9756 10.7961 13.911 10.7682 13.8437C10.7403 13.7764 10.7181 13.7072 10.7015 13.6362C10.685 13.5652 10.6744 13.4934 10.6696 13.4207C10.6648 13.348 10.666 13.2753 10.6731 13.2028C10.6803 13.1303 10.6933 13.0588 10.7121 12.9884C10.731 12.918 10.7555 12.8496 10.7856 12.7832C10.8156 12.7168 10.8509 12.6534 10.8914 12.5928C10.9319 12.5322 10.977 12.4752 11.0269 12.422C11.0767 12.3688 11.1305 12.32 11.1883 12.2757C11.2462 12.2314 11.3072 12.192 11.3715 12.1576C11.4358 12.1233 11.5024 12.0944 11.5714 12.071C11.6404 12.0475 11.7109 12.0298 11.7828 12.018C11.8547 12.0061 11.9271 12.0002 12 12.0002ZM12 6.66683C11.9127 6.66683 11.8255 6.67111 11.7386 6.67967C11.6517 6.68823 11.5654 6.70103 11.4797 6.71807C11.3941 6.73511 11.3095 6.7563 11.2259 6.78166C11.1423 6.80701 11.0602 6.8364 10.9795 6.86982C10.8988 6.90324 10.82 6.94054 10.7429 6.98171C10.6659 7.02288 10.5911 7.06772 10.5185 7.11624C10.4459 7.16477 10.3758 7.21673 10.3083 7.27214C10.2408 7.32754 10.1761 7.38612 10.1144 7.44788C10.0526 7.50963 9.99405 7.57427 9.93864 7.64178C9.88323 7.7093 9.83127 7.77936 9.78275 7.85198C9.73423 7.9246 9.68938 7.99942 9.64821 8.07644C9.60704 8.15346 9.56974 8.23232 9.53632 8.31301C9.5029 8.3937 9.47351 8.47583 9.44816 8.5594C9.42281 8.64298 9.40161 8.7276 9.38457 8.81326C9.36753 8.89892 9.35473 8.9852 9.34617 9.07212C9.33761 9.15903 9.33333 9.24616 9.33333 9.3335L14.6667 9.3335C14.6667 9.24616 14.6624 9.15903 14.6538 9.07212C14.6453 8.9852 14.6325 8.89892 14.6154 8.81326C14.5984 8.7276 14.5772 8.64298 14.5519 8.5594C14.5265 8.47583 14.4971 8.3937 14.4637 8.31301C14.4303 8.23232 14.3929 8.15346 14.3518 8.07644C14.3107 7.99942 14.2658 7.9246 14.2173 7.85198C14.1687 7.77936 14.1167 7.7093 14.0613 7.64178C14.0059 7.57427 13.9474 7.50963 13.8856 7.44788C13.8239 7.38612 13.7593 7.32754 13.6917 7.27214C13.6242 7.21673 13.5541 7.16476 13.4815 7.11624C13.4089 7.06772 13.3341 7.02288 13.2571 6.9817C13.1801 6.94054 13.1012 6.90324 13.0205 6.86982C12.9398 6.8364 12.8577 6.80701 12.7741 6.78166C12.6905 6.7563 12.6059 6.73511 12.5203 6.71807C12.4346 6.70103 12.3483 6.68823 12.2614 6.67967C12.1745 6.67111 12.0873 6.66683 12 6.66683Z"   fill="#2563EB" >
</path>
</svg>
