<svg xmlns="http://www.w3.org/2000/svg" xmlns:xlink="http://www.w3.org/1999/xlink" width="20" height="24" viewBox="0 0 20 24" fill="none">
<g  clip-path="url(#clip-path-xm585Kk0kUoRY5NXW-Z91)">
<g mask="url(#mask-N05SYGIz0Op5jL0hqSByA)">
<path d="M7.58343 6.27265C7.63219 5.96305 7.83071 5.70974 8.09811 5.5815C8.21979 5.5233 8.35555 5.49082 8.49787 5.49082L14.2964 5.49082C14.9834 5.49082 15.624 5.5359 16.2096 5.63022C16.3769 5.65714 16.5396 5.68818 16.6979 5.7233C16.8562 5.75846 17.0096 5.79749 17.1582 5.84113C17.2327 5.86269 17.3056 5.88549 17.3776 5.90949C17.6652 6.00501 17.9328 6.11749 18.1791 6.24789C18.4695 4.39654 18.1772 3.13666 17.1757 1.99558C16.0732 0.739348 14.0814 0.201172 11.533 0.201172L4.13543 0.201172C3.61471 0.201172 3.17132 0.580079 3.09011 1.0945L0.0098636 20.6272C-0.0509849 21.0127 0.246954 21.361 0.637017 21.361L5.20379 21.361L7.58343 6.27265Z" fill-rule="evenodd"  fill="#27346A" >
</path>
</g>
<path d="M18.1781 6.24609C18.1561 6.38745 18.1316 6.53121 18.1025 6.67933C17.1273 11.688 13.7895 13.4196 9.52674 13.4196L7.35611 13.4196C6.83539 13.4196 6.39563 13.7988 6.31439 14.3132L4.88775 23.3583C4.83463 23.6952 5.09527 24.0002 5.43635 24.0002L9.28578 24.0002C9.7413 24.0002 10.1292 23.6688 10.2002 23.2186L10.238 23.023L10.9631 18.4247L11.0099 18.1707C11.0809 17.7205 11.4688 17.3891 11.9243 17.3891L12.5001 17.3891C16.2293 17.3891 19.1493 15.8739 20.0026 11.4924C20.359 9.66159 20.1747 8.13336 19.232 7.05897C18.9469 6.73409 18.592 6.46525 18.1781 6.24609Z" fill-rule="evenodd"  fill="#2790C3" >
</path>
<path d="M17.1564 5.8386C17.0078 5.79496 16.8544 5.75592 16.696 5.72076C16.5377 5.68564 16.3751 5.6546 16.2078 5.62768C15.6221 5.53336 14.9816 5.48828 14.2946 5.48828L8.49604 5.48828C8.35372 5.48828 8.21796 5.52076 8.09628 5.57896C7.82888 5.7072 7.63036 5.96052 7.5816 6.27012L6.34912 14.0843L6.31348 14.3125C6.39472 13.7981 6.83448 13.4189 7.3552 13.4189L9.52584 13.4189C13.7886 13.4189 17.1264 11.6873 18.1016 6.67859C18.1307 6.53047 18.1552 6.38672 18.1772 6.24536C17.931 6.11496 17.6633 6.00248 17.3758 5.90696C17.3038 5.88296 17.2308 5.86016 17.1564 5.8386Z" fill-rule="evenodd"  fill="#1F264F" >
</path>
</g>
<defs>
<clipPath id="clip-path-xm585Kk0kUoRY5NXW-Z91">
<path d="M0 24.0002L20.0001 24.0002L20.0001 0L0 0L0 24.0002Z" fill="white"/>
</clipPath>
<mask id="mask-N05SYGIz0Op5jL0hqSByA" style="mask-type:alpha" maskUnits="userSpaceOnUse">
<path d="M0.0166016 24.002L98.1002 24.002L98.1002 0.201172L0.0166016 0.201172L0.0166016 24.002Z" fill-rule="evenodd"  fill="#000000" >
</path>
</mask>
</defs>
</svg>
