<svg t="1743996787294" class="icon" viewBox="0 0 1024 1024" version="1.1" xmlns="http://www.w3.org/2000/svg" p-id="14505" width="32" height="32"><path d="M405.333333 460.8c98.133333 0 179.2-81.066667 179.2-179.2s-81.066667-179.2-179.2-179.2-183.466667 76.8-183.466666 174.933333 85.333333 183.466667 183.466666 183.466667z m0-298.666667c64 0 119.466667 51.2 119.466667 119.466667S469.333333 392.533333 405.333333 392.533333 290.133333 341.333333 290.133333 277.333333 341.333333 162.133333 405.333333 162.133333zM712.533333 123.733333c-17.066667-8.533333-34.133333-4.266667-42.666666 12.8-8.533333 17.066667-4.266667 34.133333 12.8 42.666667 34.133333 21.333333 55.466667 59.733333 55.466666 102.4S716.8 362.666667 682.666667 384c-17.066667 8.533333-21.333333 29.866667-12.8 42.666667 4.266667 8.533333 17.066667 17.066667 25.6 17.066666 4.266667 0 12.8 0 17.066666-4.266666 55.466667-38.4 89.6-98.133333 89.6-162.133334s-34.133333-123.733333-89.6-153.6zM648.533333 588.8c-42.666667-21.333333-93.866667-21.333333-196.266666-21.333333H358.4c-102.4 0-149.333333 0-196.266667 21.333333-38.4 21.333333-68.266667 51.2-89.6 89.6-21.333333 42.666667-21.333333 93.866667-21.333333 196.266667v21.333333c0 17.066667 12.8 34.133333 34.133333 34.133333h640c17.066667 0 34.133333-12.8 34.133334-34.133333v-25.6c0-102.4 0-149.333333-21.333334-196.266667-21.333333-38.4-51.2-68.266667-89.6-85.333333zM119.466667 861.866667c0-85.333333 0-128 17.066666-157.866667 12.8-25.6 34.133333-46.933333 59.733334-59.733333 29.866667-17.066667 76.8-17.066667 166.4-17.066667h93.866666c89.6 0 136.533333 0 166.4 17.066667 25.6 12.8 46.933333 34.133333 59.733334 59.733333 12.8 29.866667 17.066667 72.533333 17.066666 157.866667H119.466667zM947.2 674.133333c-21.333333-38.4-51.2-68.266667-89.6-89.6-17.066667-8.533333-34.133333 0-42.666667 12.8-8.533333 17.066667 0 34.133333 12.8 42.666667 25.6 12.8 46.933333 34.133333 59.733334 59.733333 17.066667 29.866667 17.066667 76.8 17.066666 166.4v29.866667c0 17.066667 12.8 34.133333 34.133334 34.133333s34.133333-12.8 34.133333-34.133333v-25.6c0-102.4 0-149.333333-25.6-196.266667z" p-id="14506"></path></svg>