<svg xmlns="http://www.w3.org/2000/svg" xmlns:xlink="http://www.w3.org/1999/xlink" width="24" height="24" viewBox="0 0 24 24" fill="none"><path d="M9.5 10C11.433 10 13 8.433 13 6.5C13 4.56701 11.433 3 9.5 3C7.567 3 6 4.56701 6 6.5C6 8.433 7.567 10 9.5 10Z" stroke="rgba(156, 163, 175, 1)" stroke-width="1.5" stroke-linejoin="round" stroke-linecap="round" ></path><path    stroke="rgba(156, 163, 175, 1)" stroke-width="1.5" stroke-linejoin="round" stroke-linecap="round"  d="M19 5.5L22 8.5L19 11.5"></path><path d="M2.00003 20.4L2.00003 21L17 21L17 20.4C17 18.1598 17 17.0397 16.5641 16.184C16.1806 15.4314 15.5686 14.8195 14.816 14.436C13.9603 14 12.8402 14 10.6 14L8.40003 14C6.15983 14 5.03973 14 4.18407 14.436C3.43142 14.8195 2.8195 15.4314 2.43601 16.184C2.00003 17.0397 2.00003 18.1598 2.00003 20.4Z" stroke="rgba(156, 163, 175, 1)" stroke-width="1.5" stroke-linejoin="round" stroke-linecap="round" ></path></svg>