<svg xmlns="http://www.w3.org/2000/svg" xmlns:xlink="http://www.w3.org/1999/xlink" width="12.92901611328125" height="13.951904296875" viewBox="0 0 12.92901611328125 13.951904296875" fill="none"><path d="M12.153 10.9919C12.233 11.5359 12.6971 11.4559 12.7771 11.6959C12.7771 11.8478 12.6971 12.3999 12.4651 12.4719C12.2331 12.4719 11.9211 12.3919 11.6891 12.4719C11.5372 12.5519 11.3772 12.6239 11.2972 12.7839C11.1452 13.1758 11.4491 13.4878 11.2972 13.6398C11.0652 13.7918 10.5931 14.0318 10.4412 13.8718C10.2092 13.6398 10.2092 13.3278 9.73719 13.3278C9.11311 13.3278 9.11311 13.9518 8.80119 13.9518C8.48919 13.9518 7.94519 13.7198 7.94519 13.4878C8.02519 13.1758 8.17719 12.9438 7.86519 12.6318C7.47319 12.3198 7.00919 12.6318 6.84919 12.4798C6.61727 12.3278 6.53727 11.9358 6.61727 11.7039C6.69727 11.4719 7.24127 11.4719 7.24127 10.8478C7.24127 10.3839 6.69727 10.3039 6.61727 9.99192C6.53727 9.75992 6.69727 9.36784 6.92919 9.28784C7.32119 9.13592 7.55319 9.43984 7.94519 9.13592C8.17719 8.904 8.09719 8.35992 8.09719 8.19992C8.17719 7.96792 8.48911 7.88792 8.72119 7.88792C9.18519 7.88792 9.03311 8.432 9.65719 8.512C10.2812 8.512 10.2012 8.28 10.5131 7.88792C10.9051 7.88792 11.2172 8.03992 11.2891 8.19992C11.4411 8.51192 11.1372 8.97592 11.6011 9.28792C11.993 9.51992 12.3771 9.20792 12.6171 9.28792C12.769 9.36792 12.849 9.59992 12.929 9.912C12.7771 10.3678 12.073 10.2878 12.153 10.9919ZM9.34511 9.43192C7.47311 9.89592 8.17711 12.6239 9.96911 12.3199C11.7691 11.9278 11.5291 9.03992 9.34511 9.43192ZM6.15311 6.704C4.28111 6.704 2.80111 5.224 2.80111 3.352C2.80111 1.48 4.28111 0 6.15311 0C8.02503 0 9.50503 1.48 9.50503 3.352C9.50511 5.144 8.02511 6.704 6.15311 6.704ZM8.88111 7.47992C8.88111 7.47992 7.63303 7.47992 7.71303 8.33592C7.79303 9.27192 6.54503 8.56784 6.31311 9.35192C6.00111 10.2878 6.46503 10.1278 6.70503 10.7519C6.85703 11.1439 6.08103 11.3759 6.16103 12.0799C6.31303 13.0159 7.09703 12.544 7.32903 13.0959C7.48103 13.5599 6.93711 13.8719 5.68903 13.8719C4.67311 13.8719 2.72903 13.8719 2.02503 13.7919C2.02503 13.7919 0.00103307 13.7119 0.00103307 12.3919C0.00103307 12.3919 -0.078967 10.4399 1.16904 9.03992C1.16904 9.03992 2.49703 7.32792 4.75311 7.32792L8.88111 7.47992Z"   fill="currentColor" ></path></svg>