<svg xmlns="http://www.w3.org/2000/svg" xmlns:xlink="http://www.w3.org/1999/xlink" width="16.0081787109375" height="15.2257080078125" viewBox="0 0 16.0081787109375 15.2257080078125" fill="none"><path d="M0.768098 3.44926L2.81227 3.44926L2.81227 3.72373C2.81227 4.62702 3.54758 5.36235 4.45087 5.36235L5.9379 5.36235C6.84119 5.36235 7.57652 4.62702 7.57652 3.72373L7.57652 3.44926L15.2402 3.44926C15.6641 3.44926 16.0082 3.10516 16.0082 2.68117C16.0082 2.25719 15.6641 1.91307 15.2402 1.91307L7.57652 1.91307L7.57652 1.6386C7.57652 0.734302 6.84119 0 5.9379 0L4.45087 0C3.54758 0 2.81227 0.735325 2.81227 1.6386L2.81227 1.91307L0.768098 1.91307C0.344107 1.91307 5.67242e-08 2.25719 5.67242e-08 2.68117C5.67242e-08 3.10516 0.344107 3.44926 0.768098 3.44926ZM15.2402 6.84528L13.1959 6.84528L13.1959 6.57083C13.1959 5.66754 12.4606 4.93221 11.5573 4.93221L10.0703 4.93221C9.16699 4.93221 8.43166 5.66754 8.43166 6.57083L8.43166 6.84528L0.768098 6.84528C0.344107 6.84528 5.67242e-08 7.1894 5.67242e-08 7.61338C5.67242e-08 8.03737 0.344107 8.38149 0.768098 8.38149L8.43166 8.38149L8.43166 8.65594C8.43166 9.55923 9.16699 10.2946 10.0703 10.2946L11.5573 10.2946C12.4606 10.2946 13.1959 9.55923 13.1959 8.65594L13.1959 8.38149L15.2402 8.38149C15.6641 8.38149 16.0082 8.03737 16.0082 7.61338C16.0082 7.1894 15.6641 6.84528 15.2402 6.84528ZM15.2402 11.7765L7.57652 11.7765L7.57652 11.502C7.57652 10.5987 6.84119 9.86339 5.9379 9.86339L4.45087 9.86339C3.54758 9.86339 2.81227 10.5987 2.81227 11.502L2.81227 11.7765L0.768098 11.7765C0.344107 11.7765 5.67242e-08 12.1206 5.67242e-08 12.5446C5.67242e-08 12.9686 0.344107 13.3127 0.768098 13.3127L2.81227 13.3127L2.81227 13.5871C2.81227 14.4904 3.54758 15.2257 4.45087 15.2257L5.9379 15.2257C6.84119 15.2257 7.57652 14.4904 7.57652 13.5871L7.57652 13.3127L15.2402 13.3127C15.6641 13.3127 16.0082 12.9686 16.0082 12.5446C16.0082 12.1206 15.6641 11.7765 15.2402 11.7765Z"   fill="currentColor" ></path></svg>