<svg xmlns="http://www.w3.org/2000/svg" xmlns:xlink="http://www.w3.org/1999/xlink" width="20" height="20" viewBox="0 0 20 20" fill="none"><path   fill="rgba(250, 81, 81, 1)"  d="M2.49984 2.68301L17.4998 2.68301C18.3191 2.68301 18.9832 3.34712 18.9832 4.16634L18.9832 15.833C18.9832 16.6522 18.3191 17.3163 17.4998 17.3163L2.49984 17.3163C1.68062 17.3163 1.0165 16.6522 1.0165 15.833L1.0165 4.16634C1.0165 3.34712 1.68061 2.68301 2.49984 2.68301ZM2.49984 3.98301C2.39859 3.98301 2.3165 4.06509 2.3165 4.16634L2.3165 15.833C2.3165 15.9343 2.39859 16.0163 2.49984 16.0163L17.4998 16.0163C17.6011 16.0163 17.6832 15.9343 17.6832 15.833L17.6832 4.16634C17.6832 4.06509 17.6011 3.98301 17.4998 3.98301L2.49984 3.98301Z"></path><path d="M1.6665 4.16634C1.6665 3.7061 2.0396 3.33301 2.49984 3.33301L17.4998 3.33301C17.9601 3.33301 18.3332 3.7061 18.3332 4.16634L18.3332 6.66634L1.6665 6.66634L1.6665 4.16634Z" stroke="rgba(250, 81, 81, 1)" stroke-width="1.3" stroke-linejoin="round" stroke-linecap="round" ></path><path    stroke="rgba(250, 81, 81, 1)" stroke-width="1.3"  stroke-linecap="round"  d="M10.4168 9.58301L9.5835 14.1663"></path><path    stroke="rgba(250, 81, 81, 1)" stroke-width="1.3" stroke-linejoin="round" stroke-linecap="round"  d="M12.9165 9.58301L15.4165 11.6663L12.9165 14.1663"></path><path    stroke="rgba(250, 81, 81, 1)" stroke-width="1.3" stroke-linejoin="round" stroke-linecap="round"  d="M7.0835 9.58301L4.5835 11.6663L7.0835 14.1663"></path></svg><svg xmlns="http://www.w3.org/2000/svg" xmlns:xlink="http://www.w3.org/1999/xlink" width="20" height="20" viewBox="0 0 20 20" fill="none"><path   fill="rgba(250, 81, 81, 1)"  d="M2.49984 2.68301L17.4998 2.68301C18.3191 2.68301 18.9832 3.34712 18.9832 4.16634L18.9832 15.833C18.9832 16.6522 18.3191 17.3163 17.4998 17.3163L2.49984 17.3163C1.68062 17.3163 1.0165 16.6522 1.0165 15.833L1.0165 4.16634C1.0165 3.34712 1.68061 2.68301 2.49984 2.68301ZM2.49984 3.98301C2.39859 3.98301 2.3165 4.06509 2.3165 4.16634L2.3165 15.833C2.3165 15.9343 2.39859 16.0163 2.49984 16.0163L17.4998 16.0163C17.6011 16.0163 17.6832 15.9343 17.6832 15.833L17.6832 4.16634C17.6832 4.06509 17.6011 3.98301 17.4998 3.98301L2.49984 3.98301Z"></path><path d="M1.6665 4.16634C1.6665 3.7061 2.0396 3.33301 2.49984 3.33301L17.4998 3.33301C17.9601 3.33301 18.3332 3.7061 18.3332 4.16634L18.3332 6.66634L1.6665 6.66634L1.6665 4.16634Z" stroke="rgba(250, 81, 81, 1)" stroke-width="1.3" stroke-linejoin="round" stroke-linecap="round" ></path><path    stroke="rgba(250, 81, 81, 1)" stroke-width="1.3"  stroke-linecap="round"  d="M10.4168 9.58301L9.5835 14.1663"></path><path    stroke="rgba(250, 81, 81, 1)" stroke-width="1.3" stroke-linejoin="round" stroke-linecap="round"  d="M12.9165 9.58301L15.4165 11.6663L12.9165 14.1663"></path><path    stroke="rgba(250, 81, 81, 1)" stroke-width="1.3" stroke-linejoin="round" stroke-linecap="round"  d="M7.0835 9.58301L4.5835 11.6663L7.0835 14.1663"></path></svg>