<svg xmlns="http://www.w3.org/2000/svg" xmlns:xlink="http://www.w3.org/1999/xlink" width="14.22235107421875" height="14.2220458984375" viewBox="0 0 14.22235107421875 14.2220458984375" fill="none"><path d="M13.905 9.32327L12.6348 8.64416C12.6287 8.64091 12.6225 8.63805 12.6161 8.63558C12.6097 8.63311 12.6031 8.63106 12.5965 8.62941C12.5898 8.62777 12.583 8.62655 12.5762 8.62573C12.5694 8.62492 12.5625 8.62455 12.5557 8.62461L12.5379 8.62461C12.5306 8.62469 12.5234 8.62523 12.5163 8.62625C12.5091 8.62728 12.502 8.62877 12.495 8.6307C12.488 8.63266 12.4812 8.63506 12.4746 8.63791C12.4679 8.64075 12.4614 8.64403 12.4552 8.64772L11.5779 9.16683C11.568 9.17236 11.5585 9.17859 11.5494 9.1855C11.5463 9.18778 11.5432 9.19025 11.5403 9.19291C11.5375 9.19556 11.5348 9.19839 11.5322 9.20138C11.5297 9.20438 11.5273 9.2075 11.5252 9.21077C11.523 9.21405 11.5211 9.21744 11.5193 9.22095C11.5176 9.22447 11.5161 9.22808 11.5148 9.23177C11.5135 9.23547 11.5124 9.23923 11.5116 9.24306C11.5108 9.24689 11.5102 9.25075 11.5098 9.25466C11.5094 9.25856 11.5093 9.26247 11.5094 9.26639C11.5094 9.28238 11.5112 9.2975 11.5148 9.31172L11.5148 9.3135C11.529 9.35705 11.5592 9.3935 11.5974 9.41305L12.169 9.72239C12.1724 9.7243 12.1758 9.72631 12.1791 9.72844C12.1824 9.73056 12.1856 9.7328 12.1888 9.73514C12.1919 9.73748 12.195 9.73994 12.198 9.74247C12.201 9.74502 12.2039 9.74766 12.2067 9.75039C12.2095 9.75314 12.2122 9.75597 12.2149 9.75887C12.2175 9.7618 12.22 9.7648 12.2225 9.76787C12.2249 9.77097 12.2272 9.77413 12.2294 9.77736C12.2317 9.78061 12.2338 9.78392 12.2358 9.7873C12.2378 9.79067 12.2396 9.79412 12.2414 9.79762C12.2432 9.80112 12.2448 9.80469 12.2464 9.8083C12.2479 9.81192 12.2493 9.81558 12.2506 9.81928C12.2519 9.823 12.2531 9.82673 12.2541 9.83052C12.2552 9.83431 12.2561 9.83813 12.2569 9.84197C12.2577 9.84581 12.2583 9.84969 12.2589 9.85358C12.2594 9.85747 12.2598 9.86137 12.2601 9.86528C12.2604 9.8692 12.2605 9.87313 12.2605 9.87705C12.2606 9.881 12.2606 9.88495 12.2604 9.88889C12.2602 9.89284 12.2599 9.89678 12.2594 9.9007C12.259 9.90464 12.2584 9.90855 12.2577 9.91242C12.257 9.91631 12.2561 9.92017 12.2552 9.92398C12.2542 9.92783 12.2531 9.93163 12.2519 9.93538C12.2507 9.93913 12.2493 9.94284 12.2478 9.94652C12.2464 9.95019 12.2448 9.9538 12.2431 9.95734C12.2413 9.96091 12.2395 9.96442 12.2376 9.96786C12.2356 9.9713 12.2336 9.97467 12.2314 9.97797C12.2293 9.98128 12.227 9.9845 12.2246 9.98764C12.2222 9.9908 12.2197 9.99387 12.2171 9.99684C12.2145 9.99984 12.2119 10.0027 12.2091 10.0055C12.2063 10.0083 12.2034 10.0111 12.2005 10.0137C12.1975 10.0163 12.1945 10.0188 12.1913 10.0212C12.1882 10.0236 12.185 10.0259 12.1817 10.0281C12.1784 10.0303 12.1751 10.0324 12.1717 10.0344L7.18855 12.8699C7.18553 12.8717 7.18247 12.8733 7.17936 12.8749C7.17624 12.8764 7.17306 12.8779 7.16986 12.8792C7.16664 12.8806 7.16339 12.8818 7.16011 12.883C7.15681 12.8841 7.15349 12.8852 7.15014 12.8861C7.14678 12.887 7.14339 12.8878 7.13999 12.8885C7.13658 12.8893 7.13314 12.8899 7.1297 12.8904C7.12625 12.8909 7.1228 12.8913 7.11933 12.8915C7.11586 12.8918 7.11238 12.892 7.10891 12.892C7.10541 12.8921 7.10192 12.8921 7.09845 12.8919C7.09497 12.8917 7.0915 12.8915 7.08805 12.8911C7.08458 12.8907 7.08114 12.8902 7.0777 12.8896C7.07427 12.889 7.07086 12.8883 7.06749 12.8875C7.06409 12.8866 7.06074 12.8857 7.05742 12.8847C7.05408 12.8837 7.0508 12.8825 7.04755 12.8813C7.0443 12.88 7.04108 12.8787 7.03791 12.8772C7.03474 12.8758 7.03161 12.8743 7.02855 12.8726L2.04811 10.1793C2.04469 10.1774 2.04133 10.1754 2.03805 10.1733C2.03477 10.1711 2.03155 10.1689 2.02841 10.1666C2.02527 10.1643 2.0222 10.1618 2.01923 10.1593C2.01625 10.1568 2.01336 10.1541 2.01056 10.1514C2.00775 10.1487 2.00503 10.1459 2.00242 10.143C1.9998 10.1401 1.99727 10.1371 1.99486 10.134C1.99242 10.131 1.99011 10.1278 1.98789 10.1246C1.98567 10.1214 1.98356 10.1181 1.98156 10.1147C1.97956 10.1114 1.97767 10.108 1.97591 10.1045C1.97413 10.101 1.97247 10.0975 1.97094 10.0939C1.96939 10.0903 1.96797 10.0866 1.96667 10.083C1.96536 10.0793 1.96419 10.0755 1.96314 10.0718C1.96208 10.068 1.96116 10.0642 1.96036 10.0604C1.95955 10.0566 1.95886 10.0527 1.95831 10.0489C1.95777 10.045 1.95734 10.0411 1.95705 10.0372C1.95675 10.0333 1.95658 10.0294 1.95655 10.0255C1.95644 10.0216 1.95645 10.0177 1.95661 10.0138C1.95675 10.0099 1.95703 10.006 1.95744 10.0021C1.95784 9.99822 1.95838 9.99434 1.95903 9.99048C1.95969 9.98664 1.96047 9.98283 1.96138 9.97902C1.96228 9.97522 1.96331 9.97145 1.96447 9.96772C1.96563 9.96398 1.96691 9.9603 1.96831 9.95664C1.9697 9.953 1.97122 9.94941 1.97286 9.94584C1.97448 9.94231 1.97622 9.93881 1.97809 9.93538C1.97995 9.93194 1.98192 9.92858 1.98402 9.92527C1.98609 9.92197 1.98828 9.91873 1.99059 9.91556C1.99288 9.91241 1.99528 9.90933 1.99778 9.90631C2.00028 9.90331 2.00288 9.90041 2.00556 9.89756C2.00825 9.89473 2.01102 9.89198 2.01389 9.88933C2.01677 9.88669 2.01972 9.88414 2.02275 9.88167C2.02578 9.87922 2.02891 9.87686 2.03209 9.87459C2.03528 9.87234 2.03855 9.8702 2.04189 9.86816L2.66766 9.49483L2.70055 9.47439C2.76544 9.4335 2.75833 9.37483 2.75744 9.36772C2.75744 9.36061 2.75389 9.29216 2.70233 9.25839L2.68366 9.24683L1.80011 8.74372C1.7938 8.74006 1.78727 8.73683 1.78052 8.73403C1.77377 8.73123 1.76688 8.72889 1.75981 8.72702C1.75275 8.72514 1.74561 8.72375 1.73838 8.72281C1.73113 8.72189 1.72384 8.72145 1.71655 8.7215L1.69789 8.7215C1.67122 8.7215 1.64455 8.72861 1.62144 8.74105L0.308545 9.44505C0.302627 9.4485 0.296767 9.45205 0.290967 9.45567C0.285164 9.45931 0.279425 9.46305 0.273748 9.46686C0.26807 9.47069 0.262456 9.47461 0.256909 9.47861C0.251361 9.48264 0.245881 9.48673 0.24047 9.49092C0.235058 9.49512 0.229716 9.49941 0.224445 9.50377C0.219175 9.50814 0.213978 9.51261 0.208856 9.51714C0.203733 9.52169 0.198686 9.52631 0.193717 9.53102C0.188747 9.53573 0.183856 9.54052 0.179047 9.54539C0.174234 9.55027 0.169505 9.5552 0.164858 9.56023C0.160211 9.56527 0.155648 9.57038 0.15117 9.57555C0.146692 9.58073 0.1423 9.58598 0.137995 9.5913C0.133691 9.59663 0.129475 9.60202 0.12535 9.60748C0.121223 9.61295 0.117189 9.61848 0.113246 9.62408C0.109304 9.62967 0.105455 9.63533 0.1017 9.64105C0.0979431 9.64678 0.0942833 9.65256 0.0907197 9.65841C0.0871552 9.66425 0.0836891 9.67016 0.0803213 9.67612C0.0769525 9.68209 0.0736833 9.68809 0.0705136 9.69416C0.0673449 9.70023 0.0642766 9.70636 0.0613088 9.71252C0.0583422 9.7187 0.0554786 9.72492 0.0527183 9.73117C0.0499567 9.73744 0.0473 9.74375 0.0447478 9.75009C0.0421958 9.75645 0.0397494 9.76284 0.0374089 9.76928C0.0350683 9.77572 0.0328348 9.78219 0.0307089 9.78869C0.0285828 9.7952 0.0265645 9.80175 0.0246542 9.80831C0.0227448 9.81491 0.0209442 9.8215 0.0192527 9.82812C0.017562 9.83477 0.0159813 9.84142 0.0145104 9.84811C0.0130396 9.8548 0.0116802 9.86152 0.0104323 9.86823C0.00918328 9.87498 0.00804633 9.88173 0.00702131 9.88848C0.00599634 9.89527 0.00508386 9.90205 0.00428384 9.90884C0.00348281 9.91566 0.00279475 9.92247 0.0022198 9.92928C0.0016458 9.93611 0.00118434 9.94294 0.000835419 9.94977C0.000486433 9.95661 0.000250519 9.96345 0.000127554 9.9703C5.72205e-06 9.97714 -3.15905e-06 9.98398 0.00010103 9.99083C0.00187916 10.2184 0.124545 10.4264 0.317434 10.5313L6.85966 14.1677C6.86938 14.173 6.87928 14.1778 6.88938 14.1824C6.89945 14.1869 6.90969 14.191 6.92008 14.1948C6.93045 14.1986 6.94097 14.202 6.95161 14.205C6.96224 14.208 6.97297 14.2106 6.9838 14.2128C6.99463 14.215 7.00552 14.2168 7.01647 14.2182C7.02742 14.2197 7.03842 14.2207 7.04947 14.2213C7.0605 14.2219 7.07153 14.2221 7.08258 14.2219C7.09363 14.2218 7.10466 14.2212 7.11566 14.2202L7.12633 14.2202C7.22411 14.2193 7.32011 14.2175 7.37344 14.1713C7.38256 14.1635 7.39234 14.1567 7.40278 14.1508L13.9148 10.4104C13.9206 10.4071 13.9263 10.4038 13.932 10.4004C13.9377 10.3969 13.9433 10.3934 13.9489 10.3898C13.9544 10.3862 13.96 10.3825 13.9654 10.3787C13.9708 10.3749 13.9762 10.371 13.9815 10.367C13.9868 10.363 13.9921 10.359 13.9973 10.3548C14.0025 10.3506 14.0076 10.3464 14.0126 10.3421C14.0176 10.3378 14.0226 10.3334 14.0275 10.3289C14.0324 10.3244 14.0372 10.3198 14.042 10.3152C14.0467 10.3105 14.0514 10.3058 14.056 10.301C14.0606 10.2962 14.0651 10.2913 14.0695 10.2864C14.0739 10.2814 14.0783 10.2764 14.0825 10.2713C14.0868 10.2662 14.0909 10.261 14.095 10.2558C14.0991 10.2506 14.1031 10.2453 14.107 10.2399C14.1109 10.2345 14.1148 10.2291 14.1185 10.2236C14.1222 10.2181 14.1259 10.2126 14.1294 10.2069C14.133 10.2013 14.1364 10.1957 14.1398 10.1899C14.1431 10.1842 14.1464 10.1784 14.1496 10.1726C14.1527 10.1667 14.1558 10.1609 14.1588 10.1549C14.1618 10.149 14.1646 10.143 14.1674 10.137C14.1702 10.1309 14.1728 10.1248 14.1754 10.1187C14.178 10.1126 14.1805 10.1065 14.1828 10.1002C14.1852 10.094 14.1875 10.0878 14.1896 10.0815C14.1918 10.0752 14.1938 10.0689 14.1958 10.0626C14.1977 10.0562 14.1996 10.0498 14.2013 10.0434C14.2031 10.037 14.2047 10.0306 14.2062 10.0241C14.2078 10.0177 14.2092 10.0112 14.2105 10.0047C14.2118 9.99817 14.213 9.99164 14.2141 9.98509C14.2152 9.97855 14.2162 9.97198 14.2171 9.96539C14.2179 9.95881 14.2187 9.95222 14.2194 9.94561C14.22 9.939 14.2206 9.93237 14.221 9.92575C14.2215 9.91912 14.2218 9.9125 14.222 9.90586C14.2222 9.89923 14.2223 9.89259 14.2223 9.88594C14.2223 9.87172 14.2205 9.87883 14.2214 9.86372C14.2217 9.85684 14.2218 9.84997 14.2218 9.84308C14.2217 9.8362 14.2216 9.82931 14.2213 9.82244C14.2211 9.81556 14.2207 9.8087 14.2202 9.80183C14.2197 9.79498 14.2191 9.78813 14.2183 9.78128C14.2176 9.77444 14.2167 9.76761 14.2157 9.7608C14.2147 9.754 14.2136 9.7472 14.2124 9.74042C14.2112 9.73366 14.2099 9.72691 14.2084 9.72019C14.2069 9.71347 14.2054 9.70677 14.2037 9.70009C14.202 9.69344 14.2002 9.6868 14.1983 9.68019C14.1963 9.67358 14.1943 9.667 14.1921 9.66047C14.19 9.65394 14.1877 9.64745 14.1853 9.64098C14.1829 9.63455 14.1804 9.62814 14.1778 9.62177C14.1752 9.61539 14.1725 9.60908 14.1696 9.6028C14.1668 9.59653 14.1639 9.59031 14.1608 9.58414C14.1578 9.57798 14.1546 9.57187 14.1513 9.56581C14.1481 9.55975 14.1447 9.55375 14.1412 9.54781C14.1378 9.54187 14.1342 9.536 14.1305 9.53019C14.1268 9.52437 14.123 9.51864 14.1191 9.51295C14.1153 9.50728 14.1113 9.50167 14.1072 9.49613C14.1031 9.49059 14.0989 9.48512 14.0946 9.47973C14.0904 9.47434 14.086 9.46903 14.0815 9.46378C14.0771 9.45855 14.0725 9.45339 14.0679 9.44831C14.0632 9.44323 14.0585 9.43823 14.0537 9.43331C14.0489 9.42841 14.044 9.42359 14.039 9.41884C14.034 9.41409 14.0289 9.40944 14.0238 9.40487C14.0186 9.40031 14.0134 9.39584 14.0081 9.39147C14.0028 9.38709 13.9974 9.38281 13.992 9.37862C13.9865 9.37444 13.981 9.37034 13.9754 9.36634C13.9698 9.36234 13.9641 9.35845 13.9583 9.35466C13.9526 9.35086 13.9468 9.34716 13.9409 9.34356C13.9351 9.33998 13.9291 9.3365 13.9231 9.33311C13.9171 9.32973 13.9111 9.32645 13.905 9.32327ZM13.905 6.37572L12.6348 5.69661C12.6287 5.69336 12.6225 5.6905 12.6161 5.68803C12.6097 5.68556 12.6031 5.6835 12.5965 5.68184C12.5898 5.6802 12.583 5.67898 12.5762 5.67817C12.5694 5.67737 12.5625 5.677 12.5557 5.67705L12.5379 5.67705C12.5306 5.67711 12.5234 5.67766 12.5163 5.67867C12.5091 5.67969 12.502 5.68117 12.495 5.68313C12.488 5.68508 12.4812 5.68748 12.4746 5.69033C12.4679 5.69319 12.4614 5.69647 12.4552 5.70016L11.5779 6.21927C11.5679 6.22477 11.5584 6.231 11.5494 6.23794C11.5463 6.24022 11.5432 6.24269 11.5403 6.24534C11.5375 6.248 11.5348 6.25083 11.5322 6.25381C11.5297 6.25681 11.5273 6.25994 11.5252 6.2632C11.523 6.26648 11.5211 6.26989 11.5193 6.27339C11.5176 6.27691 11.5161 6.28052 11.5148 6.2842C11.5135 6.28791 11.5124 6.29167 11.5116 6.2955C11.5108 6.29934 11.5102 6.3032 11.5098 6.30709C11.5094 6.311 11.5093 6.31492 11.5094 6.31883C11.5094 6.33483 11.5112 6.34994 11.5148 6.36416L11.5148 6.36594C11.5164 6.37123 11.5183 6.37644 11.5205 6.38153C11.5226 6.38664 11.525 6.39162 11.5276 6.3965C11.5303 6.40137 11.5331 6.40609 11.5362 6.41067C11.5393 6.41527 11.5427 6.4197 11.5462 6.42395C11.5497 6.42822 11.5535 6.4323 11.5574 6.43617C11.5613 6.44008 11.5655 6.44377 11.5698 6.44725C11.5741 6.45075 11.5785 6.45402 11.5832 6.45705C11.5878 6.46011 11.5925 6.46292 11.5974 6.4655L12.169 6.77483C12.1724 6.77673 12.1758 6.77875 12.1791 6.78088C12.1824 6.783 12.1856 6.78523 12.1888 6.78758C12.1919 6.78992 12.195 6.79238 12.198 6.79491C12.201 6.79747 12.2039 6.80011 12.2067 6.80283C12.2095 6.80558 12.2122 6.80841 12.2149 6.81131C12.2175 6.81425 12.22 6.81725 12.2225 6.82033C12.2249 6.82342 12.2272 6.82658 12.2294 6.82981C12.2316 6.83306 12.2338 6.83636 12.2358 6.83973C12.2378 6.84312 12.2396 6.84656 12.2414 6.85006C12.2432 6.85358 12.2448 6.85714 12.2464 6.86075C12.2479 6.86438 12.2493 6.86803 12.2506 6.87172C12.2519 6.87544 12.2531 6.87919 12.2541 6.88297C12.2552 6.88675 12.2561 6.89056 12.2569 6.89441C12.2577 6.89827 12.2583 6.90214 12.2589 6.90602C12.2594 6.90992 12.2598 6.91383 12.2601 6.91773C12.2604 6.92166 12.2605 6.92558 12.2605 6.9295C12.2606 6.93345 12.2606 6.93741 12.2604 6.94134C12.2602 6.9453 12.2599 6.94923 12.2594 6.95314C12.259 6.95708 12.2584 6.96098 12.2577 6.96486C12.257 6.96875 12.2561 6.97261 12.2552 6.97644C12.2542 6.98028 12.2531 6.98406 12.2519 6.98781C12.2507 6.99158 12.2493 6.9953 12.2478 6.99895C12.2464 7.00262 12.2448 7.00623 12.2431 7.0098C12.2413 7.01336 12.2395 7.01686 12.2376 7.0203C12.2356 7.02373 12.2336 7.02711 12.2314 7.03041C12.2293 7.03372 12.227 7.03694 12.2246 7.04009C12.2222 7.04325 12.2197 7.04631 12.2171 7.0493C12.2145 7.0523 12.2119 7.05519 12.2091 7.05798C12.2063 7.0608 12.2034 7.0635 12.2005 7.06611C12.1975 7.06873 12.1945 7.07125 12.1913 7.07366C12.1882 7.07606 12.185 7.07837 12.1817 7.08056C12.1784 7.08277 12.1751 7.08486 12.1717 7.08683L7.18855 9.92239C7.18553 9.92414 7.18247 9.9258 7.17936 9.92736C7.17624 9.92892 7.17308 9.93038 7.16988 9.93173C7.16666 9.93309 7.16341 9.93434 7.16013 9.93548C7.15683 9.93664 7.1535 9.93769 7.15016 9.93863C7.1468 9.93956 7.14342 9.94039 7.14002 9.94111C7.13659 9.94183 7.13316 9.94244 7.12972 9.94294C7.12627 9.94344 7.12281 9.94383 7.11934 9.94411C7.11586 9.94439 7.11238 9.94456 7.10891 9.94462C7.10541 9.94469 7.10192 9.94462 7.09845 9.94447C7.09497 9.94431 7.0915 9.94403 7.08803 9.94364C7.08456 9.94327 7.08113 9.94277 7.0777 9.94214C7.07427 9.94155 7.07084 9.94083 7.06747 9.94C7.06408 9.93919 7.06072 9.93825 7.05741 9.9372C7.05406 9.93617 7.05078 9.93502 7.04753 9.93377C7.04428 9.93252 7.04106 9.93117 7.03791 9.92972C7.03474 9.92827 7.03161 9.9267 7.02855 9.92505L2.04811 7.23172C2.04469 7.22983 2.04133 7.22783 2.03805 7.2257C2.03477 7.22359 2.03155 7.22137 2.02841 7.21903C2.02527 7.2167 2.0222 7.21427 2.01923 7.21173C2.01625 7.20922 2.01336 7.20659 2.01056 7.20386C2.00775 7.20114 2.00503 7.19834 2.00242 7.19544C1.9998 7.19253 1.99727 7.18955 1.99486 7.18648C1.99242 7.18342 1.99011 7.18028 1.98789 7.17706C1.98567 7.17384 1.98356 7.17055 1.98156 7.16719C1.97956 7.16384 1.97767 7.16042 1.97591 7.15692C1.97413 7.15345 1.97247 7.14991 1.97094 7.14631C1.96939 7.14272 1.96797 7.13908 1.96667 7.13539C1.96536 7.13172 1.96419 7.128 1.96314 7.12422C1.96208 7.12047 1.96116 7.11667 1.96036 7.11284C1.95955 7.10903 1.95886 7.10517 1.95831 7.1013C1.95777 7.09744 1.95734 7.09355 1.95705 7.08964C1.95675 7.08575 1.95658 7.08184 1.95655 7.07794C1.95645 7.07406 1.95648 7.07017 1.95664 7.06628C1.9568 7.06241 1.95708 7.05852 1.95748 7.05464C1.95789 7.05078 1.95842 7.04694 1.95909 7.04309C1.95975 7.03927 1.96055 7.03545 1.96145 7.03167C1.96236 7.02789 1.96341 7.02414 1.96456 7.02042C1.96572 7.01672 1.967 7.01305 1.96841 7.00941C1.9698 7.00578 1.97131 7.0022 1.97295 6.99867C1.97458 6.99514 1.97633 6.99167 1.9782 6.98825C1.98006 6.98484 1.98203 6.98148 1.98413 6.9782C1.9862 6.97492 1.98839 6.97172 1.99069 6.96856C1.99297 6.96542 1.99538 6.96236 1.99788 6.95937C2.00036 6.95639 2.00295 6.95348 2.00564 6.95067C2.00833 6.94786 2.01109 6.94514 2.01395 6.9425C2.01681 6.93988 2.01977 6.93733 2.0228 6.93489C2.02583 6.93245 2.02894 6.93013 2.03213 6.92788C2.03531 6.92566 2.03856 6.92353 2.04189 6.9215L2.66678 6.54639L2.69966 6.52683C2.76455 6.48594 2.75744 6.42727 2.75655 6.42016C2.75655 6.41305 2.753 6.34461 2.70144 6.31083L2.68278 6.30016L1.79922 5.79616C1.79291 5.7925 1.78638 5.78927 1.77963 5.78647C1.77288 5.78369 1.76598 5.78134 1.75892 5.77945C1.75186 5.77758 1.74472 5.77619 1.73748 5.77525C1.73023 5.77434 1.72295 5.77391 1.71566 5.77394L1.69789 5.77394C1.67122 5.77394 1.64455 5.78105 1.62144 5.79439L0.308545 6.49661C0.302611 6.50006 0.296734 6.50361 0.290919 6.50725C0.285102 6.51091 0.279347 6.51464 0.273655 6.51847C0.267961 6.52231 0.262334 6.52625 0.256772 6.53027C0.251209 6.5343 0.245716 6.53842 0.240291 6.54261C0.234864 6.54683 0.229509 6.55113 0.224227 6.5555C0.218944 6.55989 0.213734 6.56436 0.2086 6.56891C0.203466 6.57347 0.198408 6.57811 0.193428 6.58283C0.188447 6.58756 0.183547 6.59237 0.178725 6.59725C0.173903 6.60214 0.169166 6.60711 0.164509 6.61216C0.159853 6.6172 0.155282 6.62233 0.150796 6.62752C0.14631 6.63272 0.141911 6.63798 0.137599 6.64333C0.133288 6.64867 0.129067 6.65409 0.124935 6.65956C0.120804 6.66505 0.116765 6.67059 0.112817 6.67622C0.10887 6.68184 0.105017 6.68752 0.101257 6.69325C0.0974989 6.699 0.093837 6.70481 0.0902714 6.71067C0.0867047 6.71655 0.0832369 6.72247 0.0798681 6.72844C0.0764984 6.73444 0.0732291 6.74047 0.0700603 6.74655C0.0668906 6.75264 0.0638234 6.75878 0.0608589 6.76497C0.0578933 6.77117 0.0550313 6.77741 0.052273 6.78369C0.0495156 6.78998 0.0468625 6.79631 0.0443134 6.80269C0.0417656 6.80906 0.0393245 6.81548 0.0369902 6.82192C0.0346547 6.82839 0.032427 6.83488 0.0303073 6.84141C0.0281886 6.84794 0.0261781 6.8545 0.0242761 6.86109C0.022375 6.86769 0.0205833 6.87431 0.0189009 6.88097C0.0172198 6.88763 0.0156494 6.89431 0.0141901 6.90102C0.0127296 6.90773 0.0113812 6.91447 0.0101448 6.92122C0.00890833 6.92797 0.00778436 6.93475 0.00677288 6.94153C0.00576144 6.94833 0.00486248 6.95512 0.004076 6.96194C0.00329059 6.96877 0.00261873 6.97559 0.00206041 6.98244C0.00150102 6.98928 0.00105572 6.99614 0.000724434 7.00298C0.000392139 7.00984 0.000174463 7.0167 7.13467e-05 7.02356C-3.28422e-05 7.03044 -2.29478e-05 7.0373 0.00010103 7.04416C0.00187916 7.27172 0.124545 7.47972 0.317434 7.5855L6.85966 11.221C6.86938 11.2263 6.87927 11.2312 6.88934 11.2358C6.89941 11.2404 6.90964 11.2445 6.92003 11.2484C6.93041 11.2522 6.94092 11.2556 6.95155 11.2586C6.96217 11.2617 6.97291 11.2643 6.98374 11.2666C6.99455 11.2688 7.00544 11.2707 7.01641 11.2721C7.02738 11.2736 7.03838 11.2747 7.04941 11.2753C7.06044 11.276 7.0715 11.2762 7.08256 11.2761C7.09361 11.2759 7.10464 11.2754 7.11566 11.2744L7.12633 11.2744C7.22411 11.2726 7.32011 11.2708 7.37344 11.2255C7.38252 11.2174 7.3923 11.2103 7.40278 11.2042L13.9148 7.46283C13.9206 7.45959 13.9263 7.45625 13.932 7.45281C13.9377 7.44939 13.9433 7.44586 13.9489 7.44223C13.9544 7.43862 13.96 7.43492 13.9654 7.43111C13.9708 7.42731 13.9762 7.42342 13.9815 7.41944C13.9868 7.41547 13.9921 7.41139 13.9973 7.40723C14.0025 7.40309 14.0076 7.39886 14.0126 7.39453C14.0176 7.39022 14.0226 7.38581 14.0275 7.38131C14.0324 7.37683 14.0372 7.37227 14.042 7.36761C14.0467 7.36297 14.0514 7.35825 14.056 7.35344C14.0606 7.34864 14.0651 7.34377 14.0695 7.3388C14.0739 7.33386 14.0783 7.32883 14.0825 7.32373C14.0868 7.31864 14.0909 7.31348 14.095 7.30823C14.0991 7.30302 14.1031 7.29772 14.107 7.29234C14.1109 7.28697 14.1148 7.28155 14.1185 7.27605C14.1222 7.27056 14.1259 7.26502 14.1294 7.25939C14.133 7.25378 14.1364 7.24811 14.1398 7.24237C14.1431 7.23666 14.1464 7.23088 14.1496 7.22503C14.1527 7.21919 14.1558 7.2133 14.1588 7.20736C14.1618 7.20142 14.1646 7.19544 14.1674 7.18941C14.1702 7.18337 14.1728 7.1773 14.1754 7.17117C14.178 7.16505 14.1805 7.15889 14.1828 7.15269C14.1852 7.14648 14.1875 7.14023 14.1896 7.13395C14.1918 7.12769 14.1938 7.12138 14.1958 7.11502C14.1977 7.10867 14.1996 7.1023 14.2013 7.09589C14.2031 7.08948 14.2047 7.08305 14.2062 7.07658C14.2078 7.07013 14.2092 7.06364 14.2105 7.05713C14.2118 7.05062 14.213 7.04409 14.2141 7.03753C14.2152 7.03098 14.2162 7.02442 14.2171 7.01783C14.2179 7.01125 14.2187 7.00466 14.2194 6.99805C14.22 6.99145 14.2206 6.98483 14.221 6.9782C14.2215 6.97158 14.2218 6.96494 14.222 6.9583C14.2222 6.95167 14.2223 6.94503 14.2223 6.93839C14.2223 6.92416 14.2205 6.93039 14.2214 6.91527C14.2216 6.90841 14.2217 6.90155 14.2217 6.89467C14.2217 6.8878 14.2215 6.88094 14.2212 6.87406C14.221 6.8672 14.2205 6.86034 14.22 6.85348C14.2195 6.84664 14.2189 6.83981 14.2181 6.83297C14.2174 6.82616 14.2165 6.81934 14.2155 6.81253C14.2145 6.80573 14.2134 6.79895 14.2122 6.7922C14.2109 6.78545 14.2096 6.7787 14.2081 6.77198C14.2067 6.76528 14.2051 6.75859 14.2034 6.75194C14.2017 6.74528 14.1999 6.73866 14.1979 6.73206C14.196 6.72547 14.1939 6.71892 14.1918 6.71239C14.1896 6.70587 14.1873 6.69939 14.185 6.69295C14.1825 6.68652 14.18 6.68013 14.1774 6.67377C14.1748 6.66742 14.1721 6.66111 14.1693 6.65484C14.1664 6.64859 14.1635 6.64237 14.1604 6.63622C14.1574 6.63006 14.1542 6.62397 14.151 6.61792C14.1477 6.61189 14.1443 6.60591 14.1408 6.59997C14.1374 6.59405 14.1338 6.58819 14.1301 6.58238C14.1264 6.57658 14.1226 6.57084 14.1188 6.56517C14.1149 6.55952 14.1109 6.55391 14.1068 6.54838C14.1028 6.54284 14.0986 6.53739 14.0943 6.53202C14.09 6.52664 14.0857 6.52133 14.0812 6.51609C14.0768 6.51088 14.0722 6.50572 14.0676 6.50064C14.0629 6.49558 14.0582 6.49058 14.0534 6.48567C14.0486 6.48077 14.0437 6.47595 14.0387 6.47122C14.0338 6.46648 14.0287 6.46184 14.0235 6.45728C14.0184 6.45272 14.0132 6.44825 14.0079 6.44387C14.0026 6.4395 13.9972 6.43523 13.9918 6.43105C13.9863 6.42686 13.9808 6.42277 13.9752 6.41877C13.9696 6.41478 13.964 6.41089 13.9582 6.40709C13.9525 6.40331 13.9467 6.39961 13.9409 6.39602C13.935 6.39242 13.9291 6.38894 13.9231 6.38555C13.9171 6.38217 13.9111 6.37889 13.905 6.37572ZM0.272991 4.59083L6.785 8.28594C6.865 8.3295 6.95566 8.34816 7.04544 8.33927C7.14944 8.33927 7.25433 8.33927 7.30589 8.28594L13.8703 4.59083C13.8763 4.58744 13.8822 4.58395 13.888 4.58036C13.8938 4.57677 13.8996 4.57309 13.9053 4.56931C13.911 4.56553 13.9166 4.56166 13.9222 4.55769C13.9278 4.55373 13.9333 4.54967 13.9388 4.54552C13.9442 4.54138 13.9496 4.53714 13.9549 4.53281C13.9602 4.5285 13.9654 4.52408 13.9706 4.51958C13.9758 4.51508 13.9808 4.5105 13.9858 4.50583C13.9908 4.50117 13.9958 4.49642 14.0006 4.49158C14.0055 4.48675 14.0102 4.48184 14.0149 4.47684C14.0196 4.47186 14.0242 4.4668 14.0287 4.46166C14.0333 4.45652 14.0377 4.4513 14.042 4.44602C14.0464 4.44073 14.0506 4.43538 14.0548 4.42994C14.059 4.42452 14.0631 4.41902 14.067 4.41345C14.071 4.40789 14.0749 4.40227 14.0787 4.39656C14.0825 4.39087 14.0862 4.38513 14.0899 4.37931C14.0935 4.3735 14.097 4.36763 14.1004 4.36169C14.1038 4.35577 14.1071 4.34978 14.1104 4.34373C14.1136 4.3377 14.1167 4.33161 14.1197 4.32545C14.1227 4.31931 14.1256 4.31313 14.1285 4.30688C14.1313 4.30064 14.134 4.29436 14.1366 4.28802C14.1392 4.28169 14.1417 4.27531 14.1441 4.26891C14.1465 4.2625 14.1488 4.25605 14.1509 4.24955C14.1531 4.24306 14.1552 4.23655 14.1572 4.22998C14.1591 4.22342 14.161 4.21684 14.1627 4.21022C14.1645 4.20359 14.1661 4.19695 14.1676 4.19028C14.1691 4.18361 14.1705 4.17691 14.1719 4.17019C14.1732 4.16347 14.1744 4.15673 14.1754 4.14997C14.1765 4.14322 14.1775 4.13644 14.1784 4.12964C14.1792 4.12286 14.18 4.11605 14.1806 4.10923C14.1812 4.10242 14.1817 4.09561 14.1821 4.08877C14.1825 4.08194 14.1828 4.07509 14.183 4.06825C14.1832 4.06141 14.1833 4.05456 14.1832 4.04772C14.1833 4.04087 14.1832 4.03403 14.183 4.02719C14.1828 4.02034 14.1825 4.01352 14.1821 4.00667C14.1817 3.99984 14.1812 3.99302 14.1806 3.9862C14.18 3.97939 14.1792 3.97258 14.1784 3.96578C14.1775 3.959 14.1765 3.95222 14.1754 3.94547C14.1744 3.93872 14.1732 3.93197 14.1719 3.92525C14.1705 3.91853 14.1691 3.91183 14.1676 3.90516C14.1661 3.89848 14.1645 3.89184 14.1627 3.88522C14.161 3.87861 14.1591 3.87202 14.1572 3.86545C14.1552 3.85891 14.1531 3.85239 14.1509 3.84589C14.1488 3.83941 14.1465 3.83295 14.1441 3.82653C14.1417 3.82013 14.1392 3.81375 14.1366 3.80742C14.134 3.80109 14.1313 3.79481 14.1285 3.78856C14.1256 3.78233 14.1227 3.77614 14.1197 3.76998C14.1167 3.76384 14.1136 3.75775 14.1104 3.7517C14.1071 3.74567 14.1038 3.73969 14.1004 3.73375C14.097 3.72781 14.0935 3.72194 14.0899 3.71613C14.0862 3.71031 14.0825 3.70456 14.0787 3.69886C14.0749 3.69317 14.071 3.68755 14.067 3.68198C14.063 3.67642 14.059 3.67094 14.0548 3.6655C14.0506 3.66008 14.0464 3.65472 14.042 3.64942C14.0377 3.64414 14.0333 3.63892 14.0287 3.63378C14.0242 3.62864 14.0196 3.62358 14.0149 3.61858C14.0102 3.61361 14.0055 3.6087 14.0006 3.60386C13.9958 3.59903 13.9908 3.59428 13.9858 3.58961C13.9808 3.58495 13.9757 3.58036 13.9706 3.57586C13.9654 3.57136 13.9602 3.56695 13.9549 3.56262C13.9496 3.55831 13.9442 3.55406 13.9388 3.54991C13.9333 3.54577 13.9278 3.54172 13.9222 3.53775C13.9166 3.53378 13.911 3.52991 13.9053 3.52612C13.8996 3.52234 13.8938 3.51867 13.888 3.51508C13.8822 3.5115 13.8763 3.50802 13.8703 3.50461L7.41078 0.0815016C7.40603 0.0782098 7.40122 0.0750094 7.39636 0.0719C7.39149 0.0687906 7.38656 0.0657744 7.38159 0.0628516C7.37661 0.0599286 7.37158 0.0571016 7.3665 0.0543703C7.36141 0.051638 7.35627 0.0490036 7.35108 0.0464672C7.34589 0.0439297 7.34066 0.0414916 7.33538 0.0391531C7.33009 0.0368145 7.32478 0.0345766 7.31942 0.0324391C7.31405 0.0303027 7.30864 0.0282683 7.3032 0.0263359C7.29777 0.0244036 7.29228 0.0225755 7.28678 0.0208516C7.28127 0.0191266 7.27572 0.0175072 7.27016 0.0159937C7.26458 0.0144792 7.25899 0.0130708 7.25336 0.0117688C7.24774 0.0104666 7.24208 0.00927133 7.23642 0.00818283C7.23074 0.00709528 7.22505 0.00611561 7.21934 0.00524372C7.21363 0.00437081 7.20791 0.00360673 7.20219 0.00295156C7.19644 0.00229633 7.19069 0.00175 7.18494 0.00131249C7.17917 0.000874997 7.17341 0.000546872 7.16764 0.000328123C7.16186 0.000109375 7.15609 0 7.15033 0C7.14455 0 7.13878 0.000109375 7.13302 0.000328123C7.12724 0.000546872 7.12147 0.000874997 7.11572 0.00131249C7.10997 0.00175 7.10422 0.00229633 7.09849 0.00295156C7.09274 0.00360673 7.08702 0.00437081 7.08131 0.00524372C7.07559 0.00611561 7.06991 0.00709528 7.06425 0.00818283C7.05856 0.00927133 7.05292 0.0104666 7.0473 0.0117688C7.04167 0.0130708 7.03606 0.0144792 7.0305 0.0159937C7.02492 0.0175072 7.01938 0.0191266 7.01388 0.0208516C7.00836 0.0225755 7.00289 0.0244036 6.99745 0.0263359C6.99202 0.0282683 6.98661 0.0303027 6.98125 0.0324391C6.97588 0.0345766 6.97056 0.0368145 6.96528 0.0391531C6.96 0.0414916 6.95477 0.0439297 6.94958 0.0464672C6.94439 0.0490036 6.93925 0.051638 6.93417 0.0543703C6.92908 0.0571016 6.92403 0.0599286 6.91906 0.0628516C6.91408 0.0657744 6.90916 0.0687906 6.9043 0.0719C6.89942 0.0750094 6.89463 0.0782098 6.88989 0.0815016L0.325434 3.50372C0.319395 3.50702 0.313416 3.51041 0.307494 3.51391C0.301572 3.51741 0.295713 3.52102 0.289914 3.5247C0.284116 3.52842 0.278383 3.53222 0.272716 3.53611C0.267047 3.54002 0.261448 3.544 0.255917 3.54809C0.250386 3.55219 0.244928 3.55636 0.239542 3.56064C0.234155 3.56492 0.228842 3.5693 0.223606 3.57375C0.218369 3.57822 0.213211 3.58277 0.20813 3.58739C0.203048 3.59203 0.19805 3.59675 0.193131 3.60156C0.188213 3.60637 0.183378 3.61127 0.178628 3.61623C0.173878 3.62122 0.169214 3.62628 0.164638 3.63141C0.160059 3.63655 0.155572 3.64175 0.151175 3.64703C0.146777 3.65233 0.142471 3.65769 0.138257 3.66313C0.134044 3.66856 0.129925 3.67408 0.1259 3.67966C0.121875 3.68523 0.117948 3.69088 0.114117 3.69659C0.110286 3.70231 0.106555 3.70808 0.102923 3.71392C0.0992906 3.71977 0.0957599 3.72567 0.0923306 3.73163C0.0889005 3.73759 0.0855744 3.74361 0.0823527 3.74969C0.0791297 3.75577 0.076012 3.76189 0.0729995 3.76808C0.0699869 3.77427 0.0670817 3.7805 0.0642839 3.78678C0.0614859 3.79306 0.0587964 3.79939 0.0562152 3.80577C0.0536338 3.81214 0.051163 3.81856 0.0488025 3.82503C0.0464433 3.8315 0.0441947 3.83798 0.0420573 3.84452C0.0399198 3.85106 0.0378953 3.85764 0.0359838 3.86423C0.0340723 3.87086 0.032275 3.8775 0.0305917 3.88416C0.0289083 3.89083 0.02734 3.89753 0.0258869 3.90425C0.0244328 3.91097 0.0230948 3.91772 0.0218728 3.92448C0.020652 3.93127 0.0195469 3.93805 0.0185572 3.94484C0.0175688 3.95166 0.0166973 3.95848 0.0159433 3.96531C0.015189 3.97216 0.0145521 3.97902 0.0140323 3.98586C0.0135135 3.99273 0.0131125 3.99959 0.0128291 4.00645C0.0125458 4.01333 0.0123807 4.02022 0.0123338 4.02709C0.0122859 4.03397 0.0123562 4.04084 0.0125448 4.04772C-0.0398991 4.26461 0.116545 4.4815 0.272102 4.58994L0.272102 4.59083L0.272991 4.59083Z"   fill="currentColor" ></path></svg>