<svg xmlns="http://www.w3.org/2000/svg" xmlns:xlink="http://www.w3.org/1999/xlink" width="9.60009765625" height="9.60009765625" viewBox="0 0 9.60009765625 9.60009765625" fill="none"><path d="M4.7998 8.7998C5.90436 8.7998 6.90436 8.35209 7.62822 7.62822C8.35209 6.90436 8.7998 5.90436 8.7998 4.7998C8.7998 3.69524 8.35209 2.69524 7.62822 1.97138C6.90436 1.24752 5.90436 0.799805 4.7998 0.799805C3.69524 0.799805 2.69524 1.24752 1.97138 1.97138C1.24752 2.69524 0.799805 3.69524 0.799805 4.7998C0.799805 5.90436 1.24752 6.90436 1.97138 7.62822C2.69524 8.35209 3.69524 8.7998 4.7998 8.7998Z" stroke="rgba(0, 186, 173, 1)" stroke-width="0.7999999999999999" stroke-linejoin="round"  ></path><path    stroke="rgba(0, 186, 173, 1)" stroke-width="0.7999999999999999" stroke-linejoin="round" stroke-linecap="round"  d="M4.79961 5.72441L4.79961 4.92441C5.46235 4.92441 5.99961 4.38715 5.99961 3.72441C5.99961 3.06167 5.46235 2.52441 4.79961 2.52441C4.13687 2.52441 3.59961 3.06167 3.59961 3.72441"></path><path d="M4.7998 7.5249C5.07594 7.5249 5.2998 7.30104 5.2998 7.0249C5.2998 6.74876 5.07594 6.5249 4.7998 6.5249C4.52366 6.5249 4.2998 6.74876 4.2998 7.0249C4.2998 7.30104 4.52366 7.5249 4.7998 7.5249Z" fill-rule="evenodd"  fill="#00BAAD" ></path></svg>