<svg t="1742347636202" class="icon" viewBox="0 0 1024 1024" version="1.1" xmlns="http://www.w3.org/2000/svg" p-id="1480" width="32" height="32"><path d="M273.066667 512a42.666667 42.666667 0 0 1 42.666666-42.666667h494.293334l-97.834667-97.834666a42.666667 42.666667 0 1 1 60.373333-60.330667l141.098667 141.098667a85.333333 85.333333 0 0 1 1.237333 119.466666l-134.826666 140.458667a42.666667 42.666667 0 1 1-61.568-59.093333L812.970667 554.666667H315.733333a42.666667 42.666667 0 0 1-42.666666-42.666667zM426.666667 42.666667a42.666667 42.666667 0 1 1 0 85.333333H170.666667v768h246.357333a42.666667 42.666667 0 0 1 0 85.333333H170.666667a85.333333 85.333333 0 0 1-85.333334-85.333333V128a85.333333 85.333333 0 0 1 85.333334-85.333333h256z"  p-id="1481"></path></svg>