<svg xmlns="http://www.w3.org/2000/svg" xmlns:xlink="http://www.w3.org/1999/xlink" width="16" height="16" viewBox="0 0 16 16" fill="none"><path   fill="rgba(156, 163, 175, 1)"  d="M5.66675 7.08063L7.08096 5.66642C7.60166 5.14572 8.44588 5.14572 8.96658 5.66642L10.3808 7.08063C10.9015 7.60133 10.9015 8.44555 10.3808 8.96625L8.96658 10.3805C8.44588 10.9012 7.60166 10.9012 7.08096 10.3805L5.66675 8.96625C5.14605 8.44555 5.14605 7.60133 5.66675 7.08063ZM6.60956 8.02344C6.60956 8.02344 6.60956 8.02344 6.60956 8.02344L8.02377 9.43765C8.02377 9.43765 8.02377 9.43765 8.02377 9.43765L9.43798 8.02344C9.43798 8.02344 9.43798 8.02344 9.43798 8.02344L8.02377 6.60922C8.02377 6.60922 8.02377 6.60922 8.02377 6.60922L6.60956 8.02344Z"></path><path    stroke="rgba(156, 163, 175, 1)" stroke-width="1.3333333333333333"  stroke-linecap="round"  d="M13.3734 5.33333C12.3916 3.3577 10.3529 2 7.99715 2C5.64131 2 3.64855 3.3577 2.66675 5.33333"></path><path    stroke="rgba(156, 163, 175, 1)" stroke-width="1.3333333333333333"  stroke-linecap="round"  d="M2.66675 2.66699L2.66675 5.33366"></path><path    stroke="rgba(156, 163, 175, 1)" stroke-width="1.3333333333333333"  stroke-linecap="round"  d="M4.9268 5.33301L2.66675 5.33301"></path><path    stroke="rgba(156, 163, 175, 1)" stroke-width="1.3333333333333333"  stroke-linecap="round"  d="M2.66675 10.667C3.64855 12.6426 5.68725 14.0003 8.04308 14.0003C10.3989 14.0003 12.3916 12.6426 13.3734 10.667"></path><path    stroke="rgba(156, 163, 175, 1)" stroke-width="1.3333333333333333"  stroke-linecap="round"  d="M13.3733 13.3337L13.3733 10.667"></path><path    stroke="rgba(156, 163, 175, 1)" stroke-width="1.3333333333333333"  stroke-linecap="round"  d="M11.1133 10.667L13.3733 10.667"></path></svg>