<svg xmlns="http://www.w3.org/2000/svg" xmlns:xlink="http://www.w3.org/1999/xlink" width="14.00030517578125" height="14.156005859375" viewBox="0 0 14.00030517578125 14.156005859375" fill="none"><path d="M13.6073 11.011L12.4273 11.011L12.4273 12.191C12.4273 12.408 12.2513 12.584 12.0343 12.584L11.2483 12.584C11.0313 12.584 10.8553 12.408 10.8553 12.191L10.8553 11.011L9.67533 11.011C9.45833 11.011 9.28233 10.835 9.28233 10.618L9.28233 9.832C9.28233 9.615 9.45833 9.439 9.67533 9.439L10.8553 9.439L10.8553 8.259C10.8553 8.042 11.0313 7.866 11.2483 7.866L12.0343 7.866C12.2513 7.866 12.4273 8.042 12.4273 8.259L12.4273 9.439L13.6073 9.439C13.8243 9.439 14.0003 9.615 14.0003 9.832L14.0003 10.618C14.0003 10.835 13.8243 11.011 13.6073 11.011ZM10.0683 8.652L9.37133 8.652C9.61833 8.508 9.84933 8.342 10.0683 8.159L10.0683 8.652ZM6.90933 8.33C4.67133 8.33 2.85833 6.465 2.85833 4.165C2.85833 1.865 4.67233 0 6.90933 0C9.14633 0 10.9603 1.865 10.9603 4.165C10.9613 6.465 9.14733 8.33 6.90933 8.33ZM6.90933 9.334C7.51933 9.334 8.10033 9.215 8.64033 9.008C8.55633 9.133 8.49433 9.276 8.49433 9.438L8.49433 11.011C8.49433 11.445 8.84633 11.797 9.28033 11.797L10.0663 11.797L10.0663 12.583C10.0663 13.017 10.4183 13.369 10.8523 13.369L12.4253 13.369C12.8593 13.369 13.2113 13.017 13.2113 12.583L13.2113 12.11C13.5573 12.677 13.6873 12.956 13.6873 12.956C13.9973 13.501 13.7263 14.156 13.1233 14.156L6.90033 14.156L0.674323 14.156C0.072323 14.156 -0.156677 13.561 0.110323 12.956C0.110323 12.956 0.553324 11.986 2.10733 9.874C2.51033 9.326 3.02733 8.678 3.57133 8.018C4.46033 8.834 5.62833 9.334 6.90933 9.334Z"   fill="currentColor" ></path></svg>