<svg xmlns="http://www.w3.org/2000/svg" xmlns:xlink="http://www.w3.org/1999/xlink" width="16" height="16" viewBox="0 0 16 16" fill="none"><path d="M12.9999 4.66634C13.9204 4.66634 14.6666 3.92014 14.6666 2.99967C14.6666 2.0792 13.9204 1.33301 12.9999 1.33301C12.0795 1.33301 11.3333 2.0792 11.3333 2.99967C11.3333 3.92014 12.0795 4.66634 12.9999 4.66634Z" stroke="rgba(156, 163, 175, 1)" stroke-width="1.1" stroke-linejoin="round" stroke-linecap="round" ></path><path d="M2.99992 14.6663C3.92039 14.6663 4.66658 13.9201 4.66658 12.9997C4.66658 12.0792 3.92039 11.333 2.99992 11.333C2.07945 11.333 1.33325 12.0792 1.33325 12.9997C1.33325 13.9201 2.07945 14.6663 2.99992 14.6663Z" stroke="rgba(156, 163, 175, 1)" stroke-width="1.1" stroke-linejoin="round" stroke-linecap="round" ></path><path d="M4.66658 1.33301L1.33325 1.33301L1.33325 4.66634L4.66658 4.66634L4.66658 1.33301Z" stroke="rgba(156, 163, 175, 1)" stroke-width="1.1" stroke-linejoin="round" stroke-linecap="round" ></path><path d="M14.6666 11.333L11.3333 11.333L11.3333 14.6663L14.6666 14.6663L14.6666 11.333Z" stroke="rgba(156, 163, 175, 1)" stroke-width="1.1" stroke-linejoin="round" stroke-linecap="round" ></path><path    stroke="rgba(156, 163, 175, 1)" stroke-width="1.1" stroke-linejoin="round" stroke-linecap="round"  d="M11.3334 3L4.66675 3"></path><path    stroke="rgba(156, 163, 175, 1)" stroke-width="1.1" stroke-linejoin="round" stroke-linecap="round"  d="M11.3334 13L4.66675 13"></path><path    stroke="rgba(156, 163, 175, 1)" stroke-width="1.1" stroke-linejoin="round" stroke-linecap="round"  d="M3 11.3337L3 4.66699"></path><path    stroke="rgba(156, 163, 175, 1)" stroke-width="1.1" stroke-linejoin="round" stroke-linecap="round"  d="M13 11.3337L13 4.66699"></path></svg>