<svg xmlns="http://www.w3.org/2000/svg" xmlns:xlink="http://www.w3.org/1999/xlink" width="13.65625" height="13.634765625" viewBox="0 0 13.65625 13.634765625" fill="none"><path d="M5.27 1.20203C5.57933 0.214025 6.11667 -0.207975 7.17667 0.0980248L7.20333 0.106692C7.51333 0.202025 7.87 0.383353 8.20467 0.687353C8.73133 1.16735 9.04467 1.8327 9.04467 2.6687C9.04467 3.41536 9.00133 3.8767 8.87467 4.40003L8.87067 4.4147L11.6127 4.4147C13.2887 4.4147 13.9547 5.54536 13.5333 7.42536L13.4973 7.57936L13.412 7.8607L13.09 8.90936L12.9393 9.3887L12.796 9.8367L12.5293 10.6434L12.3473 11.1687L12.2347 11.482L12.0787 11.894L11.9833 12.132C11.522 13.2454 10.57 13.7567 9.32533 13.61L3.27667 13.16C3.23823 13.158 3.19978 13.1562 3.16133 13.1547L2.92133 13.1494L2.24067 13.1494L2.04533 13.146L1.88933 13.1394L1.75933 13.1274L1.70133 13.1187L1.59 13.0967L1.41 13.0494C0.482672 12.774 0 11.988 0 10.868L0 6.43803C0 5.02336 0.858672 4.21603 2.32133 4.21603L3.50533 4.21536L3.58667 4.15336C3.64434 4.10578 3.70083 4.05683 3.75612 4.00648C3.81141 3.95614 3.86542 3.90447 3.91819 3.8515C3.97095 3.79852 4.02239 3.74428 4.0725 3.68878C4.12261 3.63328 4.17134 3.57659 4.21867 3.51872C4.26602 3.46083 4.31191 3.40183 4.35636 3.3417C4.40081 3.28158 4.44378 3.22041 4.48523 3.15819C4.52669 3.09595 4.56661 3.03275 4.60498 2.96859C4.64336 2.90441 4.68014 2.83933 4.71533 2.77336L4.81067 2.5867C4.906 2.3907 4.984 2.18536 5.058 1.94603L5.07 1.90536L5.27 1.20203ZM6.65533 1.32802C6.62667 1.32135 6.614 1.3307 6.6 1.37135L6.53933 1.6047L6.37267 2.20536L6.33267 2.3387C6.28997 2.48109 6.2418 2.62162 6.18816 2.76028C6.13452 2.89894 6.07558 3.0353 6.01133 3.16936C5.97531 3.24317 5.93781 3.3162 5.89883 3.38848C5.85984 3.46077 5.81939 3.53222 5.7775 3.60286C5.73561 3.67348 5.6923 3.74325 5.64756 3.81212C5.60283 3.881 5.55672 3.94894 5.50922 4.01594C5.46173 4.08294 5.41289 4.14894 5.36272 4.21395C5.31255 4.27895 5.26106 4.34292 5.20828 4.40584C5.15552 4.46877 5.10147 4.53059 5.04617 4.59131C4.99087 4.65203 4.93437 4.71159 4.87667 4.77003C4.75931 4.89172 4.6363 5.00741 4.50766 5.11713C4.37902 5.22681 4.24536 5.33002 4.10667 5.4267L4.19267 5.36536L4.19267 11.8874L9.45333 12.2834C10.108 12.36 10.4787 12.188 10.7067 11.7194L10.7513 11.622L10.8413 11.3974L10.99 11.004L11.098 10.7027L11.2733 10.1954L11.3993 9.81936L11.6707 8.97936L11.9707 8.0207L12.212 7.22603C12.5087 6.03736 12.334 5.74803 11.6127 5.74803L8.21133 5.74803C8.19472 5.74803 8.17811 5.74755 8.16152 5.74658C8.14492 5.74559 8.12838 5.74412 8.11186 5.74217C8.09536 5.7402 8.07892 5.73775 8.06256 5.73481C8.0462 5.73186 8.02994 5.72844 8.01378 5.72453C7.99762 5.72062 7.98161 5.71623 7.96572 5.71138C7.94983 5.7065 7.93408 5.70117 7.9185 5.69539C7.90292 5.68958 7.88753 5.68333 7.87233 5.67662C7.85712 5.66991 7.84212 5.66273 7.82734 5.65514C7.81258 5.64752 7.79803 5.63948 7.78373 5.63102C7.76944 5.62255 7.75539 5.61366 7.74162 5.60434C7.72786 5.59503 7.71438 5.58533 7.70117 5.57522C7.68797 5.56511 7.67509 5.55463 7.66252 5.54375C7.64995 5.53288 7.63772 5.52163 7.62581 5.51003C7.61392 5.49842 7.60238 5.48647 7.59117 5.47419C7.57998 5.46189 7.56917 5.44928 7.55873 5.43634C7.5483 5.42341 7.53825 5.41017 7.52859 5.39664C7.51894 5.38311 7.5097 5.3693 7.50087 5.35522C7.49205 5.34113 7.48364 5.3268 7.47566 5.31222C7.46767 5.29763 7.46014 5.28283 7.45305 5.2678C7.44595 5.25277 7.43931 5.23753 7.43313 5.22211C7.42692 5.20669 7.4212 5.19109 7.41594 5.17533C7.41067 5.15955 7.40589 5.14364 7.40158 5.12759C7.39725 5.11153 7.39342 5.09538 7.39006 5.07909C7.3867 5.06281 7.38384 5.04644 7.38147 5.03C7.37909 5.01355 7.3772 4.99705 7.3758 4.98048C7.37441 4.96392 7.3735 4.94733 7.37309 4.9307C7.37267 4.91408 7.37277 4.89747 7.37334 4.88086C7.37392 4.86425 7.37498 4.84767 7.37656 4.83112C7.37813 4.81456 7.38017 4.79808 7.38272 4.78167C7.38527 4.76523 7.38831 4.74891 7.39183 4.73266C7.39534 4.71641 7.39933 4.70028 7.40381 4.68428C7.4083 4.66827 7.41325 4.65241 7.41867 4.6367L7.45267 4.5367L7.50467 4.36603C7.66533 3.80736 7.71133 3.44203 7.71133 2.6687C7.71133 1.91203 7.29133 1.5287 6.82 1.38335L6.762 1.36535L6.65533 1.32802ZM2.85933 5.5487L2.322 5.5487C1.578 5.5487 1.334 5.7787 1.334 6.43803L1.334 10.868C1.334 11.462 1.48933 11.7014 1.862 11.79L1.88533 11.7954L1.944 11.804L2.024 11.8107L2.20467 11.8147L2.65133 11.8147L2.85933 11.816L2.85933 5.54936L2.85933 5.5487Z"   fill="#1A79FF" ></path></svg>