<svg t="1741247708029" class="icon" viewBox="0 0 1066 1024" version="1.1" xmlns="http://www.w3.org/2000/svg" p-id="7996" width="32" height="32"><path d="M81.066667 448a401.066667 401.066667 0 0 1 802.133333 0 399.402667 399.402667 0 0 1-91.605333 255.146667l159.445333 159.445333a38.4 38.4 0 1 1-54.314667 54.314667l-159.445333-159.445334A399.402667 399.402667 0 0 1 482.133333 849.066667a401.066667 401.066667 0 0 1-401.066666-401.066667z m401.066666-324.266667a324.266667 324.266667 0 1 0 0 648.533334 324.266667 324.266667 0 0 0 0-648.533334zM334.293333 278.826667A208.554667 208.554667 0 0 1 482.133333 217.6c57.728 0 110.08 23.466667 147.84 61.226667a38.4 38.4 0 1 1-54.314666 54.314666A131.712 131.712 0 0 0 482.133333 294.4c-36.522667 0-69.546667 14.762667-93.525333 38.741333a38.4 38.4 0 1 1-54.314667-54.314666z"  p-id="7997"></path></svg>
