<svg xmlns="http://www.w3.org/2000/svg" xmlns:xlink="http://www.w3.org/1999/xlink" width="14.294921875" height="14" viewBox="0 0 14.294921875 14" fill="none">
<path   fill-rule="evenodd"  fill="#576D9C"  d="M13.3362 6.1616C13.2724 2.75321 10.6302 0 7.38573 0L6.90923 0C3.66475 0 1.02257 2.75321 0.958715 6.16112C0.388823 6.49134 0 7.10078 0 7.80552L0 8.75852C0 9.80967 0.854838 10.6645 1.90599 10.6645C2.95715 10.6645 3.81199 9.80967 3.81199 8.75852L3.81199 7.80552C3.81047 6.76086 2.96871 5.91187 1.9241 5.90143C2.11041 3.14012 4.27228 0.952997 6.90923 0.952997L7.38573 0.952997C10.0231 0.952997 12.1845 3.14012 12.3709 5.90143C11.3262 5.91187 10.4845 6.76086 10.483 7.80552L10.483 8.75852C10.483 9.61907 11.0595 10.3395 11.8438 10.5754C11.136 11.5071 10.1252 12.1627 8.98581 12.429C8.82449 11.9452 8.37218 11.6185 7.86222 11.6175C7.20476 11.6175 6.67098 12.1513 6.67098 12.8088C6.67098 13.4662 7.20476 14 7.86222 14C8.27487 13.9995 8.6576 13.7845 8.87288 13.4325C10.611 13.1284 12.1268 12.0737 13.016 10.5497C13.7584 10.2895 14.295 9.58905 14.295 8.75852L14.295 7.80552C14.295 7.10078 13.9061 6.49134 13.3362 6.1616ZM2.85899 7.80552L2.85899 8.75852C2.85899 9.28409 2.43157 9.71151 1.90599 9.71151C1.38042 9.71151 0.952997 9.28409 0.952997 8.75852L0.952997 7.80552C0.952997 7.27994 1.38042 6.85252 1.90599 6.85252C2.43157 6.85252 2.85899 7.27994 2.85899 7.80552ZM13.342 8.75852C13.342 9.26932 12.9369 9.68435 12.4318 9.70723L12.3947 9.6896C12.3913 9.69722 12.3861 9.70341 12.3828 9.71056C11.8592 9.70716 11.4365 9.28206 11.436 8.75852L11.436 7.80552C11.436 7.27994 11.8634 6.85252 12.389 6.85252C12.9145 6.85252 13.342 7.27994 13.342 7.80552L13.342 8.75852Z">
</path>
</svg>
