<svg xmlns="http://www.w3.org/2000/svg" xmlns:xlink="http://www.w3.org/1999/xlink" width="14.00628662109375" height="13.206298828125" viewBox="0 0 14.00628662109375 13.206298828125" fill="none"><path d="M13.8766 5.30469C13.8734 5.27656 13.8703 5.25313 13.8656 5.23906L13.8656 5.22656L13.8594 5.19219C13.7484 4.65156 13.3906 4.30312 12.9453 4.30312L12.8719 4.30312C12.1125 4.30312 11.4969 3.68438 11.4969 2.92812C11.4969 2.75312 11.5781 2.50469 11.6125 2.41719C11.8281 1.91406 11.5984 1.34063 11.0656 1.04844L9.38906 0.0999998L9.35781 0.0890625C9.23281 0.0484375 9.0875 0 8.925 0C8.62188 0 8.28125 0.140625 8.07031 0.351562C7.80625 0.6125 7.27031 1.00156 6.95156 1.00156C6.63438 1.00156 6.09688 0.614062 5.83281 0.351562C5.60781 0.129688 5.29688 0 4.97813 0C4.81094 0 4.67031 0.046875 4.54531 0.0890625L4.51719 0.0999998L2.75938 1.05156L2.74844 1.05781C2.32188 1.325 2.14844 1.9375 2.36563 2.42344L2.36875 2.42969L2.37188 2.43594C2.40625 2.5125 2.5125 2.77187 2.5125 2.99844C2.5125 3.75781 1.89375 4.37344 1.1375 4.37344L1.06406 4.37344C0.598438 4.37344 0.25 4.71719 0.15 5.26875L0.143748 5.3L0.143748 5.31094C0.143748 5.32656 0.137498 5.34844 0.132813 5.37656C0.09375 5.6125 0 6.16875 0 6.62344C0 7.07812 0.0921875 7.63438 0.132813 7.87031C0.135936 7.89844 0.139063 7.92188 0.143748 7.93594L0.143748 7.94844L0.15 7.98281C0.260936 8.52344 0.61875 8.87187 1.06406 8.87187L1.10156 8.87187C1.86094 8.87187 2.47656 9.49063 2.47656 10.2469C2.47656 10.4219 2.39531 10.6703 2.36094 10.7578C2.15313 11.2312 2.35 11.8391 2.80938 12.1453L2.82188 12.1516L4.47813 13.0734L4.50938 13.0844C4.63438 13.125 4.77656 13.1734 4.93906 13.1734C5.28594 13.1734 5.59844 13.0406 5.79375 12.8219C5.8125 12.8078 5.83125 12.7891 5.85313 12.7703C6.05313 12.5953 6.59063 12.1328 6.94531 12.1328C7.20938 12.1328 7.65156 12.4094 8.09688 12.8547C8.32188 13.0766 8.63281 13.2063 8.95156 13.2063C9.16719 13.2063 9.32656 13.1469 9.50781 13.0578L9.51406 13.0547L11.2125 12.1156L11.2188 12.1094C11.6453 11.8422 11.8188 11.2297 11.6016 10.7437L11.5984 10.7375L11.5953 10.7312C11.5922 10.7297 11.4594 10.4531 11.4844 10.2047L11.4875 10.1891L11.4875 10.1734C11.4875 9.41406 12.1063 8.79844 12.8625 8.79844L12.9406 8.79844C13.4063 8.79844 13.7547 8.45469 13.8547 7.90312L13.8609 7.87187L13.8609 7.86094C13.8641 7.84844 13.8672 7.82969 13.8719 7.80469C13.9125 7.575 14.0063 7.03906 14.0063 6.54844C14.0094 6.09531 13.9172 5.54063 13.8766 5.30469ZM7.00156 8.77969C5.8 8.77969 4.82656 7.80625 4.82656 6.60469C4.82656 5.40312 5.8 4.42969 7.00156 4.42969C8.20313 4.42969 9.17656 5.40312 9.17656 6.60469C9.17656 7.80625 8.20313 8.77969 7.00156 8.77969Z"   fill="currentColor" ></path></svg>