<svg xmlns="http://www.w3.org/2000/svg" xmlns:xlink="http://www.w3.org/1999/xlink" width="32" height="32" viewBox="0 0 32 32" fill="none"><path d="M30.5062 8.78928C30.56 8.90006 30.6124 9.0115 30.6634 9.1236C30.7154 9.23818 30.7658 9.35346 30.8148 9.4694C30.8636 9.58538 30.911 9.70194 30.9568 9.81916C31.0026 9.93634 31.047 10.0541 31.0896 10.1725C31.1322 10.2909 31.1734 10.4098 31.2128 10.5293C31.2526 10.6488 31.2904 10.7688 31.3266 10.8892C31.3628 11.0098 31.3976 11.1307 31.4306 11.2521C31.4638 11.3735 31.4954 11.4953 31.525 11.6176C31.555 11.7398 31.5832 11.8625 31.6098 11.9855C31.6362 12.1085 31.6612 12.2318 31.6848 12.3554C31.7082 12.4791 31.7298 12.6031 31.7498 12.7273C31.7698 12.8515 31.7882 12.976 31.8048 13.1007C31.8212 13.2255 31.8362 13.3504 31.8498 13.4755C31.8632 13.6007 31.8748 13.7259 31.885 13.8514C31.895 13.9768 31.9034 14.1024 31.91 14.228C31.9166 14.3537 31.9216 14.4794 31.925 14.6052C31.9284 14.731 31.93 14.8568 31.93 14.9827C31.93 15.1085 31.9284 15.2343 31.925 15.3601C31.9216 15.4859 31.9166 15.6117 31.91 15.7373C31.9034 15.863 31.895 15.9885 31.885 16.114C31.8748 16.2394 31.8632 16.3647 31.8498 16.4898C31.8362 16.6149 31.8212 16.7399 31.8048 16.8646C31.7882 16.9893 31.7698 17.1138 31.7498 17.238C31.7298 17.3623 31.7082 17.4862 31.6848 17.6099C31.6612 17.7336 31.6362 17.8569 31.6098 17.9799C31.5832 18.1029 31.555 18.2255 31.525 18.3477C31.4954 18.47 31.4638 18.5918 31.4306 18.7132C31.3976 18.8347 31.3628 18.9556 31.3266 19.0761C31.2904 19.1966 31.2526 19.3166 31.2128 19.436C31.1734 19.5555 31.1322 19.6744 31.0896 19.7928C31.047 19.9112 31.0026 20.029 30.9568 20.1462C30.911 20.2634 30.8636 20.38 30.8148 20.496C30.7658 20.6118 30.7154 20.7272 30.6634 20.8418C30.6138 20.9524 30.5628 21.0624 30.5104 21.1718C30.458 21.2812 30.4044 21.39 30.3494 21.4982C30.2944 21.6062 30.238 21.7136 30.1804 21.8204C30.1228 21.9272 30.0638 22.0332 30.0036 22.1384C29.9434 22.2438 29.882 22.3484 29.8192 22.452C29.7566 22.556 29.6926 22.659 29.6272 22.7612C29.562 22.8634 29.4954 22.9648 29.4278 23.0654C29.36 23.1662 29.291 23.266 29.221 23.3648C29.1508 23.4638 29.0794 23.5618 29.0068 23.659C28.9344 23.7564 28.8606 23.8526 28.7858 23.948C28.7108 24.0434 28.6348 24.138 28.5576 24.2316C28.4804 24.325 28.402 24.4176 28.3226 24.5094C28.2432 24.601 28.1626 24.6916 28.081 24.7814C27.9994 24.871 27.9166 24.9598 27.8328 25.0474C27.749 25.135 27.6642 25.2218 27.5782 25.3074C27.4922 25.393 27.4052 25.4776 27.3174 25.561C27.2254 25.6468 27.1324 25.7316 27.0384 25.8152C26.9444 25.8988 26.8494 25.9814 26.7536 26.0628C26.6576 26.1442 26.5606 26.2244 26.4628 26.3036C26.365 26.3828 26.2664 26.4606 26.1666 26.5374C26.067 26.6142 25.9664 26.6898 25.865 26.7642C25.7636 26.8386 25.6612 26.912 25.558 26.984C25.455 27.056 25.351 27.1266 25.246 27.1962C25.1412 27.2658 25.0356 27.334 24.9292 27.4012C24.8226 27.4682 24.7154 27.534 24.6074 27.5984C24.4994 27.663 24.3906 27.7262 24.2812 27.7882C24.1716 27.8502 24.0614 27.9108 23.9506 27.9702C23.8396 28.0296 23.728 28.0876 23.6158 28.1444C23.5034 28.201 23.3904 28.2564 23.2768 28.3106C23.1632 28.3646 23.049 28.4174 22.9342 28.4686C22.8194 28.52 22.7038 28.57 22.5878 28.6188C22.4718 28.6674 22.3552 28.7146 22.2382 28.7604C22.1274 28.8038 22.016 28.8458 21.9044 28.8866C21.7926 28.9276 21.6806 28.9672 21.568 29.0058C21.4556 29.0444 21.3426 29.0818 21.2294 29.118C21.1162 29.1542 21.0024 29.1892 20.8884 29.223C20.7744 29.2568 20.66 29.2894 20.5454 29.3208C20.4306 29.3524 20.3156 29.3826 20.2002 29.4116C20.085 29.4406 19.9693 29.4686 19.8534 29.4952C19.7375 29.5218 19.6213 29.5472 19.5049 29.5714C19.3884 29.5956 19.2717 29.6186 19.1548 29.6404C19.0379 29.6622 18.9207 29.6826 18.8034 29.702C18.686 29.7214 18.5685 29.7394 18.4508 29.7562C18.333 29.7732 18.2151 29.7888 18.0971 29.8032C17.979 29.8176 17.8608 29.8308 17.7425 29.8428C17.6242 29.8548 17.5057 29.8654 17.3872 29.875C17.2686 29.8844 17.15 29.8926 17.0313 29.8996C16.9125 29.9066 16.7937 29.9124 16.6749 29.917C16.556 29.9214 16.4372 29.9248 16.3183 29.9268C16.1993 29.9288 16.0804 29.9296 15.9615 29.9292C15.8425 29.9288 15.7236 29.9272 15.6048 29.9242C15.4858 29.9214 15.367 29.9172 15.2482 29.9118C15.1294 29.9064 15.0106 29.8998 14.892 29.8918C14.7733 29.884 14.6547 29.8748 14.5362 29.8646C14.4177 29.8542 14.2994 29.8426 14.1811 29.8298C14.0629 29.817 13.9448 29.803 13.8269 29.7876C13.7089 29.7724 13.5911 29.7558 13.4735 29.7382C13.3559 29.7204 13.2385 29.7014 13.1213 29.6812C13.0041 29.661 12.8871 29.6396 12.7704 29.617C12.6536 29.5944 12.5371 29.5706 12.4208 29.5456C12.3045 29.5206 12.1885 29.4942 12.0729 29.4668C11.9571 29.4394 11.8417 29.4106 11.7266 29.3808C11.6115 29.3508 11.4967 29.3198 11.3822 29.2876C11.2677 29.2552 11.1536 29.2218 11.0399 29.187L6.40059 31.8534C6.37933 31.8654 6.35775 31.8766 6.33577 31.8872C6.31381 31.8978 6.29153 31.9078 6.26893 31.9168C6.24631 31.926 6.22343 31.9344 6.20027 31.9422C6.17713 31.95 6.15375 31.9568 6.13015 31.9632C6.10655 31.969 6.08277 31.9746 6.05885 31.9794C6.03487 31.984 6.01081 31.9878 5.98663 31.991C5.96241 31.994 5.93813 31.9962 5.91381 31.9978C5.88943 31.9994 5.86505 32 5.84069 32C5.82355 32 5.80649 31.9994 5.78943 31.9984C5.77235 31.9974 5.75527 31.9966 5.73827 31.995C5.72127 31.9934 5.70431 31.9912 5.68737 31.9888C5.67043 31.9866 5.65359 31.9838 5.63677 31.9806C5.61997 31.9772 5.60325 31.9738 5.58663 31.97C5.56997 31.966 5.55343 31.9616 5.53699 31.9568C5.52053 31.9522 5.50419 31.9472 5.48799 31.9418C5.47175 31.9366 5.45565 31.9306 5.43971 31.9246C5.42375 31.9184 5.40793 31.9118 5.39227 31.905C5.37663 31.8984 5.36113 31.8912 5.34577 31.8834C5.33043 31.8759 5.31528 31.8681 5.30031 31.86C5.28531 31.8516 5.27053 31.8432 5.25593 31.834C5.24133 31.8254 5.22697 31.8162 5.21277 31.8066C5.19859 31.7968 5.18465 31.7872 5.17093 31.7768C5.15719 31.7666 5.14371 31.7562 5.13047 31.7454C5.11721 31.7344 5.10419 31.7234 5.09143 31.7122C5.07869 31.7006 5.06619 31.689 5.05399 31.6772C5.04175 31.665 5.02981 31.6528 5.01815 31.6404C5.00647 31.6278 4.99505 31.615 4.98399 31.6022C4.97287 31.5894 4.96209 31.576 4.95163 31.5624C4.94113 31.549 4.93093 31.5354 4.92105 31.5212C4.91119 31.5072 4.90163 31.4932 4.89241 31.4788C4.88315 31.4644 4.87427 31.4496 4.86571 31.435C4.85713 31.4204 4.84887 31.4054 4.84099 31.39C4.83309 31.3746 4.82555 31.3594 4.81837 31.344C4.81115 31.3288 4.80431 31.3132 4.79783 31.2972C4.79135 31.2812 4.78519 31.2654 4.77943 31.2492C4.77365 31.233 4.76825 31.217 4.76325 31.2006C4.75819 31.1842 4.75353 31.1678 4.74925 31.1512C4.74493 31.1346 4.74103 31.118 4.73753 31.1014C4.73397 31.0846 4.73081 31.0678 4.72803 31.051C4.72525 31.034 4.72287 31.0172 4.72087 31.0002L4.00097 24.8544C3.92233 24.7724 3.84469 24.6892 3.76805 24.6052C3.69137 24.5212 3.61571 24.4364 3.54109 24.3506C3.46643 24.2648 3.39281 24.1782 3.32021 24.0906C3.24759 24.003 3.17605 23.9146 3.10555 23.8254C3.03503 23.7362 2.96559 23.6462 2.89721 23.5554C2.82885 23.4644 2.76155 23.3728 2.69535 23.2804C2.62915 23.1878 2.56405 23.0946 2.50005 23.0006C2.43605 22.9066 2.37317 22.8118 2.31141 22.7164C2.24967 22.621 2.18905 22.5246 2.12957 22.4278C2.07009 22.3308 2.01177 22.2332 1.9546 22.135C1.89743 22.0366 1.84144 21.9376 1.78661 21.838C1.73179 21.7384 1.67815 21.6382 1.6257 21.5372C1.57325 21.4364 1.52201 21.3348 1.47196 21.2328C1.42191 21.1306 1.37308 21.028 1.32546 20.9246C1.27785 20.8214 1.23146 20.7176 1.1863 20.6132C1.14115 20.5088 1.09723 20.404 1.05455 20.2986C1.01188 20.1932 0.970459 20.0872 0.930291 19.9808C0.890125 19.8744 0.851221 19.7676 0.813581 19.6603C0.775941 19.553 0.739577 19.4452 0.704491 19.3371C0.669403 19.2289 0.635599 19.1203 0.603081 19.0113C0.570561 18.9024 0.539337 18.7931 0.509409 18.6833C0.479481 18.5736 0.450853 18.4636 0.423527 18.3532C0.396205 18.2428 0.370191 18.1321 0.345487 18.0211C0.320781 17.9101 0.297395 17.7988 0.275327 17.6873C0.253257 17.5757 0.232511 17.4639 0.213087 17.3518C0.193665 17.2398 0.17557 17.1275 0.158805 17.0151C0.14204 16.9026 0.126608 16.7899 0.11251 16.6771C0.0984115 16.5643 0.0856507 16.4513 0.0742275 16.3381C0.0628037 16.225 0.0527209 16.1117 0.0439791 15.9983C0.0352369 15.8849 0.0278379 15.7715 0.0217821 15.6579C0.0157262 15.5444 0.0110151 15.4307 0.00764873 15.3171C0.00428239 15.2034 0.00226179 15.0897 0.00158691 14.976C0.00281604 14.85 0.00573185 14.724 0.0103343 14.5981C0.0149368 14.4722 0.0212243 14.3463 0.0291969 14.2205C0.0371695 14.0948 0.0468241 13.9692 0.0581609 13.8436C0.0694979 13.7181 0.0825129 13.5928 0.0972059 13.4676C0.111899 13.3425 0.128265 13.2175 0.146304 13.0928C0.164342 12.9681 0.184048 12.8437 0.205419 12.7194C0.226791 12.5953 0.249821 12.4714 0.274509 12.3478C0.299199 12.2242 0.325537 12.101 0.353527 11.9781C0.381515 11.8553 0.411143 11.7328 0.442411 11.6107C0.473681 11.4886 0.506577 11.367 0.541103 11.2458C0.575627 11.1246 0.611769 11.0039 0.649527 10.8837C0.687287 10.7634 0.726647 10.6437 0.767609 10.5246C0.808575 10.4054 0.851125 10.2868 0.895265 10.1687C0.939405 10.0507 0.985115 9.93328 1.0324 9.8165C1.07968 9.69968 1.12852 9.58354 1.17892 9.468C1.22931 9.3525 1.28124 9.23768 1.33471 9.1236C1.38485 9.01184 1.43634 8.90072 1.48921 8.79024C1.54207 8.67978 1.59629 8.56994 1.65185 8.46078C1.70742 8.35162 1.76432 8.24318 1.82255 8.13544C1.88078 8.02768 1.94033 7.92066 2.00119 7.81438C2.06205 7.7081 2.12421 7.60256 2.18767 7.49782C2.25113 7.39304 2.31587 7.28906 2.38189 7.1859C2.44789 7.08274 2.51517 6.9804 2.58369 6.8789C2.65223 6.77738 2.72199 6.67672 2.79301 6.57694C2.86401 6.47712 2.93623 6.37822 3.00967 6.28018C3.08309 6.18216 3.15771 6.08506 3.23355 5.98888C3.30937 5.89268 3.38637 5.79744 3.46455 5.70316C3.54271 5.60888 3.62203 5.51554 3.70249 5.42318C3.78293 5.33084 3.86453 5.2395 3.94725 5.14916C4.02993 5.05882 4.11375 4.96954 4.19865 4.88124C4.28355 4.79296 4.36953 4.70574 4.45659 4.6196C4.54363 4.53344 4.63171 4.44834 4.72087 4.36434C4.81285 4.2785 4.90581 4.19378 4.99981 4.11012C5.09377 4.02646 5.18871 3.94394 5.28465 3.86254C5.38059 3.78112 5.47747 3.70088 5.57527 3.62176C5.67309 3.54266 5.77183 3.46468 5.87149 3.3879C5.97115 3.31112 6.07171 3.2355 6.17315 3.1611C6.27459 3.08666 6.37691 3.01346 6.48009 2.94146C6.58325 2.86946 6.68725 2.79868 6.79209 2.72912C6.89693 2.65958 7.00259 2.59128 7.10905 2.52422C7.21549 2.45716 7.32271 2.39136 7.43071 2.32684C7.53871 2.26232 7.64749 2.19908 7.75699 2.1371C7.86647 2.07514 7.97669 2.01448 8.08763 1.95513C8.19855 1.89577 8.31015 1.83772 8.42247 1.781C8.53475 1.72427 8.64769 1.66887 8.76131 1.61481C8.87491 1.56075 8.98913 1.50803 9.10399 1.45667C9.21883 1.4053 9.33427 1.35529 9.45031 1.30665C9.56631 1.25801 9.68291 1.21074 9.80005 1.16484C9.92321 1.11687 10.0469 1.07033 10.1711 1.02522C10.2954 0.980112 10.4201 0.936454 10.5454 0.894246C10.6706 0.852034 10.7963 0.811284 10.9225 0.771996C11.0487 0.732704 11.1754 0.694884 11.3025 0.658534C11.4295 0.622184 11.557 0.587316 11.6849 0.553924C11.8128 0.520534 11.941 0.488634 12.0696 0.458222C12.1983 0.42781 12.3272 0.398894 12.4565 0.371478C12.5858 0.34406 12.7154 0.318144 12.8453 0.293736C12.9752 0.269328 13.1054 0.24643 13.2358 0.225044C13.3662 0.203658 13.4969 0.183788 13.6278 0.165435C13.7587 0.147082 13.8898 0.130251 14.021 0.114942C14.1523 0.0996332 14.2838 0.08585 14.4154 0.0735928C14.547 0.0613356 14.6787 0.0506074 14.8105 0.0414088C14.9424 0.0322104 15.0743 0.0245434 15.2064 0.0184081C15.3384 0.0122729 15.4705 0.0076711 15.6026 0.00460266C15.7347 0.00153422 15.8669 0 15.9991 0C16.1312 0 16.2634 0.00153422 16.3955 0.00460266C16.5277 0.0076711 16.6597 0.0122729 16.7918 0.0184081C16.9238 0.0245434 17.0557 0.0322104 17.1876 0.0414088C17.3195 0.0506074 17.4512 0.0613356 17.5828 0.0735928C17.7144 0.08585 17.8458 0.0996331 17.9771 0.114942C18.1084 0.130251 18.2395 0.147082 18.3704 0.165435C18.5012 0.183788 18.6319 0.203658 18.7624 0.225044C18.8928 0.24643 19.0229 0.269328 19.1528 0.293736C19.2827 0.318144 19.4123 0.34406 19.5416 0.371478C19.6709 0.398894 19.7999 0.42781 19.9285 0.458222C20.0572 0.488634 20.1854 0.520534 20.3132 0.553924C20.4412 0.587316 20.5686 0.622184 20.6958 0.658534C20.8228 0.694884 20.9494 0.732704 21.0756 0.771996C21.2018 0.811284 21.3276 0.852034 21.4528 0.894244C21.578 0.936454 21.7028 0.980112 21.827 1.02522C21.9512 1.07033 22.075 1.11687 22.1982 1.16484C22.314 1.21111 22.4294 1.25872 22.5444 1.30769C22.6592 1.35666 22.7734 1.40696 22.8872 1.45861C23.0008 1.51025 23.1138 1.56322 23.2264 1.61751C23.3388 1.67179 23.4506 1.72739 23.5616 1.7843C23.6728 1.84121 23.7832 1.89941 23.893 1.9589C24.0028 2.0184 24.1118 2.07916 24.2202 2.14122C24.3286 2.20326 24.4362 2.26656 24.543 2.33114C24.65 2.3957 24.756 2.4615 24.8614 2.52856C24.9666 2.5956 25.0712 2.66388 25.175 2.73338C25.2786 2.80288 25.3816 2.87358 25.4836 2.94548C25.5856 3.0174 25.6868 3.09048 25.7872 3.16476C25.8876 3.23904 25.987 3.3145 26.0856 3.3911C26.1842 3.46768 26.282 3.54544 26.3788 3.62434C26.4754 3.70324 26.5714 3.78326 26.6662 3.86438C26.7612 3.94554 26.855 4.02776 26.948 4.1111C27.041 4.19444 27.133 4.27884 27.224 4.36434C27.3144 4.44794 27.4038 4.53266 27.492 4.6185C27.5804 4.70434 27.6676 4.79126 27.7538 4.87926C27.8398 4.96724 27.925 5.05632 28.0088 5.1464C28.0928 5.23654 28.1756 5.32768 28.2574 5.41984C28.339 5.512 28.4194 5.60518 28.4988 5.69934C28.5782 5.7935 28.6564 5.88866 28.7334 5.98474C28.8104 6.08084 28.8862 6.1779 28.9608 6.2759C29.0354 6.37388 29.1088 6.47278 29.1808 6.5726C29.2529 6.67241 29.3239 6.7731 29.3936 6.87466C29.4632 6.97626 29.5316 7.07866 29.5986 7.18194C29.6656 7.28522 29.7314 7.38928 29.796 7.49418C29.8604 7.5991 29.9236 7.70478 29.9856 7.81126C30.0474 7.91772 30.108 8.02494 30.1672 8.1329C30.2264 8.24088 30.2842 8.3496 30.3408 8.459C30.3974 8.5684 30.4524 8.6785 30.5062 8.78928Z" fill-rule="evenodd"  fill="#FCFDFF" ></path><path d="M14.1751 7.93164L14.1246 7.93164L14.0741 7.93164L14.0405 7.93164L13.99 7.94847L13.9564 7.94847L13.9059 7.94847L13.8554 7.96529L13.8218 7.96529L13.7713 7.99894L13.7545 8.01577L13.704 8.0326L13.6536 8.0326L13.6199 8.04942L13.5695 8.08307L13.5526 8.0999L13.5022 8.15038L13.4685 8.1672L13.4349 8.18403L13.4012 8.21768L13.3676 8.25133L13.3508 8.28498L13.3003 8.31863L13.2835 8.35229L13.2666 8.38594L13.2162 8.41959L13.1994 8.45324L13.1825 8.50372L13.1489 8.52054L13.1321 8.57102L13.1321 8.60467L13.1152 8.65515L13.0816 8.70563L9.1282 19.7938L9.11138 19.8611C9.11138 19.8611 9.09456 19.9062 9.09456 19.9284C9.09456 19.9507 9.09456 19.9733 9.09456 19.9957C9.09456 20.0182 9.09456 20.0404 9.09456 20.063C9.09456 20.0857 9.06091 20.1077 9.06091 20.1303C9.06091 20.153 9.06091 20.175 9.06091 20.1976C9.06091 20.2203 9.09456 20.2424 9.09456 20.2649C9.09456 20.2875 9.09456 20.3099 9.09456 20.3322C9.09456 20.3546 9.11138 20.3606 9.11138 20.3827C9.11138 20.4049 9.11138 20.45 9.11138 20.45L9.1282 20.5173L9.16185 20.5846L9.1955 20.6519L9.21232 20.7192L9.26279 20.7697L9.27961 20.837L9.33008 20.8707L9.38055 20.938L9.41419 20.9885L9.48149 21.0389L9.53195 21.0726L9.59925 21.1231L9.63289 21.1399L9.70018 21.1904L9.76748 21.2072L9.83477 21.224L9.88524 21.2577L9.95253 21.2745C9.95253 21.2745 9.99751 21.2913 10.0198 21.2913C10.0421 21.2913 10.0814 21.2913 10.1039 21.2913C10.1264 21.2913 10.1486 21.2913 10.1712 21.2913C10.1939 21.2913 10.2158 21.325 10.2385 21.325L10.2722 21.2913L10.3226 21.2913L10.3395 21.2913L10.3899 21.2913L10.4404 21.2913L10.474 21.2745L10.5245 21.2745L10.575 21.2577L10.6086 21.2577L10.6591 21.224L10.6759 21.2072L10.7264 21.1904L10.76 21.1904L10.8105 21.1567L10.8273 21.1399L10.8778 21.1231L10.8946 21.0894L10.9451 21.0558L10.9955 21.0389L11.0124 21.0053L11.0292 20.9716L11.0797 20.938L11.0965 20.9212L11.1133 20.8707L11.147 20.8538L11.1806 20.8034L11.2142 20.7697L11.2311 20.7361L11.2479 20.7024L11.2479 20.6519L11.2815 20.6351L11.2984 20.5846L12.0722 18.4309L12.0722 18.3973L12.089 18.3973L12.089 18.3805L12.1227 18.3805L12.1227 18.3636L12.1395 18.3636L12.1563 18.3636L12.1563 18.33L12.1732 18.33L16.0088 18.33C16.0635 18.33 16.1097 18.3792 16.1097 18.4309L16.8499 20.5678L16.8667 20.6183L16.8836 20.6856L16.9172 20.7192L16.934 20.7697L16.9677 20.8034L17.0013 20.8538L17.035 20.9043L17.0686 20.938L17.1023 20.9885L17.1527 21.0389L17.2032 21.0726L17.2369 21.0894L17.2873 21.1399L17.321 21.1567L17.3714 21.1904L17.4219 21.2072L17.4892 21.2577L17.5228 21.2577L17.5901 21.2745L17.6406 21.2913L17.6911 21.325L17.7415 21.325L17.8088 21.325L17.8593 21.3418L17.9266 21.3418L17.9771 21.3418L18.0443 21.325L18.078 21.325L18.1453 21.325L18.1958 21.2913L18.263 21.2913L18.2967 21.2745L18.3472 21.2577L18.4145 21.224L18.4481 21.2072L18.4986 21.1904L18.549 21.1399L18.6163 21.1231L18.65 21.0726L18.7004 21.0558L18.7173 21.0053L18.7677 20.9716L18.8014 20.9212L18.835 20.8707L18.8687 20.837L18.9023 20.7865L18.936 20.7361L18.9696 20.7024L18.9864 20.6351L19.0033 20.5846L19.0369 20.5173L19.0369 20.4837L19.0537 20.4332L19.0705 20.3659L19.0705 20.3322L19.0705 20.2649L19.0705 20.1976L19.0705 20.1472L19.0705 20.0799L19.0705 20.0294L19.0705 19.9621L19.0537 19.9284L19.0537 19.8611L19.0369 19.8106L15.2517 8.72245L15.2517 8.67198L15.2349 8.63832L15.2013 8.58785L15.1845 8.53737L15.1676 8.50372L15.134 8.47007L15.1172 8.43641L15.1003 8.38594L15.0835 8.36911L15.033 8.31863L15.0162 8.30181L14.9826 8.25133L14.9489 8.2345L14.9153 8.18403L14.8816 8.1672L14.8312 8.15038L14.8144 8.11672L14.7639 8.0999L14.7134 8.08307L14.6966 8.04942L14.6629 8.0326L14.6125 8.01577L14.562 7.99894L14.5284 7.99894L14.4779 7.96529L14.4274 7.94847L14.3938 7.94847L14.3433 7.94847L14.3097 7.93164L14.2592 7.93164L14.2087 7.93164L14.1751 7.93164ZM21.7959 7.93164L21.7286 7.93164L21.6781 7.94847L21.6108 7.94847L21.5772 7.94847L21.5099 7.96529L21.4594 7.96529L21.4089 7.99894L21.3585 8.01577L21.308 8.0326L21.2575 8.04942L21.1902 8.08307L21.1566 8.11672L21.1061 8.15038L21.0557 8.18403L21.022 8.21768L20.9715 8.25133L20.9547 8.30181L20.9042 8.35229L20.8706 8.38594L20.837 8.43641L20.8033 8.47007L20.7697 8.52054L20.7528 8.57102L20.736 8.63832L20.7024 8.67198L20.6855 8.72245L20.6855 8.78976L20.6687 8.82341L20.6519 8.89071L20.6519 8.94119L20.6519 9.00849L20.6519 9.05897L20.6519 20.1303C20.6519 20.7479 21.1586 21.2577 21.7959 21.2577L21.8632 21.2577L21.8968 21.2577L21.9641 21.224L22.0146 21.224L22.0819 21.224L22.1323 21.2072L22.166 21.1904L22.2333 21.1567L22.2837 21.1399L22.3174 21.1231L22.3678 21.0894L22.4351 21.0726L22.4856 21.0389L22.5192 21.0053L22.5697 20.9716L22.6034 20.9212L22.637 20.9043L22.6707 20.8538L22.7211 20.8034L22.7379 20.7697L22.7716 20.7192L22.8052 20.6519L22.8389 20.6183L22.8557 20.5678L22.8725 20.5173L22.8894 20.45L22.8894 20.4164L22.923 20.3491L22.923 20.2986L22.9398 20.2313L22.9398 20.1976L22.9398 20.1303L22.9398 9.05897L22.9398 9.00849L22.9398 8.94119L22.9398 8.89071L22.923 8.82341L22.8894 8.78976L22.8894 8.72245L22.8725 8.67198L22.8557 8.63832L22.8389 8.57102L22.8052 8.52054L22.7716 8.47007L22.7379 8.43641L22.7211 8.38594L22.6707 8.35229L22.637 8.30181L22.6034 8.25133L22.5697 8.21768L22.5192 8.18403L22.4856 8.15038L22.4351 8.11672L22.3847 8.08307L22.3174 8.04942L22.2837 8.0326L22.2333 8.01577L22.166 7.99894L22.1323 7.96529L22.0819 7.96529L22.0146 7.94847L21.9641 7.94847L21.8968 7.94847L21.8632 7.93164L21.7959 7.93164ZM14.1414 12.8616C14.1992 12.8616 14.2592 12.894 14.2592 12.9457L15.2517 15.8398L15.2517 15.8566L15.2517 15.8734L15.2517 15.9071L15.2517 15.9239L15.2349 15.9239L15.2349 15.9407L15.2013 15.9744L15.1845 15.9912L15.1676 16.008L15.134 16.008L15.1172 16.008L13.1152 16.008L13.0816 16.008L13.0648 16.008L13.0648 15.9912L13.0479 15.9912L13.0143 15.9744L12.9975 15.9407L12.9975 15.9239L12.9807 15.9071L12.9807 15.8566L12.9975 15.8398L14.0069 12.9457L14.0069 12.9121L14.0405 12.9121L14.0405 12.8952L14.0573 12.8952L14.0741 12.8784L14.1078 12.8784L14.1246 12.8784L14.1246 12.8616L14.1414 12.8616Z"   fill="url(#linear_fill_81_78)" ></path><defs><linearGradient id="linear_fill_81_78" x1="8.366943359375" y1="22.548828125" x2="23.772552490234375" y2="6.85888671875" gradientUnits="userSpaceOnUse"><stop offset="0" stop-color="#2563EB"  /><stop offset="1" stop-color="#61A3FF"  /></linearGradient></defs></svg>