<svg xmlns="http://www.w3.org/2000/svg" xmlns:xlink="http://www.w3.org/1999/xlink" width="15.890869140625" height="12.984375" viewBox="0 0 15.890869140625 12.984375" fill="none"><path d="M15.8731 11.3379C15.9262 11.6572 15.8597 11.9447 15.6735 12.2002C15.4871 12.4557 15.2342 12.61 14.9149 12.6633L12.9986 12.9667C12.6899 13.0199 12.4051 12.9534 12.1443 12.7671C11.8835 12.5808 11.7264 12.3279 11.6732 12.0085L10.0444 1.69269C10.0231 1.53301 10.0311 1.3813 10.0683 1.23758C10.1056 1.09386 10.1668 0.960791 10.252 0.838363C10.3371 0.715935 10.4463 0.614799 10.5793 0.534955C10.7124 0.455111 10.8588 0.39922 11.0185 0.367283L12.9188 0.0638752C13.2381 0.0106459 13.5256 0.0798441 13.7811 0.27147C14.0366 0.463096 14.191 0.718597 14.2442 1.03797L15.8731 11.3379ZM7.84069 0C8.16006 0 8.43153 0.111782 8.6551 0.335345C8.87866 0.558908 8.99044 0.830378 8.99044 1.14975L8.99044 11.8169C8.99044 12.1363 8.87866 12.4078 8.6551 12.6313C8.43153 12.8549 8.16006 12.9667 7.84069 12.9667L6.17993 12.9667C5.86055 12.9667 5.58908 12.8549 5.36552 12.6313C5.14196 12.4078 5.03018 12.1363 5.03018 11.8169L5.03018 1.14975C5.03018 0.830378 5.11534 0.558908 5.28568 0.335345C5.45602 0.111782 5.70618 0 6.03621 0L7.84069 0ZM7.84069 8.04828C7.94715 8.04828 8.03763 7.99771 8.11216 7.89658C8.18668 7.79545 8.22394 7.67568 8.22394 7.53728C8.22394 7.38824 8.18668 7.26581 8.11216 7.17C8.03763 7.07418 7.94715 7.02628 7.84069 7.02628L6.17993 7.02628C6.07347 7.02628 5.98299 7.07418 5.90846 7.17C5.83393 7.26581 5.79668 7.38824 5.79668 7.53728C5.79668 7.67568 5.83393 7.79545 5.90846 7.89658C5.98299 7.99771 6.07347 8.04828 6.17993 8.04828L7.84069 8.04828ZM7.84069 6.02024C7.94715 6.02024 8.03763 5.96967 8.11216 5.86854C8.18668 5.76741 8.22394 5.64231 8.22394 5.49327C8.22394 5.34423 8.18668 5.2218 8.11216 5.12599C8.03763 5.03018 7.94715 4.98227 7.84069 4.98227L6.17993 4.98227C6.07347 4.98227 5.98299 5.03018 5.90846 5.12599C5.83393 5.2218 5.79668 5.34423 5.79668 5.49327C5.79668 5.64231 5.83393 5.76741 5.90846 5.86854C5.98299 5.96967 6.07347 6.02024 6.17993 6.02024L7.84069 6.02024ZM2.82648 0C3.14586 0 3.41999 0.111782 3.64887 0.335345C3.87775 0.558908 3.9922 0.830378 3.9922 1.14975L3.9922 11.8169C3.9922 12.1363 3.87775 12.4078 3.64887 12.6313C3.41999 12.8549 3.14586 12.9667 2.82648 12.9667L1.16572 12.9667C0.846347 12.9667 0.572215 12.8549 0.343329 12.6313C0.114443 12.4078 0 12.1363 0 11.8169L0 1.14975C0 0.830378 0.114443 0.558908 0.343329 0.335345C0.572215 0.111782 0.846347 0 1.16572 0L2.82648 0ZM1.2296 3.9922C1.11249 3.9922 1.01668 4.04011 0.94216 4.13592C0.867638 4.23173 0.830378 4.35417 0.830378 4.5032C0.830378 4.64161 0.867638 4.76137 0.94216 4.8625C1.01668 4.96363 1.11249 5.01421 1.2296 5.01421L2.7626 5.01421C2.8797 5.01421 2.97287 4.96363 3.04206 4.8625C3.11125 4.76137 3.14586 4.64161 3.14586 4.5032C3.14586 4.35417 3.11125 4.23173 3.04206 4.13592C2.97287 4.04011 2.8797 3.9922 2.7626 3.9922L1.2296 3.9922ZM2.82648 9.00641C2.94358 9.00641 3.03674 8.9585 3.10593 8.86269C3.17513 8.76688 3.20973 8.64978 3.20973 8.51138C3.20973 8.36234 3.17513 8.24257 3.10593 8.15208C3.03674 8.06158 2.94358 8.01634 2.82648 8.01634L1.2296 8.01634C1.11249 8.01634 1.01668 8.06158 0.94216 8.15208C0.867638 8.24257 0.830378 8.36234 0.830378 8.51138C0.830378 8.64978 0.867638 8.76688 0.94216 8.86269C1.01668 8.9585 1.11249 9.00641 1.2296 9.00641L2.82648 9.00641ZM2.82648 7.04225C2.94358 7.04225 3.03674 6.99434 3.10593 6.89853C3.17513 6.80271 3.20973 6.68028 3.20973 6.53124C3.20973 6.38221 3.17513 6.25977 3.10593 6.16396C3.03674 6.06815 2.94358 6.02024 2.82648 6.02024L1.2296 6.02024C1.11249 6.02024 1.01668 6.06815 0.94216 6.16396C0.867638 6.25977 0.830378 6.38221 0.830378 6.53124C0.830378 6.68028 0.867638 6.80271 0.94216 6.89853C1.01668 6.99434 1.11249 7.04225 1.2296 7.04225L2.82648 7.04225Z"   fill="currentColor" ></path></svg>