<svg xmlns="http://www.w3.org/2000/svg" xmlns:xlink="http://www.w3.org/1999/xlink" width="12" height="12" viewBox="0 0 12 12" fill="none"><path d="M11.5005 1.75049L11.5005 9.25049C11.5005 9.52661 11.2766 9.75047 11.0005 9.75047L5.36852 9.75047L2.97409 10.9477C2.64164 11.1139 2.25049 10.8722 2.25049 10.5005L2.25049 9.75047L1.00049 9.75047C0.724346 9.75047 0.500488 9.52661 0.500488 9.25049L0.500488 1.75049C0.500488 1.47435 0.724346 1.25049 1.00049 1.25049L11.0005 1.25049C11.0658 1.25049 11.1287 1.26283 11.1893 1.2875C11.2498 1.31217 11.3034 1.34736 11.3501 1.39305L11.3501 1.39306C11.3982 1.4401 11.4353 1.49461 11.4614 1.55661C11.4874 1.6186 11.5005 1.68323 11.5005 1.75049ZM1.50049 2.25049L10.5005 2.25049L10.5005 8.75051L5.25049 8.75051C5.17286 8.75051 5.09631 8.76857 5.02688 8.80325L3.25049 9.69149L3.25049 9.25049C3.25049 8.97437 3.02663 8.75051 2.75049 8.75051L1.50049 8.75051L1.50049 2.25049Z" fill-rule="evenodd"  fill="#F95454" ></path><path d="M8.25049 4.00049L8.25049 4.25049C8.25049 4.28332 8.24729 4.31583 8.24088 4.34803C8.23448 4.38023 8.22499 4.4115 8.21243 4.44183C8.19986 4.47216 8.18446 4.50098 8.16622 4.52827C8.14798 4.55557 8.12726 4.58083 8.10404 4.60404C8.08083 4.62726 8.05557 4.64798 8.02827 4.66622C8.00098 4.68446 7.97216 4.69987 7.94183 4.71243C7.9115 4.72499 7.88023 4.73448 7.84803 4.74088C7.81583 4.74729 7.78332 4.75049 7.75049 4.75049C7.71766 4.75049 7.68514 4.74729 7.65294 4.74088C7.62074 4.73448 7.58948 4.72499 7.55915 4.71243C7.52882 4.69987 7.5 4.68446 7.4727 4.66622C7.44541 4.64798 7.42015 4.62726 7.39693 4.60404C7.37372 4.58083 7.35299 4.55557 7.33475 4.52827C7.31651 4.50098 7.30111 4.47216 7.28855 4.44183C7.27598 4.4115 7.2665 4.38023 7.2601 4.34803C7.25369 4.31583 7.25049 4.28332 7.25049 4.25049L7.25049 4.00049C7.25049 3.96766 7.25369 3.93514 7.2601 3.90294C7.2665 3.87074 7.27598 3.83948 7.28855 3.80915C7.30111 3.77882 7.31651 3.75 7.33475 3.7227C7.35299 3.69541 7.37372 3.67015 7.39693 3.64693C7.42015 3.62372 7.44541 3.60299 7.4727 3.58475C7.5 3.56651 7.52882 3.55111 7.55915 3.53855C7.58948 3.52598 7.62074 3.5165 7.65294 3.5101C7.68514 3.50369 7.71766 3.50049 7.75049 3.50049C7.78332 3.50049 7.81583 3.50369 7.84803 3.5101C7.88023 3.5165 7.9115 3.52598 7.94183 3.53855C7.97216 3.55111 8.00098 3.56651 8.02827 3.58475C8.05557 3.60299 8.08083 3.62372 8.10404 3.64693C8.12726 3.67015 8.14798 3.69541 8.16622 3.7227C8.18446 3.75 8.19986 3.77882 8.21243 3.80915C8.22499 3.83948 8.23448 3.87074 8.24088 3.90294C8.24729 3.93514 8.25049 3.96766 8.25049 4.00049Z" fill-rule="evenodd"  fill="#F95454" ></path><path d="M4.75 4.00049L4.75 4.25049C4.75 4.28332 4.7468 4.31583 4.74039 4.34803C4.73399 4.38023 4.7245 4.4115 4.71194 4.44183C4.69938 4.47216 4.68397 4.50098 4.66573 4.52827C4.64749 4.55557 4.62677 4.58083 4.60355 4.60404C4.58034 4.62726 4.55508 4.64798 4.52778 4.66622C4.50049 4.68446 4.47167 4.69987 4.44134 4.71243C4.41101 4.72499 4.37974 4.73448 4.34754 4.74088C4.31535 4.74729 4.28283 4.75049 4.25 4.75049C4.21717 4.75049 4.18465 4.74729 4.15245 4.74088C4.12025 4.73448 4.08899 4.72499 4.05866 4.71243C4.02833 4.69987 3.99951 4.68446 3.97221 4.66622C3.94492 4.64798 3.91966 4.62726 3.89645 4.60404C3.87323 4.58083 3.8525 4.55557 3.83427 4.52827C3.81603 4.50098 3.80062 4.47216 3.78806 4.44183C3.7755 4.4115 3.76601 4.38023 3.75961 4.34803C3.7532 4.31583 3.75 4.28332 3.75 4.25049L3.75 4.00049C3.75 3.96766 3.7532 3.93514 3.75961 3.90294C3.76601 3.87074 3.7755 3.83948 3.78806 3.80915C3.80062 3.77882 3.81603 3.75 3.83427 3.7227C3.8525 3.69541 3.87323 3.67015 3.89645 3.64693C3.91966 3.62372 3.94492 3.60299 3.97221 3.58475C3.99951 3.56651 4.02833 3.55111 4.05866 3.53855C4.08899 3.52598 4.12025 3.5165 4.15245 3.5101C4.18465 3.50369 4.21717 3.50049 4.25 3.50049C4.28283 3.50049 4.31535 3.50369 4.34754 3.5101C4.37974 3.5165 4.41101 3.52598 4.44134 3.53855C4.47167 3.55111 4.50049 3.56651 4.52778 3.58475C4.55508 3.60299 4.58034 3.62372 4.60355 3.64693C4.62677 3.67015 4.64749 3.69541 4.66573 3.7227C4.68397 3.75 4.69938 3.77882 4.71194 3.80915C4.7245 3.83948 4.73399 3.87074 4.74039 3.90294C4.7468 3.93514 4.75 3.96766 4.75 4.00049Z" fill-rule="evenodd"  fill="#F95454" ></path><path d="M3.89645 6.60404C3.80596 6.51356 3.75 6.38856 3.75 6.25049C3.75 5.97435 3.97386 5.75049 4.25 5.75049C4.38807 5.75049 4.51307 5.80645 4.60355 5.89693C4.64191 5.93529 4.67406 5.97985 4.69838 6.02897C4.70047 6.03246 4.70257 6.03601 4.70469 6.03961C4.71909 6.06403 4.73608 6.09007 4.75567 6.11773C4.82216 6.21161 4.89975 6.29796 4.98843 6.37678C5.26871 6.62592 5.6059 6.75049 6 6.75049C6.62368 6.75049 7.05654 6.51208 7.29856 6.03526C7.37891 5.86704 7.55051 5.75076 7.74929 5.75049L7.74995 5.75049L7.75005 5.75049L7.75071 5.75049C8.02592 5.75087 8.24902 5.9736 8.25 6.24867L8.25 6.25049L8.25 6.25059L8.25 6.25211C8.24973 6.33582 8.22889 6.41469 8.19227 6.48393C7.76609 7.3283 7.03533 7.75049 6 7.75049C5.35243 7.75049 4.79379 7.54172 4.32407 7.12419C4.17837 6.99469 4.05023 6.85187 3.93964 6.69575L3.89645 6.60404Z" fill-rule="evenodd"  fill="#F95454" ></path></svg>