<svg xmlns="http://www.w3.org/2000/svg" xmlns:xlink="http://www.w3.org/1999/xlink" width="16" height="16" viewBox="0 0 16 16" fill="none"><path d="M15.3333 7.99997C15.3333 12.2573 9.56402 15.256 8.26002 15.8799C8.24994 15.8849 8.23972 15.8894 8.22938 15.8938C8.21903 15.8982 8.20858 15.9021 8.198 15.9058C8.18744 15.9096 8.17677 15.913 8.16599 15.9162C8.15522 15.9194 8.14437 15.9223 8.13344 15.9248C8.1225 15.9273 8.11152 15.9294 8.10045 15.9313C8.08941 15.9332 8.07831 15.9349 8.06716 15.9362C8.05602 15.9374 8.04484 15.9383 8.03364 15.939C8.02245 15.9396 8.01123 15.9399 8.00002 15.9399C7.9888 15.9399 7.97759 15.9396 7.96639 15.939C7.9552 15.9383 7.94403 15.9374 7.93288 15.9362C7.92173 15.9349 7.91064 15.9332 7.89958 15.9313C7.88853 15.9294 7.87753 15.9273 7.86659 15.9248C7.85567 15.9223 7.84483 15.9194 7.83405 15.9162C7.82328 15.913 7.81261 15.9096 7.80203 15.9058C7.79147 15.9021 7.781 15.8982 7.77066 15.8938C7.76031 15.8894 7.75011 15.8849 7.74002 15.8799C6.43602 15.256 0.666687 12.2573 0.666687 7.99997L0.666687 2.8833C0.66669 2.8746 0.666864 2.8659 0.667209 2.85719C0.667554 2.84849 0.668069 2.83979 0.668754 2.8311C0.669441 2.82243 0.670296 2.81376 0.671321 2.8051C0.672346 2.79646 0.673541 2.78783 0.674904 2.77922C0.676268 2.77062 0.6778 2.76204 0.6795 2.75351C0.681198 2.74496 0.683065 2.73646 0.685098 2.72799C0.68713 2.71952 0.689328 2.7111 0.691692 2.70271C0.694055 2.69432 0.696582 2.68599 0.699271 2.67771C0.701961 2.66941 0.704812 2.66119 0.707825 2.65302C0.710837 2.64485 0.714008 2.63674 0.717339 2.62869C0.720669 2.62065 0.724156 2.61266 0.7278 2.60474C0.731442 2.59683 0.735239 2.58901 0.73919 2.58124C0.74314 2.57346 0.747241 2.56579 0.751492 2.55818C0.755744 2.55058 0.760143 2.54307 0.764689 2.53563C0.769235 2.52821 0.773926 2.52087 0.778759 2.51362C0.783592 2.50638 0.788566 2.49922 0.793681 2.49218C0.798794 2.48513 0.804044 2.47818 0.809431 2.47133C0.814817 2.46449 0.820335 2.45776 0.825985 2.45112C0.831637 2.44449 0.837415 2.43797 0.84332 2.43157C0.849226 2.42518 0.855256 2.4189 0.861407 2.41272C0.867559 2.40655 0.873829 2.40051 0.880218 2.39458C0.886607 2.38866 0.893111 2.38288 0.899726 2.37721C0.906342 2.37154 0.913067 2.36601 0.9199 2.36062C0.926732 2.35521 0.93367 2.34993 0.940709 2.3448C0.947748 2.33968 0.954884 2.33469 0.96212 2.32983C0.969356 2.32499 0.976682 2.32029 0.984101 2.31572C0.991521 2.31116 0.999028 2.30674 1.00662 2.30247C1.01421 2.29821 1.02189 2.29408 1.02964 2.29012C1.03739 2.28615 1.04522 2.28233 1.05313 2.27868C1.06103 2.27501 1.069 2.27151 1.07704 2.26816C1.08508 2.2648 1.09319 2.26162 1.10135 2.25858C1.10952 2.25555 1.11774 2.25268 1.12602 2.24997L7.79269 0.0679723C7.80939 0.0625054 7.82628 0.0577068 7.84338 0.0535765C7.86047 0.0494462 7.87769 0.045997 7.89503 0.043229C7.91241 0.0404611 7.92984 0.0383829 7.94736 0.0369946C7.96489 0.0356063 7.98244 0.0349121 8.00002 0.0349121C8.01759 0.0349121 8.03514 0.0356063 8.05267 0.0369946C8.0702 0.0383829 8.08764 0.0404611 8.10498 0.043229C8.12236 0.045997 8.13958 0.0494462 8.15666 0.0535765C8.17375 0.0577068 8.19064 0.0625054 8.20734 0.0679723L14.874 2.24997C14.8823 2.25268 14.8905 2.25555 14.8987 2.25858C14.9068 2.26162 14.915 2.2648 14.923 2.26816C14.931 2.27151 14.939 2.27501 14.9469 2.27868C14.9548 2.28233 14.9626 2.28615 14.9704 2.29012C14.9782 2.29408 14.9858 2.29821 14.9934 2.30247C15.001 2.30674 15.0085 2.31116 15.0159 2.31572C15.0234 2.32029 15.0307 2.32499 15.0379 2.32983C15.0452 2.33469 15.0523 2.33968 15.0593 2.3448C15.0664 2.34993 15.0733 2.35521 15.0801 2.36062C15.087 2.36601 15.0937 2.37154 15.1003 2.37721C15.1069 2.38288 15.1134 2.38866 15.1198 2.39458C15.1262 2.40051 15.1325 2.40655 15.1386 2.41272C15.1448 2.4189 15.1508 2.42518 15.1567 2.43157C15.1626 2.43797 15.1684 2.44449 15.174 2.45112C15.1797 2.45776 15.1852 2.46449 15.1906 2.47133C15.196 2.47818 15.2013 2.48513 15.2064 2.49218C15.2115 2.49922 15.2165 2.50638 15.2213 2.51362C15.2261 2.52087 15.2308 2.52821 15.2353 2.53563C15.2399 2.54307 15.2443 2.55058 15.2485 2.55818C15.2528 2.56579 15.2569 2.57346 15.2608 2.58124C15.2648 2.58901 15.2686 2.59683 15.2722 2.60474C15.2759 2.61266 15.2794 2.62065 15.2827 2.62869C15.286 2.63674 15.2892 2.64485 15.2922 2.65302C15.2952 2.66119 15.2981 2.66941 15.3008 2.67771C15.3035 2.68599 15.306 2.69432 15.3083 2.70271C15.3107 2.7111 15.3129 2.71952 15.3149 2.72799C15.317 2.73646 15.3188 2.74496 15.3205 2.75351C15.3223 2.76204 15.3238 2.77062 15.3251 2.77922C15.3265 2.78783 15.3277 2.79646 15.3287 2.8051C15.3298 2.81376 15.3306 2.82243 15.3313 2.8311C15.332 2.83979 15.3325 2.84849 15.3328 2.85719C15.3332 2.8659 15.3333 2.8746 15.3333 2.8833L15.3333 7.99997ZM6.47134 7.02397C6.46369 7.01604 6.45584 7.0083 6.44778 7.00076C6.43975 6.99321 6.43152 6.98588 6.42309 6.97874C6.41469 6.9716 6.40609 6.96468 6.39734 6.95796C6.38859 6.95126 6.37967 6.94477 6.37059 6.93851C6.36152 6.93224 6.35228 6.92619 6.34291 6.92038C6.33353 6.91458 6.32402 6.90901 6.31436 6.90366C6.3047 6.89833 6.29492 6.89324 6.28502 6.88838C6.27511 6.88352 6.26509 6.87893 6.25495 6.87457C6.24483 6.87021 6.23458 6.86612 6.22423 6.86227C6.21391 6.85843 6.20348 6.85485 6.19295 6.85152C6.18245 6.84819 6.17186 6.84512 6.16117 6.84232C6.15052 6.83952 6.13978 6.83697 6.12898 6.83471C6.11819 6.83244 6.10734 6.83044 6.09644 6.82871C6.08556 6.82697 6.07463 6.82552 6.06366 6.82433C6.05269 6.82315 6.0417 6.82222 6.03069 6.82158C6.01967 6.82094 6.00864 6.82057 5.99761 6.82047C5.98659 6.82038 5.97556 6.82055 5.96453 6.82101C5.95352 6.82146 5.94252 6.82219 5.93153 6.82318C5.92055 6.82418 5.90959 6.82544 5.89866 6.82699C5.88775 6.82854 5.87687 6.83035 5.86603 6.83243C5.8552 6.83451 5.84442 6.83687 5.8337 6.83947C5.82298 6.84208 5.81234 6.84497 5.80177 6.84812C5.7912 6.85126 5.7807 6.85466 5.7703 6.85833C5.75989 6.86201 5.74959 6.86593 5.73938 6.8701C5.72917 6.87427 5.71908 6.87871 5.70908 6.88338C5.69909 6.88805 5.68923 6.89297 5.67948 6.89815C5.66973 6.90332 5.66012 6.90872 5.65064 6.91437C5.64117 6.92001 5.63184 6.9259 5.62266 6.93201C5.61347 6.93812 5.60444 6.94444 5.59556 6.95101C5.58669 6.95755 5.57798 6.96433 5.56945 6.97132C5.56092 6.9783 5.55258 6.98551 5.54439 6.99291C5.53622 7.0003 5.52823 7.00791 5.52042 7.01571C5.51263 7.02351 5.50502 7.03151 5.49761 7.03968C5.49022 7.04785 5.48303 7.05621 5.47603 7.06476C5.46905 7.07329 5.46227 7.08199 5.4557 7.09085C5.44916 7.09972 5.44283 7.10876 5.4367 7.11794C5.43061 7.12713 5.42473 7.13646 5.41908 7.14594C5.41344 7.15541 5.40803 7.16502 5.40286 7.17477C5.3977 7.18451 5.39277 7.19438 5.38808 7.20438C5.38341 7.21437 5.37898 7.22447 5.3748 7.23468C5.37063 7.24488 5.3667 7.25519 5.36303 7.2656C5.35938 7.27601 5.35598 7.28649 5.35283 7.29707C5.34969 7.30765 5.34681 7.31829 5.34419 7.32899C5.34156 7.33971 5.33922 7.35049 5.33714 7.36132C5.33506 7.37215 5.33325 7.38304 5.3317 7.39396C5.33017 7.40488 5.32889 7.41583 5.32789 7.42682C5.32689 7.4378 5.32617 7.44882 5.32572 7.45983C5.32527 7.47085 5.32509 7.48188 5.32519 7.49291C5.32528 7.50394 5.32566 7.51496 5.3263 7.52597C5.32694 7.53699 5.32784 7.54797 5.32903 7.55894C5.33023 7.56991 5.3317 7.58085 5.33342 7.59174C5.33516 7.60263 5.33716 7.61347 5.33942 7.62427C5.3417 7.63507 5.34423 7.6458 5.34703 7.65647C5.34984 7.66715 5.35291 7.67772 5.35622 7.68824C5.35956 7.69876 5.36314 7.70919 5.36698 7.71954C5.37083 7.72987 5.37494 7.7401 5.37928 7.75024C5.38364 7.76038 5.38825 7.7704 5.39309 7.7803C5.39795 7.79022 5.40305 7.80001 5.40837 7.80965C5.41372 7.8193 5.41928 7.82882 5.42509 7.83819C5.43091 7.84758 5.43695 7.8568 5.4432 7.86588C5.44948 7.87496 5.45597 7.88388 5.46267 7.89263C5.46939 7.9014 5.47631 7.90997 5.48344 7.91838C5.49058 7.9268 5.49792 7.93502 5.50547 7.94307C5.51302 7.95112 5.52075 7.95897 5.52869 7.96665L6.94269 9.38065C6.95041 9.38836 6.9583 9.3959 6.96639 9.40322C6.97448 9.41057 6.98273 9.41771 6.99117 9.42463C6.99961 9.43155 7.00822 9.43827 7.01697 9.44479C7.02575 9.45129 7.03467 9.45758 7.04374 9.46366C7.05281 9.46972 7.06203 9.47557 7.07139 9.48118C7.08077 9.4868 7.09025 9.49219 7.09988 9.49733C7.10952 9.50249 7.11927 9.5074 7.12913 9.51207C7.139 9.51674 7.14897 9.52116 7.15906 9.52535C7.16916 9.52952 7.17933 9.53346 7.18961 9.53715C7.19989 9.54082 7.21025 9.54424 7.22069 9.54741C7.23114 9.55058 7.24166 9.55351 7.25225 9.55616C7.26284 9.55882 7.2735 9.56121 7.2842 9.56333C7.29492 9.56547 7.30567 9.56733 7.31645 9.56894C7.32727 9.57055 7.33809 9.57188 7.34895 9.57294C7.35983 9.57402 7.3707 9.57482 7.38161 9.57537C7.39252 9.5759 7.40344 9.57616 7.41434 9.57616C7.42528 9.57616 7.43619 9.5759 7.44708 9.57537C7.45798 9.57482 7.46888 9.57402 7.47973 9.57294C7.49061 9.57188 7.50144 9.57055 7.51223 9.56894C7.52305 9.56733 7.5338 9.56547 7.5445 9.56333C7.55522 9.56121 7.56586 9.55882 7.57645 9.55616C7.58705 9.55351 7.59756 9.55058 7.608 9.54741C7.61845 9.54424 7.62881 9.54082 7.63909 9.53715C7.64938 9.53346 7.65956 9.52952 7.66964 9.52535C7.67973 9.52116 7.6897 9.51674 7.69958 9.51207C7.70945 9.5074 7.71919 9.50249 7.72881 9.49733C7.73845 9.49219 7.74795 9.4868 7.7573 9.48118C7.76667 9.47557 7.77589 9.46972 7.78495 9.46366C7.79405 9.45758 7.80297 9.45129 7.81172 9.44479C7.8205 9.43827 7.82909 9.43155 7.83753 9.42463C7.84597 9.41771 7.85423 9.41057 7.86231 9.40322C7.87041 9.3959 7.8783 9.38836 7.88602 9.38065L10.714 6.55197C10.7215 6.54421 10.7288 6.53627 10.7359 6.52816C10.743 6.52005 10.75 6.51177 10.7567 6.50332C10.7634 6.49487 10.7699 6.48626 10.7762 6.47749C10.7824 6.46872 10.7885 6.4598 10.7944 6.45074C10.8002 6.44168 10.8059 6.43247 10.8113 6.42315C10.8167 6.41382 10.8219 6.40435 10.8268 6.39477C10.8318 6.38518 10.8365 6.37547 10.841 6.36566C10.8455 6.35585 10.8497 6.34593 10.8537 6.33591C10.8577 6.3259 10.8614 6.31577 10.8649 6.30557C10.8685 6.29537 10.8717 6.28508 10.8747 6.27472C10.8777 6.26437 10.8805 6.25393 10.883 6.24343C10.8855 6.23294 10.8877 6.2224 10.8897 6.21179C10.8917 6.20118 10.8935 6.19054 10.8949 6.17985C10.8964 6.16916 10.8976 6.15844 10.8985 6.14769C10.8995 6.13694 10.9002 6.12618 10.9006 6.1154C10.9011 6.10462 10.9012 6.09383 10.9011 6.08304C10.901 6.07224 10.9007 6.06146 10.9001 6.05069C10.8995 6.03993 10.8986 6.02918 10.8974 6.01844C10.8963 6.00771 10.8949 5.99702 10.8932 5.98637C10.8916 5.97569 10.8897 5.96508 10.8875 5.95452C10.8853 5.94394 10.8829 5.93344 10.8802 5.92299C10.8775 5.91254 10.8746 5.90216 10.8714 5.89185C10.8682 5.88154 10.8648 5.87132 10.8611 5.86118C10.8574 5.85104 10.8535 5.84099 10.8493 5.83104C10.8451 5.82108 10.8407 5.81124 10.8361 5.80151C10.8314 5.79177 10.8265 5.78215 10.8214 5.77266C10.8163 5.76316 10.811 5.75379 10.8054 5.74455C10.7998 5.73532 10.794 5.72621 10.788 5.71726C10.782 5.7083 10.7758 5.69949 10.7693 5.69083C10.7629 5.68218 10.7562 5.67368 10.7494 5.66535C10.7425 5.65702 10.7355 5.64885 10.7282 5.64087C10.721 5.63288 10.7135 5.62507 10.7059 5.61743C10.6983 5.6098 10.6905 5.60237 10.6825 5.59512C10.6745 5.58787 10.6663 5.58082 10.658 5.57396C10.6497 5.5671 10.6412 5.56046 10.6325 5.55401C10.6238 5.54757 10.615 5.54135 10.6061 5.53533C10.5971 5.52932 10.588 5.52352 10.5788 5.51794C10.5695 5.51237 10.5602 5.50702 10.5507 5.50191C10.5412 5.4968 10.5316 5.49191 10.5218 5.48726C10.5121 5.48262 10.5023 5.47819 10.4923 5.47402C10.4823 5.46985 10.4723 5.46593 10.4622 5.46224C10.452 5.45857 10.4418 5.45513 10.4315 5.45193C10.4212 5.44874 10.4108 5.4458 10.4003 5.44313C10.3899 5.44044 10.3794 5.43801 10.3688 5.43583C10.3583 5.43366 10.3476 5.43176 10.337 5.43008C10.3263 5.42843 10.3156 5.42704 10.3049 5.4259C10.2942 5.42476 10.2834 5.42387 10.2726 5.42326C10.2619 5.42265 10.2511 5.42229 10.2403 5.42219C10.2295 5.4221 10.2187 5.42227 10.2079 5.42269C10.1971 5.42313 10.1864 5.42382 10.1756 5.42477C10.1649 5.42572 10.1542 5.42693 10.1435 5.42841C10.1328 5.42988 10.1222 5.43162 10.1115 5.4336C10.101 5.43558 10.0904 5.43783 10.0799 5.44033C10.0694 5.44285 10.059 5.4456 10.0486 5.4486C10.0383 5.45162 10.028 5.45487 10.0178 5.45838C10.0076 5.4619 9.99745 5.46565 9.98742 5.46965C9.97741 5.47365 9.96748 5.47788 9.95766 5.48237C9.94784 5.48685 9.93816 5.49155 9.92856 5.49651C9.91898 5.50146 9.90952 5.50663 9.90017 5.51205C9.89084 5.51746 9.88164 5.5231 9.87258 5.52896C9.86352 5.53482 9.85461 5.54088 9.84584 5.54718C9.83708 5.55347 9.82847 5.55997 9.82002 5.56668C9.81158 5.57338 9.8033 5.58029 9.79517 5.5874C9.78705 5.59451 9.77911 5.60182 9.77134 5.6093L7.41402 7.96665L6.47134 7.02397Z"   fill="currentColor" ></path></svg>