<svg xmlns="http://www.w3.org/2000/svg" xmlns:xlink="http://www.w3.org/1999/xlink" width="9.62109375" height="9.62109375" viewBox="0 0 9.62109375 9.62109375" fill="none"><path     fill="#8063E3"  d="M9.55564 4.7223L7.02816 3.79024C6.47834 3.58748 6.0451 3.15378 5.84293 2.60373L4.90998 0.0654277C4.87788 -0.0219077 4.75436 -0.0219077 4.72226 0.0654277L3.78976 2.60251C3.58733 3.15326 3.15326 3.58733 2.60251 3.78976L0.0654277 4.72226C-0.0219077 4.75436 -0.0219077 4.87788 0.0654277 4.90998L2.60373 5.84293C3.15378 6.0451 3.58748 6.47834 3.79024 7.02816L4.7223 9.55564C4.75445 9.64284 4.87779 9.64284 4.90994 9.55564L5.84245 7.02694C6.04495 6.47782 6.47782 6.04495 7.02694 5.84245L9.55564 4.90994C9.64284 4.87779 9.64284 4.75445 9.55564 4.7223Z"></path></svg>