<svg t="1739254127006" class="icon" viewBox="0 0 1024 1024" version="1.1" xmlns="http://www.w3.org/2000/svg" p-id="7553" width="32" height="32"><path d="M512 42.666667a128 128 0 0 1 125.866667 151.424l88.405333 51.029333a128 128 0 1 1 124.032 217.984v97.834667a128.042667 128.042667 0 1 1-124.032 217.941333l-88.405333 51.029333a128 128 0 1 1-251.733334 0.042667l-88.448-51.029333a128 128 0 1 1-123.989333-218.026667v-97.834667a128.042667 128.042667 0 1 1 123.989333-218.026666L386.133333 194.090667A128 128 0 0 1 512 42.666667z m0 768a42.666667 42.666667 0 1 0 0 85.333333 42.666667 42.666667 0 0 0 0-85.333333z m0-512a127.488 127.488 0 0 1-83.2-30.72L339.541333 319.573333a128.042667 128.042667 0 0 1-80.384 141.354667v102.144a128.042667 128.042667 0 0 1 80.384 141.397333l89.344 51.584A127.488 127.488 0 0 1 512 725.333333c31.744 0 60.757333 11.52 83.114667 30.677334l89.386666-51.541334a128.042667 128.042667 0 0 1 80.384-141.354666v-102.186667a128.042667 128.042667 0 0 1-80.384-141.397333l-89.386666-51.541334A127.488 127.488 0 0 1 512 298.666667z m298.666667 341.333333a42.666667 42.666667 0 1 0 0 85.333333 42.666667 42.666667 0 0 0 0-85.333333zM213.333333 640a42.666667 42.666667 0 1 0 0 85.333333 42.666667 42.666667 0 0 0 0-85.333333z m298.666667-256a128 128 0 1 1 0 256 128 128 0 0 1 0-256z m0 85.333333a42.666667 42.666667 0 1 0 0 85.333334 42.666667 42.666667 0 0 0 0-85.333334z m298.666667-170.666666a42.666667 42.666667 0 1 0 0 85.333333 42.666667 42.666667 0 0 0 0-85.333333zM213.333333 298.666667a42.666667 42.666667 0 1 0 0 85.333333 42.666667 42.666667 0 0 0 0-85.333333z m298.666667-170.666667a42.666667 42.666667 0 1 0 0 85.333333 42.666667 42.666667 0 0 0 0-85.333333z" p-id="7554"></path></svg>
