<svg xmlns="http://www.w3.org/2000/svg" xmlns:xlink="http://www.w3.org/1999/xlink" width="16" height="16" viewBox="0 0 16 16" fill="none"><path d="M7.9997 1.66797L5.96203 5.82717L1.3335 6.49834L4.68646 9.77634L3.88496 14.3346L7.9997 12.141L12.1153 14.3346L11.3197 9.77634L14.6668 6.49834L10.0639 5.82717L7.9997 1.66797Z" stroke="rgba(29, 30, 31, 1)" stroke-width="1.1" stroke-linejoin="round"  ></path><rect  x="1" y="2" width="1.000000000000309" height="18.384776310849702" transform="rotate(-44.999997585163726 1 2)" rx="0.5000000000001545"    fill="currentColor" ></rect><path fill-rule="evenodd"  fill="rgba(255, 255, 255, 1)"  d="M14.3536 14.6464C14.5488 14.4512 14.5488 14.1346 14.3536 13.9393L2.06066 1.64645C1.8654 1.45118 1.54882 1.45118 1.35355 1.64645C1.93934 1.06066 2.88909 1.06066 3.47487 1.64645L14.3536 12.5251C14.9393 13.1109 14.9393 14.0607 14.3536 14.6464Z"></path></svg>