<svg xmlns="http://www.w3.org/2000/svg" xmlns:xlink="http://www.w3.org/1999/xlink" width="14" height="14" viewBox="0 0 14 14" fill="none"><path d="M11.084 2.33398L2.91732 2.33398C2.59515 2.33398 2.33398 2.59515 2.33398 2.91732L2.33398 11.084C2.33398 11.4062 2.59515 11.6673 2.91732 11.6673L11.084 11.6673C11.4062 11.6673 11.6673 11.4062 11.6673 11.084L11.6673 2.91732C11.6673 2.59515 11.4062 2.33398 11.084 2.33398Z" stroke="rgba(79, 80, 82, 1)" stroke-width="0.875" stroke-linejoin="round"  ></path><path d="M8.75 5.25L5.25 5.25L5.25 8.75L8.75 8.75L8.75 5.25Z" stroke="rgba(79, 80, 82, 1)" stroke-width="0.875" stroke-linejoin="round"  ></path><path    stroke="rgba(79, 80, 82, 1)" stroke-width="0.875" stroke-linejoin="round" stroke-linecap="round"  d="M4.34766 0.583984L4.34766 2.32349"></path><path    stroke="rgba(79, 80, 82, 1)" stroke-width="0.875" stroke-linejoin="round" stroke-linecap="round"  d="M4.34766 11.666L4.34766 13.4055"></path><path    stroke="rgba(79, 80, 82, 1)" stroke-width="0.875" stroke-linejoin="round" stroke-linecap="round"  d="M7 0.583984L7 2.32349"></path><path    stroke="rgba(79, 80, 82, 1)" stroke-width="0.875" stroke-linejoin="round" stroke-linecap="round"  d="M7 11.666L7 13.4055"></path><path    stroke="rgba(79, 80, 82, 1)" stroke-width="0.875" stroke-linejoin="round" stroke-linecap="round"  d="M9.65234 0.583984L9.65234 2.32349"></path><path    stroke="rgba(79, 80, 82, 1)" stroke-width="0.875" stroke-linejoin="round" stroke-linecap="round"  d="M9.65234 11.666L9.65234 13.4055"></path><path    stroke="rgba(79, 80, 82, 1)" stroke-width="0.875" stroke-linejoin="round" stroke-linecap="round"  d="M0.583984 4.34863L2.33398 4.34863"></path><path    stroke="rgba(79, 80, 82, 1)" stroke-width="0.875" stroke-linejoin="round" stroke-linecap="round"  d="M11.666 4.34863L13.416 4.34863"></path><path    stroke="rgba(79, 80, 82, 1)" stroke-width="0.875" stroke-linejoin="round" stroke-linecap="round"  d="M0.583984 7L2.33398 7"></path><path    stroke="rgba(79, 80, 82, 1)" stroke-width="0.875" stroke-linejoin="round" stroke-linecap="round"  d="M11.666 7L13.416 7"></path><path    stroke="rgba(79, 80, 82, 1)" stroke-width="0.875" stroke-linejoin="round" stroke-linecap="round"  d="M0.583984 9.65137L2.33398 9.65137"></path><path    stroke="rgba(79, 80, 82, 1)" stroke-width="0.875" stroke-linejoin="round" stroke-linecap="round"  d="M11.666 9.65137L13.416 9.65137"></path></svg>