<svg xmlns="http://www.w3.org/2000/svg" xmlns:xlink="http://www.w3.org/1999/xlink" width="15.947265625" height="14.893798828125" viewBox="0 0 15.947265625 14.893798828125" fill="none"><path d="M11.0891 0.00266521L1.90099 0.00266521C0.897695 -0.0501504 0 0.689129 0 1.58682L0 12.7815C0 13.6792 0.897695 14.4185 1.90099 14.3657L7.18151 14.3657C7.49834 14.3657 7.65676 14.2073 7.70958 13.9433C7.70958 13.9433 7.65676 13.6792 7.55116 13.4152C7.44554 13.0984 7.12871 12.6759 6.9703 12.1479C6.75908 11.1974 6.81188 10.0357 7.18151 8.92675C7.65676 7.55381 8.55446 6.28648 11.6172 6.12806C11.67 6.18088 12.1452 6.12806 12.198 6.18088C12.5677 6.23368 12.8845 6.07526 12.9901 5.75843L12.9901 1.58682C12.9373 0.689129 12.1452 0.00266521 11.0891 0.00266521ZM6.28383 9.402L3.43235 9.402C3.27393 9.402 3.16832 9.13796 3.16832 8.87395C3.16832 8.55712 3.27393 8.34589 3.43235 8.34589L6.28383 8.34589C6.44225 8.34589 6.54785 8.60992 6.54785 8.87395C6.54785 9.19078 6.44225 9.402 6.28383 9.402ZM8.81849 6.44489L3.74918 6.44489C3.43235 6.44489 3.16832 6.18088 3.16832 5.91685C3.16832 5.60002 3.43235 5.3888 3.74918 5.3888L8.81849 5.3888C9.13532 5.3888 9.39933 5.65282 9.39933 5.91685C9.34653 6.23368 9.0825 6.44489 8.81849 6.44489ZM9.29373 3.54061L3.69636 3.54061C3.43235 3.54061 3.16832 3.32939 3.16832 3.01256C3.16832 2.69573 3.43235 2.4845 3.74918 2.4845L9.29373 2.4845C9.61057 2.4845 9.87458 2.74853 9.87458 3.01256C9.82178 3.32939 9.55775 3.54061 9.29373 3.54061ZM15.7359 9.93004C15.6832 9.61321 15.472 9.402 15.2079 9.402L15.1551 9.402C14.6799 9.402 14.2574 8.97955 14.2574 8.5043C14.2574 8.3987 14.3102 8.18747 14.363 8.13467C14.4686 7.81784 14.363 7.50101 14.099 7.34259L13.0429 6.76173C12.7789 6.65613 12.4621 6.70893 12.2508 6.92014C12.0924 7.07856 11.7756 7.34259 11.5116 7.34259C11.2475 7.34259 10.9307 7.07856 10.7723 6.92014C10.5611 6.70893 10.2442 6.65613 9.9802 6.76173L8.92409 7.34259C8.66007 7.50101 8.55446 7.87064 8.71287 8.13467C8.71287 8.13467 8.76567 8.34589 8.76567 8.5043C8.76567 8.97955 8.34324 9.402 7.86799 9.402L7.81518 9.402C7.55116 9.402 7.33993 9.61321 7.28713 9.93004C7.23433 10.1941 7.18151 10.4581 7.18151 10.7749C7.18151 11.1446 7.28713 11.567 7.28713 11.6198C7.33993 11.9366 7.55116 12.1479 7.81518 12.1479L7.92079 12.1479C8.39604 12.1479 8.81849 12.5703 8.81849 13.0456C8.81849 13.1512 8.76567 13.3624 8.76567 13.4152C8.66007 13.732 8.76567 14.0489 9.0297 14.2073L10.0858 14.7881C10.3498 14.8938 10.6667 14.8409 10.8779 14.6297C10.9835 14.4713 11.3531 14.2073 11.6172 14.2073C11.8812 14.2073 12.198 14.5241 12.3564 14.6825C12.5677 14.8938 12.8845 14.9466 13.1485 14.8409L14.2046 14.2601C14.4686 14.1017 14.5743 13.732 14.4158 13.468C14.363 13.3624 14.363 13.2568 14.363 13.0984C14.363 12.6231 14.7855 12.2007 15.2607 12.2007L15.3135 12.2007C15.5775 12.2007 15.7888 11.9894 15.8416 11.6726C15.8416 11.6726 15.9472 11.1974 15.9472 10.8277C15.8416 10.4053 15.7359 9.98286 15.7359 9.93004ZM11.4587 12.2535C10.6139 12.2535 9.87458 11.567 9.87458 10.6693C9.87458 9.77163 10.5611 9.08516 11.4587 9.08516C12.3036 9.08516 13.0429 9.77163 13.0429 10.6693C13.0429 11.567 12.3036 12.2535 11.4587 12.2535Z"   fill="currentColor" ></path></svg>