<svg t="1709259838824" class="icon" viewBox="0 0 1024 1024" version="1.1" xmlns="http://www.w3.org/2000/svg" p-id="15055" data-spm-anchor-id="a313x.search_index.0.i0.7b0e3a81vd03lL" width="64" height="64"><path d="M402.285714 723.090286V987.428571a36.571429 36.571429 0 1 1-73.142857 0V727.259429l-90.697143 90.624a36.571429 36.571429 0 1 1-51.638857-51.712l155.062857-155.136a36.571429 36.571429 0 0 1 51.785143 0l155.136 155.062857a36.571429 36.571429 0 0 1-51.712 51.785143L402.285714 723.090286z m0-426.861715l94.793143-94.793142a36.571429 36.571429 0 0 1 51.712 51.712L393.654857 408.283429a36.425143 36.425143 0 0 1-51.712 0L186.806857 253.147429a36.571429 36.571429 0 1 1 51.712-51.712L329.142857 292.059429V36.571429a36.571429 36.571429 0 0 1 73.142857 0v259.657142z m292.571429 252.342858h-658.285714a36.571429 36.571429 0 0 1 0-73.142858h658.285714a36.571429 36.571429 0 1 1 0 73.142858z"  p-id="15056" data-spm-anchor-id="a313x.search_index.0.i1.7b0e3a81vd03lL" class="selected"></path></svg>