<svg t="1708410575385" class="icon" viewBox="0 0 1024 1024" version="1.1" xmlns="http://www.w3.org/2000/svg" p-id="14298" width="64" height="64"><path d="M896 149.333333a61.013333 61.013333 0 0 0-85.333333-4.693333l-323.626667 322.133333-94.506667-94.506666a149.333333 149.333333 0 1 0-51.2 39.68L441.813333 512 341.333333 612.053333a149.333333 149.333333 0 1 0 50.773334 39.68l94.506666-94.506666L810.666667 880.426667a61.013333 61.013333 0 0 0 85.333333-4.693334L533.333333 512z m-548.266667 198.4a99.626667 99.626667 0 1 1 0-140.8 99.626667 99.626667 0 0 1 0 140.8z m0 469.333334a99.626667 99.626667 0 1 1 0-140.8 99.626667 99.626667 0 0 1 0 140.8z" p-id="14299"></path></svg>
