<svg xmlns="http://www.w3.org/2000/svg" xmlns:xlink="http://www.w3.org/1999/xlink" width="11.900390625" height="11.89990234375" viewBox="0 0 11.900390625 11.89990234375" fill="none"><path d="M9.55556 9.541C9.61431 9.48228 9.67159 9.42216 9.7274 9.36063C9.7832 9.29909 9.83746 9.23623 9.89017 9.17202C9.94288 9.10783 9.99399 9.04239 10.0435 8.97568C10.093 8.90898 10.1408 8.84109 10.187 8.77204C10.2332 8.70298 10.2776 8.63283 10.3203 8.5616C10.3631 8.49036 10.404 8.41811 10.4432 8.34487C10.4824 8.27162 10.5197 8.19745 10.5553 8.12238C10.5908 8.04729 10.6245 7.97139 10.6563 7.89465C10.6881 7.81791 10.718 7.74044 10.746 7.66224C10.774 7.58403 10.8001 7.50519 10.8242 7.4257C10.8483 7.34623 10.8705 7.26619 10.8907 7.18562C10.9109 7.10505 10.9291 7.02403 10.9453 6.94256C10.9615 6.86109 10.9758 6.77928 10.988 6.69711C11.0002 6.61494 11.0104 6.53253 11.0185 6.44987C11.0267 6.3672 11.0328 6.28439 11.0369 6.20143C11.041 6.11845 11.043 6.03544 11.0431 5.95236C11.0431 5.86931 11.0411 5.78629 11.037 5.70332C11.0329 5.62036 11.0268 5.53755 11.0187 5.45487C11.0106 5.3722 11.0004 5.28978 10.9883 5.20762C10.9761 5.12543 10.9619 5.04361 10.9457 4.96214C10.9295 4.88067 10.9113 4.79965 10.8912 4.71907C10.871 4.63848 10.8489 4.55845 10.8248 4.47895C10.8007 4.39946 10.7746 4.3206 10.7467 4.24238C10.7187 4.16417 10.6888 4.08669 10.657 4.00995C10.6253 3.93319 10.5916 3.85727 10.5561 3.78217C10.5206 3.70707 10.4833 3.6329 10.4441 3.55964C10.405 3.48637 10.3641 3.41411 10.3214 3.34286C10.2787 3.27161 10.2343 3.20145 10.1881 3.13236C10.142 3.06329 10.0942 2.9954 10.0447 2.92867C9.99522 2.86195 9.94414 2.79647 9.89145 2.73226C9.83876 2.66804 9.78452 2.60516 9.72874 2.5436C9.67297 2.48205 9.61572 2.4219 9.55698 2.36316C9.49825 2.30441 9.43811 2.24715 9.37657 2.19136C9.31503 2.13556 9.25215 2.08132 9.18795 2.02862C9.12373 1.97591 9.05827 1.92482 8.99157 1.87533C8.92485 1.82584 8.85696 1.77801 8.78788 1.73187C8.71883 1.68571 8.64868 1.64128 8.57743 1.59857C8.50619 1.55586 8.43393 1.51493 8.36068 1.47576C8.28741 1.4366 8.21324 1.39926 8.13816 1.36374C8.06307 1.32822 7.98715 1.29457 7.91041 1.26278C7.83367 1.23098 7.75619 1.20109 7.67799 1.1731C7.59977 1.14511 7.52093 1.11906 7.44144 1.09495C7.36195 1.07084 7.28191 1.04868 7.20133 1.02849C7.12076 1.0083 7.03973 0.990108 6.95826 0.973902C6.87679 0.957697 6.79498 0.9435 6.71281 0.931314C6.63064 0.919119 6.54823 0.908951 6.46555 0.900812C6.38289 0.892664 6.30008 0.886553 6.21711 0.882478C6.13415 0.878404 6.05113 0.876367 5.96806 0.876367C5.88499 0.876367 5.80197 0.878404 5.71901 0.882478C5.63604 0.886553 5.55323 0.892664 5.47055 0.900812C5.38789 0.908951 5.30548 0.919119 5.22331 0.931314C5.14114 0.9435 5.05932 0.957697 4.97785 0.973902C4.89638 0.990108 4.81536 1.0083 4.73479 1.02849C4.65421 1.04868 4.57417 1.07084 4.49468 1.09495C4.4152 1.11906 4.33635 1.14511 4.25813 1.1731C4.17993 1.20109 4.10245 1.23098 4.02571 1.26278C3.94897 1.29457 3.87305 1.32822 3.79796 1.36374C3.72287 1.39926 3.6487 1.4366 3.57544 1.47577C3.50219 1.51493 3.42993 1.55586 3.35869 1.59857C3.28744 1.64128 3.21729 1.68571 3.14822 1.73187C3.07917 1.77803 3.01127 1.82585 2.94455 1.87533C2.87785 1.92482 2.81239 1.97591 2.74817 2.02862C2.68397 2.08132 2.62109 2.13556 2.55955 2.19136C2.498 2.24715 2.43786 2.30441 2.37914 2.36316C2.3204 2.4219 2.26315 2.48205 2.20738 2.5436C2.1516 2.60516 2.09736 2.66804 2.04467 2.73226C1.99198 2.79647 1.9409 2.86195 1.89142 2.92868C1.84194 2.9954 1.79415 3.06329 1.748 3.13238C1.70186 3.20145 1.65744 3.27161 1.61474 3.34286C1.57205 3.41411 1.53113 3.48637 1.49198 3.55964C1.45284 3.6329 1.4155 3.70707 1.38 3.78217C1.34449 3.85727 1.31086 3.93321 1.27908 4.00995C1.2473 4.08669 1.21742 4.16418 1.18945 4.2424C1.16148 4.32061 1.13544 4.39946 1.11134 4.47896C1.08724 4.55845 1.06511 4.63848 1.04494 4.71907C1.02477 4.79965 1.00659 4.88068 0.990403 4.96215C0.974206 5.04362 0.960024 5.12543 0.947856 5.20762C0.935679 5.28978 0.92553 5.3722 0.917409 5.45487C0.909278 5.53755 0.903186 5.62036 0.89913 5.70332C0.895065 5.78629 0.893041 5.86931 0.893059 5.95238C0.893077 6.03544 0.895133 6.11845 0.899225 6.20143C0.903317 6.28439 0.909442 6.3672 0.9176 6.44987C0.925758 6.53253 0.935938 6.61494 0.948143 6.69711C0.960356 6.77928 0.974575 6.86109 0.990799 6.94256C1.00702 7.02403 1.02523 7.10505 1.04543 7.18562C1.06563 7.26619 1.0878 7.34623 1.11193 7.4257C1.13607 7.50519 1.16214 7.58403 1.19014 7.66224C1.21814 7.74044 1.24804 7.81791 1.27985 7.89465C1.31166 7.97139 1.34533 8.04729 1.38086 8.12238C1.41639 8.19745 1.45376 8.27162 1.49293 8.34487C1.53211 8.41811 1.57306 8.49036 1.61578 8.5616C1.65851 8.63284 1.70296 8.70298 1.74913 8.77204C1.79529 8.84109 1.84312 8.90898 1.89262 8.97568C1.94213 9.04239 1.99324 9.10783 2.04596 9.17204C2.09866 9.23623 2.15292 9.29909 2.20873 9.36063C2.26453 9.42216 2.32181 9.48228 2.38056 9.541C2.43928 9.59969 2.49941 9.65691 2.56095 9.71265C2.62248 9.76839 2.68535 9.82259 2.74954 9.87524C2.81373 9.92789 2.87917 9.97894 2.94587 10.0284C3.01257 10.0778 3.08044 10.1256 3.14948 10.1717C3.21852 10.2178 3.28866 10.2622 3.35988 10.3049C3.43109 10.3475 3.50332 10.3884 3.57655 10.4276C3.64979 10.4667 3.72393 10.504 3.79899 10.5395C3.87405 10.575 3.94993 10.6086 4.02664 10.6403C4.10335 10.6721 4.18079 10.702 4.25897 10.7299C4.33714 10.7579 4.41596 10.7839 4.49541 10.808C4.57486 10.8321 4.65485 10.8542 4.73539 10.8744C4.81593 10.8946 4.89692 10.9127 4.97835 10.9289C5.05978 10.9451 5.14155 10.9593 5.22368 10.9715C5.30581 10.9837 5.3882 10.9938 5.47081 11.0019C5.55343 11.0101 5.63622 11.0162 5.71914 11.0203C5.80206 11.0243 5.88503 11.0264 5.96806 11.0264C6.05109 11.0264 6.13406 11.0243 6.21698 11.0203C6.2999 11.0162 6.38269 11.0101 6.46531 11.0019C6.54793 10.9938 6.63031 10.9837 6.71244 10.9715C6.79457 10.9593 6.87634 10.9451 6.95777 10.9289C7.03921 10.9127 7.12019 10.8946 7.20073 10.8744C7.28127 10.8542 7.36127 10.8321 7.44071 10.808C7.52016 10.7839 7.59898 10.7579 7.67715 10.7299C7.75533 10.702 7.83277 10.6721 7.90948 10.6403C7.98619 10.6086 8.06207 10.5749 8.13713 10.5395C8.21219 10.504 8.28633 10.4667 8.35957 10.4276C8.4328 10.3884 8.50503 10.3475 8.57624 10.3049C8.64746 10.2622 8.7176 10.2178 8.78664 10.1717C8.85568 10.1256 8.92355 10.0778 8.99026 10.0284C9.05695 9.97894 9.12239 9.92789 9.18658 9.87524C9.25077 9.82259 9.31364 9.76839 9.37517 9.71265C9.43671 9.65691 9.49684 9.59969 9.55556 9.541ZM10.1646 10.15C10.0958 10.219 10.0253 10.2863 9.95323 10.3519C9.88114 10.4174 9.80749 10.4812 9.73226 10.5431C9.65703 10.6051 9.58033 10.6652 9.50216 10.7233C9.42398 10.7815 9.34443 10.8377 9.26349 10.892C9.18255 10.9463 9.10033 10.9985 9.01682 11.0487C8.93331 11.099 8.84863 11.1471 8.76276 11.1932C8.67688 11.2392 8.58993 11.2832 8.5019 11.325C8.41386 11.3668 8.32486 11.4064 8.23489 11.4438C8.14491 11.4812 8.05407 11.5164 7.96236 11.5494C7.87067 11.5823 7.7782 11.613 7.68499 11.6414C7.59179 11.6698 7.49793 11.6959 7.40343 11.7197C7.30893 11.7436 7.21391 11.765 7.11836 11.7842C7.0228 11.8033 6.92684 11.8201 6.83047 11.8345C6.7341 11.8489 6.63744 11.861 6.54046 11.8706C6.44349 11.8803 6.34635 11.8876 6.24902 11.8925C6.1517 11.8974 6.05432 11.8999 5.95686 11.9C5.85942 11.9001 5.76203 11.8978 5.6647 11.8931C5.56735 11.8885 5.47019 11.8814 5.3732 11.872C5.27621 11.8625 5.17951 11.8507 5.08311 11.8365C4.98671 11.8223 4.8907 11.8057 4.79511 11.7868C4.69952 11.7679 4.60444 11.7467 4.50989 11.7231C4.41533 11.6995 4.32142 11.6736 4.22815 11.6454C4.13487 11.6172 4.04234 11.5867 3.95056 11.554C3.85878 11.5212 3.76785 11.4863 3.67779 11.449C3.58773 11.4118 3.49863 11.3724 3.4105 11.3308C3.32239 11.2892 3.23534 11.2455 3.14936 11.1997C3.06337 11.1538 2.97858 11.1058 2.89495 11.0558C2.81133 11.0058 2.72899 10.9537 2.64793 10.8996C2.56687 10.8455 2.48717 10.7895 2.40886 10.7315C2.33055 10.6735 2.25371 10.6136 2.17834 10.5519C2.10298 10.4901 2.02918 10.4265 1.95692 10.3611C1.88468 10.2957 1.81409 10.2286 1.74515 10.1597C1.6762 10.0908 1.60897 10.0203 1.5435 9.94816C1.47803 9.87599 1.41436 9.80225 1.35249 9.72696C1.29064 9.65167 1.23067 9.57489 1.17258 9.49665C1.11449 9.4184 1.05836 9.33879 1.00418 9.25779C0.950007 9.17678 0.897854 9.0945 0.847723 9.01094C0.797593 8.92736 0.749546 8.84263 0.703581 8.7567C0.657616 8.67077 0.613784 8.58378 0.572085 8.4957C0.530395 8.40761 0.490891 8.31857 0.453577 8.22855C0.416253 8.13853 0.381166 8.04765 0.348317 7.95591C0.315466 7.86416 0.284886 7.77167 0.256579 7.67842C0.228271 7.58518 0.20227 7.4913 0.178575 7.39677C0.15488 7.30226 0.13352 7.20721 0.114495 7.11163C0.0954702 7.01605 0.0788033 6.92007 0.0644943 6.82369C0.0501854 6.72729 0.0382517 6.6306 0.0286932 6.53362C0.0191347 6.43665 0.0119629 6.3395 0.00717776 6.24217C0.00239262 6.14484 0 6.04744 0 5.95C0 5.85256 0.00239262 5.75516 0.00717776 5.65783C0.0119629 5.5605 0.0191347 5.46335 0.0286932 5.36637C0.0382517 5.2694 0.0501854 5.17271 0.0644943 5.07631C0.0788033 4.97993 0.0954702 4.88395 0.114495 4.78837C0.13352 4.69279 0.15488 4.59774 0.178575 4.50323C0.20227 4.4087 0.228271 4.31482 0.256579 4.22157C0.284886 4.12833 0.315465 4.03584 0.348317 3.94409C0.381166 3.85235 0.416253 3.76147 0.453577 3.67144C0.490891 3.58143 0.530395 3.49238 0.572085 3.4043C0.613784 3.31622 0.657616 3.22923 0.703581 3.1433C0.749546 3.05737 0.797593 2.97263 0.847723 2.88906C0.897854 2.8055 0.950007 2.72322 1.00418 2.64221C1.05836 2.56121 1.11449 2.4816 1.17258 2.40335C1.23067 2.32511 1.29064 2.24833 1.35249 2.17303C1.41436 2.09774 1.47803 2.02401 1.5435 1.95184C1.60897 1.87966 1.6762 1.80916 1.74515 1.74029C1.81409 1.67143 1.88468 1.60429 1.95692 1.53889C2.02917 1.4735 2.10297 1.40991 2.17834 1.34814C2.25371 1.28637 2.33055 1.22649 2.40886 1.16849C2.48717 1.1105 2.56687 1.05446 2.64793 1.00037C2.72899 0.946295 2.81133 0.894236 2.89495 0.844197C2.97858 0.794168 3.06337 0.746215 3.14936 0.700342C3.23534 0.654477 3.32239 0.61075 3.4105 0.56916C3.49863 0.52757 3.58773 0.488168 3.67779 0.450953C3.76785 0.413738 3.85878 0.378756 3.95056 0.346008C4.04234 0.313262 4.13487 0.282789 4.22815 0.254588C4.32142 0.226388 4.41533 0.200495 4.50989 0.17691C4.60444 0.153323 4.69952 0.132072 4.79511 0.113158C4.8907 0.0942432 4.98671 0.0776871 5.08311 0.0634893C5.17951 0.0492915 5.27621 0.0374694 5.3732 0.0280231C5.47019 0.0185768 5.56735 0.0115171 5.6647 0.00684396C5.76203 0.00217097 5.85942 -0.000109106 5.95686 3.96371e-06C6.0543 0.000116095 6.15169 0.00262075 6.24902 0.00751801C6.34635 0.0124153 6.44349 0.0196993 6.54046 0.0293698C6.63744 0.0390403 6.7341 0.0510858 6.83047 0.0655059C6.92684 0.079926 7.0228 0.0967034 7.11836 0.115838C7.21391 0.134973 7.30893 0.156443 7.40343 0.180247C7.49793 0.204051 7.59179 0.230161 7.68499 0.258576C7.7782 0.28699 7.87067 0.31768 7.96236 0.350643C8.05407 0.383592 8.14491 0.418779 8.23489 0.456203C8.32486 0.493627 8.41386 0.533235 8.5019 0.575025C8.58993 0.616824 8.67688 0.660758 8.76276 0.706822C8.84863 0.752887 8.93331 0.801035 9.01682 0.851266C9.10033 0.901486 9.18255 0.953732 9.26349 1.008C9.34443 1.06227 9.42398 1.11849 9.50216 1.17667C9.58033 1.23485 9.65703 1.29491 9.73226 1.35685C9.80749 1.4188 9.88114 1.48255 9.95323 1.54812C10.0253 1.61368 10.0958 1.68097 10.1646 1.75C10.2332 1.81882 10.3 1.88929 10.3651 1.96138C10.4303 2.03347 10.4936 2.10712 10.5551 2.18233C10.6166 2.25753 10.6763 2.33419 10.7341 2.41231C10.7918 2.49043 10.8476 2.56992 10.9015 2.65078C10.9554 2.73164 11.0073 2.81377 11.0571 2.89717C11.107 2.98056 11.1548 3.06512 11.2005 3.15086C11.2462 3.2366 11.2898 3.32341 11.3312 3.41128C11.3727 3.49915 11.412 3.58799 11.449 3.67779C11.4862 3.76759 11.521 3.85824 11.5537 3.94975C11.5864 4.04126 11.6168 4.1335 11.6449 4.2265C11.6731 4.31949 11.6989 4.41312 11.7225 4.50738C11.746 4.60165 11.7673 4.69643 11.7862 4.79173C11.8051 4.88704 11.8217 4.98274 11.8359 5.07887C11.8501 5.17498 11.862 5.27138 11.8715 5.36808C11.881 5.46477 11.8881 5.56164 11.8929 5.65869C11.8976 5.75574 11.9 5.85283 11.9 5.95C11.9 6.04717 11.8976 6.14426 11.8929 6.24131C11.8881 6.33835 11.881 6.43521 11.8715 6.53192C11.862 6.62862 11.8501 6.72502 11.8359 6.82113C11.8217 6.91726 11.8051 7.01296 11.7862 7.10827C11.7673 7.20357 11.746 7.29835 11.7225 7.39261C11.6989 7.48688 11.6731 7.58051 11.6449 7.6735C11.6168 7.7665 11.5864 7.85874 11.5537 7.95025C11.521 8.04175 11.4862 8.13241 11.449 8.22221C11.412 8.31201 11.3727 8.40085 11.3312 8.48872C11.2898 8.57658 11.2462 8.6634 11.2005 8.74914C11.1548 8.83487 11.107 8.91943 11.0571 9.00283C11.0073 9.08623 10.9554 9.16836 10.9015 9.24921C10.8476 9.33008 10.7918 9.40957 10.7341 9.48769C10.6763 9.56581 10.6166 9.64247 10.5551 9.71767C10.4936 9.79288 10.4303 9.86653 10.3651 9.93862C10.3 10.0107 10.2332 10.0812 10.1646 10.15ZM6.02756 3.01C6.01275 3.00922 5.99795 3.00863 5.98313 3.00825C5.96831 3.00785 5.95349 3.00768 5.93865 3.00769C5.92383 3.0077 5.90901 3.00792 5.89419 3.00835C5.87937 3.00876 5.86456 3.00937 5.84976 3.01019C5.83495 3.01101 5.82017 3.01202 5.80539 3.01324C5.79061 3.01446 5.77586 3.01588 5.76112 3.01749C5.74638 3.01911 5.73167 3.02092 5.71699 3.02293C5.70229 3.02494 5.68764 3.02716 5.67301 3.02956C5.65838 3.03198 5.64379 3.0346 5.62923 3.0374C5.61467 3.0402 5.60016 3.0432 5.58569 3.04639C5.57121 3.04959 5.55678 3.05298 5.54239 3.05657C5.528 3.06016 5.51368 3.06394 5.49939 3.06791C5.4851 3.07189 5.47088 3.07605 5.45672 3.08041C5.44254 3.08477 5.42843 3.08932 5.41439 3.09407C5.40035 3.09881 5.38636 3.10373 5.37245 3.10885C5.35854 3.11397 5.34469 3.11928 5.33092 3.12478C5.31716 3.13026 5.30346 3.13595 5.28984 3.14181C5.27622 3.14768 5.26269 3.15372 5.24923 3.15994C5.23578 3.16617 5.22241 3.17259 5.20913 3.17918C5.19586 3.18577 5.18267 3.19253 5.16958 3.19948C5.15648 3.20642 5.14348 3.21355 5.13058 3.22085C5.11767 3.22815 5.10487 3.23563 5.09217 3.24327C5.07947 3.25091 5.06687 3.25872 5.05437 3.2667C5.04189 3.27469 5.0295 3.28284 5.01724 3.29116C5.00497 3.29949 4.99282 3.30796 4.98077 3.31662C4.96873 3.32527 4.95681 3.33408 4.94501 3.34305C4.93321 3.35202 4.92152 3.36115 4.90997 3.37043C4.89841 3.37971 4.88698 3.38916 4.87568 3.39876C4.86437 3.40836 4.8532 3.41811 4.84217 3.428C4.83113 3.4379 4.82022 3.44795 4.80946 3.45814C4.79871 3.46832 4.78807 3.47866 4.77758 3.48914C4.7671 3.49963 4.75676 3.51024 4.74656 3.521C4.73698 3.53169 4.72752 3.54251 4.7182 3.55343C4.70888 3.56435 4.69969 3.5754 4.69064 3.58656C4.68159 3.5977 4.67268 3.60896 4.6639 3.62033C4.65514 3.6317 4.6465 3.64317 4.63799 3.65475C4.6295 3.66633 4.62115 3.67802 4.61293 3.68981C4.60473 3.70158 4.59666 3.71346 4.58875 3.72545C4.58083 3.73743 4.57305 3.7495 4.56542 3.76168C4.55781 3.77385 4.55033 3.78611 4.543 3.79846C4.53567 3.81082 4.52849 3.82326 4.52148 3.83578C4.51445 3.84832 4.50759 3.86092 4.50088 3.87362C4.49416 3.88633 4.4876 3.8991 4.4812 3.91195C4.4748 3.92481 4.46856 3.93775 4.46247 3.95075C4.45639 3.96375 4.45046 3.97683 4.44469 3.99C4.43893 4.00315 4.43332 4.01637 4.42788 4.02966C4.42243 4.04295 4.41715 4.05631 4.41204 4.06972C4.40692 4.08315 4.40197 4.09663 4.39718 4.11016C4.39239 4.12371 4.38777 4.1373 4.38331 4.15096C4.37886 4.16462 4.37456 4.17832 4.37045 4.19207C4.36633 4.20584 4.36238 4.21965 4.35859 4.2335C4.35481 4.24735 4.3512 4.26125 4.34775 4.2752C4.34431 4.28913 4.34104 4.30311 4.33794 4.31714C4.33483 4.33117 4.33189 4.34522 4.32913 4.35932C4.32638 4.37341 4.3238 4.38754 4.32138 4.4017C4.31896 4.41585 4.31672 4.43004 4.31465 4.44425C4.31259 4.45845 4.31069 4.4727 4.30896 4.48696C4.30726 4.50122 4.30571 4.51549 4.30433 4.52979C4.30296 4.54408 4.30177 4.55839 4.30075 4.57272C4.29972 4.58705 4.29887 4.60139 4.2982 4.61573C4.29753 4.63008 4.29703 4.64443 4.29671 4.65879C4.2964 4.67316 4.29625 4.68751 4.29628 4.70187C4.2963 4.71624 4.29651 4.73059 4.29689 4.74495C4.29728 4.7593 4.29784 4.77366 4.29856 4.788L4.29856 4.928L5.13156 4.928L5.13156 4.788C5.13086 4.77255 5.13049 4.7571 5.13043 4.74164C5.13036 4.72618 5.13062 4.71073 5.13119 4.69528C5.13175 4.67983 5.13264 4.66439 5.13384 4.64898C5.13505 4.63358 5.13656 4.61818 5.1384 4.60283C5.14023 4.58747 5.14237 4.57218 5.14482 4.5569C5.14728 4.54163 5.15004 4.52643 5.15312 4.51128C5.1562 4.49613 5.15959 4.48105 5.16329 4.46604C5.16698 4.45103 5.17099 4.4361 5.1753 4.42125C5.1796 4.4064 5.18421 4.39165 5.18912 4.37698C5.19403 4.36233 5.19922 4.34778 5.20473 4.33333C5.21024 4.31888 5.21604 4.30453 5.22214 4.29033C5.22822 4.27612 5.23461 4.26204 5.24126 4.2481C5.24794 4.23414 5.25488 4.22033 5.26211 4.20667C5.26935 4.19301 5.27687 4.17949 5.28464 4.16613C5.29242 4.15278 5.30048 4.13958 5.3088 4.12655C5.31713 4.11352 5.32572 4.10067 5.33456 4.088C5.33961 4.08146 5.34476 4.07501 5.35001 4.06865C5.35527 4.0623 5.36063 4.05602 5.36609 4.04983C5.37156 4.04363 5.37712 4.03754 5.38278 4.03153C5.38844 4.02553 5.3942 4.01961 5.40005 4.0138C5.40591 4.00799 5.41186 4.00226 5.4179 3.99664C5.42395 3.99102 5.43009 3.9855 5.43631 3.98007C5.44253 3.97465 5.44884 3.96933 5.45524 3.96412C5.46164 3.95891 5.46812 3.9538 5.47468 3.94879C5.48125 3.94379 5.48789 3.93889 5.49462 3.93411C5.50134 3.92934 5.50815 3.92466 5.51503 3.9201C5.52191 3.91553 5.52885 3.91109 5.53588 3.90675C5.54291 3.90242 5.55 3.89819 5.55717 3.89409C5.56432 3.88999 5.57155 3.88601 5.57885 3.88214C5.58614 3.87827 5.59349 3.87454 5.6009 3.87092C5.60833 3.86729 5.61579 3.86378 5.62332 3.8604C5.63086 3.85703 5.63843 3.85377 5.64607 3.85064C5.65372 3.84751 5.6614 3.8445 5.66914 3.84162C5.67688 3.83873 5.68466 3.83599 5.69248 3.83336C5.70031 3.83074 5.70817 3.82825 5.71607 3.82588C5.72399 3.82352 5.73193 3.82127 5.7399 3.81917C5.74789 3.81706 5.7559 3.81508 5.76395 3.81324C5.77199 3.81139 5.78006 3.80968 5.78817 3.80811C5.79627 3.80652 5.80439 3.80507 5.81254 3.80376C5.82069 3.80245 5.82885 3.80127 5.83704 3.80022C5.84523 3.79918 5.85344 3.79827 5.86165 3.79749C5.86987 3.79671 5.8781 3.79606 5.88634 3.79556C5.89459 3.79505 5.90283 3.79468 5.91108 3.79444C5.91932 3.7942 5.92758 3.7941 5.93584 3.79414C5.94408 3.79416 5.95234 3.79433 5.96058 3.79464C5.96883 3.79494 5.97707 3.79538 5.98531 3.79595C5.99355 3.79652 6.00176 3.79723 6.00998 3.79807C6.0182 3.79891 6.02638 3.79989 6.03456 3.801C6.04786 3.79989 6.06118 3.79913 6.07451 3.7987C6.08784 3.79828 6.10118 3.79821 6.11453 3.79848C6.12787 3.79876 6.1412 3.79937 6.1545 3.80034C6.16781 3.80131 6.18108 3.80263 6.19433 3.80428C6.20756 3.80594 6.22076 3.80795 6.2339 3.81028C6.24704 3.81262 6.26009 3.81531 6.27309 3.81834C6.2861 3.82136 6.299 3.82471 6.31181 3.82841C6.32464 3.8321 6.33735 3.83612 6.34997 3.84048C6.36259 3.84483 6.37507 3.84951 6.38745 3.85451C6.39982 3.85952 6.41204 3.86483 6.42414 3.87048C6.43624 3.87613 6.44818 3.88207 6.45996 3.88834C6.47175 3.8946 6.48335 3.90116 6.4948 3.90802C6.50624 3.91489 6.51749 3.92204 6.52857 3.92949C6.53964 3.93694 6.55051 3.94466 6.56117 3.95269C6.57185 3.9607 6.5823 3.96899 6.59254 3.97754C6.60278 3.9861 6.61279 3.99492 6.62256 4.004C6.63105 4.01326 6.63932 4.0227 6.64735 4.03237C6.65537 4.04203 6.66314 4.05191 6.67067 4.06195C6.67819 4.07202 6.68546 4.08226 6.69248 4.09268C6.69949 4.10311 6.70623 4.1137 6.71271 4.12446C6.71918 4.13522 6.72539 4.14615 6.73132 4.15722C6.73724 4.16829 6.74289 4.17951 6.74826 4.19087C6.75362 4.20223 6.75869 4.21371 6.76349 4.22533C6.76828 4.23694 6.77276 4.24867 6.77696 4.26051C6.78115 4.27235 6.78505 4.28429 6.78865 4.29633C6.79224 4.30836 6.79554 4.32048 6.79852 4.33268C6.80151 4.34489 6.80419 4.35716 6.80656 4.36949C6.80892 4.38182 6.81099 4.39421 6.81272 4.40665C6.81447 4.41909 6.81591 4.43157 6.81702 4.44408C6.81814 4.45659 6.81894 4.46913 6.81942 4.48168C6.81991 4.49423 6.82009 4.50678 6.81994 4.51935C6.81979 4.53191 6.81934 4.54446 6.81856 4.557C6.81853 4.56772 6.81826 4.57844 6.81774 4.58914C6.81722 4.59985 6.81645 4.61055 6.81544 4.62123C6.81443 4.63191 6.81317 4.64254 6.81167 4.65315C6.81017 4.66378 6.80842 4.67435 6.80643 4.68489C6.80445 4.69543 6.80222 4.70591 6.79975 4.71635C6.79729 4.72678 6.79458 4.73715 6.79163 4.74746C6.78869 4.75777 6.7855 4.76801 6.78208 4.77817C6.77868 4.78833 6.77503 4.79842 6.77115 4.80841C6.76728 4.81841 6.76316 4.82832 6.75883 4.83812C6.75449 4.84792 6.74994 4.85763 6.74516 4.86723C6.74038 4.87683 6.73538 4.88631 6.73016 4.89568C6.72495 4.90504 6.71952 4.91429 6.71387 4.92341C6.70823 4.93253 6.70239 4.94152 6.69633 4.95037C6.69028 4.95921 6.68403 4.96792 6.67758 4.97648C6.67112 4.98504 6.66448 4.99345 6.65764 5.0017C6.65079 5.00996 6.64377 5.01806 6.63656 5.026C6.5644 5.11003 6.4874 5.18936 6.40556 5.264C6.37012 5.29378 6.3354 5.32436 6.30138 5.35574C6.26737 5.38711 6.2341 5.41927 6.20158 5.45221C6.16905 5.48513 6.1373 5.51879 6.10634 5.55319C6.07537 5.58759 6.04521 5.62268 6.01587 5.65847C5.98653 5.69427 5.95804 5.73072 5.93039 5.76784C5.90274 5.80495 5.87597 5.84269 5.85006 5.88104C5.82416 5.91939 5.79917 5.95833 5.77507 5.99785C5.75096 6.03736 5.7278 6.07741 5.70556 6.118C5.69294 6.14525 5.68114 6.17285 5.67016 6.2008C5.65919 6.22876 5.64903 6.257 5.63972 6.28555C5.63039 6.31411 5.62193 6.3429 5.61431 6.37195C5.6067 6.40101 5.59995 6.43025 5.59405 6.4597C5.58816 6.48914 5.58314 6.51874 5.579 6.54849C5.57486 6.57822 5.5716 6.60807 5.56922 6.63801C5.56683 6.66794 5.56534 6.69792 5.56473 6.72794C5.56413 6.75798 5.5644 6.78799 5.56556 6.818L5.56556 7.119L6.40556 7.119L6.40556 6.818C6.40507 6.7988 6.40523 6.77961 6.40607 6.76041C6.40689 6.74123 6.40836 6.72209 6.41051 6.70301C6.41266 6.68392 6.41545 6.66493 6.41888 6.64603C6.42232 6.62714 6.42641 6.60838 6.43113 6.58977C6.43586 6.57117 6.44122 6.55274 6.44721 6.53449C6.45321 6.51623 6.45981 6.49821 6.46704 6.48041C6.47428 6.46263 6.4821 6.4451 6.49053 6.42785C6.49897 6.41059 6.50798 6.39364 6.51756 6.377C6.53722 6.34367 6.55832 6.31128 6.58086 6.27982C6.60339 6.24836 6.62728 6.21797 6.65252 6.18863C6.67774 6.15929 6.70422 6.13112 6.73195 6.10414C6.75969 6.07713 6.78855 6.05143 6.81856 6.027C7.01244 5.83465 7.19444 5.63165 7.36456 5.418C7.37693 5.40184 7.38895 5.38543 7.40063 5.36877C7.41232 5.3521 7.42364 5.33522 7.43462 5.31809C7.44559 5.30095 7.4562 5.28359 7.46646 5.26602C7.4767 5.24844 7.48658 5.23065 7.4961 5.21268C7.5056 5.19468 7.51473 5.1765 7.52348 5.15814C7.53223 5.13976 7.5406 5.12122 7.54858 5.10251C7.55655 5.08379 7.56414 5.06491 7.57133 5.04588C7.57851 5.02685 7.58531 5.00767 7.59171 4.98835C7.59809 4.96903 7.60408 4.94959 7.60966 4.93002C7.61523 4.91046 7.6204 4.89078 7.62516 4.871C7.62992 4.85122 7.63427 4.83134 7.63819 4.81138C7.64211 4.7914 7.64563 4.77137 7.64872 4.75126C7.65181 4.73115 7.65447 4.71099 7.65673 4.69077C7.65898 4.67054 7.6608 4.65028 7.66221 4.62998C7.66362 4.60968 7.6646 4.58936 7.66516 4.56903C7.66572 4.54869 7.66585 4.52834 7.66556 4.508C7.66626 4.49538 7.66678 4.48276 7.66712 4.47014C7.66747 4.45751 7.66765 4.44488 7.66767 4.43224C7.66768 4.41961 7.66752 4.40698 7.66717 4.39436C7.66683 4.38173 7.66633 4.36911 7.66566 4.35649C7.66499 4.34387 7.66414 4.33128 7.66313 4.31869C7.6621 4.30609 7.66091 4.29353 7.65956 4.28096C7.65821 4.2684 7.65667 4.25586 7.65498 4.24334C7.65328 4.23083 7.65142 4.21833 7.64939 4.20586C7.64735 4.1934 7.64515 4.18095 7.64278 4.16855C7.64042 4.15615 7.63788 4.14378 7.63517 4.13144C7.63246 4.11909 7.62959 4.1068 7.62654 4.09453C7.62351 4.08227 7.62031 4.07005 7.61693 4.05788C7.61355 4.0457 7.61003 4.03357 7.60633 4.0215C7.60263 4.00941 7.59877 3.99738 7.59475 3.98542C7.59072 3.97344 7.58654 3.96152 7.58219 3.94967C7.57784 3.9378 7.57334 3.926 7.56868 3.91426C7.56402 3.90251 7.55919 3.89085 7.5542 3.87924C7.54923 3.86764 7.54409 3.8561 7.53879 3.84463C7.5335 3.83316 7.52805 3.82175 7.52244 3.81043C7.51685 3.79911 7.5111 3.78787 7.50518 3.7767C7.49927 3.76553 7.49321 3.75446 7.48701 3.74345C7.4808 3.73245 7.47444 3.72152 7.46795 3.7107C7.46145 3.69987 7.45479 3.68912 7.448 3.67847C7.44121 3.66782 7.43427 3.65727 7.42719 3.64681C7.42012 3.63635 7.4129 3.62599 7.40554 3.61572C7.39818 3.60545 7.39069 3.59528 7.38304 3.58522C7.37542 3.57515 7.36765 3.5652 7.35973 3.55534C7.35183 3.54549 7.34379 3.53574 7.33563 3.5261C7.32747 3.51646 7.31917 3.50694 7.31075 3.49752C7.30231 3.48812 7.29377 3.47882 7.28509 3.46965C7.2764 3.46046 7.26761 3.4514 7.25869 3.44245C7.24976 3.43351 7.24072 3.4247 7.23156 3.416C7.22135 3.40704 7.21103 3.39821 7.20059 3.3895C7.19016 3.38079 7.17962 3.37222 7.16897 3.36379C7.15833 3.35535 7.14759 3.34704 7.13673 3.33885C7.12589 3.33067 7.11494 3.32263 7.10389 3.31472C7.09285 3.30682 7.0817 3.29905 7.07047 3.29141C7.05923 3.28378 7.04789 3.27629 7.03646 3.26893C7.02505 3.26158 7.01354 3.25436 7.00193 3.24729C6.99032 3.24022 6.97863 3.2333 6.96686 3.22652C6.95509 3.21974 6.94323 3.21311 6.9313 3.20661C6.91936 3.20012 6.90736 3.19378 6.89526 3.18758C6.88316 3.18139 6.87099 3.17536 6.85876 3.16947C6.84652 3.16358 6.8342 3.15783 6.82181 3.15224C6.80943 3.14665 6.79697 3.14122 6.78446 3.13593C6.77195 3.13065 6.75936 3.12553 6.74672 3.12056C6.73407 3.11559 6.72137 3.11077 6.70861 3.10611C6.69586 3.10145 6.68303 3.09695 6.67015 3.09262C6.65729 3.08828 6.64435 3.0841 6.63138 3.08007C6.6184 3.07605 6.60537 3.07219 6.5923 3.06849C6.57923 3.06478 6.56612 3.06124 6.55296 3.05786C6.53979 3.05449 6.5266 3.05128 6.51335 3.04823C6.50012 3.04518 6.48684 3.04228 6.47354 3.03956C6.46022 3.03684 6.44688 3.03428 6.43351 3.03189C6.42014 3.0295 6.40674 3.02725 6.3933 3.02519C6.37987 3.02312 6.36642 3.02124 6.35295 3.0195C6.33947 3.01777 6.32598 3.01621 6.31247 3.0148C6.29895 3.0134 6.28543 3.01217 6.27188 3.01111C6.25833 3.01004 6.24478 3.00914 6.2312 3.00841C6.21764 3.00768 6.20406 3.00711 6.19049 3.00672C6.17691 3.00632 6.16332 3.00609 6.14973 3.00603C6.13616 3.00597 6.12257 3.00608 6.10898 3.00635C6.0954 3.00662 6.08182 3.00706 6.06825 3.00768C6.05467 3.00829 6.04111 3.00906 6.02756 3.01ZM5.92256 7.546C5.91333 7.54575 5.90412 7.54574 5.8949 7.54596C5.88567 7.54619 5.87647 7.54664 5.86727 7.54734C5.85807 7.54804 5.84891 7.54898 5.83976 7.55014C5.83062 7.5513 5.8215 7.55271 5.81242 7.55434C5.80334 7.55598 5.79432 7.55785 5.78534 7.55994C5.77635 7.56204 5.76744 7.56437 5.75858 7.56693C5.74971 7.56949 5.74092 7.57226 5.73221 7.57527C5.72348 7.57828 5.71484 7.58151 5.7063 7.58496C5.69775 7.58841 5.68929 7.59207 5.68092 7.59597C5.67256 7.59985 5.6643 7.60395 5.65615 7.60826C5.64799 7.61257 5.63995 7.61708 5.63203 7.6218C5.62412 7.62651 5.61631 7.63143 5.60864 7.63656C5.60097 7.64169 5.59344 7.64701 5.58604 7.65252C5.57864 7.65803 5.5714 7.66371 5.56429 7.66959C5.55719 7.67549 5.55025 7.68154 5.54345 7.68778C5.53666 7.69401 5.53003 7.70042 5.52356 7.707C5.51692 7.71323 5.51045 7.71963 5.50415 7.72621C5.49784 7.73278 5.49173 7.73952 5.4858 7.74643C5.47985 7.75333 5.47411 7.76039 5.46854 7.76759C5.46298 7.7748 5.45762 7.78215 5.45245 7.78966C5.44729 7.79717 5.44232 7.80479 5.43756 7.81255C5.43281 7.82031 5.42825 7.8282 5.42392 7.8362C5.41959 7.84421 5.41546 7.85233 5.41156 7.86055C5.40765 7.86878 5.40397 7.8771 5.40051 7.88553C5.39705 7.89395 5.39381 7.90245 5.39081 7.91105C5.38781 7.91965 5.38504 7.92832 5.38249 7.93706C5.37995 7.94581 5.37764 7.95461 5.37558 7.96347C5.37351 7.97234 5.37168 7.98126 5.37008 7.99023C5.36848 7.99918 5.36713 8.00819 5.36602 8.01723C5.36491 8.02627 5.36404 8.03533 5.36341 8.04441C5.36278 8.0535 5.3624 8.06259 5.36226 8.0717C5.36211 8.0808 5.36222 8.08991 5.36256 8.099C5.36231 8.10821 5.3623 8.11743 5.36252 8.12666C5.36275 8.13589 5.3632 8.14509 5.3639 8.15429C5.3646 8.16348 5.36554 8.17265 5.3667 8.1818C5.36787 8.19094 5.36927 8.20006 5.3709 8.20914C5.37254 8.2182 5.37441 8.22724 5.37651 8.23622C5.3786 8.24521 5.38094 8.25412 5.38349 8.26298C5.38605 8.27185 5.38882 8.28064 5.39183 8.28935C5.39484 8.29808 5.39807 8.30672 5.40153 8.31526C5.40497 8.32381 5.40863 8.33227 5.41253 8.34064C5.41641 8.349 5.42052 8.35726 5.42482 8.36541C5.42913 8.37357 5.43364 8.38161 5.43836 8.38953C5.44307 8.39744 5.448 8.40525 5.45312 8.41292C5.45825 8.42059 5.46357 8.42812 5.46908 8.43552C5.47459 8.44291 5.48028 8.45016 5.48615 8.45727C5.49205 8.46437 5.4981 8.47131 5.50434 8.47811C5.51057 8.4849 5.51698 8.49153 5.52356 8.498C5.53022 8.5043 5.53703 8.51043 5.54399 8.5164C5.55093 8.52238 5.55801 8.52817 5.56525 8.53381C5.57248 8.53945 5.57983 8.54491 5.58731 8.5502C5.5948 8.55549 5.60241 8.56059 5.61013 8.56553C5.61786 8.57046 5.6257 8.57519 5.63365 8.57974C5.6416 8.5843 5.64966 8.58867 5.65782 8.59285C5.66598 8.59702 5.67422 8.601 5.68258 8.60479C5.69092 8.60858 5.69935 8.61216 5.70787 8.61555C5.71639 8.61894 5.72497 8.62213 5.73364 8.62509C5.74231 8.62807 5.75105 8.63085 5.75984 8.63342C5.76863 8.63599 5.77749 8.63834 5.7864 8.64049C5.7953 8.64263 5.80426 8.64458 5.81327 8.6463C5.82226 8.64802 5.8313 8.64954 5.84038 8.65084C5.84944 8.65214 5.85855 8.65322 5.86767 8.65408C5.87679 8.65494 5.88593 8.65559 5.89508 8.65602C5.90424 8.65646 5.9134 8.65668 5.92256 8.65668C5.93173 8.65668 5.94089 8.65646 5.95004 8.65602C5.95919 8.65559 5.96833 8.65494 5.97745 8.65408C5.98657 8.65322 5.99568 8.65214 6.00476 8.65084C6.01382 8.64954 6.02286 8.64802 6.03187 8.6463C6.04086 8.64458 6.04982 8.64263 6.05873 8.64049C6.06763 8.63834 6.07649 8.63599 6.08528 8.63342C6.09409 8.63085 6.10282 8.62807 6.11148 8.62511C6.12015 8.62213 6.12875 8.61894 6.13726 8.61555C6.14578 8.61216 6.1542 8.60858 6.16256 8.60479C6.1709 8.601 6.17914 8.59702 6.1873 8.59285C6.19547 8.58867 6.20352 8.5843 6.21147 8.57974C6.21942 8.57519 6.22727 8.57045 6.23499 8.56553C6.24271 8.56059 6.25033 8.55549 6.25781 8.5502C6.26529 8.54491 6.27264 8.53945 6.27987 8.53381C6.28711 8.52817 6.29419 8.52238 6.30113 8.5164C6.30809 8.51043 6.3149 8.5043 6.32156 8.498C6.32849 8.49159 6.33525 8.48498 6.34182 8.4782C6.3484 8.47142 6.3548 8.46446 6.36099 8.45734C6.3672 8.45022 6.3732 8.44293 6.37901 8.43548C6.38482 8.42803 6.39043 8.42043 6.39583 8.41267C6.40123 8.40492 6.40641 8.39702 6.41137 8.38899C6.41635 8.38097 6.42111 8.37281 6.42563 8.36451C6.43016 8.35622 6.43446 8.34781 6.43854 8.3393C6.44263 8.33078 6.44647 8.32215 6.45008 8.31342C6.45369 8.30469 6.45706 8.29587 6.46019 8.28696C6.46332 8.27805 6.46622 8.26905 6.46887 8.25999C6.47153 8.25092 6.47393 8.2418 6.47609 8.2326C6.47825 8.2234 6.48015 8.21414 6.48181 8.20485C6.48348 8.19555 6.48488 8.18621 6.48603 8.17683C6.4872 8.16745 6.4881 8.15805 6.48874 8.14863C6.48938 8.13921 6.48978 8.12978 6.48992 8.12033C6.49005 8.11088 6.48993 8.10145 6.48956 8.092C6.48968 8.08292 6.48959 8.07384 6.48926 8.06478C6.48893 8.05571 6.48837 8.04665 6.48759 8.03761C6.48681 8.02858 6.4858 8.01955 6.48456 8.01057C6.48331 8.00159 6.48184 7.99263 6.48015 7.9837C6.47846 7.97479 6.47654 7.96593 6.4744 7.95711C6.47225 7.94829 6.46989 7.93953 6.4673 7.93084C6.46472 7.92213 6.46193 7.9135 6.45891 7.90494C6.45589 7.89638 6.45265 7.88791 6.4492 7.87951C6.44576 7.87112 6.44211 7.86282 6.43824 7.8546C6.43437 7.8464 6.43029 7.83829 6.42601 7.83028C6.42173 7.82228 6.41726 7.81439 6.41259 7.80661C6.40791 7.79883 6.40305 7.79118 6.39797 7.78364C6.39291 7.77611 6.38766 7.76871 6.38224 7.76144C6.37679 7.75418 6.37118 7.74706 6.36538 7.74007C6.35958 7.73309 6.35362 7.72625 6.34748 7.71956C6.34134 7.71288 6.33503 7.70636 6.32856 7.7C6.32186 7.69356 6.315 7.68728 6.30798 7.68117C6.30097 7.67508 6.29379 7.66916 6.28648 7.66341C6.27916 7.65768 6.2717 7.65213 6.26411 7.64676C6.25652 7.6414 6.2488 7.63623 6.24094 7.63127C6.23308 7.62629 6.22511 7.62152 6.217 7.61696C6.2089 7.61238 6.2007 7.60802 6.19238 7.60386C6.18405 7.5997 6.17564 7.59577 6.16712 7.59203C6.15861 7.5883 6.15001 7.58477 6.14131 7.58148C6.13262 7.57818 6.12384 7.57511 6.11499 7.57225C6.10615 7.56939 6.09723 7.56677 6.08825 7.56436C6.07927 7.56195 6.07023 7.55978 6.06114 7.55783C6.05205 7.55587 6.0429 7.55416 6.03373 7.55267C6.02455 7.55118 6.01534 7.54992 6.0061 7.5489C5.99685 7.54787 5.9876 7.54709 5.97831 7.54653C5.96903 7.54597 5.95975 7.54566 5.95044 7.54556C5.94114 7.54547 5.93184 7.54562 5.92256 7.546Z"   fill="#182B50" ></path></svg>