<svg xmlns="http://www.w3.org/2000/svg" xmlns:xlink="http://www.w3.org/1999/xlink" width="13.5" height="13.602783203125" viewBox="0 0 13.5 13.602783203125" fill="none"><path d="M4.72544 0.385226L1.09575 0.385226C0.479392 0.385226 0 0.864618 0 1.48097L0 5.11066C0 5.72702 0.479392 6.20641 1.09575 6.20641L4.72544 6.20641C5.3418 6.20641 5.82119 5.72702 5.82119 5.11066L5.82119 1.48097C5.85544 0.864618 5.3418 0.385226 4.72544 0.385226ZM9.38239 6.03519C9.65633 6.30914 9.9645 6.41186 10.3069 6.41186C10.6494 6.41186 10.9918 6.2749 11.2315 6.03519L13.1148 4.15188C13.6284 3.63824 13.6284 2.78219 13.1148 2.26855L11.2315 0.385226C10.7178 -0.128409 9.86178 -0.128409 9.34814 0.385226L7.5333 2.26855C7.01967 2.78219 7.01967 3.63824 7.5333 4.15188L9.38239 6.03519ZM8.25239 3.02188L10.1357 1.13856C10.17 1.07007 10.2727 1.03583 10.3412 1.03583C10.4097 1.03583 10.4781 1.07007 10.5466 1.13856L12.4299 3.02188C12.5327 3.12461 12.5327 3.33006 12.4299 3.43279L10.5466 5.31611C10.4439 5.41883 10.2384 5.41883 10.1357 5.31611L8.25239 3.43279C8.11542 3.29582 8.11542 3.12461 8.25239 3.02188ZM4.72544 7.78155L1.09575 7.78155C0.479392 7.78155 0 8.26094 0 8.8773L0 12.507C0 13.1234 0.479392 13.6027 1.09575 13.6027L4.72544 13.6027C5.3418 13.6027 5.82119 13.1234 5.82119 12.507L5.82119 8.8773C5.85544 8.26094 5.3418 7.78155 4.72544 7.78155ZM12.156 7.78155L8.52633 7.78155C7.90997 7.78155 7.43058 8.26094 7.43058 8.8773L7.43058 12.507C7.43058 13.1234 7.90997 13.6027 8.52633 13.6027L12.156 13.6027C12.7724 13.6027 13.2518 13.1234 13.2518 12.507L13.2518 8.8773C13.2518 8.26094 12.7724 7.78155 12.156 7.78155Z"   fill="currentColor" ></path></svg>