<svg t="1742458020978" class="icon" viewBox="0 0 1024 1024" version="1.1" xmlns="http://www.w3.org/2000/svg"
  p-id="36133" width="32" height="32">
  <path
    d="M421.888 460.8h-337.92a35.84 35.84 0 0 1-35.84-35.84V87.04a35.84 35.84 0 0 1 35.84-35.84h337.92a35.84 35.84 0 0 1 35.84 35.84v337.92a35.84 35.84 0 0 1-35.84 35.84z m-322.56-51.2h307.2V102.4h-307.2zM933.888 460.8h-337.92a35.84 35.84 0 0 1-35.84-35.84V87.04a35.84 35.84 0 0 1 35.84-35.84h337.92a35.84 35.84 0 0 1 35.84 35.84v337.92a35.84 35.84 0 0 1-35.84 35.84z m-322.56-51.2h307.2V102.4h-307.2zM421.888 972.8h-337.92a35.84 35.84 0 0 1-35.84-35.84v-337.92a35.84 35.84 0 0 1 35.84-35.84h337.92a35.84 35.84 0 0 1 35.84 35.84v337.92a35.84 35.84 0 0 1-35.84 35.84z m-322.56-51.2h307.2v-307.2h-307.2zM933.888 972.8h-337.92a35.84 35.84 0 0 1-35.84-35.84v-337.92a35.84 35.84 0 0 1 35.84-35.84h337.92a35.84 35.84 0 0 1 35.84 35.84v337.92a35.84 35.84 0 0 1-35.84 35.84z m-322.56-51.2h307.2v-307.2h-307.2z"
    p-id="36134"></path>
</svg>
