<svg t="1742352043472" class="icon" viewBox="0 0 1024 1024" version="1.1" xmlns="http://www.w3.org/2000/svg" p-id="2698"
  width="32" height="32">
  <path
    d="M711.68 406.016L631.466667 143.36l74.581333-55.978667a25.6 25.6 0 0 0-15.36-46.08h-356.693333a25.6 25.6 0 0 0-15.36 46.08L392.533333 143.36l-80.384 263.509333c-31.914667 22.698667-136.533333 104.277333-136.533333 194.218667a25.6 25.6 0 0 0 25.6 25.6h201.728l84.309333 336.725333A25.258667 25.258667 0 0 0 512 982.698667a25.6 25.6 0 0 0 24.917333-19.285334l84.138667-336.725333h202.581333a25.6 25.6 0 0 0 25.6-25.6c0-94.890667-82.432-161.28-137.557333-195.072z"
    p-id="2699"></path>
</svg>
