<svg xmlns="http://www.w3.org/2000/svg" xmlns:xlink="http://www.w3.org/1999/xlink" width="13.65625" height="13.634765625" viewBox="0 0 13.65625 13.634765625" fill="none"><path d="M5.27 12.4327C5.57933 13.4207 6.11667 13.8427 7.17667 13.5367L7.20333 13.5281C7.51333 13.4327 7.87 13.2514 8.20467 12.9474C8.73133 12.4674 9.04467 11.8021 9.04467 10.9661C9.04467 10.2194 9.00133 9.75806 8.87467 9.23473L8.87067 9.22006L11.6127 9.22006C13.2887 9.22006 13.9547 8.08941 13.5333 6.20941L13.4973 6.05541L13.412 5.77406L13.09 4.72541L12.9393 4.24606L12.796 3.79806L12.5293 2.99141L12.3473 2.46606L12.2347 2.15273L12.0787 1.74073L11.9833 1.50273C11.522 0.389406 10.57 -0.121938 9.32533 0.0247345L3.27667 0.474734C3.23823 0.476766 3.19978 0.478531 3.16133 0.480062L2.92133 0.485406L2.24067 0.485406L2.04533 0.488734L1.88933 0.495406L1.75933 0.507406L1.70133 0.516063L1.59 0.538062L1.41 0.585406C0.482672 0.860734 0 1.64673 0 2.76673L0 7.19673C0 8.61141 0.858672 9.41873 2.32133 9.41873L3.50533 9.41941L3.58667 9.48141C3.64434 9.52898 3.70083 9.57794 3.75612 9.62828C3.81141 9.67863 3.86542 9.7303 3.91819 9.78327C3.97095 9.83625 4.02239 9.89048 4.0725 9.94598C4.12261 10.0015 4.17134 10.0582 4.21867 10.116C4.26602 10.1739 4.31191 10.2329 4.35636 10.2931C4.40081 10.3532 4.44378 10.4144 4.48523 10.4766C4.52669 10.5388 4.56661 10.602 4.60498 10.6662C4.64336 10.7304 4.68014 10.7954 4.71533 10.8614L4.81067 11.0481C4.906 11.2441 4.984 11.4494 5.058 11.6887L5.07 11.7294L5.27 12.4327ZM6.65533 12.3067C6.62667 12.3134 6.614 12.3041 6.6 12.2634L6.53933 12.0301L6.37267 11.4294L6.33267 11.2961C6.28997 11.1537 6.2418 11.0131 6.18816 10.8745C6.13452 10.7358 6.07558 10.5995 6.01133 10.4654C5.97531 10.3916 5.93781 10.3186 5.89883 10.2463C5.85984 10.174 5.81939 10.1025 5.7775 10.0319C5.73561 9.96128 5.6923 9.89152 5.64756 9.82264C5.60283 9.75377 5.55672 9.68583 5.50922 9.61883C5.46173 9.55183 5.41289 9.48583 5.36272 9.42081C5.31255 9.35581 5.26106 9.29184 5.20828 9.22892C5.15552 9.166 5.10147 9.10417 5.04617 9.04345C4.99087 8.98273 4.93437 8.92317 4.87667 8.86473C4.75931 8.74305 4.6363 8.62736 4.50766 8.51764C4.37902 8.40795 4.24536 8.30475 4.10667 8.20806L4.19267 8.26941L4.19267 1.74741L9.45333 1.35141C10.108 1.27473 10.4787 1.44673 10.7067 1.91541L10.7513 2.01273L10.8413 2.23741L10.99 2.63073L11.098 2.93206L11.2733 3.43941L11.3993 3.81541L11.6707 4.65541L11.9707 5.61406L12.212 6.40873C12.5087 7.59741 12.334 7.88673 11.6127 7.88673L8.21133 7.88673C8.19472 7.88673 8.17811 7.88722 8.16152 7.88819C8.14492 7.88917 8.12838 7.89064 8.11186 7.89259C8.09536 7.89456 8.07892 7.89702 8.06256 7.89995C8.0462 7.90291 8.02994 7.90633 8.01378 7.91023C7.99762 7.91414 7.98161 7.91853 7.96572 7.92339C7.94983 7.92827 7.93408 7.93359 7.9185 7.93937C7.90292 7.94519 7.88753 7.95144 7.87233 7.95814C7.85712 7.96486 7.84212 7.97203 7.82734 7.97963C7.81258 7.98725 7.79803 7.99528 7.78373 8.00375C7.76944 8.01222 7.75539 8.02111 7.74162 8.03042C7.72786 8.03973 7.71438 8.04944 7.70117 8.05955C7.68797 8.06966 7.67509 8.08014 7.66252 8.09102C7.64995 8.10189 7.63772 8.11314 7.62581 8.12473C7.61392 8.13634 7.60238 8.1483 7.59117 8.16058C7.57998 8.17287 7.56917 8.18548 7.55873 8.19842C7.5483 8.21136 7.53825 8.22459 7.52859 8.23812C7.51894 8.25166 7.5097 8.26547 7.50087 8.27955C7.49205 8.29364 7.48364 8.30797 7.47566 8.32255C7.46767 8.33714 7.46014 8.35194 7.45305 8.36697C7.44595 8.382 7.43931 8.39723 7.43313 8.41266C7.42692 8.42808 7.4212 8.44367 7.41594 8.45944C7.41067 8.47522 7.40589 8.49113 7.40158 8.50717C7.39725 8.52323 7.39342 8.53939 7.39006 8.55567C7.3867 8.57195 7.38384 8.58833 7.38147 8.60476C7.37909 8.62122 7.3772 8.63772 7.3758 8.65428C7.37441 8.67084 7.3735 8.68744 7.37309 8.70406C7.37267 8.72069 7.37277 8.7373 7.37334 8.75391C7.37392 8.77052 7.37498 8.78709 7.37656 8.80364C7.37813 8.8202 7.38017 8.83669 7.38272 8.85309C7.38527 8.86953 7.38831 8.88586 7.39183 8.90211C7.39534 8.91836 7.39933 8.93448 7.40381 8.95048C7.4083 8.9665 7.41325 8.98236 7.41867 8.99806L7.45267 9.09806L7.50467 9.26873C7.66533 9.82741 7.71133 10.1927 7.71133 10.9661C7.71133 11.7227 7.29133 12.1061 6.82 12.2514L6.762 12.2694L6.65533 12.3067ZM2.85933 8.08606L2.322 8.08606C1.578 8.08606 1.334 7.85606 1.334 7.19673L1.334 2.76673C1.334 2.17273 1.48933 1.93341 1.862 1.84473L1.88533 1.83941L1.944 1.83073L2.024 1.82406L2.20467 1.82006L2.65133 1.82006L2.85933 1.81873L2.85933 8.08541L2.85933 8.08606Z"   fill="#D43030" ></path></svg>