<svg xmlns="http://www.w3.org/2000/svg" xmlns:xlink="http://www.w3.org/1999/xlink" width="13.9906005859375" height="13.990631103515625" viewBox="0 0 13.9906005859375 13.990631103515625" fill="none"><path d="M11.5437 9.46563L11 7.67969C10.9391 7.48281 10.7312 7.37188 10.5344 7.43125L8.74844 7.975C8.65 8.00469 8.57187 8.07344 8.52812 8.15781L9.36719 8.60625C8.82656 9.43125 7.89219 9.97656 6.83125 9.97656C5.30625 9.97656 4.04688 8.84844 3.83594 7.38125L2.4375 7.38125C2.65625 9.61563 4.53906 11.3609 6.83281 11.3609C8.42344 11.3609 9.81406 10.5188 10.5906 9.25625L11.5172 9.75C11.5609 9.66563 11.5734 9.56406 11.5437 9.46563ZM2.45312 4.51563L2.99688 6.30156C3.05781 6.49844 3.26562 6.60938 3.4625 6.55L5.24844 6.00625C5.34688 5.97656 5.425 5.90938 5.46875 5.825L4.62969 5.37656C5.17031 4.55156 6.10469 4.00625 7.16563 4.00625C8.69063 4.00625 9.95 5.13438 10.1609 6.60156L11.5594 6.60156C11.3406 4.36719 9.45625 2.62031 7.16406 2.62031C5.57344 2.62031 4.18281 3.4625 3.40625 4.725L2.47969 4.23125C2.4375 4.31563 2.42344 4.41719 2.45312 4.51563ZM6.99531 0C10.8531 0 13.9906 3.13906 13.9906 6.99531C13.9906 10.8531 10.8516 13.9906 6.99531 13.9906C3.1375 13.9906 0 10.8516 0 6.99531C0 3.13906 3.13906 0 6.99531 0Z"   fill="currentColor" ></path></svg>