<svg xmlns="http://www.w3.org/2000/svg" xmlns:xlink="http://www.w3.org/1999/xlink" width="16" height="16" viewBox="0 0 16 16" fill="none"><path d="M7.99999 10.5289C9.74298 10.5289 11.1611 9.11077 11.1611 7.36778L11.1611 3.16109C11.1611 1.41812 9.74298 0 7.99999 0C6.25701 0 4.8389 1.41812 4.8389 3.16109L4.8389 7.36778C4.8389 9.11077 6.25701 10.5289 7.99999 10.5289ZM11.9545 11.3223C13.0108 10.266 13.5927 8.86152 13.5927 7.36778C13.5927 6.96486 13.2661 6.6383 12.8632 6.6383C12.4603 6.6383 12.1337 6.96486 12.1337 7.36778C12.1337 9.64717 10.2794 11.5015 7.99999 11.5015C5.7206 11.5015 3.86626 9.64717 3.86626 7.36778C3.86626 6.96486 3.53969 6.6383 3.13677 6.6383C2.73385 6.6383 2.40729 6.96486 2.40729 7.36778C2.40729 8.86177 2.98893 10.266 4.04546 11.3223C4.9279 12.2047 6.05324 12.7555 7.27051 12.9133L7.27051 14.541L4.96048 14.541C4.55755 14.541 4.23099 14.8676 4.23099 15.2705C4.23099 15.6734 4.55755 16 4.96048 16L11.0395 16C11.4424 16 11.769 15.6734 11.769 15.2705C11.769 14.8676 11.4424 14.541 11.0395 14.541L8.72948 14.541L8.72948 12.9133C9.94698 12.7557 11.0723 12.2047 11.9545 11.3223Z"   fill="currentColor" ></path></svg>