<svg xmlns="http://www.w3.org/2000/svg" xmlns:xlink="http://www.w3.org/1999/xlink" width="16" height="14.8148193359375" viewBox="0 0 16 14.8148193359375" fill="none"><path d="M13.9086 14.7712L2.0407 14.7712C1.24484 14.7712 0.60549 14.4572 0.28619 13.9096C-0.0331969 13.362 0.00566305 12.6467 0.393192 11.9477L6.38118 1.14797C6.77095 0.443887 7.35057 0.0403137 7.97068 0.0403137C8.59086 0.0403137 9.1699 0.443381 9.56077 1.14684L15.555 11.9488C15.9424 12.6478 15.9825 13.3626 15.6626 13.9101C15.3438 14.4577 14.7039 14.7712 13.9086 14.7712ZM7.97127 1.17401C7.77411 1.17401 7.54825 1.3707 7.36517 1.70008L1.37721 12.501C1.18959 12.8399 1.14567 13.1444 1.25773 13.3365C1.3699 13.5281 1.65541 13.6381 2.0407 13.6381L13.9086 13.6381C14.2944 13.6381 14.5794 13.5287 14.6916 13.3365C14.803 13.1449 14.7597 12.8405 14.5716 12.5016L8.57736 1.70006C8.39481 1.3707 8.16784 1.17401 7.97127 1.17401ZM7.97464 9.65705C7.66376 9.65705 7.41142 9.40364 7.41142 9.09018L7.41142 3.98848C7.41142 3.67554 7.66376 3.42159 7.97464 3.42159C8.28558 3.42159 8.53792 3.67556 8.53792 3.98848L8.53792 9.09018C8.53792 9.40364 8.28558 9.65705 7.97464 9.65705ZM7.97061 12.4279C8.45531 12.4279 8.84825 12.0318 8.84825 11.5431C8.84825 11.0544 8.45531 10.6583 7.97061 10.6583C7.4859 10.6583 7.09296 11.0544 7.09296 11.5431C7.09296 12.0318 7.4859 12.4279 7.97061 12.4279L7.97061 12.4279Z"   fill="#EE7702" ></path></svg>