<svg xmlns="http://www.w3.org/2000/svg" xmlns:xlink="http://www.w3.org/1999/xlink" width="24" height="24" viewBox="0 0 24 24" fill="none">
<path d="M2.67 0C2.58267 0 2.49692 0.01 2.41 0.01C2.32308 0.01 2.23567 0.03296 2.15 0.05C2.06433 0.0670399 1.97357 0.0846491 1.89 0.11C1.80643 0.135351 1.73069 0.166577 1.65 0.2C1.56932 0.233423 1.48703 0.268827 1.41 0.31C1.33297 0.351164 1.26261 0.401476 1.19 0.45C1.11738 0.498524 1.03751 0.554596 0.97 0.61C0.902489 0.665404 0.841751 0.71824 0.78 0.78C0.71824 0.841751 0.665404 0.902489 0.61 0.97C0.554596 1.03751 0.498524 1.11738 0.45 1.19C0.401476 1.26261 0.351164 1.33297 0.31 1.41C0.268827 1.48703 0.233423 1.56932 0.2 1.65C0.166577 1.73069 0.135351 1.80643 0.11 1.89C0.0846491 1.97357 0.0670399 2.06433 0.05 2.15C0.03296 2.23567 0.01 2.32308 0.01 2.41C0.01 2.49692 0 2.58267 0 2.67L0 5.33C0 5.41733 0.01 5.50308 0.01 5.59C0.01 5.67692 0.03296 5.76433 0.05 5.85C0.0670399 5.93567 0.0846491 6.02643 0.11 6.11C0.135351 6.19357 0.166577 6.26931 0.2 6.35C0.233423 6.43068 0.268827 6.51297 0.31 6.59C0.351164 6.66703 0.401476 6.73737 0.45 6.81C0.498524 6.88261 0.554596 6.96248 0.61 7.03C0.665404 7.09751 0.71824 7.15825 0.78 7.22C0.841751 7.28176 0.902489 7.3346 0.97 7.39C1.03751 7.4454 1.11738 7.50148 1.19 7.55C1.26261 7.59852 1.33297 7.64884 1.41 7.69C1.48703 7.73117 1.56932 7.76657 1.65 7.8C1.73069 7.83343 1.80643 7.86465 1.89 7.89C1.97357 7.91535 2.06433 7.93296 2.15 7.95C2.23567 7.96704 2.32308 7.99 2.41 7.99C2.49692 7.99 2.58267 8 2.67 8L8 8C8.08733 8 8.17308 7.99 8.26 7.99C8.34692 7.99 8.43433 7.96704 8.52 7.95C8.60567 7.93296 8.68643 7.91535 8.77 7.89C8.85357 7.86465 8.93931 7.83343 9.02 7.8C9.10068 7.76657 9.18297 7.73117 9.26 7.69C9.33699 7.64884 9.40737 7.59852 9.48 7.55C9.55263 7.50148 9.62244 7.4454 9.69 7.39C9.75747 7.3346 9.82823 7.28176 9.89 7.22C9.95177 7.15825 10.0046 7.09751 10.06 7.03C10.1155 6.96248 10.1716 6.88261 10.22 6.81C10.2685 6.73737 10.3088 6.66703 10.35 6.59C10.3912 6.51297 10.4266 6.43068 10.46 6.35C10.4934 6.26931 10.5247 6.19357 10.55 6.11C10.5753 6.02643 10.6029 5.93567 10.62 5.85C10.637 5.76433 10.65 5.67692 10.65 5.59C10.65 5.50308 10.67 5.41733 10.67 5.33L10.67 2.67C10.67 2.58267 10.65 2.49692 10.65 2.41C10.65 2.32308 10.637 2.23567 10.62 2.15C10.6029 2.06433 10.5753 1.97357 10.55 1.89C10.5247 1.80643 10.4934 1.73069 10.46 1.65C10.4266 1.56932 10.3912 1.48703 10.35 1.41C10.3088 1.33297 10.2685 1.26261 10.22 1.19C10.1716 1.11738 10.1155 1.03751 10.06 0.97C10.0046 0.902489 9.95177 0.841751 9.89 0.78C9.82823 0.71824 9.75747 0.665404 9.69 0.61C9.62244 0.554596 9.55263 0.498524 9.48 0.45C9.40737 0.401476 9.33699 0.351164 9.26 0.31C9.18297 0.268827 9.10068 0.233423 9.02 0.2C8.93931 0.166577 8.85357 0.135351 8.77 0.11C8.68643 0.0846491 8.60567 0.0670399 8.52 0.05C8.43435 0.03296 8.34692 0.01 8.26 0.01C8.17308 0.01 8.08733 0 8 0L2.67 0ZM21.33 24C21.4173 24 21.5032 23.99 21.59 23.99C21.6769 23.99 21.7643 23.9669 21.85 23.95C21.9356 23.9329 22.0264 23.9153 22.11 23.89C22.1936 23.8647 22.2693 23.8335 22.35 23.8C22.4307 23.7665 22.5129 23.7312 22.59 23.69C22.6669 23.6488 22.7373 23.5985 22.81 23.55C22.8827 23.5015 22.9624 23.4453 23.03 23.39C23.0975 23.3347 23.1583 23.2817 23.22 23.22C23.2817 23.1583 23.3347 23.0975 23.39 23.03C23.4455 22.9624 23.5016 22.8827 23.55 22.81C23.5985 22.7373 23.6488 22.6669 23.69 22.59C23.7312 22.5129 23.7665 22.4307 23.8 22.35C23.8335 22.2693 23.8647 22.1936 23.89 22.11C23.9153 22.0264 23.9329 21.9356 23.95 21.85C23.9669 21.7643 23.99 21.6769 23.99 21.59C23.99 21.5032 24 21.4173 24 21.33L24 18.67C24 18.5827 23.99 18.4968 23.99 18.41C23.99 18.3231 23.9669 18.2357 23.95 18.15C23.9329 18.0644 23.9153 17.9736 23.89 17.89C23.8647 17.8064 23.8335 17.7307 23.8 17.65C23.7665 17.5693 23.7312 17.4871 23.69 17.41C23.6488 17.3331 23.5985 17.2627 23.55 17.19C23.5015 17.1173 23.4453 17.0376 23.39 16.97C23.3347 16.9025 23.2817 16.8417 23.22 16.78C23.1583 16.7183 23.0975 16.6653 23.03 16.61C22.9624 16.5545 22.8827 16.4984 22.81 16.45C22.7373 16.4015 22.6669 16.3512 22.59 16.31C22.5129 16.2688 22.4307 16.2335 22.35 16.2C22.2693 16.1665 22.1936 16.1353 22.11 16.11C22.0264 16.0847 21.9356 16.0671 21.85 16.05C21.7643 16.0331 21.6769 16.01 21.59 16.01C21.5032 16.01 21.4173 16 21.33 16L16 16C15.9127 16 15.8268 16.01 15.74 16.01C15.6531 16.01 15.5657 16.0331 15.48 16.05C15.3944 16.0671 15.3136 16.0847 15.23 16.11C15.1464 16.1353 15.0607 16.1665 14.98 16.2C14.8993 16.2335 14.8171 16.2688 14.74 16.31C14.6631 16.3512 14.5927 16.4015 14.52 16.45C14.4473 16.4984 14.3776 16.5545 14.31 16.61C14.2425 16.6653 14.1717 16.7183 14.11 16.78C14.0483 16.8417 13.9953 16.9025 13.94 16.97C13.8845 17.0376 13.8284 17.1173 13.78 17.19C13.7315 17.2627 13.6912 17.3331 13.65 17.41C13.6088 17.4871 13.5735 17.5693 13.54 17.65C13.5065 17.7307 13.4753 17.8064 13.45 17.89C13.4247 17.9736 13.3971 18.0644 13.38 18.15C13.3631 18.2357 13.35 18.3231 13.35 18.41C13.35 18.4968 13.33 18.5827 13.33 18.67L13.33 21.33C13.33 21.4173 13.35 21.5032 13.35 21.59C13.35 21.6769 13.3631 21.7643 13.38 21.85C13.3971 21.9356 13.4247 22.0264 13.45 22.11C13.4753 22.1936 13.5065 22.2693 13.54 22.35C13.5735 22.4307 13.6088 22.5129 13.65 22.59C13.6912 22.6669 13.7315 22.7373 13.78 22.81C13.8284 22.8827 13.8845 22.9624 13.94 23.03C13.9953 23.0975 14.0483 23.1583 14.11 23.22C14.1717 23.2817 14.2425 23.3347 14.31 23.39C14.3776 23.4455 14.4473 23.5016 14.52 23.55C14.5927 23.5985 14.6631 23.6488 14.74 23.69C14.8171 23.7312 14.8993 23.7665 14.98 23.8C15.0607 23.8335 15.1464 23.8647 15.23 23.89C15.3136 23.9153 15.3944 23.9329 15.48 23.95C15.5657 23.9669 15.6531 23.99 15.74 23.99C15.8268 23.99 15.9127 24 16 24L21.33 24ZM2.67 10.67C2.58267 10.67 2.49692 10.68 2.41 10.68C2.32308 10.68 2.23567 10.703 2.15 10.72C2.06433 10.7371 1.97357 10.7547 1.89 10.78C1.80643 10.8053 1.73069 10.8366 1.65 10.87C1.56932 10.9034 1.48703 10.9388 1.41 10.98C1.33297 11.0212 1.26261 11.0715 1.19 11.12C1.11738 11.1684 1.03751 11.2145 0.97 11.27C0.902489 11.3254 0.841751 11.3882 0.78 11.45C0.71824 11.5118 0.665404 11.5725 0.61 11.64C0.554596 11.7076 0.498524 11.7774 0.45 11.85C0.401476 11.9226 0.351164 12.003 0.31 12.08C0.268827 12.1571 0.233423 12.2294 0.2 12.31C0.166577 12.3907 0.135351 12.4764 0.11 12.56C0.0846491 12.6436 0.0670399 12.7244 0.05 12.81C0.03296 12.8957 0.01 12.9831 0.01 13.07C0.01 13.1568 0 13.2426 0 13.33L0 21.33C0 21.4173 0.01 21.5032 0.01 21.59C0.01 21.6769 0.03296 21.7643 0.05 21.85C0.0670399 21.9356 0.0846491 22.0264 0.11 22.11C0.135351 22.1936 0.166577 22.2693 0.2 22.35C0.233423 22.4307 0.268827 22.5129 0.31 22.59C0.351164 22.6669 0.401476 22.7373 0.45 22.81C0.498524 22.8827 0.554596 22.9624 0.61 23.03C0.665404 23.0975 0.71824 23.1583 0.78 23.22C0.841751 23.2817 0.902489 23.3347 0.97 23.39C1.03751 23.4455 1.11738 23.5016 1.19 23.55C1.26261 23.5985 1.33297 23.6488 1.41 23.69C1.48703 23.7312 1.56932 23.7665 1.65 23.8C1.73069 23.8335 1.80643 23.8647 1.89 23.89C1.97357 23.9153 2.06433 23.9329 2.15 23.95C2.23567 23.9669 2.32308 23.99 2.41 23.99C2.49692 23.99 2.58267 24 2.67 24L8 24C8.08733 24 8.17308 23.99 8.26 23.99C8.34692 23.99 8.43433 23.9669 8.52 23.95C8.60567 23.9329 8.68643 23.9153 8.77 23.89C8.85357 23.8647 8.93931 23.8335 9.02 23.8C9.10068 23.7665 9.18297 23.7312 9.26 23.69C9.33699 23.6488 9.40737 23.5985 9.48 23.55C9.55263 23.5015 9.62244 23.4453 9.69 23.39C9.75747 23.3347 9.82823 23.2817 9.89 23.22C9.95177 23.1583 10.0046 23.0975 10.06 23.03C10.1155 22.9624 10.1716 22.8827 10.22 22.81C10.2685 22.7373 10.3088 22.6669 10.35 22.59C10.3912 22.5129 10.4266 22.4307 10.46 22.35C10.4934 22.2693 10.5247 22.1936 10.55 22.11C10.5753 22.0264 10.6029 21.9356 10.62 21.85C10.637 21.7643 10.65 21.6769 10.65 21.59C10.65 21.5032 10.67 21.4173 10.67 21.33L10.67 13.33C10.67 13.2426 10.65 13.1568 10.65 13.07C10.65 12.9831 10.637 12.8957 10.62 12.81C10.6029 12.7244 10.5753 12.6436 10.55 12.56C10.5247 12.4764 10.4934 12.3907 10.46 12.31C10.4266 12.2294 10.3912 12.1571 10.35 12.08C10.3088 12.003 10.2685 11.9226 10.22 11.85C10.1716 11.7774 10.1155 11.7076 10.06 11.64C10.0046 11.5725 9.95177 11.5118 9.89 11.45C9.82823 11.3882 9.75747 11.3254 9.69 11.27C9.62244 11.2145 9.55263 11.1684 9.48 11.12C9.40737 11.0715 9.33699 11.0212 9.26 10.98C9.18297 10.9388 9.10068 10.9034 9.02 10.87C8.93931 10.8366 8.85357 10.8053 8.77 10.78C8.68643 10.7547 8.60567 10.7371 8.52 10.72C8.43435 10.703 8.34692 10.68 8.26 10.68C8.17308 10.68 8.08733 10.67 8 10.67L2.67 10.67ZM21.33 13.33C21.4173 13.33 21.5032 13.32 21.59 13.32C21.6769 13.32 21.7643 13.297 21.85 13.28C21.9356 13.2629 22.0264 13.2453 22.11 13.22C22.1936 13.1947 22.2693 13.1634 22.35 13.13C22.4307 13.0966 22.5129 13.0612 22.59 13.02C22.6669 12.9788 22.7373 12.9285 22.81 12.88C22.8827 12.8316 22.9624 12.7855 23.03 12.73C23.0975 12.6746 23.1583 12.6118 23.22 12.55C23.2817 12.4882 23.3347 12.4275 23.39 12.36C23.4455 12.2924 23.5016 12.2226 23.55 12.15C23.5985 12.0774 23.6488 11.997 23.69 11.92C23.7312 11.8429 23.7665 11.7706 23.8 11.69C23.8335 11.6093 23.8647 11.5236 23.89 11.44C23.9153 11.3564 23.9329 11.2756 23.95 11.19C23.9669 11.1043 23.99 11.0169 23.99 10.93C23.99 10.8432 24 10.7574 24 10.67L24 2.67C24 2.58267 23.99 2.49692 23.99 2.41C23.99 2.32308 23.9669 2.23567 23.95 2.15C23.9329 2.06433 23.9153 1.97357 23.89 1.89C23.8647 1.80643 23.8335 1.73069 23.8 1.65C23.7665 1.56932 23.7312 1.48703 23.69 1.41C23.6488 1.33297 23.5985 1.26261 23.55 1.19C23.5015 1.11738 23.4453 1.03751 23.39 0.97C23.3347 0.902489 23.2817 0.841751 23.22 0.78C23.1583 0.71824 23.0975 0.665404 23.03 0.61C22.9624 0.554596 22.8827 0.498524 22.81 0.45C22.7373 0.401476 22.6669 0.351164 22.59 0.31C22.5129 0.268827 22.4307 0.233423 22.35 0.2C22.2693 0.166577 22.1936 0.135351 22.11 0.11C22.0264 0.0846491 21.9356 0.0670399 21.85 0.05C21.7643 0.03296 21.6769 0.01 21.59 0.01C21.5032 0.01 21.4173 0 21.33 0L16 0C15.9127 0 15.8268 0.01 15.74 0.01C15.6531 0.01 15.5657 0.03296 15.48 0.05C15.3944 0.0670399 15.3136 0.0846491 15.23 0.11C15.1464 0.135351 15.0607 0.166577 14.98 0.2C14.8993 0.233423 14.8171 0.268827 14.74 0.31C14.6631 0.351164 14.5927 0.401476 14.52 0.45C14.4473 0.498524 14.3776 0.554596 14.31 0.61C14.2425 0.665404 14.1717 0.71824 14.11 0.78C14.0483 0.841751 13.9953 0.902489 13.94 0.97C13.8845 1.03751 13.8284 1.11738 13.78 1.19C13.7315 1.26261 13.6912 1.33297 13.65 1.41C13.6088 1.48703 13.5735 1.56932 13.54 1.65C13.5065 1.73069 13.4753 1.80643 13.45 1.89C13.4247 1.97357 13.3971 2.06433 13.38 2.15C13.3631 2.23567 13.35 2.32308 13.35 2.41C13.35 2.49692 13.33 2.58267 13.33 2.67L13.33 10.67C13.33 10.7574 13.35 10.8432 13.35 10.93C13.35 11.0169 13.3631 11.1043 13.38 11.19C13.3971 11.2756 13.4247 11.3564 13.45 11.44C13.4753 11.5236 13.5065 11.6093 13.54 11.69C13.5735 11.7706 13.6088 11.8429 13.65 11.92C13.6912 11.997 13.7315 12.0774 13.78 12.15C13.8284 12.2226 13.8845 12.2924 13.94 12.36C13.9953 12.4275 14.0483 12.4882 14.11 12.55C14.1717 12.6118 14.2425 12.6746 14.31 12.73C14.3776 12.7855 14.4473 12.8316 14.52 12.88C14.5927 12.9285 14.6631 12.9788 14.74 13.02C14.8171 13.0612 14.8993 13.0966 14.98 13.13C15.0607 13.1634 15.1464 13.1947 15.23 13.22C15.3136 13.2453 15.3944 13.2629 15.48 13.28C15.5657 13.297 15.6531 13.32 15.74 13.32C15.8268 13.32 15.9127 13.33 16 13.33L21.33 13.33Z"   fill="#858585" >
</path>
</svg>
