<svg xmlns="http://www.w3.org/2000/svg" xmlns:xlink="http://www.w3.org/1999/xlink" width="16" height="16" viewBox="0 0 16 16" fill="none"><path   fill="rgba(29, 30, 31, 1)"  d="M2.33301 2.11675L13.6663 2.11675C14.5224 2.11675 15.2163 2.81071 15.2163 3.66675L15.2163 12.3334C15.2163 13.1895 14.5224 13.8834 13.6663 13.8834L2.33301 13.8834C1.47697 13.8834 0.783008 13.1895 0.783008 12.3334L0.783008 3.66675C0.783008 2.81071 1.47697 2.11675 2.33301 2.11675ZM2.33301 3.21675C2.08448 3.21675 1.88301 3.41822 1.88301 3.66675L1.88301 12.3334C1.88301 12.5819 2.08448 12.7834 2.33301 12.7834L13.6663 12.7834C13.9149 12.7834 14.1163 12.5819 14.1163 12.3334L14.1163 3.66675C14.1163 3.41822 13.9149 3.21675 13.6663 3.21675L2.33301 3.21675Z"></path><path d="M1.33301 3.66675C1.33301 3.11446 1.78072 2.66675 2.33301 2.66675L13.6663 2.66675C14.2186 2.66675 14.6663 3.11446 14.6663 3.66675L14.6663 6.66675L1.33301 6.66675L1.33301 3.66675Z" stroke="rgba(29, 30, 31, 1)" stroke-width="1.1"   ></path><circle transform="matrix(-1.3113400143538456e-7, -1, -1, 1.3113400143538456e-7, 4, 5.333251953125)" cx="0.6666666666666723" cy="0.6666666666666723" r="0.6666666666666723"   fill="#1D1E1F" ></circle><circle transform="matrix(-1.3113400143538456e-7, -1, -1, 1.3113400143538456e-7, 6, 5.333251953125)" cx="0.6666666666666723" cy="0.6666666666666723" r="0.6666666666666723"   fill="#1D1E1F" ></circle></svg>