<svg xmlns="http://www.w3.org/2000/svg" xmlns:xlink="http://www.w3.org/1999/xlink" width="16" height="16" viewBox="0 0 16 16" fill="none"><path d="M13.0096 1C13.0424 1.00029 13.0752 1.00138 13.108 1.00327C13.1408 1.00517 13.1736 1.00787 13.2062 1.01137C13.2389 1.01488 13.2715 1.01918 13.3039 1.02428C13.3363 1.02938 13.3687 1.03527 13.4008 1.04196C13.433 1.04865 13.465 1.05612 13.4968 1.06438C13.5286 1.07264 13.5602 1.08167 13.5915 1.09148C13.6229 1.10128 13.654 1.11185 13.6848 1.12319C13.7156 1.13452 13.7462 1.1466 13.7764 1.15944C13.8066 1.17227 13.8366 1.18584 13.8661 1.20014C13.8957 1.21444 13.9249 1.22946 13.9538 1.24519C13.9826 1.26093 14.011 1.27736 14.0391 1.29449C14.0671 1.31162 14.0947 1.32943 14.1219 1.34791C14.149 1.3664 14.1757 1.38554 14.2019 1.40533C14.2281 1.42513 14.2539 1.44556 14.2791 1.46661C14.3043 1.48767 14.329 1.50933 14.3531 1.5316C14.3773 1.55387 14.4009 1.57672 14.4239 1.60015C14.4469 1.62358 14.4694 1.64755 14.4912 1.67208C14.5131 1.69661 14.5343 1.72166 14.5549 1.74723C14.5756 1.77281 14.5956 1.79887 14.6149 1.82542C14.6343 1.85197 14.6529 1.87899 14.6709 1.90645C14.689 1.93393 14.7064 1.96182 14.7229 1.99014C14.7396 2.01846 14.7556 2.04717 14.7708 2.07628C14.786 2.10538 14.8006 2.13484 14.8144 2.16466C14.8282 2.19447 14.8412 2.22461 14.8535 2.25507C14.8658 2.28552 14.8774 2.31626 14.8882 2.34729C14.899 2.37831 14.909 2.40959 14.9183 2.4411C14.9276 2.47262 14.9361 2.50435 14.9437 2.53627C14.9515 2.56821 14.9584 2.60031 14.9645 2.63259C14.9707 2.66487 14.9761 2.69727 14.9806 2.72981C14.9852 2.76235 14.989 2.79498 14.9919 2.8277C14.9947 2.86041 14.9969 2.89318 14.9983 2.92601C14.9996 2.95884 15.0002 2.99167 14.9999 3.02453L14.9999 11.2755C15.0002 11.3083 14.9996 11.3412 14.9983 11.374C14.9969 11.4068 14.9947 11.4396 14.9919 11.4723C14.989 11.505 14.9852 11.5377 14.9806 11.5702C14.9761 11.6028 14.9708 11.6352 14.9646 11.6674C14.9585 11.6997 14.9517 11.7318 14.9439 11.7638C14.9361 11.7957 14.9276 11.8274 14.9184 11.859C14.9091 11.8905 14.8992 11.9218 14.8884 11.9528C14.8776 11.9838 14.8659 12.0146 14.8536 12.045C14.8413 12.0755 14.8283 12.1056 14.8145 12.1355C14.8007 12.1653 14.7861 12.1947 14.7709 12.2239C14.7557 12.253 14.7397 12.2817 14.7231 12.31C14.7065 12.3383 14.6892 12.3662 14.6711 12.3937C14.6531 12.4212 14.6344 12.4482 14.615 12.4748C14.5957 12.5013 14.5757 12.5274 14.5551 12.553C14.5345 12.5785 14.5132 12.6036 14.4914 12.6281C14.4695 12.6527 14.4471 12.6767 14.424 12.7001C14.401 12.7235 14.3774 12.7464 14.3533 12.7686C14.3291 12.7909 14.3044 12.8126 14.2792 12.8336C14.254 12.8547 14.2283 12.8751 14.2021 12.8949C14.1758 12.9147 14.1491 12.9339 14.122 12.9524C14.0948 12.9709 14.0672 12.9887 14.0392 13.0058C14.0111 13.0229 13.9827 13.0394 13.9539 13.0551C13.925 13.0709 13.8958 13.0859 13.8662 13.1002C13.8366 13.1145 13.8067 13.1281 13.7765 13.1409C13.7463 13.1537 13.7157 13.1658 13.6849 13.1771C13.654 13.1885 13.6229 13.1991 13.5916 13.2089C13.5602 13.2187 13.5286 13.2277 13.4968 13.236C13.465 13.2442 13.433 13.2517 13.4009 13.2584C13.3687 13.2651 13.3364 13.271 13.3039 13.2761C13.2715 13.2812 13.2389 13.2855 13.2062 13.289C13.1736 13.2925 13.1408 13.2952 13.108 13.2971C13.0752 13.299 13.0424 13.3001 13.0096 13.3004L9.70405 13.3004L8.03419 14.9998L6.36354 13.3004L2.99037 13.3004C2.95752 13.3001 2.92468 13.299 2.89188 13.2971C2.85908 13.2952 2.82635 13.2925 2.79367 13.289C2.76101 13.2855 2.72845 13.2812 2.69599 13.2761C2.66353 13.271 2.63121 13.2651 2.59904 13.2584C2.56687 13.2517 2.5349 13.2442 2.5031 13.236C2.47128 13.2277 2.4397 13.2187 2.40835 13.2089C2.37699 13.1991 2.34589 13.1885 2.31505 13.1771C2.28421 13.1658 2.25367 13.1537 2.22343 13.1409C2.19318 13.1281 2.16327 13.1145 2.13369 13.1002C2.10411 13.0859 2.0749 13.0709 2.04606 13.0551C2.01722 13.0394 1.98878 13.0229 1.96074 13.0058C1.93271 12.9887 1.90511 12.9709 1.87795 12.9524C1.85079 12.9339 1.8241 12.9147 1.79788 12.8949C1.77165 12.8751 1.74593 12.8547 1.72072 12.8336C1.6955 12.8126 1.67081 12.7909 1.64666 12.7686C1.6225 12.7464 1.59891 12.7235 1.57588 12.7001C1.55285 12.6766 1.5304 12.6527 1.50855 12.6281C1.48669 12.6036 1.46546 12.5785 1.44483 12.553C1.42421 12.5274 1.40422 12.5013 1.38488 12.4748C1.36553 12.4482 1.34685 12.4212 1.32883 12.3937C1.31081 12.3662 1.29348 12.3383 1.27683 12.31C1.26018 12.2817 1.24424 12.253 1.229 12.2239C1.21376 12.1947 1.19925 12.1653 1.18545 12.1355C1.17166 12.1056 1.15861 12.0755 1.1463 12.045C1.13398 12.0146 1.12243 11.9838 1.11162 11.9528C1.10082 11.9218 1.09078 11.8905 1.08152 11.859C1.07225 11.8274 1.06376 11.7957 1.05605 11.7638C1.04834 11.7318 1.04142 11.6997 1.03529 11.6674C1.02915 11.6352 1.02381 11.6028 1.01927 11.5702C1.01473 11.5377 1.01099 11.505 1.00805 11.4723C1.00511 11.4396 1.00297 11.4068 1.00164 11.374C1.00031 11.3412 0.999785 11.3083 1.00007 11.2755L1.00007 3.02453C0.999791 2.99167 1.00032 2.95884 1.00166 2.92601C1.003 2.89318 1.00514 2.86041 1.00808 2.8277C1.01103 2.79498 1.01478 2.76235 1.01932 2.72981C1.02387 2.69727 1.02921 2.66487 1.03535 2.63259C1.04149 2.60031 1.04842 2.56821 1.05613 2.53627C1.06384 2.50435 1.07234 2.47262 1.08161 2.4411C1.09088 2.40959 1.10092 2.37831 1.11173 2.34729C1.12253 2.31626 1.13409 2.28552 1.14641 2.25507C1.15872 2.22461 1.17178 2.19447 1.18557 2.16466C1.19937 2.13484 1.21389 2.10538 1.22913 2.07628C1.24437 2.04717 1.26031 2.01846 1.27696 1.99014C1.29361 1.96182 1.31095 1.93393 1.32897 1.90645C1.34699 1.87899 1.36567 1.85197 1.38502 1.82542C1.40436 1.79887 1.42435 1.77281 1.44497 1.74723C1.46559 1.72166 1.48683 1.69661 1.50869 1.67208C1.53054 1.64755 1.55299 1.62358 1.57602 1.60015C1.59905 1.57672 1.62264 1.55387 1.64679 1.5316C1.67095 1.50933 1.69563 1.48767 1.72085 1.46661C1.74606 1.44555 1.77178 1.42513 1.798 1.40533C1.82422 1.38554 1.85091 1.3664 1.87807 1.34791C1.90523 1.32943 1.93282 1.31162 1.96086 1.29449C1.98889 1.27736 2.01732 1.26093 2.04616 1.24519C2.075 1.22946 2.10421 1.21444 2.13379 1.20014C2.16337 1.18584 2.19327 1.17227 2.22352 1.15944C2.25376 1.1466 2.2843 1.13452 2.31513 1.12319C2.34597 1.11185 2.37707 1.10128 2.40842 1.09148C2.43977 1.08167 2.47135 1.07264 2.50315 1.06438C2.53495 1.05612 2.56693 1.04865 2.5991 1.04196C2.63127 1.03527 2.66357 1.02938 2.69602 1.02428C2.72847 1.01918 2.76104 1.01488 2.7937 1.01137C2.82636 1.00787 2.85909 1.00517 2.89189 1.00327C2.92469 1.00138 2.95752 1.00029 2.99037 1L13.0096 1ZM7.16464 3.61602L5.57839 3.61602L3.1817 10.3332L4.64934 10.3332L5.11406 8.95266L7.58852 8.95266L8.02135 10.3332L9.54343 10.3332L7.16464 3.61602ZM11.6807 3.61602L10.2862 3.61602L10.2862 10.3332L11.6807 10.3332L11.6807 3.61602ZM6.35771 5.15172L7.19653 7.79495L5.49167 7.79495L6.35732 5.15172L6.35771 5.15172Z"   fill="currentColor" ></path></svg>